<svg version="1.1" xmlns="http://www.w3.org/2000/svg" viewBox="-2.9871626706956516 -24.08743747944935 5.6392054832439165 26.965802638281907" fill="none" stroke="black" stroke-width="0.6%" vector-effect="non-scaling-stroke">
    <path d="M -0.99821 -23.08663 A 0.655 0.45268 360 0 1 -0.30407 -22.63476 A 0.655 0.45268 360 0 1 -1.61407 -22.63476 A 0.655 0.45268 360 0 1 -0.99821 -23.08663 Z" />
    <path d="M -1.61407 0.49317 A 0.655 0.45268 180 1 0 -0.30407 0.49317" />
    <path d="M -1.61031 -22.22497 A 0.655 0.45268 180 0 0 -0.30407 -22.27338 A 0.655 0.45268 180 0 0 -0.30412 -22.27902 L -0.30412 -22.26775" />
    <path d="M -1.54714 -19.40366 A 0.805 0.55635 180 0 0 -1.45629 -19.33971" />
    <path d="M -1.98716 -20.77015 L -1.86763 -19.3904 L -1.86763 -20.83589 L 0.12879 -20.9185 L 0.00926 -22.29825 L -0.30407 -22.28529" />
    <path d="M -1.86763 -19.3904 L -1.46214 -19.40717" />
    <path d="M -0.15193 -19.46139 L 0.12879 -19.473 L 0.12879 -20.9185" />
    <path d="M -1.98716 -22.21564 L -1.86763 -20.83589" />
    <path d="M -0.12418 -21.56707 A 0.805 0.55635 0 0 1 -1.73418 -21.56707" />
    <path d="M -1.61407 -22.23108 L -1.98716 -22.21564" />
    <path d="M -0.30407 -22.27898 A 0.805 0.55635 0 0 1 -0.12418 -21.92845 L -0.12418 -21.56707" />
    <path d="M -0.12418 -21.92845 A 0.805 0.55635 0 1 1 -1.73418 -21.92845 L -1.73418 -21.56707" />
    <path d="M -1.73418 -21.92845 A 0.805 0.55635 0 0 1 -1.61031 -22.22497" />
    <path d="M -1.98716 -20.77015 L -1.98716 -22.21564" />
    <path d="M -1.67298 -20.1212 A 0.805 0.58077 175.04881 0 1 -0.06742 -20.22393" />
    <path d="M -1.67142 -20.08497 A 0.805 0.58077 175.04881 0 1 -1.67298 -20.1212" />
    <path d="M -1.6431 -19.77626 A 0.805 0.58077 175.04881 0 1 -0.03754 -19.87899 L -0.06742 -20.22393" />
    <path d="M -0.03754 -19.87899 A 0.805 0.58077 175.04881 0 1 -0.15784 -19.52968" />
    <path d="M -1.46296 -19.41662 A 0.805 0.58077 175.04881 0 1 -1.64153 -19.74003 L -1.67142 -20.08497" />
    <path d="M -1.64153 -19.74003 A 0.805 0.58077 175.04881 0 1 -1.6431 -19.77626" />
    <path d="M -0.83954 -20.28291 A 0.655 0.47255 175.04881 0 1 -0.18698 -19.86604" />
    <path d="M -1.49209 -19.75298 A 0.655 0.47255 175.04881 0 1 -0.83954 -20.28291" />
    <path d="M 0.99821 0.93079 A 0.655 0.47255 175.04881 0 1 1.65077 1.34766 L -0.18698 -19.86604" />
    <path d="M 1.65077 1.34766 A 0.655 0.47255 175.04881 1 1 0.34566 1.46072 L -1.49209 -19.75298" />
    <path d="M 0.34566 1.46072 A 0.655 0.47255 175.04881 0 1 0.99821 0.93079" />
    <path d="M -1.61407 -22.63476 L -1.61407 -22.22081" />
    <path d="M -1.61407 -19.40089 L -1.61407 0.49317" />
    <path d="M -0.30407 -22.63476 L -0.30407 -22.27338" />
    <path d="M -0.30407 -6.03923 L -0.30407 0.49317" />
</svg>