<svg version="1.1" xmlns="http://www.w3.org/2000/svg" viewBox="-3.128186299568669 -22.96509538576385 5.879080098254022 35.90781621702831" fill="none" stroke="black" stroke-width="0.6%" vector-effect="non-scaling-stroke">
    <path d="M -1.67721 0.81361 A 0.655 0.45446 180 0 0 -0.58026 1.14903" />
    <path d="M -1.63229 -8.54383 A 0.805 0.55853 180 0 0 -1.53094 -8.47537" />
    <path d="M -1.9515 -8.52866 L -1.53815 -8.54831" />
    <path d="M -0.22793 -8.61062 L 0.04382 -8.62354 L 0.04382 -10.06381 L -0.09293 -11.44823 L -0.36721 -11.43519" />
    <path d="M -2.08825 -9.91307 L -2.06758 -9.7038" />
    <path d="M -2.04297 -9.45469 L -1.9515 -8.52866 L -1.9515 -9.96893 L 0.04382 -10.06381" />
    <path d="M -1.75695 -9.25804 A 0.805 0.57835 354.3587 0 0 -1.75494 -9.2171" />
    <path d="M -0.15274 -9.37537 A 0.805 0.57835 354.3587 0 0 -1.75695 -9.25804" />
    <path d="M -1.69823 -11.37189 L -2.08825 -11.35335 L -1.9515 -9.96893" />
    <path d="M -2.08825 -9.91307 L -2.08825 -10.17268" />
    <path d="M -2.08825 -10.42296 L -2.08825 -11.35335" />
    <path d="M -2.01394 -10.17621 A 0.125 0.00615 87.2775 0 0 -2.02581 -10.42593" />
    <path d="M -2.01394 -9.45607 A 0.125 0.00615 87.2775 0 0 -2.02581 -9.70579" />
    <path d="M -0.21721 -10.70858 A 0.805 0.55853 360 0 1 -1.82721 -10.70858" />
    <path d="M -1.72277 -8.91194 A 0.805 0.57835 174.3587 0 1 -0.11855 -9.02926 L -0.15274 -9.37537" />
    <path d="M -0.11855 -9.02926 A 0.805 0.57835 174.3587 0 1 -0.23477 -8.67993" />
    <path d="M -1.53843 -8.55115 A 0.805 0.57835 174.3587 0 1 -1.72075 -8.871 L -1.75494 -9.2171" />
    <path d="M -1.72075 -8.871 A 0.805 0.57835 174.3587 0 1 -1.72277 -8.91194" />
    <path d="M 0.08115 -10.27584 A 0.125 0.00615 87.2775 0 0 0.06928 -10.52555 L -0.00146 -10.52219" />
    <path d="M 0.08115 -9.5557 A 0.125 0.00615 87.2775 0 0 0.06928 -9.80542 L 0.04382 -9.80421" />
    <path d="M -2.11964 -10.20631 A 0.125 0.00615 267.2775 0 1 -2.12558 -10.42118 L -2.02581 -10.42593" />
    <path d="M -2.12558 -10.42118 A 0.125 0.00615 267.2775 0 1 -2.1137 -10.17147 L -2.01394 -10.17621" />
    <path d="M -2.1137 -10.17147 A 0.125 0.00615 267.2775 0 1 -2.11964 -10.20631" />
    <path d="M -2.11964 -9.48617 A 0.125 0.00615 267.2775 0 1 -2.12558 -9.70105 L -2.02581 -9.70579" />
    <path d="M -2.12558 -9.70105 A 0.125 0.00615 267.2775 0 1 -2.1137 -9.45133 L -2.01394 -9.45607" />
    <path d="M -2.1137 -9.45133 A 0.125 0.00615 267.2775 0 1 -2.11964 -9.48617" />
    <path d="M -0.2191 -11.10684 A 0.805 0.55853 360 0 1 -0.21721 -11.06865 L -0.21721 -10.70858" />
    <path d="M -0.21721 -11.06865 A 0.805 0.55853 360 0 1 -1.82721 -11.06865 L -1.82721 -10.70858" />
    <path d="M -1.82721 -11.06865 A 0.805 0.55853 360 0 1 -1.67721 -11.39334" />
    <path d="M -0.36721 -11.39334 A 0.805 0.55853 360 0 1 -0.2191 -11.10684" />
    <path d="M -0.91965 -9.42182 A 0.655 0.47059 354.3587 0 0 -1.57148 -8.88574" />
    <path d="M -0.26782 -9.01452 A 0.655 0.47059 354.3587 0 0 -0.91965 -9.42182" />
    <path d="M -0.36721 -11.06865 A 0.655 0.45446 360 0 1 -1.67721 -11.06865" />
    <path d="M 1.09743 10.99832 A 0.655 0.47059 174.3587 0 1 1.74925 11.40562 L -0.26782 -9.01452" />
    <path d="M 1.74925 11.40562 A 0.655 0.47059 174.3587 1 1 0.4456 11.53439 L -1.57148 -8.88574" />
    <path d="M 0.4456 11.53439 A 0.655 0.47059 174.3587 0 1 1.09743 10.99832" />
    <path d="M -1.067 -21.96403 A 0.655 0.45446 360 0 1 -0.36721 -21.51063 L -0.36721 -11.06865" />
    <path d="M -0.36721 -21.51063 A 0.655 0.45446 360 0 1 -1.67721 -21.51063 L -1.67721 -11.06865" />
    <path d="M -1.67721 -21.51063 A 0.655 0.45446 360 0 1 -1.067 -21.96403" />
    <path d="M -1.67721 -8.5417 L -1.67721 0.81361" />
    <path d="M 0.08115 -10.27584 L 0.02315 -10.27308" />
    <path d="M 0.08115 -9.5557 L 0.04382 -9.55392" />
</svg>