<svg version="1.1" xmlns="http://www.w3.org/2000/svg" viewBox="-12.361807569440066 -20.900002925009197 24.356968029866565 42.55114992933732" fill="none" stroke="black" stroke-width="0.6%" vector-effect="non-scaling-stroke">
    <path d="M 7.84016 18.43071 A 0.655 0.45156 180 0 0 9.15016 18.43071" />
    <path d="M 7.88149 2.19956 L 7.87593 2.2008 L 7.87076 2.20195 L 7.86598 2.20299 L 7.8616 2.20393 L 7.85762 2.20476 L 7.85404 2.20549 L 7.85087 2.20612 L 7.84811 2.20665 L 7.84576 2.20707 L 7.84381 2.20739 L 7.84228 2.2076 L 7.84116 2.20771 L 7.84046 2.20771 L 7.84017 2.2076 L 7.84017 2.2076 L 7.84017 2.2076 L 7.84016 2.2076 L 7.84016 2.20759 L 7.84016 2.20759 L 7.84016 2.20759 L 7.84016 2.20759 L 7.84016 2.20759 L 7.84016 2.20758 L 7.84016 2.20758 L 7.84016 2.20758 L 7.84016 2.20758 L 7.84016 2.20757 L 7.84016 2.20757" />
    <path d="M 7.88149 2.19956 L 7.87772 2.18442 L 7.87413 2.16924 L 7.87071 2.15403 L 7.86747 2.13878 L 7.8644 2.12351 L 7.86152 2.10821 L 7.85882 2.09289 L 7.85629 2.07756 L 7.85395 2.06222 L 7.85179 2.04687 L 7.84981 2.03152 L 7.84801 2.01617 L 7.8464 2.00083 L 7.84498 1.98551" />
    <path d="M 6.15291 0.92384 A 2.5 1.72351 180 0 0 10.99516 0.3213" />
    <path d="M -0.87383 2.73146 L 6.15291 0.92384 L 6.15291 0.56165" />
    <path d="M -11.36181 -16.64563 L -0.87383 2.73146 L -0.87383 2.36927 L 6.15291 0.56165" />
    <path d="M 9.84456 -1.49177 L 9.15016 -2.77471" />
    <path d="M 8.24723 -4.44292 L -0.11901 -19.9 L -11.36181 -17.00782 L -0.87383 2.36927" />
    <path d="M 9.84456 -1.49177 A 2.5 1.72351 0 0 1 10.99516 -0.04088 A 2.5 1.72351 0 0 1 6.15291 0.56165" />
    <path d="M -11.36181 -16.64563 L -11.36181 -17.00782" />
    <path d="M 9.15016 -0.04088 A 0.655 0.45156 360 0 1 7.84016 -0.04088" />
    <path d="M 8.26617 -4.44802 A 0.655 0.45156 360 0 1 9.15016 -4.02495 L 9.15016 -0.04088" />
    <path d="M 9.15016 -4.02495 A 0.655 0.45156 360 0 1 7.84016 -4.02495 L 7.84016 -0.04088" />
    <path d="M 7.84016 -4.02495 A 0.655 0.45156 360 0 1 8.26617 -4.44802" />
    <path d="M -2.50731 -0.28648 A 0.655 0.44453 331.57525 0 0 -2.91845 0.4399 L 7.91912 20.46289 A 0.655 0.44453 151.57525 0 1 8.49516 19.67664 A 0.655 0.44453 151.57525 0 1 9.07119 19.83932 A 0.655 0.44453 151.57525 0 1 7.91912 20.46289" />
    <path d="M 7.84016 2.20759 L 7.84016 18.43071" />
    <path d="M 9.15016 1.98461 L 9.15016 18.43071" />
    <path d="M 7.70413 1.95626 L 7.84017 2.2076" />
    <path d="M 10.99516 -0.04088 L 10.99516 0.3213" />
    <path d="M -0.2723 2.57671 L 7.84016 17.56492" />
    <path d="M 8.55225 18.88055 L 9.07119 19.83932" />
</svg>