<svg version="1.1" xmlns="http://www.w3.org/2000/svg" viewBox="-13.056004035275608 -27.45453554726129 24.594171460748285 68.84593187465099" fill="none" stroke="black" stroke-width="0.6%" vector-effect="non-scaling-stroke">
    <path d="M 5.34011 7.84233 L 4.42603 4.22051" />
    <path d="M 2.92603 -1.72285 L -0.29271 -14.47628 L -12.056 -12.58159 L -6.12671 10.91168 L 1.22534 9.7275" />
    <path d="M 1.22534 10.02826 L 1.22534 9.7275" />
    <path d="M 5.34011 7.84233 A 2.5 1.99717 360 0 1 6.17603 9.33278 A 2.5 1.99717 360 0 1 1.22534 9.7275" />
    <path d="M 1.22534 10.02826 A 2.5 1.99717 180 0 0 6.17603 9.63353" />
    <path d="M -12.056 -12.28084 L -12.056 -12.58159" />
    <path d="M -6.12671 11.21244 L 1.22534 10.02826" />
    <path d="M -12.056 -12.28084 L -6.12671 11.21244 L -6.12671 10.91168" />
    <path d="M 4.42603 9.33278 A 0.75 0.59915 360 0 1 2.92603 9.33278" />
    <path d="M 3.5278 -26.44272 A 0.75 0.59915 360 0 1 4.42603 -25.85538 A 0.75 0.59915 360 0 1 2.92603 -25.85538 A 0.75 0.59915 360 0 1 3.5278 -26.44272 Z" />
    <path d="M 4.85394 12.28883 L 4.85394 11.39512" />
    <path d="M 2.65352 11.65417 L 2.8934 12.60462 L 4.85394 12.28883" />
    <path d="M 2.8934 12.60462 L 2.8934 11.53031" />
    <path d="M 2.71563 11.64416 A 0.125 0.01486 80.85008 0 0 2.70203 11.47289" />
    <path d="M 3.99487 12.11538 A 0.125 0.07371 345.83535 0 0 3.75247 12.17656" />
    <path d="M 2.59773 11.61173 A 0.125 0.01486 260.85008 0 1 2.57349 11.42599" />
    <path d="M 2.58916 11.43209 A 0.125 0.01486 260.85008 0 1 2.6176 11.65995 A 0.125 0.01486 260.85008 0 1 2.59773 11.61173" />
    <path d="M 3.89344 11.69796 A 0.125 0.07371 165.83535 0 1 3.77224 11.65336 L 3.76619 11.6294" />
    <path d="M 3.77224 11.65336 A 0.125 0.07371 165.83535 0 1 3.77275 11.6292" />
    <path d="M 4.01508 11.61225 A 0.125 0.07371 165.83535 0 1 3.89344 11.69796" />
    <path d="M 3.89344 12.29947 A 0.125 0.07371 165.83535 0 1 3.77224 12.25487 L 3.75247 12.17656" />
    <path d="M 3.77224 12.25487 A 0.125 0.07371 165.83535 0 1 4.01463 12.19369 L 3.99487 12.11538" />
    <path d="M 4.01463 12.19369 A 0.125 0.07371 165.83535 0 1 3.89344 12.29947" />
    <path d="M 3.16474 12.56091 A 0.905 0.72298 180 0 0 4.43672 12.35604" />
    <path d="M 4.42603 14.74634 A 0.75 0.59915 360 0 1 2.92603 14.74634" />
    <path d="M 4.56318 14.60345 A 0.905 0.72298 360 0 1 4.58103 14.74634 L 4.58103 15.04709 A 0.905 0.72298 360 0 1 2.77103 15.04709" />
    <path d="M 4.58103 14.74634 A 0.905 0.72298 360 0 1 2.77103 14.74634 L 2.77103 15.04709" />
    <path d="M 2.77103 14.74634 A 0.905 0.72298 360 0 1 2.92603 14.34173" />
    <path d="M 4.42603 14.34173 A 0.905 0.72298 360 0 1 4.56318 14.60345" />
    <path d="M 2.8934 15.98809 L 4.85394 15.67231 L 4.45866 14.10609 L 4.42603 14.11135" />
    <path d="M 2.49811 14.42187 L 2.8934 15.98809" />
    <path d="M 2.91534 14.35467 L 2.49811 14.42187" />
    <path d="M 2.8934 17.19111 L 2.8934 15.98809" />
    <path d="M 2.8934 17.19111 L 3.14362 17.1508" />
    <path d="M 4.80137 16.88379 L 4.85394 16.87533 L 4.85394 16.74287" />
    <path d="M 4.85394 16.6197 L 4.85394 15.67231" />
    <path d="M 2.98652 16.5746 A 0.905 0.53363 165.83535 0 1 4.75116 16.21025" />
    <path d="M 2.99619 16.65317 A 0.905 0.53363 165.83535 0 1 2.98652 16.5746" />
    <path d="M 2.49811 15.62489 L 2.49811 14.42187" />
    <path d="M 2.49811 15.62489 L 2.59211 15.99733" />
    <path d="M 2.65352 16.24066 L 2.8934 17.19111" />
    <path d="M 2.71563 15.62915 A 0.125 0.01486 80.85008 0 0 2.67588 15.38233" />
    <path d="M 2.71563 16.23065 A 0.125 0.01486 80.85008 0 0 2.67588 15.98383" />
    <path d="M 3.08534 16.96615 A 0.905 0.53363 165.83535 0 1 4.84998 16.6018 L 4.75116 16.21025" />
    <path d="M 4.84998 16.6018 A 0.905 0.53363 165.83535 0 1 4.77277 16.92929" />
    <path d="M 3.31838 17.29636 A 0.905 0.53363 165.83535 0 1 3.09501 17.04472 L 2.99619 16.65317" />
    <path d="M 3.09501 17.04472 A 0.905 0.53363 165.83535 0 1 3.08534 16.96615" />
    <path d="M 2.59773 15.59671 A 0.125 0.01486 260.85008 0 1 2.57785 15.39812 L 2.67588 15.38233" />
    <path d="M 2.57785 15.39812 A 0.125 0.01486 260.85008 0 1 2.6176 15.64494 L 2.71563 15.62915" />
    <path d="M 2.6176 15.64494 A 0.125 0.01486 260.85008 0 1 2.59773 15.59671" />
    <path d="M 2.59773 16.19822 A 0.125 0.01486 260.85008 0 1 2.57785 15.99962 L 2.67588 15.98383" />
    <path d="M 2.57785 15.99962 A 0.125 0.01486 260.85008 0 1 2.6176 16.24644 L 2.71563 16.23065" />
    <path d="M 2.6176 16.24644 A 0.125 0.01486 260.85008 0 1 2.59773 16.19822" />
    <path d="M 4.77421 15.29758 A 0.125 0.01486 80.85008 0 0 4.73445 15.05076 L 4.69854 15.05654" />
    <path d="M 3.97249 16.37213 A 0.75 0.44223 165.83535 0 1 4.69969 16.63973" />
    <path d="M 3.24529 17.0068 A 0.75 0.44223 165.83535 0 1 3.97249 16.37213" />
    <path d="M 9.80296 39.47385 A 0.75 0.44223 165.83535 0 1 10.53016 39.74145 L 4.69969 16.63973" />
    <path d="M 10.53016 39.74145 A 0.75 0.44223 165.83535 0 1 9.07576 40.10851 L 3.24529 17.0068" />
    <path d="M 9.07576 40.10851 A 0.75 0.44223 165.83535 0 1 9.80296 39.47385" />
    <path d="M 2.92603 24.6712 A 0.75 0.59915 180 1 0 4.42603 24.6712" />
    <path d="M 6.17603 9.33278 L 6.17603 9.63353" />
    <path d="M 2.92603 -25.85538 L 2.92603 9.33278" />
    <path d="M 4.42603 -25.85538 L 4.42603 9.33278" />
    <path d="M 2.6176 11.65995 L 2.71563 11.64416" />
    <path d="M 2.92603 12.59936 L 2.92603 14.74634" />
    <path d="M 4.42603 12.36898 L 4.42603 14.74634" />
    <path d="M 4.77421 15.29758 L 4.75995 15.29987" />
    <path d="M 2.92603 17.18585 L 2.92603 24.6712" />
    <path d="M 4.42603 21.68514 L 4.42603 24.6712" />
</svg>