<svg version="1.1" xmlns="http://www.w3.org/2000/svg" viewBox="-13.237456185578052 -25.90198771393062 24.761699176720704 63.7780638010525" fill="none" stroke="black" stroke-width="0.6%" vector-effect="non-scaling-stroke">
    <path d="M 3.97786 4.81883 L 4.05253 4.81333 L 4.12644 4.81267 L 4.19886 4.81685 L 4.26906 4.82583 L 4.33632 4.83952 L 4.39997 4.85778 L 4.45936 4.88043 L 4.51391 4.90723 L 4.56306 4.93793 L 4.60631 4.97221 L 4.64324 5.00973 L 4.67346 5.0501 L 4.69668 5.09292 L 4.71265 5.13776" />
    <path d="M 9.79001 26.42077 A 0.75 0.4646 164.94081 0 1 10.51425 26.70048 A 0.75 0.4646 164.94081 0 1 9.06576 27.09021 A 0.75 0.4646 164.94081 0 1 9.79001 26.42077 Z" />
    <path d="M 3.24307 5.44905 L 3.23356 5.39156 L 3.23548 5.33256 L 3.24881 5.27296 L 3.27332 5.21368 L 3.30866 5.15561 L 3.35427 5.09967 L 3.40946 5.0467 L 3.47338 4.99751 L 3.54504 4.95288 L 3.62335 4.91346 L 3.7071 4.87989 L 3.79501 4.85266 L 3.88573 4.8322 L 3.97786 4.81883" />
    <path d="M 2.97724 5.39911 A 0.905 0.5674 170.00791 0 1 4.76521 5.14736 A 0.905 0.5674 170.00791 0 1 4.75806 5.30652" />
    <path d="M 3.34344 5.82212 A 0.905 0.5674 170.00791 0 1 2.98266 5.46141 A 0.905 0.5674 170.00791 0 1 2.97724 5.39911" />
    <path d="M 2.90965 5.0155 A 0.905 0.5674 170.00791 0 1 4.69762 4.76374" />
    <path d="M 2.91507 5.0778 A 0.905 0.5674 170.00791 0 1 2.90965 5.0155" />
    <path d="M 2.81552 5.65821 L 2.81552 4.39267 L 4.79717 4.18333 L 4.52682 2.64887 L 4.42117 2.66003" />
    <path d="M 2.81552 5.65821 L 3.06125 5.63225" />
    <path d="M 4.79638 5.44896 L 4.79717 5.44887 L 4.79717 4.18333" />
    <path d="M 2.54518 4.12375 L 2.54518 2.85821 L 2.81552 4.39267" />
    <path d="M 2.54518 4.12375 L 2.60388 4.45698" />
    <path d="M 2.64737 4.70378 L 2.81552 5.65821" />
    <path d="M 2.69348 4.06613 A 0.125 0.01069 83.96963 0 0 2.66722 3.81752" />
    <path d="M 2.69348 4.69891 A 0.125 0.01069 83.96963 0 0 2.66722 4.45029" />
    <path d="M 2.91521 2.81912 L 2.54518 2.85821" />
    <path d="M 4.57617 3.52077 A 0.905 0.70078 0 0 1 2.76617 3.52077" />
    <path d="M 2.58127 4.03139 A 0.125 0.01069 263.96963 0 1 2.56814 3.82798 A 0.125 0.01069 263.96963 0 1 2.5944 4.0766 A 0.125 0.01069 263.96963 0 1 2.58127 4.03139 Z" />
    <path d="M 2.58127 4.66416 A 0.125 0.01069 263.96963 0 1 2.56814 4.46076 A 0.125 0.01069 263.96963 0 1 2.5944 4.70937 A 0.125 0.01069 263.96963 0 1 2.58127 4.66416 Z" />
    <path d="M 4.56786 3.10965 A 0.905 0.70078 0 0 1 4.57617 3.20438 A 0.905 0.70078 0 0 1 2.76617 3.20438 A 0.905 0.70078 0 0 1 2.92117 2.81219" />
    <path d="M 4.42117 2.81219 A 0.905 0.70078 0 0 1 4.56786 3.10965" />
    <path d="M 4.77421 3.84632 A 0.125 0.01069 83.96963 0 0 4.74794 3.59771 L 4.69498 3.6033" />
    <path d="M 4.42117 3.20438 A 0.75 0.58075 0 0 1 2.92117 3.20438" />
    <path d="M 3.81403 7.57114 A 0.75 0.58075 0 0 1 2.92117 7.00102" />
    <path d="M 3.5182 -24.88978 A 0.75 0.58075 0 0 1 4.42117 -24.32123 A 0.75 0.58075 0 0 1 2.92117 -24.32123 A 0.75 0.58075 0 0 1 3.5182 -24.88978 Z" />
    <path d="M 5.32319 5.54806 L 4.42117 2.19555" />
    <path d="M 2.92117 -3.37949 L -0.48971 -16.05666 L -12.23746 -14.16144 L -6.11862 8.58037 L 1.22372 7.39585" />
    <path d="M 5.32319 5.54806 A 2.5 1.93584 360 0 1 6.17117 7.00102 L 6.17117 7.3174" />
    <path d="M 6.17117 7.00102 A 2.5 1.93584 360 0 1 5.55612 8.27267" />
    <path d="M 4.17097 8.89778 A 2.5 1.93584 360 0 1 1.22372 7.39585" />
    <path d="M 1.22372 7.71224 L 1.22372 7.39585" />
    <path d="M 1.22372 7.71224 A 2.5 1.93584 180 0 0 4.25234 9.20021" />
    <path d="M 5.62424 8.52585 A 2.5 1.93584 180 0 0 6.17117 7.3174" />
    <path d="M -12.23746 -13.84505 L -12.23746 -14.16144" />
    <path d="M -6.11862 8.89675 L -6.11862 8.58037" />
    <path d="M -6.11862 8.89675 L 1.22372 7.71224" />
    <path d="M -12.23746 -13.84505 L -6.11862 8.89675" />
    <path d="M 2.59339 9.06411 L 2.60388 9.12368" />
    <path d="M 2.64737 9.37048 L 2.81552 10.32491 L 4.50687 10.14624" />
    <path d="M 2.81552 10.32491 L 2.81552 9.13633" />
    <path d="M 2.69348 9.3656 A 0.125 0.01069 83.96963 0 0 2.66722 9.11699" />
    <path d="M 3.92945 9.24939 A 0.125 0.07837 350.00791 0 0 3.92788 9.24301" />
    <path d="M 3.69175 9.25318 A 0.125 0.07837 350.00791 0 0 3.68324 9.29277" />
    <path d="M 3.92945 9.88217 A 0.125 0.07837 350.00791 1 0 3.68324 9.92554" />
    <path d="M 2.58127 9.33086 A 0.125 0.01069 263.96963 0 1 2.56814 9.12745 L 2.66722 9.11699" />
    <path d="M 2.56814 9.12745 A 0.125 0.01069 263.96963 0 1 2.5944 9.37607 L 2.69348 9.3656" />
    <path d="M 2.5944 9.37607 A 0.125 0.01069 263.96963 0 1 2.58127 9.33086" />
    <path d="M 3.81986 9.4269 A 0.125 0.07837 170.00791 0 1 3.69676 9.3695 L 3.68324 9.29277" />
    <path d="M 3.69676 9.3695 A 0.125 0.07837 170.00791 1 1 3.94297 9.32612 L 3.92945 9.24939" />
    <path d="M 3.94297 9.32612 A 0.125 0.07837 170.00791 0 1 3.81986 9.4269" />
    <path d="M 3.81986 10.05968 A 0.125 0.07837 170.00791 0 1 3.69676 10.00227 L 3.68324 9.92554" />
    <path d="M 3.69676 10.00227 A 0.125 0.07837 170.00791 0 1 3.94297 9.95889 L 3.92945 9.88217" />
    <path d="M 3.94297 9.95889 A 0.125 0.07837 170.00791 0 1 3.81986 10.05968" />
    <path d="M 3.07611 10.29738 A 0.905 0.70078 180 0 0 4.42713 10.15466" />
    <path d="M 4.42117 12.69597 A 0.75 0.58075 0 1 1 2.92117 12.69597" />
    <path d="M 4.56786 12.60125 A 0.905 0.70078 0 0 1 4.57617 12.69597 L 4.57617 13.01236 A 0.905 0.70078 0 0 1 2.76617 13.01236" />
    <path d="M 4.57617 12.69597 A 0.905 0.70078 0 0 1 2.76617 12.69597 L 2.76617 13.01236" />
    <path d="M 2.76617 12.69597 A 0.905 0.70078 0 0 1 2.92117 12.30378" />
    <path d="M 4.42117 12.30378 A 0.905 0.70078 0 0 1 4.56786 12.60125" />
    <path d="M 2.81552 13.88426 L 4.79717 13.67492 L 4.52682 12.14046 L 4.42117 12.15162" />
    <path d="M 2.54518 12.3498 L 2.81552 13.88426" />
    <path d="M 2.91521 12.31071 L 2.54518 12.3498" />
    <path d="M 2.81552 15.1498 L 2.81552 13.88426" />
    <path d="M 2.81552 15.1498 L 3.06125 15.12385" />
    <path d="M 4.79638 14.94055 L 4.79717 14.94046 L 4.79717 13.67492" />
    <path d="M 2.90965 14.50709 A 0.905 0.5674 170.00791 0 1 4.69762 14.25533" />
    <path d="M 2.91507 14.56939 A 0.905 0.5674 170.00791 0 1 2.90965 14.50709" />
    <path d="M 2.54518 13.61534 L 2.54518 12.3498" />
    <path d="M 2.54518 13.61534 L 2.60388 13.94857" />
    <path d="M 2.64737 14.19537 L 2.81552 15.1498" />
    <path d="M 2.69348 13.55772 A 0.125 0.01069 83.96963 0 0 2.66722 13.30911" />
    <path d="M 2.69348 14.1905 A 0.125 0.01069 83.96963 0 0 2.66722 13.94188" />
    <path d="M 2.97724 14.8907 A 0.905 0.5674 170.00791 0 1 4.76521 14.63895 L 4.69762 14.25533" />
    <path d="M 4.76521 14.63895 A 0.905 0.5674 170.00791 0 1 4.75806 14.79811" />
    <path d="M 3.34344 15.31371 A 0.905 0.5674 170.00791 0 1 2.98266 14.95301 L 2.91507 14.56939" />
    <path d="M 2.98266 14.95301 A 0.905 0.5674 170.00791 0 1 2.97724 14.8907" />
    <path d="M 2.58127 13.52298 A 0.125 0.01069 263.96963 0 1 2.56814 13.31957 L 2.66722 13.30911" />
    <path d="M 2.56814 13.31957 A 0.125 0.01069 263.96963 0 1 2.5944 13.56819 L 2.69348 13.55772" />
    <path d="M 2.5944 13.56819 A 0.125 0.01069 263.96963 0 1 2.58127 13.52298" />
    <path d="M 2.58127 14.15575 A 0.125 0.01069 263.96963 0 1 2.56814 13.95235 L 2.66722 13.94188" />
    <path d="M 2.56814 13.95235 A 0.125 0.01069 263.96963 0 1 2.5944 14.20096 L 2.69348 14.1905" />
    <path d="M 2.5944 14.20096 A 0.125 0.01069 263.96963 0 1 2.58127 14.15575" />
    <path d="M 4.77421 13.33792 A 0.125 0.01069 83.96963 0 0 4.74794 13.0893 L 4.69498 13.09489" />
    <path d="M 3.97786 14.31042 L 4.05253 14.30492 L 4.12644 14.30426 L 4.19886 14.30844 L 4.26906 14.31742 L 4.33632 14.33111 L 4.39997 14.34937 L 4.45936 14.37202 L 4.51391 14.39883 L 4.56306 14.42952 L 4.60631 14.4638 L 4.64324 14.50132 L 4.67346 14.54169 L 4.69668 14.58451 L 4.71265 14.62935" />
    <path d="M 3.24307 14.94065 L 3.23356 14.88315 L 3.23548 14.82415 L 3.24881 14.76455 L 3.27332 14.70527 L 3.30866 14.64721 L 3.35427 14.59126 L 3.40946 14.53829 L 3.47338 14.48911 L 3.54504 14.44447 L 3.62335 14.40506 L 3.7071 14.37148 L 3.79501 14.34425 L 3.88573 14.3238 L 3.97786 14.31042" />
    <path d="M 9.79001 35.91236 A 0.75 0.4646 164.94081 0 1 10.51425 36.19207 L 4.71265 14.62935" />
    <path d="M 10.51425 36.19207 A 0.75 0.4646 164.94081 0 1 9.06576 36.5818 L 3.24307 14.94065" />
    <path d="M 9.06576 36.5818 A 0.75 0.4646 164.94081 0 1 9.79001 35.91236" />
    <path d="M 2.92117 23.13672 A 0.75 0.58075 180 0 0 4.42117 23.13672" />
    <path d="M 10.51425 26.70048 L 4.71265 5.13776" />
    <path d="M 9.06576 27.09021 L 3.24307 5.44905" />
    <path d="M 4.76521 5.14736 L 4.69762 4.76374" />
    <path d="M 2.98266 5.46141 L 2.91507 5.0778" />
    <path d="M 2.5944 4.0766 L 2.69348 4.06613" />
    <path d="M 2.56814 3.82798 L 2.66722 3.81752" />
    <path d="M 2.5944 4.70937 L 2.69348 4.69891" />
    <path d="M 2.56814 4.46076 L 2.66722 4.45029" />
    <path d="M 2.76617 3.20438 L 2.76617 3.52077" />
    <path d="M 4.57617 3.20438 L 4.57617 3.52077" />
    <path d="M 4.77421 3.84632 L 4.73846 3.8501" />
    <path d="M 2.92117 5.64705 L 2.92117 7.00102" />
    <path d="M 2.92117 -24.32123 L 2.92117 3.20438" />
    <path d="M 4.42117 -24.32123 L 4.42117 3.20438" />
    <path d="M 2.92117 10.31375 L 2.92117 12.69597" />
    <path d="M 4.42117 10.16159 L 4.42117 12.69597" />
    <path d="M 4.77421 13.33792 L 4.73846 13.34169" />
    <path d="M 2.92117 15.13864 L 2.92117 23.13672" />
    <path d="M 4.42117 19.3193 L 4.42117 23.13672" />
</svg>