<svg version="1.1" xmlns="http://www.w3.org/2000/svg" viewBox="-13.237608790662916 -25.902038424361113 24.762006325711823 63.77807390879178" fill="none" stroke="black" stroke-width="0.6%" vector-effect="non-scaling-stroke">
    <path d="M 9.79016 26.42071 A 0.75 0.4646 164.9404 0 1 10.51441 26.70042 A 0.75 0.4646 164.9404 0 1 9.06592 27.09016 A 0.75 0.4646 164.9404 0 1 9.79016 26.42071 Z" />
    <path d="M 3.97712 4.81604 A 0.75 0.4646 344.9404 0 0 3.25287 5.48549" />
    <path d="M 4.70136 5.09575 A 0.75 0.4646 344.9404 0 0 3.97712 4.81604" />
    <path d="M 3.09114 5.43355 A 0.905 0.56062 164.9404 0 1 4.85104 5.05548 A 0.905 0.56062 164.9404 0 1 4.78288 5.39873" />
    <path d="M 3.33439 5.78846 A 0.905 0.56062 164.9404 0 1 3.1032 5.52576 A 0.905 0.56062 164.9404 0 1 3.09114 5.43355" />
    <path d="M 2.98916 5.05453 A 0.905 0.56062 164.9404 0 1 4.74905 4.67645" />
    <path d="M 3.00121 5.14673 A 0.905 0.56062 164.9404 0 1 2.98916 5.05453" />
    <path d="M 2.89616 5.7023 L 2.89616 4.43676 L 4.85411 4.12088 L 4.44618 2.60476 L 4.42117 2.6088" />
    <path d="M 2.89616 5.7023 L 3.17078 5.658" />
    <path d="M 4.78345 5.39783 L 4.85411 5.38643 L 4.85411 5.23046" />
    <path d="M 4.85411 5.06781 L 4.85411 4.12088" />
    <path d="M 2.48822 4.18619 L 2.48822 2.92064 L 2.89616 4.43676" />
    <path d="M 2.48822 4.18619 L 2.57795 4.51967" />
    <path d="M 2.64325 4.76237 L 2.89616 5.7023" />
    <path d="M 2.7121 4.11849 A 0.125 0.01613 80.83542 0 0 2.67228 3.87168" />
    <path d="M 2.7121 4.75126 A 0.125 0.01613 80.83542 0 0 2.67228 4.50445" />
    <path d="M 2.88552 2.85654 L 2.48822 2.92064" />
    <path d="M 4.57617 3.52076 A 0.905 0.70077 360 0 1 2.76617 3.52076" />
    <path d="M 2.59429 4.08997 A 0.125 0.01613 260.83542 0 1 2.57438 3.88747 A 0.125 0.01613 260.83542 1 1 2.6142 4.13428 A 0.125 0.01613 260.83542 0 1 2.59429 4.08997 Z" />
    <path d="M 2.59429 4.72275 A 0.125 0.01613 260.83542 0 1 2.57438 4.52025 A 0.125 0.01613 260.83542 1 1 2.6142 4.76706 A 0.125 0.01613 260.83542 0 1 2.59429 4.72275 Z" />
    <path d="M 3.13027 5.66453 A 0.905 0.70077 180 0 0 3.21999 5.71017" />
    <path d="M 4.55714 3.06144 A 0.905 0.70077 360 0 1 4.57617 3.20437 A 0.905 0.70077 360 0 1 2.76617 3.20437 A 0.905 0.70077 360 0 1 2.92117 2.81218" />
    <path d="M 4.42117 2.81218 A 0.905 0.70077 360 0 1 4.55714 3.06144" />
    <path d="M 4.76795 3.78682 A 0.125 0.01613 80.83542 1 0 4.72813 3.54001 L 4.69908 3.5447" />
    <path d="M 4.42117 3.20437 A 0.75 0.58075 360 0 1 2.92117 3.20437" />
    <path d="M 3.81405 7.57113 A 0.75 0.58075 360 0 1 2.92117 7.00101" />
    <path d="M 3.51819 -24.88983 A 0.75 0.58075 360 0 1 4.42117 -24.32128 A 0.75 0.58075 360 0 1 2.92117 -24.32128 A 0.75 0.58075 360 0 1 3.51819 -24.88983 Z" />
    <path d="M 5.32317 5.54805 L 4.42117 2.19567" />
    <path d="M 2.92117 -3.37921 L -0.48987 -16.05662 L -12.23761 -14.16135 L -6.11861 8.5804 L 1.22372 7.39586" />
    <path d="M 5.32317 5.54805 A 2.5 1.93584 0 0 1 6.17117 7.00101 L 6.17117 7.3174" />
    <path d="M 6.17117 7.00101 A 2.5 1.93584 0 0 1 5.55615 8.27264" />
    <path d="M 4.171 8.89777 A 2.5 1.93584 0 0 1 1.22372 7.39586" />
    <path d="M 1.22372 7.71225 L 1.22372 7.39586" />
    <path d="M 1.22372 7.71225 A 2.5 1.93584 180 0 0 4.25237 9.2002" />
    <path d="M 5.62427 8.52581 A 2.5 1.93584 180 0 0 6.17117 7.3174" />
    <path d="M -12.23761 -13.84497 L -12.23761 -14.16135" />
    <path d="M -6.11861 8.89679 L -6.11861 8.5804" />
    <path d="M -6.11861 8.89679 L 1.22372 7.71225" />
    <path d="M -12.23761 -13.84497 L -6.11861 8.89679" />
    <path d="M 2.53952 9.04356 L 2.57795 9.18638" />
    <path d="M 2.64325 9.42908 L 2.89616 10.36901 L 4.49735 10.11069" />
    <path d="M 2.89616 10.36901 L 2.89616 9.15787" />
    <path d="M 2.7121 9.41797 A 0.125 0.01613 80.83542 0 0 2.67228 9.17116" />
    <path d="M 3.76089 9.252 A 0.125 0.07743 344.9404 0 0 3.75443 9.29439" />
    <path d="M 3.99584 9.86221 A 0.125 0.07743 344.9404 0 0 3.75443 9.92716" />
    <path d="M 2.59429 9.38945 A 0.125 0.01613 260.83542 0 1 2.57438 9.18695 L 2.67228 9.17116" />
    <path d="M 2.57438 9.18695 A 0.125 0.01613 260.83542 1 1 2.6142 9.43376 L 2.7121 9.41797" />
    <path d="M 2.6142 9.43376 A 0.125 0.01613 260.83542 0 1 2.59429 9.38945" />
    <path d="M 3.89553 9.41681 A 0.125 0.07743 164.9404 0 1 3.77482 9.37019 L 3.75443 9.29439" />
    <path d="M 3.77482 9.37019 A 0.125 0.07743 164.9404 0 1 4.01624 9.30524 L 3.99778 9.23665" />
    <path d="M 4.01624 9.30524 A 0.125 0.07743 164.9404 0 1 3.89553 9.41681" />
    <path d="M 3.89553 10.04959 A 0.125 0.07743 164.9404 0 1 3.77482 10.00297 L 3.75443 9.92716" />
    <path d="M 3.77482 10.00297 A 0.125 0.07743 164.9404 0 1 4.01624 9.93801 L 3.99584 9.86221" />
    <path d="M 4.01624 9.93801 A 0.125 0.07743 164.9404 0 1 3.89553 10.04959" />
    <path d="M 3.13027 10.33124 A 0.905 0.70077 180 0 0 4.45682 10.11723" />
    <path d="M 4.42117 12.69598 A 0.75 0.58075 360 0 1 2.92117 12.69598" />
    <path d="M 4.55714 12.55304 A 0.905 0.70077 360 0 1 4.57617 12.69598 L 4.57617 13.01236 A 0.905 0.70077 360 0 1 2.76617 13.01236" />
    <path d="M 4.57617 12.69598 A 0.905 0.70077 360 0 1 2.76617 12.69598 L 2.76617 13.01236" />
    <path d="M 2.76617 12.69598 A 0.905 0.70077 360 0 1 2.92117 12.30379" />
    <path d="M 4.42117 12.30379 A 0.905 0.70077 360 0 1 4.55714 12.55304" />
    <path d="M 2.89616 13.92836 L 4.85411 13.61248 L 4.44618 12.09637 L 4.42117 12.1004" />
    <path d="M 2.48822 12.41224 L 2.89616 13.92836" />
    <path d="M 2.88552 12.34815 L 2.48822 12.41224" />
    <path d="M 2.89616 15.19391 L 2.89616 13.92836" />
    <path d="M 2.89616 15.19391 L 3.17078 15.1496" />
    <path d="M 4.78345 14.88943 L 4.85411 14.87803 L 4.85411 14.72207" />
    <path d="M 4.85411 14.55941 L 4.85411 13.61248" />
    <path d="M 2.98916 14.54613 A 0.905 0.56062 164.9404 0 1 4.74905 14.16806" />
    <path d="M 3.00121 14.63834 A 0.905 0.56062 164.9404 0 1 2.98916 14.54613" />
    <path d="M 2.48822 13.67779 L 2.48822 12.41224" />
    <path d="M 2.48822 13.67779 L 2.57795 14.01128" />
    <path d="M 2.64325 14.25397 L 2.89616 15.19391" />
    <path d="M 2.7121 13.61009 A 0.125 0.01613 80.83542 0 0 2.67228 13.36329" />
    <path d="M 2.7121 14.24287 A 0.125 0.01613 80.83542 0 0 2.67228 13.99606" />
    <path d="M 3.09114 14.92516 A 0.905 0.56062 164.9404 0 1 4.85104 14.54709 L 4.74905 14.16806" />
    <path d="M 4.85104 14.54709 A 0.905 0.56062 164.9404 0 1 4.78288 14.89033" />
    <path d="M 3.33439 15.28007 A 0.905 0.56062 164.9404 0 1 3.1032 15.01737 L 3.00121 14.63834" />
    <path d="M 3.1032 15.01737 A 0.905 0.56062 164.9404 0 1 3.09114 14.92516" />
    <path d="M 2.59429 13.58158 A 0.125 0.01613 260.83542 0 1 2.57438 13.37908 L 2.67228 13.36329" />
    <path d="M 2.57438 13.37908 A 0.125 0.01613 260.83542 1 1 2.6142 13.62589 L 2.7121 13.61009" />
    <path d="M 2.6142 13.62589 A 0.125 0.01613 260.83542 0 1 2.59429 13.58158" />
    <path d="M 2.59429 14.21435 A 0.125 0.01613 260.83542 0 1 2.57438 14.01185 L 2.67228 13.99606" />
    <path d="M 2.57438 14.01185 A 0.125 0.01613 260.83542 1 1 2.6142 14.25866 L 2.7121 14.24287" />
    <path d="M 2.6142 14.25866 A 0.125 0.01613 260.83542 0 1 2.59429 14.21435" />
    <path d="M 4.76795 13.27842 A 0.125 0.01613 80.83542 1 0 4.72813 13.03161 L 4.69908 13.0363" />
    <path d="M 3.13027 15.15614 A 0.905 0.70077 180 0 0 3.21999 15.20178" />
    <path d="M 3.97712 14.30765 A 0.75 0.4646 164.9404 0 1 4.70136 14.58736" />
    <path d="M 3.25287 14.97709 A 0.75 0.4646 164.9404 0 1 3.97712 14.30765" />
    <path d="M 9.79016 35.91231 A 0.75 0.4646 164.9404 0 1 10.51441 36.19203 L 4.70136 14.58736" />
    <path d="M 10.51441 36.19203 A 0.75 0.4646 164.9404 0 1 9.06592 36.58176 L 3.25287 14.97709" />
    <path d="M 9.06592 36.58176 A 0.75 0.4646 164.9404 0 1 9.79016 35.91231" />
    <path d="M 2.92117 23.13674 A 0.75 0.58075 180 0 0 4.42117 23.13674" />
    <path d="M 10.51441 26.70042 L 4.70136 5.09575" />
    <path d="M 9.06592 27.09016 L 3.25287 5.48549" />
    <path d="M 4.85104 5.05548 L 4.74905 4.67645" />
    <path d="M 3.1032 5.52576 L 3.00121 5.14673" />
    <path d="M 2.6142 4.13428 L 2.7121 4.11849" />
    <path d="M 2.57438 3.88747 L 2.67228 3.87168" />
    <path d="M 2.6142 4.76706 L 2.7121 4.75126" />
    <path d="M 2.57438 4.52025 L 2.67228 4.50445" />
    <path d="M 2.76617 3.20437 L 2.76617 3.52076" />
    <path d="M 4.57617 3.20437 L 4.57617 3.52076" />
    <path d="M 4.76795 3.78682 L 4.76438 3.78739" />
    <path d="M 2.92117 5.69827 L 2.92117 7.00101" />
    <path d="M 2.92117 -24.32128 L 2.92117 3.20437" />
    <path d="M 4.42117 -24.32128 L 4.42117 3.20437" />
    <path d="M 2.92117 10.36497 L 2.92117 12.69598" />
    <path d="M 4.42117 10.16159 L 4.42117 12.69598" />
    <path d="M 4.76795 13.27842 L 4.76438 13.279" />
    <path d="M 2.92117 15.18987 L 2.92117 23.13674" />
    <path d="M 4.42117 19.31915 L 4.42117 23.13674" />
</svg>