<svg version="1.1" xmlns="http://www.w3.org/2000/svg" viewBox="-13.056153782151519 -26.97727939805837 24.594478003372352 67.2183425136592" fill="none" stroke="black" stroke-width="0.6%" vector-effect="non-scaling-stroke">
    <path d="M 9.80312 28.99365 A 0.75 0.45597 165.58545 0 1 10.52951 29.27209 A 0.75 0.45597 165.58545 0 1 9.07673 29.64549 A 0.75 0.45597 165.58545 0 1 9.80312 28.99365 Z" />
    <path d="M 3.9725 6.30878 A 0.75 0.45597 345.58545 0 0 3.24611 6.96063" />
    <path d="M 4.69889 6.58722 A 0.75 0.45597 345.58545 0 0 3.9725 6.30878" />
    <path d="M 3.08535 6.91424 A 0.905 0.5502 165.58545 0 1 4.84901 6.54864 A 0.905 0.5502 165.58545 0 1 4.77554 6.88545" />
    <path d="M 3.32276 7.25885 A 0.905 0.5502 165.58545 0 1 3.09599 6.99921 A 0.905 0.5502 165.58545 0 1 3.08535 6.91424" />
    <path d="M 2.98652 6.52975 A 0.905 0.5502 165.58545 0 1 4.75018 6.16415" />
    <path d="M 2.99716 6.61472 A 0.905 0.5502 165.58545 0 1 2.98652 6.52975" />
    <path d="M 2.8934 7.16467 L 2.8934 5.92429 L 4.85395 5.6142 L 4.45865 4.07625 L 4.42602 4.08141" />
    <path d="M 2.8934 7.16467 L 3.15639 7.12307" />
    <path d="M 4.78861 6.86491 L 4.85395 6.85458 L 4.85395 6.69802" />
    <path d="M 4.85395 6.571 L 4.85395 5.6142" />
    <path d="M 2.4981 5.62671 L 2.4981 4.38634 L 2.8934 5.92429" />
    <path d="M 2.4981 5.62671 L 2.5879 5.9761" />
    <path d="M 2.65042 6.21932 L 2.8934 7.16467" />
    <path d="M 2.71528 5.58887 A 0.125 0.01532 81.01221 0 0 2.67622 5.34194" />
    <path d="M 2.71528 6.20906 A 0.125 0.01532 81.01221 0 0 2.67622 5.96213" />
    <path d="M 2.90187 4.32247 L 2.4981 4.38634" />
    <path d="M 4.58102 5.00027 A 0.905 0.70993 360 0 1 2.77102 5.00027" />
    <path d="M 2.59772 5.55844 A 0.125 0.01532 261.01221 0 1 2.5782 5.35745 A 0.125 0.01532 261.01221 0 1 2.61725 5.60438 A 0.125 0.01532 261.01221 0 1 2.59772 5.55844 Z" />
    <path d="M 2.59772 6.17863 A 0.125 0.01532 261.01221 0 1 2.5782 5.97764 A 0.125 0.01532 261.01221 0 1 2.61725 6.22457 A 0.125 0.01532 261.01221 0 1 2.59772 6.17863 Z" />
    <path d="M 3.14399 7.12503 A 0.905 0.70993 180 0 0 3.16879 7.13868" />
    <path d="M 4.56317 4.54986 A 0.905 0.70993 360 0 1 4.58102 4.69018 A 0.905 0.70993 360 0 1 2.77102 4.69018 A 0.905 0.70993 360 0 1 2.92602 4.29286" />
    <path d="M 4.42602 4.29286 A 0.905 0.70993 360 0 1 4.56317 4.54986" />
    <path d="M 4.77385 5.26328 A 0.125 0.01532 81.01221 0 0 4.7348 5.01635 L 4.70163 5.02159" />
    <path d="M 4.42602 4.69018 A 0.75 0.58834 360 0 1 2.92602 4.69018" />
    <path d="M 3.76902 8.9951 A 0.75 0.58834 360 0 1 2.92602 8.4113" />
    <path d="M 3.52779 -25.96567 A 0.75 0.58834 360 0 1 4.42602 -25.38894 A 0.75 0.58834 360 0 1 2.92602 -25.38894 A 0.75 0.58834 360 0 1 3.52779 -25.96567 Z" />
    <path d="M 5.3401 6.94774 L 4.42602 3.39141" />
    <path d="M 2.92602 -2.44455 L -0.29288 -14.96814 L -12.05615 -13.10759 L -6.12671 9.96176 L 1.22534 8.79892" />
    <path d="M 5.3401 6.94774 A 2.5 1.96113 360 0 1 6.17602 8.4113 L 6.17602 8.7214" />
    <path d="M 6.17602 8.4113 A 2.5 1.96113 360 0 1 5.51023 9.74388" />
    <path d="M 4.11519 10.34194 A 2.5 1.96113 360 0 1 1.22534 8.79892" />
    <path d="M 1.22534 9.10901 L 1.22534 8.79892" />
    <path d="M 1.22534 9.10901 A 2.5 1.96113 180 0 0 4.19189 10.64033" />
    <path d="M 5.57522 9.99672 A 2.5 1.96113 180 0 0 6.17602 8.7214" />
    <path d="M -12.05615 -12.7975 L -12.05615 -13.10759" />
    <path d="M -6.12671 10.27185 L -6.12671 9.96176" />
    <path d="M -6.12671 10.27185 L 1.22534 9.10901" />
    <path d="M -12.05615 -12.7975 L -6.12671 10.27185" />
    <path d="M 2.56995 10.48015 L 2.5879 10.54999" />
    <path d="M 2.65042 10.79321 L 2.8934 11.73856 L 4.41241 11.4983" />
    <path d="M 2.8934 11.73856 L 2.8934 10.58396" />
    <path d="M 2.71528 10.78295 A 0.125 0.01532 81.01221 0 0 2.67622 10.53602" />
    <path d="M 3.75199 10.68162 A 0.125 0.07599 345.58545 0 0 3.75261 10.68434" />
    <path d="M 3.99474 11.2423 A 0.125 0.07599 345.58545 0 0 3.75261 11.30453" />
    <path d="M 2.59772 10.75251 A 0.125 0.01532 261.01221 0 1 2.5782 10.55152 L 2.67622 10.53602" />
    <path d="M 2.5782 10.55152 A 0.125 0.01532 261.01221 0 1 2.61725 10.79845 L 2.71528 10.78295" />
    <path d="M 2.61725 10.79845 A 0.125 0.01532 261.01221 0 1 2.59772 10.75251" />
    <path d="M 3.89344 10.80765 A 0.125 0.07599 165.58545 0 1 3.77237 10.76124 L 3.75261 10.68434" />
    <path d="M 3.77237 10.76124 A 0.125 0.07599 165.58545 0 1 3.8207 10.67924" />
    <path d="M 3.98983 10.66702 A 0.125 0.07599 165.58545 0 1 4.0145 10.69901 L 4.00586 10.66539" />
    <path d="M 4.0145 10.69901 A 0.125 0.07599 165.58545 0 1 3.89344 10.80765" />
    <path d="M 3.89344 11.42784 A 0.125 0.07599 165.58545 0 1 3.77237 11.38143 L 3.75261 11.30453" />
    <path d="M 3.77237 11.38143 A 0.125 0.07599 165.58545 0 1 4.0145 11.3192 L 3.99474 11.2423" />
    <path d="M 4.0145 11.3192 A 0.125 0.07599 165.58545 0 1 3.89344 11.42784" />
    <path d="M 3.14399 11.69892 A 0.905 0.70993 180 0 0 4.4202 11.52862" />
    <path d="M 4.42602 13.99299 A 0.75 0.58834 360 1 1 2.92602 13.99299" />
    <path d="M 4.56317 13.85268 A 0.905 0.70993 360 0 1 4.58102 13.99299 L 4.58102 14.30309 A 0.905 0.70993 360 0 1 2.77102 14.30309" />
    <path d="M 4.58102 13.99299 A 0.905 0.70993 360 0 1 2.77102 13.99299 L 2.77102 14.30309" />
    <path d="M 2.77102 13.99299 A 0.905 0.70993 360 0 1 2.92602 13.59568" />
    <path d="M 4.42602 13.59568 A 0.905 0.70993 360 0 1 4.56317 13.85268" />
    <path d="M 2.8934 15.22711 L 4.85395 14.91702 L 4.45865 13.37906 L 4.42602 13.38422" />
    <path d="M 2.4981 13.68916 L 2.8934 15.22711" />
    <path d="M 2.90187 13.62529 L 2.4981 13.68916" />
    <path d="M 2.8934 16.46749 L 2.8934 15.22711" />
    <path d="M 2.8934 16.46749 L 3.15639 16.42589" />
    <path d="M 4.78861 16.16773 L 4.85395 16.1574 L 4.85395 16.00084" />
    <path d="M 4.85395 15.87382 L 4.85395 14.91702" />
    <path d="M 2.98652 15.83257 A 0.905 0.5502 165.58545 0 1 4.75018 15.46697" />
    <path d="M 2.99716 15.91754 A 0.905 0.5502 165.58545 0 1 2.98652 15.83257" />
    <path d="M 2.4981 14.92953 L 2.4981 13.68916" />
    <path d="M 2.4981 14.92953 L 2.5879 15.27892" />
    <path d="M 2.65042 15.52214 L 2.8934 16.46749" />
    <path d="M 2.71528 14.89169 A 0.125 0.01532 81.01221 0 0 2.67622 14.64476" />
    <path d="M 2.71528 15.51188 A 0.125 0.01532 81.01221 0 0 2.67622 15.26495" />
    <path d="M 3.08535 16.21706 A 0.905 0.5502 165.58545 0 1 4.84901 15.85146 L 4.75018 15.46697" />
    <path d="M 4.84901 15.85146 A 0.905 0.5502 165.58545 0 1 4.77554 16.18827" />
    <path d="M 3.32276 16.56167 A 0.905 0.5502 165.58545 0 1 3.09599 16.30203 L 2.99716 15.91754" />
    <path d="M 3.09599 16.30203 A 0.905 0.5502 165.58545 0 1 3.08535 16.21706" />
    <path d="M 2.59772 14.86126 A 0.125 0.01532 261.01221 0 1 2.5782 14.66027 L 2.67622 14.64476" />
    <path d="M 2.5782 14.66027 A 0.125 0.01532 261.01221 0 1 2.61725 14.9072 L 2.71528 14.89169" />
    <path d="M 2.61725 14.9072 A 0.125 0.01532 261.01221 0 1 2.59772 14.86126" />
    <path d="M 2.59772 15.48144 A 0.125 0.01532 261.01221 0 1 2.5782 15.28046 L 2.67622 15.26495" />
    <path d="M 2.5782 15.28046 A 0.125 0.01532 261.01221 0 1 2.61725 15.52739 L 2.71528 15.51188" />
    <path d="M 2.61725 15.52739 A 0.125 0.01532 261.01221 0 1 2.59772 15.48144" />
    <path d="M 4.77385 14.5661 A 0.125 0.01532 81.01221 0 0 4.7348 14.31917 L 4.70163 14.32441" />
    <path d="M 3.14399 16.42785 A 0.905 0.70993 180 0 0 3.16879 16.4415" />
    <path d="M 3.9725 15.6116 A 0.75 0.45597 165.58545 0 1 4.69889 15.89004" />
    <path d="M 3.24611 16.26345 A 0.75 0.45597 165.58545 0 1 3.9725 15.6116" />
    <path d="M 9.80312 38.29647 A 0.75 0.45597 165.58545 0 1 10.52951 38.5749 L 4.69889 15.89004" />
    <path d="M 10.52951 38.5749 A 0.75 0.45597 165.58545 0 1 9.07673 38.94831 L 3.24611 16.26345" />
    <path d="M 9.07673 38.94831 A 0.75 0.45597 165.58545 0 1 9.80312 38.29647" />
    <path d="M 2.92602 24.2261 A 0.75 0.58834 180 0 0 4.42602 24.2261" />
    <path d="M 10.52951 29.27209 L 4.69889 6.58722" />
    <path d="M 9.07673 29.64549 L 3.24611 6.96063" />
    <path d="M 4.84901 6.54864 L 4.75018 6.16415" />
    <path d="M 3.09599 6.99921 L 2.99716 6.61472" />
    <path d="M 2.61725 5.60438 L 2.71528 5.58887" />
    <path d="M 2.5782 5.35745 L 2.67622 5.34194" />
    <path d="M 2.61725 6.22457 L 2.71528 6.20906" />
    <path d="M 2.5782 5.97764 L 2.67622 5.96213" />
    <path d="M 2.77102 4.69018 L 2.77102 5.00027" />
    <path d="M 4.58102 4.69018 L 4.58102 5.00027" />
    <path d="M 4.77385 5.26328 L 4.76414 5.26481" />
    <path d="M 2.92602 7.15951 L 2.92602 8.4113" />
    <path d="M 2.92602 -25.38894 L 2.92602 4.69018" />
    <path d="M 4.42602 -25.38894 L 4.42602 4.69018" />
    <path d="M 2.92602 11.7334 L 2.92602 13.99299" />
    <path d="M 4.42602 11.55126 L 4.42602 13.99299" />
    <path d="M 4.77385 14.5661 L 4.76414 14.56763" />
    <path d="M 2.92602 16.46233 L 2.92602 24.2261" />
    <path d="M 4.42602 20.85408 L 4.42602 24.2261" />
</svg>