<svg version="1.1" xmlns="http://www.w3.org/2000/svg" viewBox="-13.055807945900463 -25.612920557329005 24.50064388490961 41.82396890091429" fill="none" stroke="black" stroke-width="0.6%" vector-effect="non-scaling-stroke">
    <path d="M 3.03395 -7.89842 L 3.03218 -7.89455 L 3.03053 -7.8907 L 3.02902 -7.88686 L 3.02764 -7.88303 L 3.02638 -7.87922 L 3.02526 -7.87543 L 3.02427 -7.87165 L 3.02341 -7.86789 L 3.02269 -7.86415 L 3.02209 -7.86043 L 3.02163 -7.85673 L 3.0213 -7.85305 L 3.0211 -7.84939 L 3.02103 -7.84576 L 3.02103 -7.5071" />
    <path d="M 3.03395 -7.89842 L 3.03218 -7.91094 L 3.03053 -7.92348 L 3.02902 -7.93602 L 3.02764 -7.94857 L 3.02638 -7.96112 L 3.02526 -7.97367 L 3.02427 -7.98622 L 3.02341 -7.99876 L 3.02269 -8.01129 L 3.02209 -8.02382 L 3.02163 -8.03633 L 3.0213 -8.04882 L 3.0211 -8.0613 L 3.02103 -8.07375" />
    <path d="M 3.02103 11.96437 A 0.655 0.31035 180 1 0 4.33103 11.96437" />
    <path d="M 4.21122 -7.37912 C 4.21 -7.38 4.21 -7.38 4.20789 -7.37861 C 4.21 -7.38 4.21 -7.38 4.20435 -7.37769 C 4.2 -7.38 4.2 -7.38 4.20062 -7.37638 C 4.2 -7.38 4.2 -7.38 4.19671 -7.37468 C 4.2 -7.37 4.19 -7.37 4.19266 -7.37261 C 4.19 -7.37 4.19 -7.37 4.18849 -7.37017 C 4.19 -7.37 4.19 -7.37 4.18422 -7.3674 C 4.18 -7.37 4.18 -7.37 4.17989 -7.36432 C 4.18 -7.36 4.18 -7.36 4.17566 -7.36104 C 4.17 -7.36 4.17 -7.36 4.1714 -7.35748 C 4.17 -7.36 4.17 -7.35 4.16715 -7.35367 C 4.17 -7.35 4.16 -7.35 4.16296 -7.34964 C 4.16 -7.35 4.16 -7.35 4.15889 -7.34544 C 4.16 -7.34 4.16 -7.34 4.15498 -7.34109 C 4.15 -7.34 4.15 -7.34 4.15128 -7.33664 C 4.15 -7.34 4.15 -7.33 4.14782 -7.33211 C 4.15 -7.33 4.15 -7.33 4.14466 -7.32755 C 4.14 -7.33 4.14 -7.32 4.14182 -7.32299 C 4.14 -7.32 4.14 -7.32 4.13935 -7.31846 C 4.14 -7.32 4.14 -7.32 4.13727 -7.31399 C 4.14 -7.31 4.14 -7.31 4.13561 -7.30961 C 4.14 -7.31 4.13 -7.31 4.13441 -7.30535 C 4.13 -7.3 4.13 -7.3 4.13367 -7.30123 C 4.13 -7.3 4.13 -7.3 4.13342 -7.29729 C 4.13 -7.3 4.13 -7.3 4.13357 -7.29439 C 4.13 -7.29 4.13 -7.29 4.13402 -7.29165 C 4.13 -7.29 4.13 -7.29 4.13475 -7.28909 C 4.14 -7.29 4.14 -7.29 4.13577 -7.2867 C 4.14 -7.28 4.14 -7.28 4.14241 -7.27908 C 4.15 -7.28 4.16 -7.27 4.16478 -7.27423 C 4.17 -7.27 4.17 -7.27 4.1685 -7.27473 C 4.17 -7.27 4.17 -7.28 4.17225 -7.27552 C 4.17 -7.28 4.17 -7.28 4.17601 -7.27658 C 4.18 -7.28 4.18 -7.28 4.17973 -7.27791 C 4.18 -7.28 4.18 -7.28 4.18472 -7.28013 C 4.19 -7.28 4.19 -7.28 4.18962 -7.2828" />
    <path d="M 3.85116 -7.23557 C 3.85 -7.24 3.85 -7.24 3.84976 -7.23849 C 3.85 -7.24 3.85 -7.24 3.84811 -7.24127 C 3.85 -7.24 3.85 -7.24 3.84621 -7.2439 C 3.85 -7.24 3.84 -7.25 3.84407 -7.24636 C 3.84 -7.25 3.84 -7.25 3.84171 -7.24864 C 3.84 -7.25 3.84 -7.25 3.83914 -7.25073 C 3.84 -7.25 3.84 -7.25 3.83637 -7.25261 C 3.84 -7.25 3.83 -7.25 3.83342 -7.25429 C 3.83 -7.25 3.83 -7.26 3.8303 -7.25574 C 3.83 -7.26 3.83 -7.26 3.82704 -7.25697 C 3.83 -7.26 3.82 -7.26 3.82365 -7.25796 C 3.82 -7.26 3.82 -7.26 3.82015 -7.2587 C 3.82 -7.26 3.82 -7.26 3.81656 -7.25921 C 3.82 -7.26 3.81 -7.26 3.8129 -7.25947 C 3.81 -7.26 3.81 -7.26 3.8092 -7.25948 C 3.81 -7.26 3.81 -7.26 3.80548 -7.25925 C 3.8 -7.26 3.8 -7.26 3.80069 -7.25859 C 3.8 -7.26 3.8 -7.26 3.79592 -7.25752 C 3.79 -7.26 3.79 -7.26 3.79124 -7.25607 C 3.79 -7.26 3.79 -7.25 3.78668 -7.25424 C 3.79 -7.25 3.78 -7.25 3.7823 -7.25204 C 3.78 -7.25 3.78 -7.25 3.77814 -7.2495 C 3.78 -7.25 3.78 -7.25 3.77425 -7.24664 C 3.77 -7.25 3.77 -7.24 3.77065 -7.24349 C 3.77 -7.24 3.77 -7.24 3.76738 -7.24007 C 3.77 -7.24 3.77 -7.24 3.76448 -7.23641 C 3.76 -7.24 3.76 -7.23 3.76198 -7.23255 C 3.76 -7.23 3.76 -7.23 3.75989 -7.22852 C 3.76 -7.22 3.76 -7.22 3.75609 -7.21142 C 3.76 -7.21 3.76 -7.2 3.75914 -7.19642 L 3.8087 -7.07995" />
    <path d="M 3.32539 -7.27249 C 3.32 -7.27 3.32 -7.28 3.32338 -7.27671 C 3.32 -7.28 3.32 -7.28 3.32095 -7.28091 C 3.32 -7.28 3.32 -7.28 3.31812 -7.28506 C 3.32 -7.29 3.32 -7.29 3.31491 -7.28913 C 3.31 -7.29 3.31 -7.29 3.31135 -7.29311 C 3.31 -7.29 3.31 -7.3 3.30745 -7.29696 C 3.31 -7.3 3.3 -7.3 3.30325 -7.30066 C 3.3 -7.3 3.3 -7.3 3.29878 -7.30419 C 3.3 -7.31 3.3 -7.31 3.29407 -7.30752 C 3.29 -7.31 3.29 -7.31 3.28915 -7.31064 C 3.29 -7.31 3.29 -7.31 3.28407 -7.31353 C 3.28 -7.31 3.28 -7.32 3.27885 -7.31617 C 3.28 -7.32 3.28 -7.32 3.27355 -7.31853 C 3.27 -7.32 3.27 -7.32 3.2682 -7.32062 C 3.27 -7.32 3.26 -7.32 3.26284 -7.3224 C 3.26 -7.32 3.26 -7.32 3.25752 -7.32388 C 3.26 -7.32 3.25 -7.32 3.25248 -7.325 C 3.25 -7.33 3.25 -7.33 3.2475 -7.32582 C 3.25 -7.33 3.24 -7.33 3.24264 -7.32632 C 3.24 -7.33 3.24 -7.33 3.23794 -7.32651 C 3.24 -7.33 3.23 -7.33 3.23346 -7.32635 C 3.23 -7.33 3.23 -7.33 3.22923 -7.32586 C 3.23 -7.33 3.23 -7.33 3.22529 -7.32502 C 3.22 -7.32 3.22 -7.32 3.22168 -7.32385 C 3.22 -7.32 3.22 -7.32 3.21841 -7.32234 C 3.22 -7.32 3.22 -7.32 3.21553 -7.32049 C 3.21 -7.32 3.21 -7.32 3.21304 -7.31831 C 3.21 -7.32 3.21 -7.32 3.21097 -7.3158 C 3.21 -7.31 3.21 -7.31 3.20718 -7.30273 C 3.21 -7.3 3.21 -7.29 3.21112 -7.28565 L 3.31856 -7.03313" />
    <path d="M 3.03395 -7.41408 C 3.03 -7.41 3.03 -7.41 3.03522 -7.41152 C 3.04 -7.41 3.04 -7.41 3.03652 -7.4097 C 3.04 -7.41 3.04 -7.41 3.03784 -7.40865 C 3.04 -7.41 3.04 -7.41 3.03914 -7.40837 C 3.04 -7.41 3.04 -7.41 3.04048 -7.40895 C 3.04 -7.41 3.04 -7.41 3.04173 -7.4104 C 3.04 -7.41 3.04 -7.41 3.04286 -7.41271 C 3.04 -7.41 3.04 -7.41 3.04384 -7.41582 C 3.04 -7.42 3.04 -7.42 3.04464 -7.41968 C 3.04 -7.42 3.05 -7.42 3.04522 -7.42423 C 3.05 -7.43 3.05 -7.43 3.04559 -7.42939 C 3.05 -7.43 3.05 -7.43 3.04571 -7.43506 C 3.05 -7.44 3.05 -7.44 3.04564 -7.4395 C 3.05 -7.44 3.05 -7.44 3.04545 -7.44412 C 3.05 -7.45 3.05 -7.45 3.04512 -7.44886 C 3.04 -7.45 3.04 -7.45 3.04468 -7.45368 C 3.04 -7.46 3.04 -7.46 3.04412 -7.45855 C 3.04 -7.46 3.04 -7.46 3.04346 -7.4634 C 3.04 -7.47 3.04 -7.47 3.04187 -7.47292 C 3.04 -7.47 3.04 -7.48 3.04097 -7.47749 C 3.04 -7.48 3.04 -7.48 3.04002 -7.48188 C 3.04 -7.48 3.04 -7.48 3.03902 -7.48604 C 3.04 -7.49 3.04 -7.49 3.03801 -7.48993 C 3.04 -7.49 3.04 -7.49 3.03698 -7.49353 C 3.04 -7.49 3.04 -7.5 3.03595 -7.49678 C 3.04 -7.5 3.04 -7.5 3.03494 -7.49966 C 3.03 -7.5 3.03 -7.5 3.03395 -7.50214 C 3.03 -7.5 3.03 -7.5 3.03275 -7.5047 C 3.03 -7.51 3.03 -7.51 3.03162 -7.50653 C 3.03 -7.51 3.03 -7.51 3.03057 -7.50762 C 3.03 -7.51 3.03 -7.51 3.02963 -7.50792 L 2.61282 -7.46811" />
    <path d="M 4.32337 -1.39656 L 4.31224 -1.41639 L 4.29629 -1.43492 L 4.27563 -1.45202 L 4.25044 -1.46755 L 4.2209 -1.48139 L 4.18723 -1.49345 L 4.14969 -1.50362 L 4.10856 -1.51183 L 4.06415 -1.51802 L 4.01681 -1.52215 L 3.96688 -1.52417 L 3.91476 -1.52408 L 3.86082 -1.52188 L 3.80548 -1.51758 L 3.73278 -1.509 L 3.65936 -1.49709 L 3.58615 -1.48202 L 3.51408 -1.46397 L 3.44404 -1.44316 L 3.37691 -1.41987 L 3.31355 -1.39437 L 3.25475 -1.36699 L 3.20124 -1.33808 L 3.15371 -1.308 L 3.11274 -1.27713 L 3.07886 -1.24585 L 3.05248 -1.21456 L 3.03395 -1.18366" />
    <path d="M 3.11796 -0.88364 L 3.10952 -0.90402 L 3.10143 -0.92461 L 3.09371 -0.9454 L 3.08635 -0.96638 L 3.07937 -0.98754 L 3.07276 -1.00886 L 3.06654 -1.03033 L 3.0607 -1.05194 L 3.05525 -1.07367 L 3.0502 -1.09551 L 3.04553 -1.11744 L 3.04127 -1.13945 L 3.03741 -1.16153 L 3.03395 -1.18366" />
    <path d="M 3.03395 -0.69932 C 3.03 -0.7 3.03 -0.7 3.03522 -0.69676 C 3.04 -0.7 3.04 -0.7 3.03652 -0.69494 C 3.04 -0.69 3.04 -0.69 3.03784 -0.69389 C 3.04 -0.69 3.04 -0.69 3.03914 -0.69361 C 3.04 -0.69 3.04 -0.69 3.04048 -0.69419 C 3.04 -0.69 3.04 -0.7 3.04173 -0.69564 C 3.04 -0.7 3.04 -0.7 3.04286 -0.69795 C 3.04 -0.7 3.04 -0.7 3.04384 -0.70106 C 3.04 -0.7 3.04 -0.7 3.04464 -0.70492 C 3.04 -0.71 3.05 -0.71 3.04522 -0.70947 C 3.05 -0.71 3.05 -0.71 3.04559 -0.71463 C 3.05 -0.72 3.05 -0.72 3.04571 -0.7203 C 3.05 -0.72 3.05 -0.72 3.04564 -0.72474 C 3.05 -0.73 3.05 -0.73 3.04545 -0.72936 C 3.05 -0.73 3.05 -0.73 3.04512 -0.7341 C 3.04 -0.74 3.04 -0.74 3.04468 -0.73892 C 3.04 -0.74 3.04 -0.74 3.04412 -0.74379 C 3.04 -0.75 3.04 -0.75 3.04346 -0.74864 C 3.04 -0.75 3.04 -0.76 3.04187 -0.75816 C 3.04 -0.76 3.04 -0.76 3.04097 -0.76273 C 3.04 -0.76 3.04 -0.77 3.04002 -0.76712 C 3.04 -0.77 3.04 -0.77 3.03902 -0.77128 C 3.04 -0.77 3.04 -0.77 3.03801 -0.77517 C 3.04 -0.78 3.04 -0.78 3.03698 -0.77877 C 3.04 -0.78 3.04 -0.78 3.03595 -0.78202 C 3.04 -0.78 3.04 -0.78 3.03494 -0.7849 C 3.03 -0.79 3.03 -0.79 3.03395 -0.78738 C 3.03 -0.79 3.03 -0.79 3.03275 -0.78994 C 3.03 -0.79 3.03 -0.79 3.03162 -0.79177 C 3.03 -0.79 3.03 -0.79 3.03057 -0.79286 C 3.03 -0.79 3.03 -0.79 3.02963 -0.79316 L 2.61282 -0.75335" />
    <path d="M 1.22534 -9.81713 A 2.5 1.18454 180 0 0 6.17603 -10.05124" />
    <path d="M -6.12672 -9.11481 L 1.22534 -9.81713 L 1.22534 -10.25744" />
    <path d="M -12.05581 -23.04889 L -6.12672 -9.11481 L -6.12672 -9.55512 L 1.22534 -10.25744" />
    <path d="M 4.75434 -7.57842 A 0.05 0.0087 84.54325 0 0 4.75909 -7.57268 A 0.05 0.0087 84.54325 0 0 4.74958 -7.67222" />
    <path d="M 4.85315 -7.34618 A 0.05 0.0087 84.54325 0 0 4.85791 -7.34044 A 0.05 0.0087 84.54325 0 0 4.8484 -7.43999" />
    <path d="M 4.75434 -0.86366 A 0.05 0.0087 84.54325 0 0 4.75909 -0.85792 A 0.05 0.0087 84.54325 0 0 4.74958 -0.95746" />
    <path d="M 4.85315 -0.63142 A 0.05 0.0087 84.54325 0 0 4.85791 -0.62568 A 0.05 0.0087 84.54325 0 0 4.8484 -0.72523" />
    <path d="M 9.80275 12.57675 A 0.655 0.56543 156.94978 0 1 10.40546 12.8971 A 0.655 0.56543 156.94978 1 1 9.20005 13.41002 A 0.655 0.56543 156.94978 0 1 9.80275 12.57675 Z" />
    <path d="M 2.49891 -7.53859 A 0.125 0.02176 84.54325 0 0 2.50165 -7.53283" />
    <path d="M 2.51815 -7.5344 A 0.125 0.02176 84.54325 0 0 2.48703 -7.7731" />
    <path d="M 5.34013 -11.37554 L 4.33103 -13.74704" />
    <path d="M 3.52677 -15.63717 L -0.2925 -24.61292 L -12.05581 -23.4892 L -6.12672 -9.55512" />
    <path d="M 5.34013 -11.37554 A 2.5 1.18454 360 0 1 6.17603 -10.49155 A 2.5 1.18454 360 0 1 1.22534 -10.25744" />
    <path d="M -12.05581 -23.04889 L -12.05581 -23.4892" />
    <path d="M 4.75434 -7.51237 A 0.125 0.02176 264.54325 0 1 4.73924 -7.57078" />
    <path d="M 4.72973 -7.67033 A 0.125 0.02176 264.54325 0 1 4.74245 -7.74688 A 0.125 0.02176 264.54325 0 1 4.76622 -7.49802 A 0.125 0.02176 264.54325 0 1 4.75434 -7.51237" />
    <path d="M 4.85315 -7.28014 A 0.125 0.02176 264.54325 0 1 4.83806 -7.33855" />
    <path d="M 4.82855 -7.43809 A 0.125 0.02176 264.54325 0 1 4.84127 -7.51465 A 0.125 0.02176 264.54325 0 1 4.86504 -7.26578 A 0.125 0.02176 264.54325 0 1 4.85315 -7.28014" />
    <path d="M 4.01514 -7.03289 A 0.125 0.10791 336.94978 0 0 4.00845 -7.05747 A 0.125 0.10791 336.94978 0 0 3.77841 -6.95958 A 0.125 0.10791 336.94978 0 0 3.79148 -6.93772" />
    <path d="M 3.52501 -6.98607 A 0.125 0.10791 336.94978 0 0 3.51832 -7.01065 A 0.125 0.10791 336.94978 0 0 3.28827 -6.91276 A 0.125 0.10791 336.94978 0 0 3.30135 -6.8909" />
    <path d="M 2.59773 -7.30636 A 0.125 0.02176 84.54325 0 0 2.60962 -7.292 A 0.125 0.02176 84.54325 0 0 2.58584 -7.54087" />
    <path d="M 4.75434 -0.79761 A 0.125 0.02176 264.54325 0 1 4.73924 -0.85602" />
    <path d="M 4.72973 -0.95557 A 0.125 0.02176 264.54325 0 1 4.74245 -1.03212 A 0.125 0.02176 264.54325 1 1 4.76622 -0.78326 A 0.125 0.02176 264.54325 0 1 4.75434 -0.79761" />
    <path d="M 4.85315 -0.56538 A 0.125 0.02176 264.54325 0 1 4.83806 -0.62379" />
    <path d="M 4.82855 -0.72333 A 0.125 0.02176 264.54325 0 1 4.84127 -0.79989 A 0.125 0.02176 264.54325 1 1 4.86504 -0.55102 A 0.125 0.02176 264.54325 0 1 4.85315 -0.56538" />
    <path d="M 2.59773 -0.5916 A 0.125 0.02176 84.54325 0 0 2.60962 -0.57724 A 0.125 0.02176 84.54325 0 0 2.58584 -0.82611" />
    <path d="M 2.49891 -0.82383 A 0.125 0.02176 84.54325 0 0 2.50165 -0.81807" />
    <path d="M 2.51815 -0.81964 A 0.125 0.02176 84.54325 0 0 2.48703 -1.05834" />
    <path d="M 2.40088 -7.52923 A 0.125 0.02176 264.54325 0 1 2.389 -7.76374 L 2.48703 -7.7731" />
    <path d="M 2.389 -7.76374 A 0.125 0.02176 264.54325 0 1 2.41277 -7.51487 L 2.48046 -7.52134" />
    <path d="M 2.41277 -7.51487 A 0.125 0.02176 264.54325 0 1 2.40088 -7.52923" />
    <path d="M 4.33103 -10.49155 A 0.655 0.31035 360 0 1 3.02103 -10.49155" />
    <path d="M 4.85236 -7.52174 A 0.125 0.02176 84.54325 0 0 4.85511 -7.51597" />
    <path d="M 4.8716 -7.51755 A 0.125 0.02176 84.54325 0 0 4.84048 -7.75625 L 4.74245 -7.74688" />
    <path d="M 4.95118 -7.2895 A 0.125 0.02176 84.54325 0 0 4.96307 -7.27515 L 4.86504 -7.26578" />
    <path d="M 4.96307 -7.27515 A 0.125 0.02176 84.54325 1 0 4.93929 -7.52401 L 4.84127 -7.51465" />
    <path d="M 3.9132 -6.852 A 0.125 0.10791 156.94978 0 1 3.79818 -6.91314 L 3.77841 -6.95958" />
    <path d="M 3.79818 -6.91314 A 0.125 0.10791 156.94978 0 1 4.02822 -7.01102 L 4.00845 -7.05747" />
    <path d="M 4.02822 -7.01102 A 0.125 0.10791 156.94978 0 1 3.9132 -6.852" />
    <path d="M 3.42306 -6.80518 A 0.125 0.10791 156.94978 0 1 3.30804 -6.86632 L 3.28827 -6.91276" />
    <path d="M 3.30804 -6.86632 A 0.125 0.10791 156.94978 0 1 3.53808 -6.9642 L 3.51832 -7.01065" />
    <path d="M 3.53808 -6.9642 A 0.125 0.10791 156.94978 0 1 3.42306 -6.80518" />
    <path d="M 2.4997 -7.29699 A 0.125 0.02176 264.54325 0 1 2.48782 -7.5315 L 2.58584 -7.54087" />
    <path d="M 2.48782 -7.5315 A 0.125 0.02176 264.54325 1 1 2.51159 -7.28264 L 2.60962 -7.292" />
    <path d="M 2.51159 -7.28264 A 0.125 0.02176 264.54325 0 1 2.4997 -7.29699" />
    <path d="M 4.85236 -0.80698 A 0.125 0.02176 84.54325 0 0 4.85511 -0.80121" />
    <path d="M 4.8716 -0.80279 A 0.125 0.02176 84.54325 0 0 4.84048 -1.04149 L 4.74245 -1.03212" />
    <path d="M 4.95118 -0.57474 A 0.125 0.02176 84.54325 0 0 4.96307 -0.56039 L 4.86504 -0.55102" />
    <path d="M 4.96307 -0.56039 A 0.125 0.02176 84.54325 1 0 4.93929 -0.80925 L 4.84127 -0.79989" />
    <path d="M 2.4997 -0.58223 A 0.125 0.02176 264.54325 0 1 2.48782 -0.81674 L 2.58584 -0.82611" />
    <path d="M 2.48782 -0.81674 A 0.125 0.02176 264.54325 1 1 2.51159 -0.56788 L 2.60962 -0.57724" />
    <path d="M 2.51159 -0.56788 A 0.125 0.02176 264.54325 0 1 2.4997 -0.58223" />
    <path d="M 2.40088 -0.81447 A 0.125 0.02176 264.54325 0 1 2.389 -1.04898 L 2.48703 -1.05834" />
    <path d="M 2.389 -1.04898 A 0.125 0.02176 264.54325 1 1 2.41277 -0.80011 L 2.48046 -0.80658" />
    <path d="M 2.41277 -0.80011 A 0.125 0.02176 264.54325 0 1 2.40088 -0.81447" />
    <path d="M 3.54658 -15.63921 A 0.655 0.31035 360 0 1 4.33103 -15.33498 L 4.33103 -10.49155" />
    <path d="M 4.33103 -15.33498 A 0.655 0.31035 360 0 1 3.02103 -15.33498 L 3.02103 -10.49155" />
    <path d="M 3.02103 -15.33498 A 0.655 0.31035 360 0 1 3.54658 -15.63921" />
    <path d="M -2.45069 -0.91951 A 0.655 0.56543 336.94978 0 0 -3.05339 -0.08624 L 3.07333 14.31231 A 0.655 0.56543 336.94978 0 0 3.20947 14.4967" />
    <path d="M -1.84798 -0.59916 A 0.655 0.56543 336.94978 0 0 -2.45069 -0.91951" />
    <path d="M 3.67603 13.47904 A 0.655 0.56543 336.94978 0 0 3.07333 14.31231" />
    <path d="M 4.0203 14.50986 A 0.655 0.56543 156.94978 0 1 3.76859 14.6178" />
    <path d="M 3.71361 14.62808 A 0.655 0.56543 156.94978 0 1 3.33813 14.5786" />
    <path d="M 3.67603 13.47904 A 0.655 0.56543 156.94978 0 1 4.27874 13.79939 A 0.655 0.56543 156.94978 0 1 4.14259 14.40756" />
    <path d="M 3.32735 14.5735 L 3.33294 14.57297 A 0.05 0.0087 84.54325 0 0 3.33769 14.57871 L 2.62233 14.64705" />
    <path d="M 3.33294 14.48491 L 3.20947 14.4967" />
    <path d="M 4.01913 14.41936 L 4.14259 14.40756" />
    <path d="M 4.01913 14.50742 L 4.01913 14.41936 A 0.05 0.0087 264.54325 0 1 4.02388 14.51316 L 4.75909 14.44293 A 0.05 0.0087 84.54325 0 0 4.74958 14.34338" />
    <path d="M 3.33769 14.57871 A 0.05 0.0087 84.54325 0 0 3.33294 14.48491" />
    <path d="M 4.75434 14.43719 A 0.05 0.0087 84.54325 0 0 4.75909 14.44293" />
    <path d="M 4.02388 14.51316 A 0.05 0.0087 264.54325 0 1 4.01913 14.50742" />
    <path d="M 2.59773 14.70925 A 0.125 0.02176 84.54325 0 0 2.60962 14.7236 A 0.125 0.02176 84.54325 0 0 2.58584 14.47474" />
    <path d="M 4.75434 14.50323 A 0.125 0.02176 264.54325 0 1 4.73924 14.44483" />
    <path d="M 4.72973 14.34528 A 0.125 0.02176 264.54325 0 1 4.74245 14.26872 A 0.125 0.02176 264.54325 0 1 4.76622 14.51759 A 0.125 0.02176 264.54325 0 1 4.75434 14.50323" />
    <path d="M 2.49891 14.47701 A 0.125 0.02176 84.54325 0 0 2.50165 14.48278" />
    <path d="M 2.51815 14.4812 A 0.125 0.02176 84.54325 0 0 2.48703 14.2425" />
    <path d="M 2.4997 14.71861 A 0.125 0.02176 264.54325 0 1 2.48782 14.4841 L 2.58584 14.47474" />
    <path d="M 2.48782 14.4841 A 0.125 0.02176 264.54325 1 1 2.51159 14.73297 L 2.60962 14.7236" />
    <path d="M 2.51159 14.73297 A 0.125 0.02176 264.54325 0 1 2.4997 14.71861" />
    <path d="M 4.85236 14.49387 A 0.125 0.02176 84.54325 0 0 4.85511 14.49964" />
    <path d="M 4.8716 14.49806 A 0.125 0.02176 84.54325 0 0 4.84048 14.25936 L 4.74245 14.26872" />
    <path d="M 2.40088 14.48638 A 0.125 0.02176 264.54325 0 1 2.389 14.25187 L 2.48703 14.2425" />
    <path d="M 2.389 14.25187 A 0.125 0.02176 264.54325 0 1 2.41277 14.50073 L 2.48046 14.49427" />
    <path d="M 2.41277 14.50073 A 0.125 0.02176 264.54325 0 1 2.40088 14.48638" />
    <path d="M 4.01514 14.98272 A 0.125 0.10791 336.94978 0 0 4.00845 14.95814 A 0.125 0.10791 336.94978 0 0 3.77841 15.05602 A 0.125 0.10791 336.94978 0 0 3.79148 15.07789" />
    <path d="M 3.9132 15.16361 A 0.125 0.10791 156.94978 0 1 3.79818 15.10247 L 3.77841 15.05602" />
    <path d="M 3.79818 15.10247 A 0.125 0.10791 156.94978 0 1 4.02822 15.00458 L 4.00845 14.95814" />
    <path d="M 4.02822 15.00458 A 0.125 0.10791 156.94978 0 1 3.9132 15.16361" />
    <path d="M 3.79121 14.63915 A 0.05 0.04316 336.94978 0 0 3.6992 14.67831 L 3.8087 14.93565" />
    <path d="M 3.52501 15.02954 A 0.125 0.10791 336.94978 0 0 3.51832 15.00496 A 0.125 0.10791 336.94978 0 0 3.28827 15.10284 A 0.125 0.10791 336.94978 0 0 3.30135 15.12471" />
    <path d="M 3.42306 15.21043 A 0.125 0.10791 156.94978 0 1 3.30804 15.14929 L 3.28827 15.10284" />
    <path d="M 3.30804 15.14929 A 0.125 0.10791 156.94978 0 1 3.53808 15.05141 L 3.51832 15.00496" />
    <path d="M 3.53808 15.05141 A 0.125 0.10791 156.94978 0 1 3.42306 15.21043" />
    <path d="M 3.30108 14.68597 A 0.05 0.04316 336.94978 0 0 3.20906 14.72513 L 3.31856 14.98248" />
    <path d="M 4.85315 14.73547 A 0.125 0.02176 264.54325 0 1 4.83806 14.67706" />
    <path d="M 4.82855 14.57751 A 0.125 0.02176 264.54325 0 1 4.84127 14.50096 A 0.125 0.02176 264.54325 0 1 4.86504 14.74982 A 0.125 0.02176 264.54325 0 1 4.85315 14.73547" />
    <path d="M 4.95118 14.7261 A 0.125 0.02176 84.54325 0 0 4.96307 14.74046 L 4.86504 14.74982" />
    <path d="M 4.96307 14.74046 A 0.125 0.02176 84.54325 1 0 4.93929 14.49159 L 4.84127 14.50096" />
    <path d="M 4.85315 14.66942 A 0.05 0.0087 84.54325 0 0 4.85791 14.67516 A 0.05 0.0087 84.54325 0 0 4.8484 14.57562" />
    <path d="M 4.11795 14.73965 A 0.05 0.0087 264.54325 0 1 4.11319 14.64585 L 4.8484 14.57562" />
    <path d="M 4.11319 14.64585 A 0.05 0.0087 264.54325 0 1 4.1227 14.7454 L 4.85791 14.67516" />
    <path d="M 4.1227 14.7454 A 0.05 0.0087 264.54325 0 1 4.11795 14.73965" />
    <path d="M 3.02103 -8.90808 L 3.02103 -8.07375" />
    <path d="M 3.02103 -7.40664 L 3.02103 -0.79234" />
    <path d="M 3.02103 -0.69188 L 3.02103 11.96437" />
    <path d="M 4.33103 -8.90808 L 4.33103 -7.39057" />
    <path d="M 4.33103 -7.29011 L 4.33103 -1.37856" />
    <path d="M 4.33103 1.96723 L 4.33103 11.96437" />
    <path d="M 2.5213 -9.00063 L 3.02103 -7.82619" />
    <path d="M 3.02103 -7.74877 L 2.51401 -7.70034" />
    <path d="M 3.02103 -7.64832 L 2.52352 -7.60079" />
    <path d="M 4.33103 -7.53179 L 4.75909 -7.57268" />
    <path d="M 4.33103 -7.63224 L 4.74958 -7.67222" />
    <path d="M 4.16478 -7.27423 L 4.85791 -7.34044" />
    <path d="M 4.21122 -7.37912 L 4.8484 -7.43999" />
    <path d="M 3.85116 -7.23557 L 3.90072 -7.11911" />
    <path d="M 3.32539 -7.27249 L 3.41058 -7.07228" />
    <path d="M 3.03914 -7.40837 L 2.62233 -7.36856" />
    <path d="M 4.56064 -0.83896 L 4.75909 -0.85792" />
    <path d="M 4.51956 -0.93549 L 4.74958 -0.95746" />
    <path d="M 4.65945 -0.60672 L 4.85791 -0.62568" />
    <path d="M 4.61838 -0.70326 L 4.8484 -0.72523" />
    <path d="M 10.40546 12.8971 L 4.32337 -1.39656" />
    <path d="M 9.20005 13.41002 L 3.11796 -0.88364" />
    <path d="M 3.03914 -0.69361 L 2.62233 -0.6538" />
    <path d="M 3.02103 -1.03401 L 2.51401 -0.98558" />
    <path d="M 3.02103 -0.93356 L 2.52352 -0.88603" />
    <path d="M 6.17603 -10.49155 L 6.17603 -10.05124" />
    <path d="M 4.83391 -7.50448 L 4.76622 -7.49802" />
    <path d="M 4.83391 -0.78972 L 4.76622 -0.78326" />
    <path d="M -1.84798 -0.59916 L 3.02103 10.84363" />
    <path d="M 3.62964 12.27394 L 4.27874 13.79939" />
    <path d="M 3.20305 14.49112 L 2.61282 14.5475" />
    <path d="M 4.14902 14.40075 L 4.74958 14.34338" />
    <path d="M 3.05269 14.26381 L 2.51401 14.31527" />
    <path d="M 3.09679 14.36005 L 2.52352 14.41481" />
    <path d="M 4.83391 14.51112 L 4.76622 14.51759" />
    <path d="M 3.79121 14.63915 L 3.90072 14.8965" />
    <path d="M 3.30108 14.68597 L 3.41058 14.94332" />
</svg>