<svg version="1.1" xmlns="http://www.w3.org/2000/svg" viewBox="-13.056153782151517 -23.344778130929786 24.594478003372352 38.907955684599926" fill="none" stroke="black" stroke-width="0.6%" vector-effect="non-scaling-stroke">
    <path d="M 9.80312 -0.20962 A 0.75 0.6581 155.66458 0 1 10.48648 0.15266 A 0.75 0.6581 155.66458 0 1 9.11976 0.77078 A 0.75 0.6581 155.66458 0 1 9.80312 -0.20962 Z" />
    <path d="M 3.9725 -13.10176 A 0.75 0.6581 335.66458 0 0 3.28913 -12.12136" />
    <path d="M 4.65586 -12.73948 A 0.75 0.6581 335.66458 0 0 3.9725 -13.10176" />
    <path d="M 3.08535 -12.35068 A 0.905 0.79411 155.66458 0 1 4.79709 -12.80335 A 0.905 0.79411 155.66458 0 1 4.83899 -12.33454" />
    <path d="M 3.47227 -11.71643 A 0.905 0.79411 155.66458 0 1 3.14791 -12.05749 A 0.905 0.79411 155.66458 0 1 3.08535 -12.35068" />
    <path d="M 2.98652 -12.56919 A 0.905 0.79411 155.66458 0 1 4.69826 -13.02186" />
    <path d="M 3.04908 -12.276 A 0.905 0.79411 155.66458 0 1 2.98652 -12.56919" />
    <path d="M 2.8934 -11.66569 L 2.8934 -13.45594 L 4.85395 -13.63217 L 4.58102 -14.23563" />
    <path d="M 2.8934 -11.66569 L 3.4702 -11.71754" />
    <path d="M 4.85395 -12.30149 L 4.85395 -12.41798" />
    <path d="M 4.85395 -12.60132 L 4.85395 -13.63217" />
    <path d="M 2.4981 -12.53974 L 2.4981 -14.32998 L 2.8934 -13.45594" />
    <path d="M 2.4981 -12.53974 L 2.8934 -11.66569" />
    <path d="M 2.69575 -13.33351 A 0.125 0.02211 84.8636 0 0 2.70694 -13.3209 A 0.125 0.02211 84.8636 0 0 2.68456 -13.5699" />
    <path d="M 2.69575 -12.43839 A 0.125 0.02211 84.8636 0 0 2.70694 -12.42578 A 0.125 0.02211 84.8636 0 0 2.68456 -12.67477" />
    <path d="M 2.77102 -14.35452 L 2.4981 -14.32998" />
    <path d="M 4.58102 -13.98108 A 0.905 0.40346 360 0 1 2.77102 -13.98108" />
    <path d="M 2.59772 -13.3247 A 0.125 0.02211 264.8636 0 1 2.58653 -13.56109 A 0.125 0.02211 264.8636 1 1 2.60891 -13.31209 A 0.125 0.02211 264.8636 0 1 2.59772 -13.3247 Z" />
    <path d="M 2.59772 -12.42957 A 0.125 0.02211 264.8636 0 1 2.58653 -12.66596 A 0.125 0.02211 264.8636 1 1 2.60891 -12.41697 A 0.125 0.02211 264.8636 0 1 2.59772 -12.42957 Z" />
    <path d="M 2.77102 -11.74327 A 0.905 0.40346 180 0 0 3.64248 -11.34008" />
    <path d="M 4.56317 -14.50838 A 0.905 0.40346 360 0 1 4.58102 -14.42864 A 0.905 0.40346 360 0 1 2.77102 -14.42864 A 0.905 0.40346 360 0 1 4.56317 -14.50838 Z" />
    <path d="M 4.42602 -9.05789 A 0.75 0.33436 0 1 1 2.92602 -9.05789" />
    <path d="M 3.14023 -14.7538 L -0.29288 -22.34478 L -12.05615 -21.2874 L -6.12671 -8.17675 L 1.22534 -8.83761" />
    <path d="M 5.09028 -8.13883 A 2.5 1.11454 360 0 1 1.22534 -8.83761" />
    <path d="M 1.22534 -8.39004 L 1.22534 -8.83761" />
    <path d="M 1.22534 -8.39004 A 2.5 1.11454 180 0 0 5.26602 -7.75025" />
    <path d="M -12.05615 -20.83984 L -12.05615 -21.2874" />
    <path d="M -6.12671 -7.72918 L -6.12671 -8.17675" />
    <path d="M -6.12671 -7.72918 L 1.22534 -8.39004" />
    <path d="M -12.05615 -20.83984 L -6.12671 -7.72918" />
    <path d="M 3.55539 -7.49709 A 0.75 0.33436 180 0 0 3.79666 -7.49709" />
    <path d="M 4.28744 -7.52964 A 0.905 0.40346 360 0 1 3.06461 -7.52964" />
    <path d="M 2.78888 -7.29979 A 0.905 0.40346 360 0 1 2.77102 -7.37954" />
    <path d="M 4.58102 -7.37954 A 0.905 0.40346 360 0 1 2.78888 -7.29979" />
    <path d="M 4.85395 -7.03063 L 4.60729 -7.576" />
    <path d="M 2.54922 -7.61542 L 2.8934 -6.8544 L 4.85395 -7.03063" />
    <path d="M 2.4981 -5.93819 L 2.4981 -7.62726" />
    <path d="M 4.85395 -5.24038 L 4.85395 -7.03063" />
    <path d="M 2.4981 -5.93819 L 2.8934 -5.06415 L 4.85395 -5.24038" />
    <path d="M 2.8934 -5.06415 L 2.8934 -6.8544" />
    <path d="M 2.69575 -6.73197 A 0.125 0.02211 84.8636 0 0 2.70694 -6.71936 A 0.125 0.02211 84.8636 0 0 2.68456 -6.96836" />
    <path d="M 2.69575 -5.83684 A 0.125 0.02211 84.8636 0 0 2.70694 -5.82424 A 0.125 0.02211 84.8636 0 0 2.68456 -6.07323" />
    <path d="M 3.99469 -6.52336 A 0.125 0.10968 335.66458 0 0 3.98757 -6.54646 A 0.125 0.10968 335.66458 0 0 3.75978 -6.44344 A 0.125 0.10968 335.66458 0 0 3.77242 -6.42284" />
    <path d="M 3.99469 -5.62824 A 0.125 0.10968 335.66458 0 0 3.98757 -5.65134 A 0.125 0.10968 335.66458 0 0 3.75978 -5.54832 A 0.125 0.10968 335.66458 0 0 3.77242 -5.52771" />
    <path d="M 2.4981 -7.15238 A 0.905 0.79411 335.66458 0 0 2.4981 -6.96904" />
    <path d="M 2.59772 -6.72316 A 0.125 0.02211 264.8636 0 1 2.58653 -6.95954 L 2.68456 -6.96836" />
    <path d="M 2.58653 -6.95954 A 0.125 0.02211 264.8636 1 1 2.60891 -6.71055 L 2.70694 -6.71936" />
    <path d="M 2.60891 -6.71055 A 0.125 0.02211 264.8636 0 1 2.59772 -6.72316" />
    <path d="M 2.59772 -5.82803 A 0.125 0.02211 264.8636 0 1 2.58653 -6.06442 L 2.68456 -6.07323" />
    <path d="M 2.58653 -6.06442 A 0.125 0.02211 264.8636 1 1 2.60891 -5.81542 L 2.70694 -5.82424" />
    <path d="M 2.60891 -5.81542 A 0.125 0.02211 264.8636 0 1 2.59772 -5.82803" />
    <path d="M 3.89344 -6.33936 A 0.125 0.10968 155.66458 0 1 3.77954 -6.39974 L 3.75978 -6.44344" />
    <path d="M 3.77954 -6.39974 A 0.125 0.10968 155.66458 0 1 4.00733 -6.50276 L 3.98757 -6.54646" />
    <path d="M 4.00733 -6.50276 A 0.125 0.10968 155.66458 0 1 3.89344 -6.33936" />
    <path d="M 3.89344 -5.44423 A 0.125 0.10968 155.66458 0 1 3.77954 -5.50462 L 3.75978 -5.54832" />
    <path d="M 3.77954 -5.50462 A 0.125 0.10968 155.66458 0 1 4.00733 -5.60763 L 3.98757 -5.65134" />
    <path d="M 4.00733 -5.60763 A 0.125 0.10968 155.66458 0 1 3.89344 -5.44423" />
    <path d="M 2.78888 -5.06198 A 0.905 0.40346 180 0 0 4.58102 -5.14172" />
    <path d="M 2.77102 -5.14172 A 0.905 0.40346 180 0 0 2.78888 -5.06198" />
    <path d="M 4.42602 -1.00177 A 0.75 0.33436 360 1 1 2.92602 -1.00177" />
    <path d="M 4.56317 -1.08152 A 0.905 0.40346 360 0 1 4.58102 -1.00177 L 4.58102 -0.55421 A 0.905 0.40346 360 0 1 2.77102 -0.55421" />
    <path d="M 4.58102 -1.00177 A 0.905 0.40346 360 0 1 2.77102 -1.00177 L 2.77102 -0.55421" />
    <path d="M 2.77102 -1.00177 A 0.905 0.40346 360 0 1 2.92602 -1.22757" />
    <path d="M 4.42602 -1.22757 A 0.905 0.40346 360 0 1 4.56317 -1.08152" />
    <path d="M 2.8934 -0.02908 L 4.85395 -0.2053 L 4.58102 -0.80876" />
    <path d="M 2.4981 -0.90312 L 2.8934 -0.02908" />
    <path d="M 2.77102 -0.92765 L 2.4981 -0.90312" />
    <path d="M 2.8934 1.76117 L 2.8934 -0.02908" />
    <path d="M 2.8934 1.76117 L 3.4702 1.70933" />
    <path d="M 4.85395 1.12538 L 4.85395 1.00888" />
    <path d="M 4.85395 0.82555 L 4.85395 -0.2053" />
    <path d="M 2.98652 0.85768 A 0.905 0.79411 155.66458 0 1 4.69826 0.405" />
    <path d="M 3.04908 1.15086 A 0.905 0.79411 155.66458 0 1 2.98652 0.85768" />
    <path d="M 2.4981 0.88713 L 2.4981 -0.90312" />
    <path d="M 2.4981 0.88713 L 2.8934 1.76117" />
    <path d="M 2.69575 0.09336 A 0.125 0.02211 84.8636 0 0 2.70694 0.10596 A 0.125 0.02211 84.8636 0 0 2.68456 -0.14303" />
    <path d="M 2.69575 0.98848 A 0.125 0.02211 84.8636 0 0 2.70694 1.00109 A 0.125 0.02211 84.8636 0 0 2.68456 0.75209" />
    <path d="M 3.08535 1.07619 A 0.905 0.79411 155.66458 0 1 4.79709 0.62352 L 4.69826 0.405" />
    <path d="M 4.79709 0.62352 A 0.905 0.79411 155.66458 0 1 4.83899 1.09232" />
    <path d="M 3.47227 1.71044 A 0.905 0.79411 155.66458 0 1 3.14791 1.36938 L 3.04908 1.15086" />
    <path d="M 3.14791 1.36938 A 0.905 0.79411 155.66458 0 1 3.08535 1.07619" />
    <path d="M 2.59772 0.10217 A 0.125 0.02211 264.8636 0 1 2.58653 -0.13422 L 2.68456 -0.14303" />
    <path d="M 2.58653 -0.13422 A 0.125 0.02211 264.8636 1 1 2.60891 0.11477 L 2.70694 0.10596" />
    <path d="M 2.60891 0.11477 A 0.125 0.02211 264.8636 0 1 2.59772 0.10217" />
    <path d="M 2.59772 0.99729 A 0.125 0.02211 264.8636 0 1 2.58653 0.7609 L 2.68456 0.75209" />
    <path d="M 2.58653 0.7609 A 0.125 0.02211 264.8636 1 1 2.60891 1.0099 L 2.70694 1.00109" />
    <path d="M 2.60891 1.0099 A 0.125 0.02211 264.8636 0 1 2.59772 0.99729" />
    <path d="M 2.77102 1.6836 A 0.905 0.40346 180 0 0 3.64248 2.08679" />
    <path d="M 3.9725 0.3251 A 0.75 0.6581 155.66458 0 1 4.65586 0.68739" />
    <path d="M 3.28913 1.3055 A 0.75 0.6581 155.66458 0 1 3.9725 0.3251" />
    <path d="M 9.80312 13.21725 A 0.75 0.6581 155.66458 0 1 10.48648 13.57953 L 4.65586 0.68739" />
    <path d="M 10.48648 13.57953 A 0.75 0.6581 155.66458 0 1 9.11976 14.19765 L 3.28913 1.3055" />
    <path d="M 9.11976 14.19765 A 0.75 0.6581 155.66458 0 1 9.80312 13.21725" />
    <path d="M 2.92602 13.76778 A 0.75 0.33436 180 1 0 4.42602 13.76778" />
    <path d="M 10.48648 0.15266 L 4.65586 -12.73948" />
    <path d="M 9.11976 0.77078 L 3.28913 -12.12136" />
    <path d="M 4.79709 -12.80335 L 4.69826 -13.02186" />
    <path d="M 3.14791 -12.05749 L 3.04908 -12.276" />
    <path d="M 2.60891 -13.31209 L 2.70694 -13.3209" />
    <path d="M 2.58653 -13.56109 L 2.68456 -13.5699" />
    <path d="M 2.60891 -12.41697 L 2.70694 -12.42578" />
    <path d="M 2.58653 -12.66596 L 2.68456 -12.67477" />
    <path d="M 2.77102 -11.93628 L 2.77102 -11.74327" />
    <path d="M 2.77102 -14.42864 L 2.77102 -13.98108" />
    <path d="M 4.58102 -14.42864 L 4.58102 -13.98108" />
    <path d="M 2.92602 -11.51747 L 2.92602 -9.05789" />
    <path d="M 4.42602 -9.60758 L 4.42602 -9.05789" />
    <path d="M 2.77102 -7.57138 L 2.77102 -7.37954" />
    <path d="M 4.58102 -7.57138 L 4.58102 -7.37954" />
    <path d="M 2.77102 -5.33473 L 2.77102 -5.14172" />
    <path d="M 4.58102 -5.21585 L 4.58102 -5.14172" />
    <path d="M 2.31412 -7.67569 L 2.4981 -7.26888" />
    <path d="M 2.92602 -4.91593 L 2.92602 -1.00177" />
    <path d="M 4.42602 -4.91593 L 4.42602 -1.00177" />
    <path d="M 2.77102 1.49059 L 2.77102 1.6836" />
    <path d="M 2.92602 1.9094 L 2.92602 13.76778" />
    <path d="M 4.42602 3.81929 L 4.42602 13.76778" />
</svg>