<svg version="1.1" xmlns="http://www.w3.org/2000/svg" viewBox="-13.237256317774872 -23.63318414950911 24.761296901911628 39.04673690187879" fill="none" stroke="black" stroke-width="0.6%" vector-effect="non-scaling-stroke">
    <path d="M 9.7898 -0.26527 A 0.75 0.65303 155.49889 0 1 10.47227 0.09075 A 0.75 0.65303 155.49889 0 1 9.10734 0.71282 A 0.75 0.65303 155.49889 0 1 9.7898 -0.26527 Z" />
    <path d="M 3.97711 -13.01941 A 0.75 0.65303 335.49889 0 0 3.29464 -12.04132" />
    <path d="M 4.65957 -12.66339 A 0.75 0.65303 335.49889 0 0 3.97711 -13.01941" />
    <path d="M 3.09113 -12.26798 A 0.905 0.78799 155.49889 0 1 4.80062 -12.72767 A 0.905 0.78799 155.49889 0 1 4.84246 -12.2621" />
    <path d="M 3.47753 -11.64003 A 0.905 0.78799 155.49889 0 1 3.1536 -11.97704 A 0.905 0.78799 155.49889 0 1 3.09113 -12.26798" />
    <path d="M 2.98915 -12.49174 A 0.905 0.78799 155.49889 0 1 4.69864 -12.95143" />
    <path d="M 3.05162 -12.2008 A 0.905 0.78799 155.49889 0 1 2.98915 -12.49174" />
    <path d="M 2.89615 -11.59348 L 2.89615 -13.37228 L 4.85411 -13.55875 L 4.57618 -14.16859" />
    <path d="M 2.89615 -11.59348 L 3.46362 -11.64752" />
    <path d="M 4.85411 -12.23653 L 4.85411 -12.3216" />
    <path d="M 4.85411 -12.55015 L 4.85411 -13.55875" />
    <path d="M 2.48824 -12.4885 L 2.48824 -14.26731 L 2.89615 -13.37228" />
    <path d="M 2.48824 -12.4885 L 2.89615 -11.59348" />
    <path d="M 2.6922 -13.26392 A 0.125 0.02267 84.55991 0 0 2.70405 -13.25066 A 0.125 0.02267 84.55991 0 0 2.68035 -13.49953" />
    <path d="M 2.6922 -12.37452 A 0.125 0.02267 84.55991 0 0 2.70405 -12.36125 A 0.125 0.02267 84.55991 0 0 2.68035 -12.61013" />
    <path d="M 2.76618 -14.29378 L 2.48824 -14.26731" />
    <path d="M 4.57618 -13.91303 A 0.905 0.4137 0 0 1 2.76618 -13.91303" />
    <path d="M 2.5943 -13.2546 A 0.125 0.02267 264.55991 0 1 2.58245 -13.49021 A 0.125 0.02267 264.55991 0 1 2.60615 -13.24134 A 0.125 0.02267 264.55991 0 1 2.5943 -13.2546 Z" />
    <path d="M 2.5943 -12.36519 A 0.125 0.02267 264.55991 0 1 2.58245 -12.60081 A 0.125 0.02267 264.55991 0 1 2.60615 -12.35193 A 0.125 0.02267 264.55991 0 1 2.5943 -12.36519 Z" />
    <path d="M 2.76618 -11.68952 A 0.905 0.4137 180 0 0 3.64343 -11.27602" />
    <path d="M 4.55715 -14.44211 A 0.905 0.4137 0 0 1 4.57618 -14.35773 A 0.905 0.4137 0 0 1 2.76618 -14.35773 A 0.905 0.4137 0 0 1 4.55715 -14.44211 Z" />
    <path d="M 4.42118 -9.02131 A 0.75 0.34284 0 0 1 2.92118 -9.02131" />
    <path d="M 3.1308 -14.68958 L -0.48949 -22.63318 L -12.23726 -21.5144 L -6.11863 -8.08899 L 1.22373 -8.78823" />
    <path d="M 5.0986 -8.0831 A 2.5 1.14281 360 0 1 1.22373 -8.78823" />
    <path d="M 1.22373 -8.34353 L 1.22373 -8.78823" />
    <path d="M 1.22373 -8.34353 A 2.5 1.14281 180 0 0 5.27348 -7.69938" />
    <path d="M -12.23726 -21.0697 L -12.23726 -21.5144" />
    <path d="M -6.11863 -7.64429 L -6.11863 -8.08899" />
    <path d="M -6.11863 -7.64429 L 1.22373 -8.34353" />
    <path d="M -12.23726 -21.0697 L -6.11863 -7.64429" />
    <path d="M 4.18669 -7.45836 A 0.905 0.4137 0 0 1 3.15566 -7.45836" />
    <path d="M 2.7852 -7.2693 A 0.905 0.4137 0 0 1 2.76618 -7.35368" />
    <path d="M 4.57618 -7.35368 A 0.905 0.4137 0 0 1 2.7852 -7.2693" />
    <path d="M 4.85411 -6.99939 L 4.61738 -7.51882" />
    <path d="M 2.55879 -7.55316 L 2.89615 -6.81293 L 4.85411 -6.99939" />
    <path d="M 2.48824 -5.92915 L 2.48824 -7.56983" />
    <path d="M 4.85411 -5.22059 L 4.85411 -6.99939" />
    <path d="M 2.48824 -5.92915 L 2.89615 -5.03412 L 4.85411 -5.22059" />
    <path d="M 2.89615 -5.03412 L 2.89615 -6.81293" />
    <path d="M 2.6922 -6.70457 A 0.125 0.02267 84.55991 0 0 2.70405 -6.6913 A 0.125 0.02267 84.55991 0 0 2.68035 -6.94018" />
    <path d="M 2.6922 -5.81516 A 0.125 0.02267 84.55991 0 0 2.70405 -5.8019 A 0.125 0.02267 84.55991 0 0 2.68035 -6.05077" />
    <path d="M 3.98887 -6.5133 A 0.125 0.10884 335.49889 0 0 3.76139 -6.40962" />
    <path d="M 3.98887 -5.6239 A 0.125 0.10884 335.49889 0 0 3.76139 -5.52022" />
    <path d="M 2.48824 -7.16629 A 0.905 0.78799 335.49889 0 0 2.48824 -6.93775" />
    <path d="M 2.5943 -6.69524 A 0.125 0.02267 264.55991 0 1 2.58245 -6.93086 L 2.68035 -6.94018" />
    <path d="M 2.58245 -6.93086 A 0.125 0.02267 264.55991 0 1 2.60615 -6.68198 L 2.70405 -6.6913" />
    <path d="M 2.60615 -6.68198 A 0.125 0.02267 264.55991 0 1 2.5943 -6.69524" />
    <path d="M 2.5943 -5.80584 A 0.125 0.02267 264.55991 0 1 2.58245 -6.04145 L 2.68035 -6.05077" />
    <path d="M 2.58245 -6.04145 A 0.125 0.02267 264.55991 0 1 2.60615 -5.79258 L 2.70405 -5.8019" />
    <path d="M 2.60615 -5.79258 A 0.125 0.02267 264.55991 0 1 2.5943 -5.80584" />
    <path d="M 3.89553 -6.30553 A 0.125 0.10884 155.49889 0 1 3.78178 -6.36487 L 3.76139 -6.40962" />
    <path d="M 3.78178 -6.36487 A 0.125 0.10884 155.49889 0 1 4.00927 -6.46855 L 3.98887 -6.5133" />
    <path d="M 4.00927 -6.46855 A 0.125 0.10884 155.49889 0 1 3.89553 -6.30553" />
    <path d="M 3.89553 -5.41613 A 0.125 0.10884 155.49889 0 1 3.78178 -5.47547 L 3.76139 -5.52022" />
    <path d="M 3.78178 -5.47547 A 0.125 0.10884 155.49889 0 1 4.00927 -5.57914 L 3.98887 -5.6239" />
    <path d="M 4.00927 -5.57914 A 0.125 0.10884 155.49889 0 1 3.89553 -5.41613" />
    <path d="M 2.7852 -5.04579 A 0.905 0.4137 180 0 0 4.57618 -5.13017" />
    <path d="M 2.76618 -5.13017 A 0.905 0.4137 180 0 0 2.7852 -5.04579" />
    <path d="M 4.42118 -1.01667 A 0.75 0.34284 0 1 1 2.92118 -1.01667" />
    <path d="M 4.55715 -1.10105 A 0.905 0.4137 0 0 1 4.57618 -1.01667 L 4.57618 -0.57197 A 0.905 0.4137 0 0 1 2.76618 -0.57197" />
    <path d="M 4.57618 -1.01667 A 0.905 0.4137 0 0 1 2.76618 -1.01667 L 2.76618 -0.57197" />
    <path d="M 2.76618 -1.01667 A 0.905 0.4137 0 0 1 2.92118 -1.2482" />
    <path d="M 4.42118 -1.2482 A 0.905 0.4137 0 0 1 4.55715 -1.10105" />
    <path d="M 2.89615 -0.03123 L 4.85411 -0.21769 L 4.57618 -0.82753" />
    <path d="M 2.48824 -0.92625 L 2.89615 -0.03123" />
    <path d="M 2.76618 -0.95272 L 2.48824 -0.92625" />
    <path d="M 2.89615 1.74758 L 2.89615 -0.03123" />
    <path d="M 2.89615 1.74758 L 3.46362 1.69354" />
    <path d="M 4.85411 1.10452 L 4.85411 1.01946" />
    <path d="M 4.85411 0.79091 L 4.85411 -0.21769" />
    <path d="M 2.98915 0.84932 A 0.905 0.78799 155.49889 0 1 4.69864 0.38963" />
    <path d="M 3.05162 1.14026 A 0.905 0.78799 155.49889 0 1 2.98915 0.84932" />
    <path d="M 2.48824 0.85256 L 2.48824 -0.92625" />
    <path d="M 2.48824 0.85256 L 2.89615 1.74758" />
    <path d="M 2.6922 0.07714 A 0.125 0.02267 84.55991 0 0 2.70405 0.0904 A 0.125 0.02267 84.55991 0 0 2.68035 -0.15847" />
    <path d="M 2.6922 0.96654 A 0.125 0.02267 84.55991 0 0 2.70405 0.9798 A 0.125 0.02267 84.55991 0 0 2.68035 0.73093" />
    <path d="M 3.09113 1.07308 A 0.905 0.78799 155.49889 0 1 4.80062 0.61339 L 4.69864 0.38963" />
    <path d="M 4.80062 0.61339 A 0.905 0.78799 155.49889 0 1 4.84246 1.07896" />
    <path d="M 3.47753 1.70103 A 0.905 0.78799 155.49889 0 1 3.1536 1.36402 L 3.05162 1.14026" />
    <path d="M 3.1536 1.36402 A 0.905 0.78799 155.49889 0 1 3.09113 1.07308" />
    <path d="M 2.5943 0.08646 A 0.125 0.02267 264.55991 0 1 2.58245 -0.14915 L 2.68035 -0.15847" />
    <path d="M 2.58245 -0.14915 A 0.125 0.02267 264.55991 0 1 2.60615 0.09972 L 2.70405 0.0904" />
    <path d="M 2.60615 0.09972 A 0.125 0.02267 264.55991 0 1 2.5943 0.08646" />
    <path d="M 2.5943 0.97587 A 0.125 0.02267 264.55991 0 1 2.58245 0.74025 L 2.68035 0.73093" />
    <path d="M 2.58245 0.74025 A 0.125 0.02267 264.55991 0 1 2.60615 0.98913 L 2.70405 0.9798" />
    <path d="M 2.60615 0.98913 A 0.125 0.02267 264.55991 0 1 2.5943 0.97587" />
    <path d="M 2.76618 1.65154 A 0.905 0.4137 180 0 0 3.64343 2.06504" />
    <path d="M 3.97711 0.32165 A 0.75 0.65303 155.49889 0 1 4.65957 0.67767" />
    <path d="M 3.29464 1.29974 A 0.75 0.65303 155.49889 0 1 3.97711 0.32165" />
    <path d="M 9.7898 13.07579 A 0.75 0.65303 155.49889 0 1 10.47227 13.43181 L 4.65957 0.67767" />
    <path d="M 10.47227 13.43181 A 0.75 0.65303 155.49889 0 1 9.10734 14.05388 L 3.29464 1.29974" />
    <path d="M 9.10734 14.05388 A 0.75 0.65303 155.49889 0 1 9.7898 13.07579" />
    <path d="M 2.92118 13.65849 A 0.75 0.34284 180 0 0 4.42118 13.65849" />
    <path d="M 10.47227 0.09075 L 4.65957 -12.66339" />
    <path d="M 9.10734 0.71282 L 3.29464 -12.04132" />
    <path d="M 4.80062 -12.72767 L 4.69864 -12.95143" />
    <path d="M 3.1536 -11.97704 L 3.05162 -12.2008" />
    <path d="M 2.60615 -13.24134 L 2.70405 -13.25066" />
    <path d="M 2.58245 -13.49021 L 2.68035 -13.49953" />
    <path d="M 2.60615 -12.35193 L 2.70405 -12.36125" />
    <path d="M 2.58245 -12.60081 L 2.68035 -12.61013" />
    <path d="M 2.76618 -11.87866 L 2.76618 -11.68952" />
    <path d="M 2.76618 -14.35773 L 2.76618 -13.91303" />
    <path d="M 4.57618 -14.35773 L 4.57618 -13.91303" />
    <path d="M 2.92118 -11.458 L 2.92118 -9.02131" />
    <path d="M 4.42118 -9.5695 L 4.42118 -9.02131" />
    <path d="M 2.76618 -7.51131 L 2.76618 -7.35368" />
    <path d="M 4.57618 -7.51131 L 4.57618 -7.35368" />
    <path d="M 2.76618 -5.31931 L 2.76618 -5.13017" />
    <path d="M 4.57618 -5.19412 L 4.57618 -5.13017" />
    <path d="M 2.32285 -7.61426 L 2.48824 -7.25136" />
    <path d="M 2.92118 -4.89864 L 2.92118 -1.01667" />
    <path d="M 4.42118 -4.89864 L 4.42118 -1.01667" />
    <path d="M 2.76618 1.4624 L 2.76618 1.65154" />
    <path d="M 2.92118 1.88306 L 2.92118 13.65849" />
    <path d="M 4.42118 3.77156 L 4.42118 13.65849" />
</svg>