<svg version="1.1" xmlns="http://www.w3.org/2000/svg" viewBox="-12.36169293238875 -21.25252424960073 24.35674360127972 43.70425656383742" fill="none" stroke="black" stroke-width="0.6%" vector-effect="non-scaling-stroke">
    <path d="M 7.20856 2.22483 L 7.20856 1.71556" />
    <path d="M 9.78154 3.04499 L 9.78154 1.71556" />
    <path d="M 7.79747 1.89509 L 7.90774 2.10144 L 8.43554 1.96393" />
    <path d="M 7.90774 3.53318 L 7.90774 2.10144" />
    <path d="M 7.20856 2.22483 L 7.90774 3.53318 L 9.78154 3.04499" />
    <path d="M 8.10077 3.48289 A 0.805 0.56208 180 0 0 9.2527 3.18278" />
    <path d="M 7.84005 18.11565 A 0.655 0.45734 180 0 0 9.15005 18.11565" />
    <path d="M 6.15279 0.82908 A 2.5 1.74558 180 0 0 10.99505 0.21885" />
    <path d="M -0.87398 2.6598 L 6.15279 0.82908 L 6.15279 0.47115" />
    <path d="M -11.36169 -16.96545 L -0.87398 2.6598 L -0.87398 2.30186 L 6.15279 0.47115" />
    <path d="M 9.84447 -1.60854 L 9.15005 -2.90798" />
    <path d="M 8.29315 -4.51146 L -0.11886 -20.25252 L -11.36169 -17.32338 L -0.87398 2.30186" />
    <path d="M 9.84447 -1.60854 A 2.5 1.74558 0 0 1 10.99505 -0.13909 A 2.5 1.74558 0 0 1 6.15279 0.47115" />
    <path d="M -11.36169 -16.96545 L -11.36169 -17.32338" />
    <path d="M 9.15005 -0.13909 A 0.655 0.45734 0 0 1 7.84005 -0.13909" />
    <path d="M 8.26607 -4.50487 A 0.655 0.45734 0 0 1 9.15005 -4.07639 L 9.15005 -0.13909" />
    <path d="M 9.15005 -4.07639 A 0.655 0.45734 0 0 1 7.84005 -4.07639 L 7.84005 -0.13909" />
    <path d="M 7.84005 -4.07639 A 0.655 0.45734 0 0 1 8.26607 -4.50487" />
    <path d="M 7.7374 18.55211 L 7.20856 18.68989 L 7.90774 19.99824 L 9.78154 19.51005 L 9.11512 18.263" />
    <path d="M 7.20856 20.12164 L 7.20856 18.68989" />
    <path d="M 9.78154 20.9418 L 9.78154 19.51005" />
    <path d="M 9.30005 19.09997 A 0.805 0.56208 0 0 1 7.69005 19.09997" />
    <path d="M 7.90774 21.42999 L 7.90774 19.99824" />
    <path d="M 7.20856 20.12164 L 7.90774 21.42999 L 9.78154 20.9418" />
    <path d="M 7.88604 18.28399 A 0.805 0.53992 331.87998 0 0 7.36484 18.64918" />
    <path d="M 9.24926 18.54554 A 0.805 0.56208 0 0 1 9.30005 18.74204 L 9.30005 19.09997" />
    <path d="M 9.30005 18.74204 A 0.805 0.56208 0 0 1 7.69005 18.74204 L 7.69005 19.09997" />
    <path d="M 7.69005 18.74204 A 0.805 0.56208 0 0 1 7.92722 18.34362" />
    <path d="M 9.06288 18.34362 A 0.805 0.56208 0 0 1 9.24926 18.54554" />
    <path d="M 8.10077 21.3797 A 0.805 0.56208 180 0 0 9.2527 21.07958" />
    <path d="M -2.69783 -0.7531 A 0.655 0.43931 331.87998 0 0 -2.91994 -0.15486 L 7.20856 18.7982" />
    <path d="M 7.84005 3.40652 L 7.84005 18.11565" />
    <path d="M 9.15005 3.3196 L 9.15005 18.11565" />
    <path d="M 10.99505 -0.13909 L 10.99505 0.21885" />
    <path d="M -0.04578 2.44402 L 7.84005 17.20046" />
</svg>