<svg version="1.1" xmlns="http://www.w3.org/2000/svg" viewBox="-13.23760879066292 -26.64527589678935 24.762006325711823 66.310932295609" fill="none" stroke="black" stroke-width="0.6%" vector-effect="non-scaling-stroke">
    <path d="M 9.79016 28.69359 A 0.75 0.44303 165.35782 0 1 10.51581 28.95654 A 0.75 0.44303 165.35782 0 1 9.06452 29.33572 A 0.75 0.44303 165.35782 0 1 9.79016 28.69359 Z" />
    <path d="M 3.97712 6.44412 A 0.75 0.44303 345.35782 0 0 3.25147 7.08625" />
    <path d="M 4.70276 6.70707 A 0.75 0.44303 345.35782 0 0 3.97712 6.44412" />
    <path d="M 3.09114 7.04386 A 0.905 0.53459 165.35782 0 1 4.85273 6.66789 A 0.905 0.53459 165.35782 0 1 4.77839 6.99654" />
    <path d="M 3.3271 7.37571 A 0.905 0.53459 165.35782 0 1 3.10151 7.12543 A 0.905 0.53459 165.35782 0 1 3.09114 7.04386" />
    <path d="M 2.98916 6.65352 A 0.905 0.53459 165.35782 0 1 4.75074 6.27755" />
    <path d="M 2.99952 6.73508 A 0.905 0.53459 165.35782 0 1 2.98916 6.65352" />
    <path d="M 2.89616 7.27236 L 2.89616 6.06558 L 4.85411 5.74028 L 4.44618 4.17891 L 4.42117 4.18307" />
    <path d="M 2.89616 7.27236 L 3.15024 7.23014" />
    <path d="M 4.80399 6.95538 L 4.85411 6.94705 L 4.85411 6.8285" />
    <path d="M 4.85411 6.6734 L 4.85411 5.74028" />
    <path d="M 2.48822 5.71099 L 2.48822 4.50421 L 2.89616 6.06558" />
    <path d="M 2.48822 5.71099 L 2.58492 6.08109" />
    <path d="M 2.64837 6.32397 L 2.89616 7.27236" />
    <path d="M 2.71268 5.7099 A 0.125 0.01538 80.56675 0 0 2.6717 5.46328" />
    <path d="M 2.71268 6.31329 A 0.125 0.01538 80.56675 0 0 2.6717 6.06667" />
    <path d="M 2.90634 4.43475 L 2.48822 4.50421" />
    <path d="M 4.57617 5.12225 A 0.905 0.72169 360 0 1 2.76617 5.12225" />
    <path d="M 2.59429 5.67828 A 0.125 0.01538 260.56675 0 1 2.5738 5.47955 A 0.125 0.01538 260.56675 0 1 2.61478 5.72617 A 0.125 0.01538 260.56675 0 1 2.59429 5.67828 Z" />
    <path d="M 2.59429 6.28167 A 0.125 0.01538 260.56675 0 1 2.5738 6.08294 A 0.125 0.01538 260.56675 0 1 2.61478 6.32956 A 0.125 0.01538 260.56675 0 1 2.59429 6.28167 Z" />
    <path d="M 4.55714 4.67335 A 0.905 0.72169 360 0 1 4.57617 4.82055 A 0.905 0.72169 360 0 1 2.76617 4.82055 A 0.905 0.72169 360 0 1 2.92117 4.41666" />
    <path d="M 4.42117 4.41666 A 0.905 0.72169 360 0 1 4.55714 4.67335" />
    <path d="M 4.76853 5.36833 A 0.125 0.01538 80.56675 0 0 4.72756 5.12171 L 4.69396 5.12729" />
    <path d="M 4.42117 4.82055 A 0.75 0.59809 360 0 1 2.92117 4.82055" />
    <path d="M 3.76054 9.03471 A 0.75 0.59809 360 0 1 2.92117 8.44088" />
    <path d="M 3.51819 -25.6327 A 0.75 0.59809 360 0 1 4.42117 -25.04719 A 0.75 0.59809 360 0 1 2.92117 -25.04719 A 0.75 0.59809 360 0 1 3.51819 -25.6327 Z" />
    <path d="M 5.32317 6.94455 L 4.42117 3.49212" />
    <path d="M 2.92117 -2.24914 L -0.48987 -15.30492 L -12.23761 -13.35309 L -6.11861 10.06741 L 1.22372 8.84751" />
    <path d="M 5.32317 6.94455 A 2.5 1.99362 360 0 1 6.17117 8.44088 L 6.17117 8.74258" />
    <path d="M 6.17117 8.44088 A 2.5 1.99362 360 0 1 5.50888 9.79251" />
    <path d="M 4.11788 10.40242 A 2.5 1.99362 360 0 1 1.22372 8.84751" />
    <path d="M 1.22372 9.14921 L 1.22372 8.84751" />
    <path d="M 1.22372 9.14921 A 2.5 1.99362 180 0 0 4.19359 10.69218" />
    <path d="M 5.57271 10.03683 A 2.5 1.99362 180 0 0 6.17117 8.74258" />
    <path d="M -12.23761 -13.05139 L -12.23761 -13.35309" />
    <path d="M -6.11861 10.3691 L -6.11861 10.06741" />
    <path d="M -6.11861 10.3691 L 1.22372 9.14921" />
    <path d="M -12.23761 -13.05139 L -6.11861 10.3691" />
    <path d="M 2.64837 10.77397 L 2.89616 11.72235 L 4.39756 11.4729" />
    <path d="M 2.89616 11.72235 L 2.89616 10.63798" />
    <path d="M 2.71268 10.76328 A 0.125 0.01538 80.56675 0 0 2.69556 10.57813" />
    <path d="M 3.99607 11.22641 A 0.125 0.07384 345.35782 0 0 3.75419 11.2896" />
    <path d="M 2.59429 10.73166 A 0.125 0.01538 260.56675 0 1 2.57274 10.53345" />
    <path d="M 2.57761 10.53535 A 0.125 0.01538 260.56675 0 1 2.61478 10.77955 L 2.71268 10.76328" />
    <path d="M 2.61478 10.77955 A 0.125 0.01538 260.56675 0 1 2.59429 10.73166" />
    <path d="M 3.89553 10.80811 A 0.125 0.07384 165.35782 0 1 3.77459 10.76428 L 3.76687 10.73473" />
    <path d="M 3.77459 10.76428 A 0.125 0.07384 165.35782 0 1 3.7767 10.73442" />
    <path d="M 4.01768 10.71695 A 0.125 0.07384 165.35782 0 1 3.89553 10.80811" />
    <path d="M 3.89553 11.4115 A 0.125 0.07384 165.35782 0 1 3.77459 11.36767 L 3.75419 11.2896" />
    <path d="M 3.77459 11.36767 A 0.125 0.07384 165.35782 0 1 4.01647 11.30447 L 3.99607 11.22641" />
    <path d="M 4.01647 11.30447 A 0.125 0.07384 165.35782 0 1 3.89553 11.4115" />
    <path d="M 3.16318 11.67798 A 0.905 0.72169 180 0 0 4.40534 11.50269" />
    <path d="M 4.42117 13.87138 A 0.75 0.59809 360 0 1 2.92117 13.87138" />
    <path d="M 4.55714 13.72418 A 0.905 0.72169 360 0 1 4.57617 13.87138 L 4.57617 14.17308 A 0.905 0.72169 360 0 1 2.76617 14.17308" />
    <path d="M 4.57617 13.87138 A 0.905 0.72169 360 0 1 2.76617 13.87138 L 2.76617 14.17308" />
    <path d="M 2.76617 13.87138 A 0.905 0.72169 360 0 1 2.92117 13.46749" />
    <path d="M 4.42117 13.46749 A 0.905 0.72169 360 0 1 4.55714 13.72418" />
    <path d="M 2.89616 15.11641 L 4.85411 14.79111 L 4.44618 13.22974 L 4.42117 13.2339" />
    <path d="M 2.48822 13.55505 L 2.89616 15.11641" />
    <path d="M 2.90634 13.48558 L 2.48822 13.55505" />
    <path d="M 2.89616 16.32319 L 2.89616 15.11641" />
    <path d="M 2.89616 16.32319 L 3.15024 16.28097" />
    <path d="M 4.80399 16.00621 L 4.85411 15.99788 L 4.85411 15.87933" />
    <path d="M 4.85411 15.72423 L 4.85411 14.79111" />
    <path d="M 2.98916 15.70435 A 0.905 0.53459 165.35782 0 1 4.75074 15.32838" />
    <path d="M 2.99952 15.78592 A 0.905 0.53459 165.35782 0 1 2.98916 15.70435" />
    <path d="M 2.48822 14.76182 L 2.48822 13.55505" />
    <path d="M 2.48822 14.76182 L 2.58492 15.13192" />
    <path d="M 2.64837 15.3748 L 2.89616 16.32319" />
    <path d="M 2.71268 14.76073 A 0.125 0.01538 80.56675 0 0 2.6717 14.51411" />
    <path d="M 2.71268 15.36412 A 0.125 0.01538 80.56675 0 0 2.6717 15.1175" />
    <path d="M 3.09114 16.09469 A 0.905 0.53459 165.35782 0 1 4.85273 15.71872 L 4.75074 15.32838" />
    <path d="M 4.85273 15.71872 A 0.905 0.53459 165.35782 0 1 4.77839 16.04737" />
    <path d="M 3.3271 16.42654 A 0.905 0.53459 165.35782 0 1 3.10151 16.17626 L 2.99952 15.78592" />
    <path d="M 3.10151 16.17626 A 0.905 0.53459 165.35782 0 1 3.09114 16.09469" />
    <path d="M 2.59429 14.72911 A 0.125 0.01538 260.56675 0 1 2.5738 14.53038 L 2.6717 14.51411" />
    <path d="M 2.5738 14.53038 A 0.125 0.01538 260.56675 0 1 2.61478 14.777 L 2.71268 14.76073" />
    <path d="M 2.61478 14.777 A 0.125 0.01538 260.56675 0 1 2.59429 14.72911" />
    <path d="M 2.59429 15.3325 A 0.125 0.01538 260.56675 0 1 2.5738 15.13377 L 2.6717 15.1175" />
    <path d="M 2.5738 15.13377 A 0.125 0.01538 260.56675 0 1 2.61478 15.38039 L 2.71268 15.36412" />
    <path d="M 2.61478 15.38039 A 0.125 0.01538 260.56675 0 1 2.59429 15.3325" />
    <path d="M 4.76853 14.41916 A 0.125 0.01538 80.56675 0 0 4.72756 14.17254 L 4.69396 14.17812" />
    <path d="M 3.97712 15.49495 A 0.75 0.44303 165.35782 0 1 4.70276 15.7579" />
    <path d="M 3.25147 16.13708 A 0.75 0.44303 165.35782 0 1 3.97712 15.49495" />
    <path d="M 9.79016 37.74442 A 0.75 0.44303 165.35782 0 1 10.51581 38.00737 L 4.70276 15.7579" />
    <path d="M 10.51581 38.00737 A 0.75 0.44303 165.35782 0 1 9.06452 38.38655 L 3.25147 16.13708" />
    <path d="M 9.06452 38.38655 A 0.75 0.44303 165.35782 0 1 9.79016 37.74442" />
    <path d="M 2.92117 23.8273 A 0.75 0.59809 180 0 0 4.42117 23.8273" />
    <path d="M 10.51581 28.95654 L 4.70276 6.70707" />
    <path d="M 9.06452 29.33572 L 3.25147 7.08625" />
    <path d="M 4.85273 6.66789 L 4.75074 6.27755" />
    <path d="M 3.10151 7.12543 L 2.99952 6.73508" />
    <path d="M 2.61478 5.72617 L 2.71268 5.7099" />
    <path d="M 2.5738 5.47955 L 2.6717 5.46328" />
    <path d="M 2.61478 6.32956 L 2.71268 6.31329" />
    <path d="M 2.5738 6.08294 L 2.6717 6.06667" />
    <path d="M 2.76617 4.82055 L 2.76617 5.12225" />
    <path d="M 4.57617 4.82055 L 4.57617 5.12225" />
    <path d="M 4.76853 5.36833 L 4.75742 5.37018" />
    <path d="M 2.92117 7.2682 L 2.92117 8.44088" />
    <path d="M 2.92117 -25.04719 L 2.92117 4.82055" />
    <path d="M 4.42117 -25.04719 L 4.42117 4.82055" />
    <path d="M 2.92117 11.71819 L 2.92117 13.87138" />
    <path d="M 4.42117 11.56325 L 4.42117 13.87138" />
    <path d="M 4.76853 14.41916 L 4.75742 14.42101" />
    <path d="M 2.92117 16.31903 L 2.92117 23.8273" />
    <path d="M 4.42117 20.61408 L 4.42117 23.8273" />
</svg>