<svg version="1.1" xmlns="http://www.w3.org/2000/svg" viewBox="-2.9722216502503604 -23.91509539484741 5.62426450944366 27.137559853791537" fill="none" stroke="black" stroke-width="0.6%" vector-effect="non-scaling-stroke">
    <path d="M -0.99821 -22.91428 A 0.655 0.45633 360 0 1 -0.47396 -22.76538" />
    <path d="M -1.57254 -22.61866 A 0.655 0.45633 360 0 1 -0.99821 -22.91428" />
    <path d="M -1.61407 0.49715 A 0.655 0.45633 180 0 0 -0.30407 0.49715" />
    <path d="M -1.52573 -19.77899 A 0.805 0.56084 180 0 0 -1.50831 -19.76528" />
    <path d="M -0.19941 -19.83431 L 0.14373 -19.84863 L 0.14373 -21.28337 L 0.0242 -22.67426 L -0.30276 -22.66062" />
    <path d="M -1.85269 -21.2001 L 0.14373 -21.28337" />
    <path d="M -1.97222 -22.59099 L -1.85269 -21.2001" />
    <path d="M -1.58383 -22.60719 L -1.97222 -22.59099" />
    <path d="M -1.7178 -21.90366 A 0.805 0.56084 360 0 1 -1.71924 -21.93718" />
    <path d="M -0.10924 -21.93718 A 0.805 0.56084 360 0 1 -1.7178 -21.90366" />
    <path d="M -1.97222 -21.15624 L -1.97222 -22.59099" />
    <path d="M -1.97222 -21.15624 L -1.85269 -19.76535 L -1.85269 -21.2001" />
    <path d="M -1.85269 -19.76535 L -1.50831 -19.77972 A 0.655 0.46904 175.08825 0 1 -1.50313 -19.83897" />
    <path d="M -0.8246 -19.92915 A 0.655 0.46904 175.08825 0 1 -0.29967 -19.7613" />
    <path d="M -1.34952 -19.71751 A 0.655 0.46904 175.08825 0 1 -0.8246 -19.92915" />
    <path d="M 0.99821 1.28191 A 0.655 0.46904 175.08825 0 1 1.65081 1.69571 L -0.19986 -19.8395" />
    <path d="M 1.65081 1.69571 A 0.655 0.46904 175.08825 0 1 0.34562 1.80788 L -1.50955 -19.77967" />
    <path d="M 0.34562 1.80788 A 0.655 0.46904 175.08825 0 1 0.99821 1.28191" />
    <path d="M -1.65652 -20.45544 A 0.805 0.57645 175.08825 0 1 -0.05244 -20.59329" />
    <path d="M -1.7178 -22.26235 A 0.805 0.56084 360 0 1 -1.71924 -22.29587 L -1.71924 -21.93718" />
    <path d="M -1.71924 -22.29587 A 0.805 0.56084 360 1 1 -0.10924 -22.29587 L -0.10924 -21.93718" />
    <path d="M -0.10924 -22.29587 A 0.805 0.56084 360 0 1 -1.7178 -22.26235" />
    <path d="M -1.34952 -19.71751 A 0.805 0.57645 175.08825 0 1 -1.62664 -20.10771 L -1.65652 -20.45544" />
    <path d="M -1.62664 -20.10771 A 0.805 0.57645 175.08825 0 1 -0.02255 -20.24556 L -0.05244 -20.59329" />
    <path d="M -0.02255 -20.24556 A 0.805 0.57645 175.08825 0 1 -0.29967 -19.7613" />
    <path d="M -1.61407 -19.77531 L -1.61407 0.49715" />
    <path d="M -0.30407 -5.75216 L -0.30407 0.49715" />
</svg>