<svg version="1.1" xmlns="http://www.w3.org/2000/svg" viewBox="-13.055807911038508 -23.422582334368908 24.500643813521478 38.51072455272826" fill="none" stroke="black" stroke-width="0.6%" vector-effect="non-scaling-stroke">
    <path d="M 3.02103 13.59191 A 0.655 0.28828 180 0 0 4.33103 13.59191" />
    <path d="M 2.88691 1.53972 A 0.805 0.35429 180 0 0 3.73446 1.82306" />
    <path d="M 2.87103 1.4697 A 0.805 0.35429 180 0 0 2.88691 1.53972" />
    <path d="M 2.88691 -1.15411 A 0.805 0.35429 360 0 1 2.87103 -1.22413 A 0.805 0.35429 360 0 1 3.02103 -1.43009" />
    <path d="M 4.33103 -1.43009 A 0.805 0.35429 360 0 1 4.48103 -1.22413 A 0.805 0.35429 360 0 1 2.88691 -1.15411" />
    <path d="M 3.00367 0.58793 L 2.9918 0.5613 L 2.98045 0.53435 L 2.96962 0.50708 L 2.95931 0.47953 L 2.94955 0.45171 L 2.94033 0.42365 L 2.93166 0.39536 L 2.92355 0.36686 L 2.916 0.33818 L 2.90903 0.30934 L 2.90262 0.28037 L 2.8968 0.25127 L 2.89156 0.22207 L 2.88691 0.19281" />
    <path d="M 4.46739 -0.08259 L 4.4232 -0.14167 L 4.3501 -0.19052 L 4.25091 -0.22724 L 4.12949 -0.25042 L 3.99051 -0.25916 L 3.83937 -0.25312 L 3.68191 -0.23254 L 3.52422 -0.19821 L 3.37241 -0.15146 L 3.23234 -0.09409 L 3.10944 -0.02834 L 3.00847 0.04326 L 2.93332 0.11794 L 2.88691 0.19281" />
    <path d="M 4.33103 -1.22413 A 0.655 0.28828 360 0 1 3.02103 -1.22413" />
    <path d="M 3.18337 0.83996 A 0.805 0.70859 155.38789 0 1 4.70435 0.43468 A 0.805 0.70859 155.38789 0 1 4.73953 0.87165" />
    <path d="M 3.54855 1.41723 A 0.805 0.70859 155.38789 0 1 3.24062 1.1052 A 0.805 0.70859 155.38789 0 1 3.18337 0.83996" />
    <path d="M 3.97249 0.18179 A 0.655 0.57655 155.38789 0 1 4.56798 0.49715" />
    <path d="M 3.377 1.04273 A 0.655 0.57655 155.38789 0 1 3.97249 0.18179" />
    <path d="M 2.87103 -5.37711 A 0.805 0.35429 180 0 0 4.48103 -5.37711" />
    <path d="M 9.80275 12.90908 A 0.655 0.57655 155.38789 0 1 10.39825 13.22445 L 4.56798 0.49715" />
    <path d="M 10.39825 13.22445 A 0.655 0.57655 155.38789 0 1 9.20726 13.77003 L 3.377 1.04273" />
    <path d="M 9.20726 13.77003 A 0.655 0.57655 155.38789 0 1 9.80275 12.90908" />
    <path d="M 4.11252 -7.77324 A 0.805 0.35429 360 0 1 3.23954 -7.77324" />
    <path d="M 2.88691 -6.654 L 2.88473 -6.64867 L 2.88271 -6.64335 L 2.88085 -6.63806 L 2.87915 -6.63277 L 2.87761 -6.62751 L 2.87623 -6.62227 L 2.87501 -6.61705 L 2.87396 -6.61185 L 2.87306 -6.60667 L 2.87233 -6.60152 L 2.87176 -6.59639 L 2.87136 -6.59128 L 2.87111 -6.58621 L 2.87103 -6.58116 L 2.87103 -5.37711" />
    <path d="M 2.88691 -6.654 L 2.88473 -6.66921 L 2.88271 -6.68444 L 2.88085 -6.69967 L 2.87915 -6.71491 L 2.87761 -6.73015 L 2.87623 -6.74538 L 2.87501 -6.76062 L 2.87396 -6.77584 L 2.87306 -6.79106 L 2.87233 -6.80626 L 2.87176 -6.82145 L 2.87136 -6.83662 L 2.87111 -6.85176 L 2.87103 -6.86688" />
    <path d="M 2.81296 -7.82399 A 0.805 0.70859 335.38789 0 0 2.64771 -7.03591 L 2.87103 -6.54841" />
    <path d="M -12.05581 -20.92982 L -6.12672 -7.9868 L -6.12672 -8.43577 L 1.22534 -9.08814" />
    <path d="M -6.12672 -7.9868 L 1.22534 -8.63917 L 1.22534 -9.08814" />
    <path d="M 1.22534 -8.63917 A 2.5 1.10029 180 0 0 6.17603 -8.85663" />
    <path d="M 5.34013 -10.12672 L 4.33103 -12.32954" />
    <path d="M 3.3405 -14.49186 L -0.2925 -22.42258 L -12.05581 -21.37879 L -6.12672 -8.43577" />
    <path d="M -12.05581 -20.92982 L -12.05581 -21.37879" />
    <path d="M 5.34013 -10.12672 A 2.5 1.10029 360 0 1 6.17603 -9.3056 L 6.17603 -8.85663" />
    <path d="M 6.17603 -9.3056 A 2.5 1.10029 360 0 1 1.22534 -9.08814" />
    <path d="M 4.33103 -9.3056 A 0.655 0.28828 360 0 1 3.02103 -9.3056" />
    <path d="M 3.54658 -14.52687 A 0.655 0.28828 360 0 1 4.33103 -14.24428 L 4.33103 -9.3056" />
    <path d="M 4.33103 -14.24428 A 0.655 0.28828 360 0 1 3.02103 -14.24428 L 3.02103 -9.3056" />
    <path d="M 3.02103 -14.24428 A 0.655 0.28828 360 0 1 3.54658 -14.52687" />
    <path d="M 3.02103 1.67566 L 3.02103 13.59191" />
    <path d="M 4.33103 3.12536 L 4.33103 13.59191" />
    <path d="M 2.87103 -1.22413 L 2.87103 1.4697" />
    <path d="M 4.48103 -1.22413 L 4.48103 -0.05282" />
    <path d="M 4.70435 0.43468 L 4.46739 -0.08259" />
    <path d="M 3.24062 1.1052 L 3.00367 0.58793" />
    <path d="M 3.02103 -5.17114 L 3.02103 -1.22413" />
    <path d="M 4.33103 -5.17114 L 4.33103 -1.22413" />
    <path d="M 2.87103 -7.81494 L 2.87103 -6.86688" />
    <path d="M 4.48103 -7.81494 L 4.48103 -5.37711" />
    <path d="M 2.41371 -7.9069 L 2.61253 -7.47288" />
</svg>