<svg version="1.1" xmlns="http://www.w3.org/2000/svg" viewBox="-13.237608790662915 -23.633295325906047 24.76200632571182 39.04691671677034" fill="none" stroke="black" stroke-width="0.6%" vector-effect="non-scaling-stroke">
    <path d="M 9.79016 -0.26516 A 0.75 0.65303 155.49774 0 1 10.47262 0.09084 A 0.75 0.65303 155.49774 0 1 9.1077 0.71294 A 0.75 0.65303 155.49774 0 1 9.79016 -0.26516 Z" />
    <path d="M 3.97712 -13.01939 A 0.75 0.65303 335.49774 0 0 3.29466 -12.0413" />
    <path d="M 4.65958 -12.66339 A 0.75 0.65303 335.49774 0 0 3.97712 -13.01939" />
    <path d="M 3.09114 -12.26796 A 0.905 0.78799 155.49774 0 1 4.80062 -12.72767 A 0.905 0.78799 155.49774 0 1 4.84247 -12.26211" />
    <path d="M 3.47755 -11.64001 A 0.905 0.78799 155.49774 0 1 3.15362 -11.97701 A 0.905 0.78799 155.49774 0 1 3.09114 -12.26796" />
    <path d="M 2.98916 -12.49172 A 0.905 0.78799 155.49774 0 1 4.69863 -12.95143" />
    <path d="M 3.05163 -12.20077 A 0.905 0.78799 155.49774 0 1 2.98916 -12.49172" />
    <path d="M 2.89616 -11.59346 L 2.89616 -13.37226 L 4.85411 -13.55874 L 4.57617 -14.16857" />
    <path d="M 2.89616 -11.59346 L 3.46362 -11.64751" />
    <path d="M 4.85411 -12.23656 L 4.85411 -12.32155" />
    <path d="M 4.85411 -12.55018 L 4.85411 -13.55874" />
    <path d="M 2.48822 -12.48849 L 2.48822 -14.2673 L 2.89616 -13.37226" />
    <path d="M 2.48822 -12.48849 L 2.89616 -11.59346" />
    <path d="M 2.69219 -13.2639 A 0.125 0.02268 84.55952 0 0 2.70404 -13.25064 A 0.125 0.02268 84.55952 0 0 2.68034 -13.49952" />
    <path d="M 2.69219 -12.3745 A 0.125 0.02268 84.55952 0 0 2.70404 -12.36124 A 0.125 0.02268 84.55952 0 0 2.68034 -12.61011" />
    <path d="M 2.76617 -14.29377 L 2.48822 -14.2673" />
    <path d="M 4.57617 -13.91302 A 0.905 0.4137 0 0 1 2.76617 -13.91302" />
    <path d="M 2.59429 -13.25458 A 0.125 0.02268 264.55952 0 1 2.58244 -13.49019 A 0.125 0.02268 264.55952 0 1 2.60614 -13.24132 A 0.125 0.02268 264.55952 0 1 2.59429 -13.25458 Z" />
    <path d="M 2.59429 -12.36518 A 0.125 0.02268 264.55952 0 1 2.58244 -12.60079 A 0.125 0.02268 264.55952 0 1 2.60614 -12.35192 A 0.125 0.02268 264.55952 0 1 2.59429 -12.36518 Z" />
    <path d="M 2.76617 -11.68951 A 0.905 0.4137 180 0 0 3.64346 -11.27601" />
    <path d="M 4.55714 -14.4421 A 0.905 0.4137 0 0 1 4.57617 -14.35772 A 0.905 0.4137 0 0 1 2.76617 -14.35772 A 0.905 0.4137 0 0 1 4.55714 -14.4421 Z" />
    <path d="M 4.42117 -9.02131 A 0.75 0.34285 0 0 1 2.92117 -9.02131" />
    <path d="M 3.13068 -14.68954 L -0.48987 -22.63329 L -12.23761 -21.51443 L -6.11861 -8.08892 L 1.22372 -8.78821" />
    <path d="M 5.09869 -8.08312 A 2.5 1.14282 0 0 1 1.22372 -8.78821" />
    <path d="M 1.22372 -8.34351 L 1.22372 -8.78821" />
    <path d="M 1.22372 -8.34351 A 2.5 1.14282 180 0 0 5.27357 -7.69942" />
    <path d="M -12.23761 -21.06973 L -12.23761 -21.51443" />
    <path d="M -6.11861 -7.64422 L -6.11861 -8.08892" />
    <path d="M -6.11861 -7.64422 L 1.22372 -8.34351" />
    <path d="M -12.23761 -21.06973 L -6.11861 -7.64422" />
    <path d="M 4.18664 -7.45835 A 0.905 0.4137 0 0 1 3.15569 -7.45835" />
    <path d="M 2.78519 -7.2693 A 0.905 0.4137 0 0 1 2.76617 -7.35368" />
    <path d="M 4.57617 -7.35368 A 0.905 0.4137 0 0 1 2.78519 -7.2693" />
    <path d="M 4.85411 -6.9994 L 4.61738 -7.51881" />
    <path d="M 2.55878 -7.55316 L 2.89616 -6.81293 L 4.85411 -6.9994" />
    <path d="M 2.48822 -5.92916 L 2.48822 -7.56983" />
    <path d="M 4.85411 -5.2206 L 4.85411 -6.9994" />
    <path d="M 2.48822 -5.92916 L 2.89616 -5.03412 L 4.85411 -5.2206" />
    <path d="M 2.89616 -5.03412 L 2.89616 -6.81293" />
    <path d="M 2.69219 -6.70457 A 0.125 0.02268 84.55952 0 0 2.70404 -6.69131 A 0.125 0.02268 84.55952 0 0 2.68034 -6.94018" />
    <path d="M 2.69219 -5.81517 A 0.125 0.02268 84.55952 0 0 2.70404 -5.8019 A 0.125 0.02268 84.55952 0 0 2.68034 -6.05078" />
    <path d="M 3.98888 -6.51331 A 0.125 0.10884 335.49774 0 0 3.76139 -6.40962" />
    <path d="M 3.98888 -5.6239 A 0.125 0.10884 335.49774 0 0 3.76139 -5.52022" />
    <path d="M 2.48822 -7.16634 A 0.905 0.78799 335.49774 0 0 2.48822 -6.93772" />
    <path d="M 2.59429 -6.69524 A 0.125 0.02268 264.55952 0 1 2.58244 -6.93086 L 2.68034 -6.94018" />
    <path d="M 2.58244 -6.93086 A 0.125 0.02268 264.55952 0 1 2.60614 -6.68198 L 2.70404 -6.69131" />
    <path d="M 2.60614 -6.68198 A 0.125 0.02268 264.55952 0 1 2.59429 -6.69524" />
    <path d="M 2.59429 -5.80584 A 0.125 0.02268 264.55952 0 1 2.58244 -6.04145 L 2.68034 -6.05078" />
    <path d="M 2.58244 -6.04145 A 0.125 0.02268 264.55952 0 1 2.60614 -5.79258 L 2.70404 -5.8019" />
    <path d="M 2.60614 -5.79258 A 0.125 0.02268 264.55952 0 1 2.59429 -5.80584" />
    <path d="M 3.89553 -6.30554 A 0.125 0.10884 155.49774 0 1 3.78179 -6.36487 L 3.76139 -6.40962" />
    <path d="M 3.78179 -6.36487 A 0.125 0.10884 155.49774 0 1 4.00927 -6.46855 L 3.98888 -6.51331" />
    <path d="M 4.00927 -6.46855 A 0.125 0.10884 155.49774 0 1 3.89553 -6.30554" />
    <path d="M 3.89553 -5.41614 A 0.125 0.10884 155.49774 0 1 3.78179 -5.47547 L 3.76139 -5.52022" />
    <path d="M 3.78179 -5.47547 A 0.125 0.10884 155.49774 0 1 4.00927 -5.57915 L 3.98888 -5.6239" />
    <path d="M 4.00927 -5.57915 A 0.125 0.10884 155.49774 0 1 3.89553 -5.41614" />
    <path d="M 2.78519 -5.0458 A 0.905 0.4137 180 0 0 4.57617 -5.13018" />
    <path d="M 2.76617 -5.13018 A 0.905 0.4137 180 0 0 2.78519 -5.0458" />
    <path d="M 4.42117 -1.0167 A 0.75 0.34285 0 0 1 2.92117 -1.0167" />
    <path d="M 4.55714 -1.10108 A 0.905 0.4137 0 0 1 4.57617 -1.0167 L 4.57617 -0.57199 A 0.905 0.4137 0 0 1 2.76617 -0.57199" />
    <path d="M 4.57617 -1.0167 A 0.905 0.4137 0 0 1 2.76617 -1.0167 L 2.76617 -0.57199" />
    <path d="M 2.76617 -1.0167 A 0.905 0.4137 0 0 1 2.92117 -1.24822" />
    <path d="M 4.42117 -1.24822 A 0.905 0.4137 0 0 1 4.55714 -1.10108" />
    <path d="M 2.89616 -0.03124 L 4.85411 -0.21772 L 4.57617 -0.82755" />
    <path d="M 2.48822 -0.92627 L 2.89616 -0.03124" />
    <path d="M 2.76617 -0.95274 L 2.48822 -0.92627" />
    <path d="M 2.89616 1.74756 L 2.89616 -0.03124" />
    <path d="M 2.89616 1.74756 L 3.46362 1.69352" />
    <path d="M 4.85411 1.10446 L 4.85411 1.01947" />
    <path d="M 4.85411 0.79084 L 4.85411 -0.21772" />
    <path d="M 2.98916 0.8493 A 0.905 0.78799 155.49774 0 1 4.69863 0.38959" />
    <path d="M 3.05163 1.14025 A 0.905 0.78799 155.49774 0 1 2.98916 0.8493" />
    <path d="M 2.48822 0.85253 L 2.48822 -0.92627" />
    <path d="M 2.48822 0.85253 L 2.89616 1.74756" />
    <path d="M 2.69219 0.07712 A 0.125 0.02268 84.55952 0 0 2.70404 0.09038 A 0.125 0.02268 84.55952 0 0 2.68034 -0.15849" />
    <path d="M 2.69219 0.96652 A 0.125 0.02268 84.55952 0 0 2.70404 0.97978 A 0.125 0.02268 84.55952 0 0 2.68034 0.73091" />
    <path d="M 3.09114 1.07306 A 0.905 0.78799 155.49774 0 1 4.80062 0.61335 L 4.69863 0.38959" />
    <path d="M 4.80062 0.61335 A 0.905 0.78799 155.49774 0 1 4.84247 1.07892" />
    <path d="M 3.47755 1.70101 A 0.905 0.78799 155.49774 0 1 3.15362 1.36401 L 3.05163 1.14025" />
    <path d="M 3.15362 1.36401 A 0.905 0.78799 155.49774 0 1 3.09114 1.07306" />
    <path d="M 2.59429 0.08644 A 0.125 0.02268 264.55952 0 1 2.58244 -0.14917 L 2.68034 -0.15849" />
    <path d="M 2.58244 -0.14917 A 0.125 0.02268 264.55952 0 1 2.60614 0.09971 L 2.70404 0.09038" />
    <path d="M 2.60614 0.09971 A 0.125 0.02268 264.55952 0 1 2.59429 0.08644" />
    <path d="M 2.59429 0.97585 A 0.125 0.02268 264.55952 0 1 2.58244 0.74023 L 2.68034 0.73091" />
    <path d="M 2.58244 0.74023 A 0.125 0.02268 264.55952 0 1 2.60614 0.98911 L 2.70404 0.97978" />
    <path d="M 2.60614 0.98911 A 0.125 0.02268 264.55952 0 1 2.59429 0.97585" />
    <path d="M 2.76617 1.65151 A 0.905 0.4137 180 0 0 3.64346 2.06501" />
    <path d="M 3.97712 0.32163 A 0.75 0.65303 155.49774 0 1 4.65958 0.67764" />
    <path d="M 3.29466 1.29973 A 0.75 0.65303 155.49774 0 1 3.97712 0.32163" />
    <path d="M 9.79016 13.07586 A 0.75 0.65303 155.49774 0 1 10.47262 13.43187 L 4.65958 0.67764" />
    <path d="M 10.47262 13.43187 A 0.75 0.65303 155.49774 0 1 9.1077 14.05396 L 3.29466 1.29973" />
    <path d="M 9.1077 14.05396 A 0.75 0.65303 155.49774 0 1 9.79016 13.07586" />
    <path d="M 2.92117 13.65843 A 0.75 0.34285 180 0 0 4.42117 13.65843" />
    <path d="M 10.47262 0.09084 L 4.65958 -12.66339" />
    <path d="M 9.1077 0.71294 L 3.29466 -12.0413" />
    <path d="M 4.80062 -12.72767 L 4.69863 -12.95143" />
    <path d="M 3.15362 -11.97701 L 3.05163 -12.20077" />
    <path d="M 2.60614 -13.24132 L 2.70404 -13.25064" />
    <path d="M 2.58244 -13.49019 L 2.68034 -13.49952" />
    <path d="M 2.60614 -12.35192 L 2.70404 -12.36124" />
    <path d="M 2.58244 -12.60079 L 2.68034 -12.61011" />
    <path d="M 2.76617 -11.87866 L 2.76617 -11.68951" />
    <path d="M 2.76617 -14.35772 L 2.76617 -13.91302" />
    <path d="M 4.57617 -14.35772 L 4.57617 -13.91302" />
    <path d="M 2.92117 -11.45799 L 2.92117 -9.02131" />
    <path d="M 4.42117 -9.56966 L 4.42117 -9.02131" />
    <path d="M 2.76617 -7.5113 L 2.76617 -7.35368" />
    <path d="M 4.57617 -7.5113 L 4.57617 -7.35368" />
    <path d="M 2.76617 -5.31933 L 2.76617 -5.13018" />
    <path d="M 4.57617 -5.19413 L 4.57617 -5.13018" />
    <path d="M 2.32281 -7.61426 L 2.48822 -7.25133" />
    <path d="M 2.92117 -4.89865 L 2.92117 -1.0167" />
    <path d="M 4.42117 -4.89865 L 4.42117 -1.0167" />
    <path d="M 2.76617 1.46236 L 2.76617 1.65151" />
    <path d="M 2.92117 1.88304 L 2.92117 13.65843" />
    <path d="M 4.42117 3.77137 L 4.42117 13.65843" />
</svg>