<svg version="1.1" xmlns="http://www.w3.org/2000/svg" viewBox="-13.237256317774872 -25.90192129899854 24.761296901911635 63.77805056263209" fill="none" stroke="black" stroke-width="0.6%" vector-effect="non-scaling-stroke">
    <path d="M 9.7898 26.42084 A 0.75 0.4646 164.94134 0 1 10.51405 26.70056 A 0.75 0.4646 164.94134 0 1 9.06556 27.09028 A 0.75 0.4646 164.94134 0 1 9.7898 26.42084 Z" />
    <path d="M 3.97711 4.81606 A 0.75 0.4646 344.94134 0 0 3.25286 5.4855" />
    <path d="M 4.70135 5.09579 A 0.75 0.4646 344.94134 0 0 3.97711 4.81606" />
    <path d="M 3.09113 5.43357 A 0.905 0.56062 164.94134 0 1 4.85103 5.05552 A 0.905 0.56062 164.94134 0 1 4.78287 5.39876" />
    <path d="M 3.33438 5.78848 A 0.905 0.56062 164.94134 0 1 3.10319 5.52577 A 0.905 0.56062 164.94134 0 1 3.09113 5.43357" />
    <path d="M 2.98915 5.05454 A 0.905 0.56062 164.94134 0 1 4.74905 4.67649" />
    <path d="M 3.00121 5.14674 A 0.905 0.56062 164.94134 0 1 2.98915 5.05454" />
    <path d="M 2.89615 5.70231 L 2.89615 4.43677 L 4.85411 4.12091 L 4.4462 2.60479 L 4.42118 2.60882" />
    <path d="M 2.89615 5.70231 L 3.17077 5.65801" />
    <path d="M 4.78345 5.39785 L 4.85411 5.38645 L 4.85411 5.23046" />
    <path d="M 4.85411 5.06786 L 4.85411 4.12091" />
    <path d="M 2.48824 4.18619 L 2.48824 2.92065 L 2.89615 4.43677" />
    <path d="M 2.48824 4.18619 L 2.57797 4.51968" />
    <path d="M 2.64326 4.76238 L 2.89615 5.70231" />
    <path d="M 2.7121 4.1185 A 0.125 0.01613 80.83597 0 0 2.67229 3.87169" />
    <path d="M 2.7121 4.75127 A 0.125 0.01613 80.83597 0 0 2.67229 4.50446" />
    <path d="M 2.88553 2.85655 L 2.48824 2.92065" />
    <path d="M 4.57618 3.52078 A 0.905 0.70078 360 0 1 2.76618 3.52078" />
    <path d="M 2.5943 4.08998 A 0.125 0.01613 260.83597 0 1 2.57439 3.88748 A 0.125 0.01613 260.83597 0 1 2.61421 4.13429 A 0.125 0.01613 260.83597 0 1 2.5943 4.08998 Z" />
    <path d="M 2.5943 4.72275 A 0.125 0.01613 260.83597 0 1 2.57439 4.52025 A 0.125 0.01613 260.83597 1 1 2.61421 4.76706 A 0.125 0.01613 260.83597 0 1 2.5943 4.72275 Z" />
    <path d="M 3.13028 5.66454 A 0.905 0.70078 180 0 0 3.21996 5.71017" />
    <path d="M 4.55715 3.06147 A 0.905 0.70078 360 0 1 4.57618 3.20439 A 0.905 0.70078 360 0 1 2.76618 3.20439 A 0.905 0.70078 360 0 1 2.92118 2.8122" />
    <path d="M 4.42118 2.8122 A 0.905 0.70078 360 0 1 4.55715 3.06147" />
    <path d="M 4.76796 3.78685 A 0.125 0.01613 80.83597 0 0 4.72815 3.54004 L 4.69909 3.54472" />
    <path d="M 4.42118 3.20439 A 0.75 0.58075 360 0 1 2.92118 3.20439" />
    <path d="M 3.814 7.57115 A 0.75 0.58075 360 0 1 2.92118 7.00102" />
    <path d="M 3.51821 -24.88971 A 0.75 0.58075 360 0 1 4.42118 -24.32117 A 0.75 0.58075 360 0 1 2.92118 -24.32117 A 0.75 0.58075 360 0 1 3.51821 -24.88971 Z" />
    <path d="M 5.32321 5.54807 L 4.42118 2.19538" />
    <path d="M 2.92118 -3.37986 L -0.48949 -16.05671 L -12.23726 -14.16155 L -6.11863 8.58032 L 1.22373 7.39585" />
    <path d="M 5.32321 5.54807 A 2.5 1.93585 360 0 1 6.17118 7.00102 L 6.17118 7.31741" />
    <path d="M 6.17118 7.00102 A 2.5 1.93585 360 0 1 5.55609 8.2727" />
    <path d="M 4.17093 8.89779 A 2.5 1.93585 360 0 1 1.22373 7.39585" />
    <path d="M 1.22373 7.71223 L 1.22373 7.39585" />
    <path d="M 1.22373 7.71223 A 2.5 1.93585 180 0 0 4.2523 9.20023" />
    <path d="M 5.62421 8.52589 A 2.5 1.93585 180 0 0 6.17118 7.31741" />
    <path d="M -12.23726 -13.84517 L -12.23726 -14.16155" />
    <path d="M -6.11863 8.8967 L -6.11863 8.58032" />
    <path d="M -6.11863 8.8967 L 1.22373 7.71223" />
    <path d="M -12.23726 -13.84517 L -6.11863 8.8967" />
    <path d="M 2.53955 9.04358 L 2.57797 9.18637" />
    <path d="M 2.64326 9.42906 L 2.89615 10.369 L 4.49726 10.11071" />
    <path d="M 2.89615 10.369 L 2.89615 9.15788" />
    <path d="M 2.7121 9.41796 A 0.125 0.01613 80.83597 0 0 2.67229 9.17115" />
    <path d="M 3.76088 9.25201 A 0.125 0.07743 344.94134 0 0 3.75442 9.29439" />
    <path d="M 3.99584 9.86221 A 0.125 0.07743 344.94134 0 0 3.75442 9.92716" />
    <path d="M 2.5943 9.38944 A 0.125 0.01613 260.83597 0 1 2.57439 9.18694 L 2.67229 9.17115" />
    <path d="M 2.57439 9.18694 A 0.125 0.01613 260.83597 1 1 2.61421 9.43375 L 2.7121 9.41796" />
    <path d="M 2.61421 9.43375 A 0.125 0.01613 260.83597 0 1 2.5943 9.38944" />
    <path d="M 3.89553 9.41682 A 0.125 0.07743 164.94134 0 1 3.77482 9.3702 L 3.75442 9.29439" />
    <path d="M 3.77482 9.3702 A 0.125 0.07743 164.94134 0 1 4.01623 9.30525 L 3.99778 9.23666" />
    <path d="M 4.01623 9.30525 A 0.125 0.07743 164.94134 0 1 3.89553 9.41682" />
    <path d="M 3.89553 10.04959 A 0.125 0.07743 164.94134 0 1 3.77482 10.00297 L 3.75442 9.92716" />
    <path d="M 3.77482 10.00297 A 0.125 0.07743 164.94134 0 1 4.01623 9.93802 L 3.99584 9.86221" />
    <path d="M 4.01623 9.93802 A 0.125 0.07743 164.94134 0 1 3.89553 10.04959" />
    <path d="M 3.13028 10.33123 A 0.905 0.70078 180 0 0 4.45682 10.11723" />
    <path d="M 4.42118 12.69596 A 0.75 0.58075 360 1 1 2.92118 12.69596" />
    <path d="M 4.55715 12.55304 A 0.905 0.70078 360 0 1 4.57618 12.69596 L 4.57618 13.01235 A 0.905 0.70078 360 0 1 2.76618 13.01235" />
    <path d="M 4.57618 12.69596 A 0.905 0.70078 360 0 1 2.76618 12.69596 L 2.76618 13.01235" />
    <path d="M 2.76618 12.69596 A 0.905 0.70078 360 0 1 2.92118 12.30378" />
    <path d="M 4.42118 12.30378 A 0.905 0.70078 360 0 1 4.55715 12.55304" />
    <path d="M 2.89615 13.92834 L 4.85411 13.61248 L 4.4462 12.09636 L 4.42118 12.1004" />
    <path d="M 2.48824 12.41222 L 2.89615 13.92834" />
    <path d="M 2.88553 12.34813 L 2.48824 12.41222" />
    <path d="M 2.89615 15.19389 L 2.89615 13.92834" />
    <path d="M 2.89615 15.19389 L 3.17077 15.14958" />
    <path d="M 4.78345 14.88943 L 4.85411 14.87803 L 4.85411 14.72204" />
    <path d="M 4.85411 14.55944 L 4.85411 13.61248" />
    <path d="M 2.98915 14.54611 A 0.905 0.56062 164.94134 0 1 4.74905 14.16806" />
    <path d="M 3.00121 14.63831 A 0.905 0.56062 164.94134 0 1 2.98915 14.54611" />
    <path d="M 2.48824 13.67776 L 2.48824 12.41222" />
    <path d="M 2.48824 13.67776 L 2.57797 14.01125" />
    <path d="M 2.64326 14.25395 L 2.89615 15.19389" />
    <path d="M 2.7121 13.61007 A 0.125 0.01613 80.83597 0 0 2.67229 13.36326" />
    <path d="M 2.7121 14.24284 A 0.125 0.01613 80.83597 0 0 2.67229 13.99603" />
    <path d="M 3.09113 14.92514 A 0.905 0.56062 164.94134 0 1 4.85103 14.54709 L 4.74905 14.16806" />
    <path d="M 4.85103 14.54709 A 0.905 0.56062 164.94134 0 1 4.78287 14.89034" />
    <path d="M 3.33438 15.28005 A 0.905 0.56062 164.94134 0 1 3.10319 15.01734 L 3.00121 14.63831" />
    <path d="M 3.10319 15.01734 A 0.905 0.56062 164.94134 0 1 3.09113 14.92514" />
    <path d="M 2.5943 13.58156 A 0.125 0.01613 260.83597 0 1 2.57439 13.37905 L 2.67229 13.36326" />
    <path d="M 2.57439 13.37905 A 0.125 0.01613 260.83597 0 1 2.61421 13.62586 L 2.7121 13.61007" />
    <path d="M 2.61421 13.62586 A 0.125 0.01613 260.83597 0 1 2.5943 13.58156" />
    <path d="M 2.5943 14.21433 A 0.125 0.01613 260.83597 0 1 2.57439 14.01183 L 2.67229 13.99603" />
    <path d="M 2.57439 14.01183 A 0.125 0.01613 260.83597 1 1 2.61421 14.25863 L 2.7121 14.24284" />
    <path d="M 2.61421 14.25863 A 0.125 0.01613 260.83597 0 1 2.5943 14.21433" />
    <path d="M 4.76796 13.27842 A 0.125 0.01613 80.83597 0 0 4.72815 13.03161 L 4.69909 13.0363" />
    <path d="M 3.13028 15.15612 A 0.905 0.70078 180 0 0 3.21996 15.20174" />
    <path d="M 3.97711 14.30764 A 0.75 0.4646 164.94134 0 1 4.70135 14.58736" />
    <path d="M 3.25286 14.97707 A 0.75 0.4646 164.94134 0 1 3.97711 14.30764" />
    <path d="M 9.7898 35.91241 A 0.75 0.4646 164.94134 0 1 10.51405 36.19214 L 4.70135 14.58736" />
    <path d="M 10.51405 36.19214 A 0.75 0.4646 164.94134 0 1 9.06556 36.58185 L 3.25286 14.97707" />
    <path d="M 9.06556 36.58185 A 0.75 0.4646 164.94134 0 1 9.7898 35.91241" />
    <path d="M 2.92118 23.13669 A 0.75 0.58075 180 0 0 4.42118 23.13669" />
    <path d="M 10.51405 26.70056 L 4.70135 5.09579" />
    <path d="M 9.06556 27.09028 L 3.25286 5.4855" />
    <path d="M 4.85103 5.05552 L 4.74905 4.67649" />
    <path d="M 3.10319 5.52577 L 3.00121 5.14674" />
    <path d="M 2.61421 4.13429 L 2.7121 4.1185" />
    <path d="M 2.57439 3.88748 L 2.67229 3.87169" />
    <path d="M 2.61421 4.76706 L 2.7121 4.75127" />
    <path d="M 2.57439 4.52025 L 2.67229 4.50446" />
    <path d="M 2.76618 3.20439 L 2.76618 3.52078" />
    <path d="M 4.57618 3.20439 L 4.57618 3.52078" />
    <path d="M 4.76796 3.78685 L 4.76439 3.78742" />
    <path d="M 2.92118 5.69828 L 2.92118 7.00102" />
    <path d="M 2.92118 -24.32117 L 2.92118 3.20439" />
    <path d="M 4.42118 -24.32117 L 4.42118 3.20439" />
    <path d="M 2.92118 10.36497 L 2.92118 12.69596" />
    <path d="M 4.42118 10.16159 L 4.42118 12.69596" />
    <path d="M 4.76796 13.27842 L 4.76439 13.27899" />
    <path d="M 2.92118 15.18985 L 2.92118 23.13669" />
    <path d="M 4.42118 19.31949 L 4.42118 23.13669" />
</svg>