<svg version="1.1" xmlns="http://www.w3.org/2000/svg" viewBox="-13.055807911038505 -26.20251336572897 24.50064381352147 42.50329913644265" fill="none" stroke="black" stroke-width="0.6%" vector-effect="non-scaling-stroke">
    <path d="M 2.49812 -7.79607 L 2.49812 -9.30887" />
    <path d="M 4.85394 -7.04026 L 4.85394 -8.79165 L 4.65701 -9.2633" />
    <path d="M 2.60898 -9.28196 L 2.89339 -8.60079 L 4.85394 -8.79165" />
    <path d="M 4.48103 -9.16956 A 0.805 0.3887 360 0 1 2.87103 -9.16956" />
    <path d="M 2.89339 -6.8494 L 2.89339 -8.60079" />
    <path d="M 2.49812 -7.79607 L 2.89339 -6.8494 L 4.85394 -7.04026" />
    <path d="M 2.91642 -6.85164 A 0.805 0.3887 180 0 0 4.48103 -6.98032" />
    <path d="M 4.33103 -2.93022 A 0.655 0.31628 360 0 1 3.02103 -2.93022" />
    <path d="M 1.22534 -10.13506 A 2.5 1.20716 180 0 0 6.17603 -10.37364" />
    <path d="M -6.12672 -9.41933 L 1.22534 -10.13506 L 1.22534 -10.57291" />
    <path d="M -12.05581 -23.61949 L -6.12672 -9.41933 L -6.12672 -9.85717 L 1.22534 -10.57291" />
    <path d="M 2.88691 -2.8534 A 0.805 0.3887 360 0 1 2.87103 -2.93022 A 0.805 0.3887 360 0 1 3.02103 -3.15619" />
    <path d="M 4.33103 -3.15619 A 0.805 0.3887 360 0 1 4.48103 -2.93022 A 0.805 0.3887 360 0 1 2.88691 -2.8534" />
    <path d="M 5.34013 -11.71236 L 4.33103 -14.12914" />
    <path d="M 3.57481 -15.94029 L -0.2925 -25.20251 L -12.05581 -24.05734 L -6.12672 -9.85717" />
    <path d="M 5.34013 -11.71236 A 2.5 1.20716 0 0 1 6.17603 -10.81149 A 2.5 1.20716 0 0 1 1.22534 -10.57291" />
    <path d="M -12.05581 -23.61949 L -12.05581 -24.05734" />
    <path d="M 2.88691 -2.41555 A 0.805 0.3887 360 0 1 2.87103 -2.49238" />
    <path d="M 4.48103 -2.49238 A 0.805 0.3887 360 0 1 2.88691 -2.41555" />
    <path d="M 4.33103 -10.81149 A 0.655 0.31628 360 0 1 3.02103 -10.81149" />
    <path d="M 2.89339 -1.92361 L 4.85394 -2.11447 L 4.45867 -3.06115 L 4.43564 -3.0589" />
    <path d="M 2.87103 -2.90659 L 2.49812 -2.87028 L 2.89339 -1.92361" />
    <path d="M 3.54658 -15.93785 A 0.655 0.31628 360 0 1 4.33103 -15.62781 L 4.33103 -10.81149" />
    <path d="M 4.33103 -15.62781 A 0.655 0.31628 360 0 1 3.02103 -15.62781 L 3.02103 -10.81149" />
    <path d="M 3.02103 -15.62781 A 0.655 0.31628 360 0 1 3.54658 -15.93785" />
    <path d="M 2.89339 -0.17221 L 2.89339 -1.92361" />
    <path d="M 4.85394 -0.49556 L 4.85394 -2.11447" />
    <path d="M 2.89339 -0.17221 L 3.54294 -0.23545" />
    <path d="M 3.08455 -1.06652 A 0.805 0.69103 157.33769 0 1 4.61652 -1.45351" />
    <path d="M 3.13082 -0.83318 A 0.805 0.69103 157.33769 0 1 3.08455 -1.06652" />
    <path d="M 2.49812 -1.11889 L 2.49812 -2.87028" />
    <path d="M 2.49812 -1.11889 L 2.89339 -0.17221" />
    <path d="M 3.18337 -0.82985 A 0.805 0.69103 157.33769 0 1 4.71533 -1.21684 L 4.61652 -1.45351" />
    <path d="M 4.71533 -1.21684 A 0.805 0.69103 157.33769 0 1 4.7317 -0.78834" />
    <path d="M 3.52284 -0.2836 A 0.805 0.69103 157.33769 0 1 3.22964 -0.59651 L 3.13082 -0.83318" />
    <path d="M 3.22964 -0.59651 A 0.805 0.69103 157.33769 0 1 3.18337 -0.82985" />
    <path d="M 2.91642 -0.17446 A 0.805 0.3887 180 0 0 3.67698 0.08557" />
    <path d="M 3.97249 -1.48025 A 0.655 0.56227 157.33769 0 1 4.57692 -1.15904" />
    <path d="M 3.36806 -0.6543 A 0.655 0.56227 157.33769 0 1 3.97249 -1.48025" />
    <path d="M 9.80275 12.48324 A 0.655 0.56227 157.33769 0 1 10.40718 12.80445 L 4.57692 -1.15904" />
    <path d="M 10.40718 12.80445 A 0.655 0.56227 157.33769 0 1 9.19833 13.30919 L 3.36806 -0.6543" />
    <path d="M 9.19833 13.30919 A 0.655 0.56227 157.33769 0 1 9.80275 12.48324" />
    <path d="M 3.02103 11.51876 A 0.655 0.31628 180 1 0 4.33103 11.51876" />
    <path d="M 4.45867 12.15407 L 4.43564 12.15631" />
    <path d="M 2.87103 12.30863 L 2.49812 12.34493 L 2.89339 13.29161 L 4.85394 13.10075 L 4.45867 12.15407" />
    <path d="M 2.49812 14.09632 L 2.49812 12.34493" />
    <path d="M 4.85394 14.85214 L 4.85394 13.10075" />
    <path d="M 4.48103 12.72284 A 0.805 0.3887 360 0 1 2.87103 12.72284" />
    <path d="M 2.89339 15.043 L 2.89339 13.29161" />
    <path d="M 2.49812 14.09632 L 2.89339 15.043 L 4.85394 14.85214" />
    <path d="M 4.46515 12.20817 A 0.805 0.3887 360 0 1 4.48103 12.28499 L 4.48103 12.72284" />
    <path d="M 4.48103 12.28499 A 0.805 0.3887 360 0 1 2.87103 12.28499 L 2.87103 12.72284" />
    <path d="M 2.87103 12.28499 A 0.805 0.3887 360 0 1 4.46515 12.20817" />
    <path d="M 2.91642 15.04076 A 0.805 0.3887 180 0 0 4.48103 14.91208" />
    <path d="M -2.45069 -1.64855 A 0.655 0.56227 337.33769 0 0 -3.05512 -0.82259 L 2.49812 12.47741" />
    <path d="M -1.84626 -1.32734 A 0.655 0.56227 337.33769 0 0 -2.45069 -1.64855" />
    <path d="M 2.87103 -9.23077 L 2.87103 -9.16956" />
    <path d="M 4.48103 -9.23077 L 4.48103 -9.16956" />
    <path d="M 4.48103 -7.00395 L 4.48103 -6.98032" />
    <path d="M 3.02103 -6.75435 L 3.02103 -2.93022" />
    <path d="M 4.33103 -6.75435 L 4.33103 -2.93022" />
    <path d="M 6.17603 -10.81149 L 6.17603 -10.37364" />
    <path d="M 2.87103 -2.93022 L 2.87103 -2.49238" />
    <path d="M 4.48103 -2.93022 L 4.48103 -2.49238" />
    <path d="M 3.02103 -0.07717 L 3.02103 11.51876" />
    <path d="M 4.33103 1.65202 L 4.33103 11.51876" />
    <path d="M 4.48103 14.88844 L 4.48103 14.91208" />
    <path d="M -1.84626 -1.32734 L 3.02103 10.32983" />
    <path d="M 3.6494 11.83477 L 3.67508 11.89629" />
</svg>