<svg version="1.1" xmlns="http://www.w3.org/2000/svg" viewBox="-13.055807911038505 -26.202513365728972 24.50064381352147 42.50329913644265" fill="none" stroke="black" stroke-width="0.6%" vector-effect="non-scaling-stroke">
    <path d="M 2.87103 -6.98032 A 0.805 0.3887 180 0 0 4.48103 -6.98032" />
    <path d="M 4.40676 -7.7311 C 4.41 -7.73 4.41 -7.73 4.4049 -7.73076 C 4.4 -7.73 4.4 -7.73 4.40294 -7.73009 C 4.4 -7.73 4.4 -7.73 4.40089 -7.7291 C 4.4 -7.73 4.4 -7.73 4.39876 -7.72779 C 4.4 -7.73 4.4 -7.73 4.39655 -7.72616 C 4.4 -7.73 4.4 -7.72 4.39428 -7.72424 C 4.39 -7.72 4.39 -7.72 4.39196 -7.72203 C 4.39 -7.72 4.39 -7.72 4.38962 -7.71954 C 4.39 -7.72 4.39 -7.72 4.38696 -7.71644 C 4.39 -7.72 4.39 -7.71 4.3843 -7.71302 C 4.38 -7.71 4.38 -7.71 4.38165 -7.70932 C 4.38 -7.71 4.38 -7.71 4.37905 -7.70536 C 4.38 -7.7 4.38 -7.7 4.37412 -7.69684 C 4.37 -7.7 4.37 -7.69 4.37184 -7.69235 C 4.37 -7.69 4.37 -7.69 4.36971 -7.68775 C 4.37 -7.69 4.37 -7.68 4.36777 -7.6831 C 4.37 -7.68 4.37 -7.68 4.36604 -7.67841 C 4.37 -7.68 4.36 -7.68 4.36453 -7.67374 C 4.36 -7.67 4.36 -7.67 4.36327 -7.66911 C 4.36 -7.67 4.36 -7.67 4.36227 -7.66456 C 4.36 -7.66 4.36 -7.66 4.36154 -7.66014 C 4.36 -7.66 4.36 -7.66 4.3611 -7.65586 C 4.36 -7.65 4.36 -7.65 4.36095 -7.65177 C 4.36 -7.65 4.36 -7.65 4.36127 -7.64623 C 4.36 -7.64 4.36 -7.64 4.3622 -7.64129 C 4.36 -7.64 4.36 -7.64 4.36373 -7.63702 C 4.36 -7.64 4.37 -7.63 4.36581 -7.6335 C 4.37 -7.63 4.37 -7.63 4.36838 -7.63079 C 4.37 -7.63 4.37 -7.63 4.37137 -7.62892 C 4.37 -7.63 4.38 -7.63 4.37831 -7.62786 C 4.38 -7.63 4.38 -7.63 4.3797 -7.62805 C 4.38 -7.63 4.38 -7.63 4.38306 -7.629 C 4.38 -7.63 4.39 -7.63 4.38648 -7.63062 C 4.39 -7.63 4.39 -7.63 4.38991 -7.63288 C 4.39 -7.63 4.39 -7.63 4.3933 -7.63577" />
    <path d="M 3.881 -7.49489 C 3.88 -7.5 3.88 -7.5 3.87961 -7.49783 C 3.88 -7.5 3.88 -7.5 3.87797 -7.50063 C 3.88 -7.5 3.88 -7.5 3.87607 -7.50328 C 3.88 -7.5 3.87 -7.5 3.87394 -7.50576 C 3.87 -7.51 3.87 -7.51 3.87158 -7.50806 C 3.87 -7.51 3.87 -7.51 3.869 -7.51016 C 3.87 -7.51 3.87 -7.51 3.86622 -7.51207 C 3.87 -7.51 3.86 -7.51 3.86326 -7.51376 C 3.86 -7.51 3.86 -7.51 3.86013 -7.51523 C 3.86 -7.52 3.86 -7.52 3.85684 -7.51647 C 3.86 -7.52 3.85 -7.52 3.85343 -7.51747 C 3.85 -7.52 3.85 -7.52 3.8499 -7.51822 C 3.85 -7.52 3.85 -7.52 3.84629 -7.51873 C 3.85 -7.52 3.84 -7.52 3.84261 -7.51899 C 3.84 -7.52 3.84 -7.52 3.83888 -7.519 C 3.84 -7.52 3.84 -7.52 3.83513 -7.51876 C 3.83 -7.52 3.83 -7.52 3.83023 -7.51807 C 3.83 -7.52 3.83 -7.52 3.82537 -7.51697 C 3.82 -7.52 3.82 -7.52 3.8206 -7.51545 C 3.82 -7.51 3.82 -7.51 3.81597 -7.51354 C 3.81 -7.51 3.81 -7.51 3.81152 -7.51126 C 3.81 -7.51 3.81 -7.51 3.80732 -7.50863 C 3.81 -7.51 3.8 -7.51 3.80339 -7.50566 C 3.8 -7.5 3.8 -7.5 3.79977 -7.5024 C 3.8 -7.5 3.8 -7.5 3.79651 -7.49887 C 3.8 -7.5 3.79 -7.5 3.79364 -7.4951 C 3.79 -7.49 3.79 -7.49 3.79118 -7.49112 C 3.79 -7.49 3.79 -7.49 3.78916 -7.48699 C 3.79 -7.48 3.79 -7.48 3.78583 -7.46957 C 3.79 -7.47 3.79 -7.46 3.78872 -7.45636 L 3.8094 -7.40683" />
    <path d="M 3.36356 -7.51256 C 3.36 -7.51 3.36 -7.52 3.36178 -7.51635 C 3.36 -7.52 3.36 -7.52 3.35964 -7.52009 C 3.36 -7.52 3.36 -7.52 3.35715 -7.52375 C 3.36 -7.52 3.36 -7.53 3.35434 -7.5273 C 3.35 -7.53 3.35 -7.53 3.35121 -7.53073 C 3.35 -7.53 3.35 -7.53 3.34779 -7.53402 C 3.35 -7.54 3.35 -7.54 3.3441 -7.53713 C 3.34 -7.54 3.34 -7.54 3.34017 -7.54006 C 3.34 -7.54 3.34 -7.54 3.33602 -7.54279 C 3.33 -7.54 3.33 -7.54 3.33169 -7.5453 C 3.33 -7.55 3.33 -7.55 3.32719 -7.54756 C 3.33 -7.55 3.32 -7.55 3.32256 -7.54958 C 3.32 -7.55 3.32 -7.55 3.31784 -7.55133 C 3.32 -7.55 3.31 -7.55 3.31306 -7.55281 C 3.31 -7.55 3.31 -7.55 3.30825 -7.554 C 3.31 -7.55 3.31 -7.55 3.30345 -7.55489 C 3.3 -7.56 3.3 -7.56 3.2984 -7.5555 C 3.3 -7.56 3.3 -7.56 3.29343 -7.55578 C 3.29 -7.56 3.29 -7.56 3.28857 -7.5557 C 3.29 -7.56 3.29 -7.56 3.28387 -7.55526 C 3.28 -7.56 3.28 -7.55 3.27939 -7.55447 C 3.28 -7.55 3.28 -7.55 3.27515 -7.55333 C 3.27 -7.55 3.27 -7.55 3.27121 -7.55185 C 3.27 -7.55 3.27 -7.55 3.26758 -7.55003 C 3.27 -7.55 3.27 -7.55 3.2643 -7.54789 C 3.26 -7.55 3.26 -7.55 3.2614 -7.54544 C 3.26 -7.54 3.26 -7.54 3.25891 -7.5427 C 3.26 -7.54 3.26 -7.54 3.25683 -7.53968 C 3.25 -7.54 3.25 -7.53 3.25305 -7.52529 C 3.25 -7.52 3.25 -7.51 3.25647 -7.50951 L 3.31926 -7.35911" />
    <path d="M 2.88243 -7.82899 C 2.88 -7.83 2.88 -7.83 2.88342 -7.82868 C 2.88 -7.83 2.88 -7.83 2.88451 -7.82755 C 2.88 -7.83 2.89 -7.83 2.88567 -7.82564 C 2.89 -7.82 2.89 -7.82 2.88691 -7.82298 C 2.89 -7.82 2.89 -7.82 2.88789 -7.82045 C 2.89 -7.82 2.89 -7.82 2.8889 -7.81753 C 2.89 -7.82 2.89 -7.82 2.88991 -7.81423 C 2.89 -7.81 2.89 -7.81 2.89092 -7.8106 C 2.89 -7.81 2.89 -7.81 2.89191 -7.80668 C 2.89 -7.81 2.89 -7.8 2.89287 -7.80249 C 2.89 -7.8 2.89 -7.8 2.89379 -7.79808 C 2.89 -7.8 2.89 -7.8 2.89466 -7.79349 C 2.9 -7.79 2.9 -7.79 2.89618 -7.78395 C 2.9 -7.78 2.9 -7.78 2.89681 -7.77909 C 2.9 -7.78 2.9 -7.78 2.89734 -7.77423 C 2.9 -7.77 2.9 -7.77 2.89776 -7.76941 C 2.9 -7.77 2.9 -7.77 2.89807 -7.76469 C 2.9 -7.76 2.9 -7.76 2.89825 -7.76009 C 2.9 -7.76 2.9 -7.76 2.89832 -7.75567 C 2.9 -7.75 2.9 -7.75 2.8982 -7.75008 C 2.9 -7.75 2.9 -7.75 2.89787 -7.74501 C 2.9 -7.74 2.9 -7.74 2.89732 -7.74055 C 2.9 -7.74 2.9 -7.74 2.89657 -7.73676 C 2.9 -7.74 2.9 -7.73 2.89565 -7.73371 C 2.9 -7.73 2.89 -7.73 2.89459 -7.73145 C 2.89 -7.73 2.89 -7.73 2.8934 -7.73003 C 2.89 -7.73 2.89 -7.73 2.89212 -7.72946 C 2.89 -7.73 2.89 -7.73 2.89083 -7.72975 C 2.89 -7.73 2.89 -7.73 2.88951 -7.73085 C 2.89 -7.73 2.89 -7.73 2.8882 -7.73275 C 2.89 -7.73 2.89 -7.73 2.88691 -7.73541" />
    <path d="M 2.88691 -8.21704 L 2.88473 -8.21244 L 2.88271 -8.20787 L 2.88085 -8.2033 L 2.87915 -8.19876 L 2.87761 -8.19424 L 2.87623 -8.18974 L 2.87501 -8.18525 L 2.87396 -8.18079 L 2.87306 -8.17635 L 2.87233 -8.17194 L 2.87176 -8.16755 L 2.87136 -8.16319 L 2.87111 -8.15885 L 2.87103 -8.15454 L 2.87103 -7.82788" />
    <path d="M 2.87103 -8.43318 L 2.87111 -8.41782 L 2.87136 -8.40244 L 2.87176 -8.38704 L 2.87233 -8.37162 L 2.87306 -8.35618 L 2.87396 -8.34073 L 2.87501 -8.32527 L 2.87623 -8.3098 L 2.87761 -8.29433 L 2.87915 -8.27886 L 2.88085 -8.26339 L 2.88271 -8.24793 L 2.88473 -8.23248 L 2.88691 -8.21704" />
    <path d="M 4.75434 -7.9172 A 0.05 0.00865 84.4397 0 0 4.75918 -7.91122 A 0.05 0.00865 84.4397 0 0 4.74949 -8.01075" />
    <path d="M 4.85315 -7.68053 A 0.05 0.00865 84.4397 0 0 4.858 -7.67455 A 0.05 0.00865 84.4397 0 0 4.84831 -7.77408" />
    <path d="M 2.68225 -9.26596 A 0.805 0.69103 337.33769 0 0 2.63673 -8.6937 L 2.87103 -8.13255" />
    <path d="M 4.75434 -7.85153 A 0.125 0.02163 264.4397 0 1 4.73945 -7.9093" />
    <path d="M 4.72976 -8.00883 A 0.125 0.02163 264.4397 0 1 4.74222 -8.0854 A 0.125 0.02163 264.4397 0 1 4.76645 -7.83658 A 0.125 0.02163 264.4397 0 1 4.75434 -7.85153" />
    <path d="M 4.33103 -2.93022 A 0.655 0.31628 0 1 1 3.02103 -2.93022" />
    <path d="M 4.85315 -7.61486 A 0.125 0.02163 264.4397 0 1 4.83826 -7.67263" />
    <path d="M 4.82858 -7.77216 A 0.125 0.02163 264.4397 0 1 4.84104 -7.84873 A 0.125 0.02163 264.4397 0 1 4.86527 -7.59991 A 0.125 0.02163 264.4397 0 1 4.85315 -7.61486" />
    <path d="M 4.01532 -7.35844 A 0.125 0.1073 337.33769 0 0 4.00878 -7.3835 A 0.125 0.1073 337.33769 0 0 3.77808 -7.28718 A 0.125 0.1073 337.33769 0 0 3.79131 -7.26491" />
    <path d="M 3.52518 -7.31072 A 0.125 0.1073 337.33769 0 0 3.51864 -7.33579 A 0.125 0.1073 337.33769 0 0 3.28795 -7.23946 A 0.125 0.1073 337.33769 0 0 3.30117 -7.21719" />
    <path d="M 2.59773 -7.64158 A 0.125 0.02163 84.4397 0 0 2.60984 -7.62663 A 0.125 0.02163 84.4397 0 0 2.58562 -7.87545" />
    <path d="M 2.49891 -7.87825 A 0.125 0.02163 84.4397 0 0 2.5046 -7.86756" />
    <path d="M 2.5165 -7.86872 A 0.125 0.02163 84.4397 0 0 2.4868 -8.11212" />
    <path d="M 4.85236 -7.86107 A 0.125 0.02163 84.4397 0 0 4.85805 -7.85039" />
    <path d="M 4.86995 -7.85154 A 0.125 0.02163 84.4397 0 0 4.84025 -8.09494 L 4.74222 -8.0854" />
    <path d="M 1.22534 -10.13506 A 2.5 1.20716 180 0 0 6.17603 -10.37364" />
    <path d="M -6.12672 -9.41933 L 1.22534 -10.13506 L 1.22534 -10.57291" />
    <path d="M -12.05581 -23.61949 L -6.12672 -9.41933 L -6.12672 -9.85717 L 1.22534 -10.57291" />
    <path d="M 2.88691 -2.8534 A 0.805 0.3887 0 0 1 2.87103 -2.93022 A 0.805 0.3887 0 0 1 3.02103 -3.15619" />
    <path d="M 4.33103 -3.15619 A 0.805 0.3887 0 0 1 4.48103 -2.93022 A 0.805 0.3887 0 0 1 2.88691 -2.8534" />
    <path d="M 4.95118 -7.6244 A 0.125 0.02163 84.4397 0 0 4.96329 -7.60945 A 0.125 0.02163 84.4397 1 0 4.93907 -7.85827 L 4.84104 -7.84873" />
    <path d="M 3.9132 -7.17854 A 0.125 0.1073 157.33769 0 1 3.79785 -7.23984 A 0.125 0.1073 157.33769 0 1 4.02855 -7.33617 A 0.125 0.1073 157.33769 0 1 3.9132 -7.17854 Z" />
    <path d="M 3.42306 -7.13083 A 0.125 0.1073 157.33769 0 1 3.30771 -7.19213 A 0.125 0.1073 157.33769 0 1 3.53841 -7.28845 A 0.125 0.1073 157.33769 0 1 3.42306 -7.13083 Z" />
    <path d="M 2.4997 -7.63203 A 0.125 0.02163 264.4397 0 1 2.48759 -7.86591 A 0.125 0.02163 264.4397 0 1 2.51181 -7.61708 A 0.125 0.02163 264.4397 0 1 2.4997 -7.63203 Z" />
    <path d="M 2.40088 -7.8687 A 0.125 0.02163 264.4397 0 1 2.38877 -8.10258 A 0.125 0.02163 264.4397 0 1 2.413 -7.85375 A 0.125 0.02163 264.4397 0 1 2.40088 -7.8687 Z" />
    <path d="M 5.34013 -11.71236 L 4.33103 -14.12914" />
    <path d="M 3.57481 -15.94029 L -0.2925 -25.20251 L -12.05581 -24.05734 L -6.12672 -9.85717" />
    <path d="M 5.34013 -11.71236 A 2.5 1.20716 0 0 1 6.17603 -10.81149 A 2.5 1.20716 0 0 1 1.22534 -10.57291" />
    <path d="M -12.05581 -23.61949 L -12.05581 -24.05734" />
    <path d="M 2.88691 -1.05823 C 2.89 -1.06 2.89 -1.06 2.8882 -1.05556 C 2.89 -1.05 2.89 -1.05 2.88951 -1.05367 C 2.89 -1.05 2.89 -1.05 2.89083 -1.05257 C 2.89 -1.05 2.89 -1.05 2.89212 -1.05228 C 2.89 -1.05 2.89 -1.05 2.8934 -1.05284 C 2.89 -1.05 2.89 -1.05 2.89459 -1.05427 C 2.89 -1.05 2.9 -1.06 2.89565 -1.05652 C 2.9 -1.06 2.9 -1.06 2.89657 -1.05957 C 2.9 -1.06 2.9 -1.06 2.89732 -1.06336 C 2.9 -1.06 2.9 -1.07 2.89787 -1.06783 C 2.9 -1.07 2.9 -1.07 2.8982 -1.0729 C 2.9 -1.07 2.9 -1.08 2.89832 -1.07849 C 2.9 -1.08 2.9 -1.08 2.89825 -1.08291 C 2.9 -1.08 2.9 -1.09 2.89807 -1.08751 C 2.9 -1.09 2.9 -1.09 2.89776 -1.09223 C 2.9 -1.09 2.9 -1.1 2.89734 -1.09705 C 2.9 -1.1 2.9 -1.1 2.89681 -1.10191 C 2.9 -1.1 2.9 -1.11 2.89618 -1.10677 C 2.9 -1.11 2.9 -1.11 2.89466 -1.11631 C 2.89 -1.12 2.89 -1.12 2.89379 -1.1209 C 2.89 -1.12 2.89 -1.12 2.89287 -1.12531 C 2.89 -1.13 2.89 -1.13 2.89191 -1.1295 C 2.89 -1.13 2.89 -1.13 2.89092 -1.13342 C 2.89 -1.13 2.89 -1.14 2.88991 -1.13705 C 2.89 -1.14 2.89 -1.14 2.8889 -1.14034 C 2.89 -1.14 2.89 -1.14 2.88789 -1.14327 C 2.89 -1.14 2.89 -1.15 2.88691 -1.14579 C 2.89 -1.15 2.89 -1.15 2.88567 -1.14846 C 2.89 -1.15 2.88 -1.15 2.88451 -1.15037 C 2.88 -1.15 2.88 -1.15 2.88342 -1.15149 C 2.88 -1.15 2.88 -1.15 2.88243 -1.15181 L 2.61262 -1.12554" />
    <path d="M 2.88691 -0.22631 A 0.805 0.3887 180 0 0 3.67698 0.08557" />
    <path d="M 2.87103 -0.30314 A 0.805 0.3887 180 0 0 2.88691 -0.22631" />
    <path d="M 2.98687 -1.17795 L 2.97685 -1.20257 L 2.96725 -1.22745 L 2.95809 -1.25256 L 2.94935 -1.27789 L 2.94106 -1.30342 L 2.93321 -1.32914 L 2.92581 -1.35504 L 2.91886 -1.38109 L 2.91237 -1.40729 L 2.90634 -1.43362 L 2.90078 -1.46005 L 2.89568 -1.48658 L 2.89106 -1.51319 L 2.88691 -1.53986 L 2.93419 -1.60568 L 3.01099 -1.67193 L 3.11426 -1.73599 L 3.23988 -1.7953 L 3.38286 -1.8475 L 3.5375 -1.89052 L 3.69766 -1.92264 L 3.85695 -1.94258 L 4.00905 -1.94956 L 4.1479 -1.94329 L 4.26796 -1.92402 L 4.36447 -1.89252 L 4.43359 -1.85004 L 4.47256 -1.79828" />
    <path d="M 4.33103 -10.81149 A 0.655 0.31628 0 1 1 3.02103 -10.81149" />
    <path d="M 4.75434 -1.24002 A 0.05 0.00865 84.4397 0 0 4.75918 -1.23404 A 0.05 0.00865 84.4397 0 0 4.74949 -1.33357" />
    <path d="M 3.18337 -0.82985 A 0.805 0.69103 157.33769 0 1 4.71533 -1.21684 L 4.47256 -1.79828" />
    <path d="M 4.71533 -1.21684 A 0.805 0.69103 157.33769 0 1 4.7317 -0.78834" />
    <path d="M 3.52284 -0.2836 A 0.805 0.69103 157.33769 0 1 3.22964 -0.59651 L 2.98687 -1.17795" />
    <path d="M 3.22964 -0.59651 A 0.805 0.69103 157.33769 0 1 3.18337 -0.82985" />
    <path d="M 4.85315 -1.00335 A 0.05 0.00865 84.4397 0 0 4.858 -0.99737 A 0.05 0.00865 84.4397 0 0 4.84831 -1.0969" />
    <path d="M 3.54658 -15.93785 A 0.655 0.31628 0 0 1 4.33103 -15.62781 L 4.33103 -10.81149" />
    <path d="M 4.33103 -15.62781 A 0.655 0.31628 0 1 1 3.02103 -15.62781 L 3.02103 -10.81149" />
    <path d="M 3.02103 -15.62781 A 0.655 0.31628 0 0 1 3.54658 -15.93785" />
    <path d="M 2.59773 -0.9644 A 0.125 0.02163 84.4397 0 0 2.60984 -0.94945 A 0.125 0.02163 84.4397 0 0 2.58562 -1.19827" />
    <path d="M 3.02103 11.51876 A 0.655 0.31628 180 0 0 4.33103 11.51876" />
    <path d="M 2.49891 -1.20106 A 0.125 0.02163 84.4397 0 0 2.5046 -1.19038" />
    <path d="M 2.5165 -1.19154 A 0.125 0.02163 84.4397 0 0 2.4868 -1.43494" />
    <path d="M 4.75434 -1.17434 A 0.125 0.02163 264.4397 0 1 4.73945 -1.23212" />
    <path d="M 4.72976 -1.33165 A 0.125 0.02163 264.4397 0 1 4.74222 -1.40822 A 0.125 0.02163 264.4397 0 1 4.76645 -1.15939 A 0.125 0.02163 264.4397 0 1 4.75434 -1.17434" />
    <path d="M 3.97249 -1.48025 A 0.655 0.56227 337.33769 0 0 3.36806 -0.6543" />
    <path d="M 4.57692 -1.15904 A 0.655 0.56227 337.33769 0 0 3.97249 -1.48025" />
    <path d="M 4.85315 -0.93767 A 0.125 0.02163 264.4397 0 1 4.83826 -0.99545" />
    <path d="M 4.82858 -1.09498 A 0.125 0.02163 264.4397 0 1 4.84104 -1.17155 A 0.125 0.02163 264.4397 0 1 4.86527 -0.92273 A 0.125 0.02163 264.4397 0 1 4.85315 -0.93767" />
    <path d="M 2.4997 -0.95485 A 0.125 0.02163 264.4397 0 1 2.48759 -1.18873 L 2.58562 -1.19827" />
    <path d="M 2.48759 -1.18873 A 0.125 0.02163 264.4397 0 1 2.51181 -0.9399 L 2.60984 -0.94945" />
    <path d="M 2.51181 -0.9399 A 0.125 0.02163 264.4397 0 1 2.4997 -0.95485" />
    <path d="M 2.40088 -1.19152 A 0.125 0.02163 264.4397 0 1 2.38877 -1.4254 L 2.4868 -1.43494" />
    <path d="M 2.38877 -1.4254 A 0.125 0.02163 264.4397 0 1 2.413 -1.17657 L 2.48211 -1.1833" />
    <path d="M 2.413 -1.17657 A 0.125 0.02163 264.4397 0 1 2.40088 -1.19152" />
    <path d="M 4.85236 -1.18389 A 0.125 0.02163 84.4397 0 0 4.85805 -1.1732" />
    <path d="M 4.86995 -1.17436 A 0.125 0.02163 84.4397 0 0 4.84025 -1.41776 L 4.74222 -1.40822" />
    <path d="M 9.80275 12.48324 A 0.655 0.56227 157.33769 0 1 10.40718 12.80445 L 4.57692 -1.15904" />
    <path d="M 10.40718 12.80445 A 0.655 0.56227 157.33769 1 1 9.19833 13.30919 L 3.36806 -0.6543" />
    <path d="M 9.19833 13.30919 A 0.655 0.56227 157.33769 0 1 9.80275 12.48324" />
    <path d="M 4.95118 -0.94722 A 0.125 0.02163 84.4397 0 0 4.96329 -0.93227 L 4.86527 -0.92273" />
    <path d="M 4.96329 -0.93227 A 0.125 0.02163 84.4397 1 0 4.93907 -1.18109 L 4.84104 -1.17155" />
    <path d="M 4.46515 12.20817 A 0.805 0.3887 360 0 1 4.48103 12.28499 L 4.48103 14.15407" />
    <path d="M 4.48103 12.28499 A 0.805 0.3887 360 0 1 2.87103 12.28499 L 2.87103 13.45922 L 2.87111 13.47457 L 2.87136 13.48995 L 2.87176 13.50536 L 2.87233 13.52078 L 2.87306 13.53622 L 2.87396 13.55167 L 2.87501 13.56713 L 2.87623 13.5826 L 2.87761 13.59807 L 2.87915 13.61354 L 2.88085 13.62901 L 2.88271 13.64447 L 2.88473 13.65992 L 2.88691 13.67536 L 2.88473 13.67995 L 2.88271 13.68453 L 2.88085 13.68909 L 2.87915 13.69364 L 2.87761 13.69816 L 2.87623 13.70266 L 2.87501 13.70714 L 2.87396 13.7116 L 2.87306 13.71604 L 2.87233 13.72046 L 2.87176 13.72485 L 2.87136 13.72921 L 2.87111 13.73355 L 2.87103 13.73786 L 2.87103 14.06452" />
    <path d="M 2.87103 12.28499 A 0.805 0.3887 360 0 1 4.46515 12.20817" />
    <path d="M 2.87103 14.91208 A 0.805 0.3887 180 0 0 4.48103 14.91208" />
    <path d="M 4.40676 14.1613 C 4.41 14.16 4.41 14.16 4.4049 14.16164 C 4.4 14.16 4.4 14.16 4.40294 14.16231 C 4.4 14.16 4.4 14.16 4.40089 14.1633 C 4.4 14.16 4.4 14.16 4.39876 14.16461 C 4.4 14.17 4.4 14.17 4.39655 14.16623 C 4.4 14.17 4.4 14.17 4.39428 14.16816 C 4.39 14.17 4.39 14.17 4.39196 14.17037 C 4.39 14.17 4.39 14.17 4.38962 14.17285 C 4.39 14.17 4.39 14.17 4.38696 14.17595 C 4.39 14.18 4.39 14.18 4.3843 14.17937 C 4.38 14.18 4.38 14.18 4.38165 14.18308 C 4.38 14.18 4.38 14.19 4.37905 14.18703 C 4.38 14.19 4.38 14.19 4.37412 14.19556 C 4.37 14.2 4.37 14.2 4.37184 14.20005 C 4.37 14.2 4.37 14.2 4.36971 14.20464 C 4.37 14.21 4.37 14.21 4.36777 14.2093 C 4.37 14.21 4.37 14.21 4.36604 14.21399 C 4.37 14.22 4.36 14.22 4.36453 14.21866 C 4.36 14.22 4.36 14.22 4.36327 14.22329 C 4.36 14.22 4.36 14.23 4.36227 14.22783 C 4.36 14.23 4.36 14.23 4.36154 14.23226 C 4.36 14.23 4.36 14.24 4.3611 14.23654 C 4.36 14.24 4.36 14.24 4.36095 14.24062 C 4.36 14.24 4.36 14.24 4.36127 14.24617 C 4.36 14.25 4.36 14.25 4.3622 14.25111 C 4.36 14.25 4.36 14.25 4.36373 14.25538 C 4.36 14.26 4.37 14.26 4.36581 14.25889 C 4.37 14.26 4.37 14.26 4.36838 14.26161 C 4.37 14.26 4.37 14.26 4.37137 14.26347 C 4.37 14.26 4.38 14.26 4.37831 14.26454 L 4.858 14.21784 A 0.05 0.00865 84.4397 0 0 4.84831 14.11831" />
    <path d="M 4.37831 14.26454 C 4.38 14.26 4.38 14.26 4.3797 14.26435 C 4.38 14.26 4.38 14.26 4.38306 14.2634 C 4.38 14.26 4.39 14.26 4.38648 14.26178 C 4.39 14.26 4.39 14.26 4.38991 14.25952 C 4.39 14.26 4.39 14.26 4.3933 14.25663" />
    <path d="M 3.881 14.3975 C 3.88 14.4 3.88 14.4 3.87961 14.39457 C 3.88 14.39 3.88 14.39 3.87797 14.39177 C 3.88 14.39 3.88 14.39 3.87607 14.38912 C 3.88 14.39 3.87 14.39 3.87394 14.38664 C 3.87 14.39 3.87 14.39 3.87158 14.38434 C 3.87 14.38 3.87 14.38 3.869 14.38223 C 3.87 14.38 3.87 14.38 3.86622 14.38033 C 3.87 14.38 3.86 14.38 3.86326 14.37864 C 3.86 14.38 3.86 14.38 3.86013 14.37717 C 3.86 14.38 3.86 14.38 3.85684 14.37593 C 3.86 14.38 3.85 14.38 3.85343 14.37493 C 3.85 14.37 3.85 14.37 3.8499 14.37417 C 3.85 14.37 3.85 14.37 3.84629 14.37366 C 3.85 14.37 3.84 14.37 3.84261 14.3734 C 3.84 14.37 3.84 14.37 3.83888 14.3734 C 3.84 14.37 3.84 14.37 3.83513 14.37364 C 3.83 14.37 3.83 14.37 3.83023 14.37433 C 3.83 14.37 3.83 14.37 3.82537 14.37543 C 3.82 14.38 3.82 14.38 3.8206 14.37695 C 3.82 14.38 3.82 14.38 3.81597 14.37885 C 3.81 14.38 3.81 14.38 3.81152 14.38114 C 3.81 14.38 3.81 14.38 3.80732 14.38377 C 3.81 14.38 3.8 14.39 3.80339 14.38674 C 3.8 14.39 3.8 14.39 3.79977 14.39 C 3.8 14.39 3.8 14.39 3.79651 14.39353 C 3.8 14.39 3.79 14.4 3.79364 14.3973 C 3.79 14.4 3.79 14.4 3.79118 14.40127 C 3.79 14.4 3.79 14.4 3.78916 14.40541 C 3.79 14.41 3.79 14.42 3.78583 14.42283 C 3.79 14.43 3.79 14.43 3.78872 14.43603 L 3.8094 14.48557" />
    <path d="M 3.36356 14.37984 C 3.36 14.38 3.36 14.38 3.36178 14.37604 C 3.36 14.37 3.36 14.37 3.35964 14.37231 C 3.36 14.37 3.36 14.37 3.35715 14.36865 C 3.36 14.37 3.36 14.37 3.35434 14.36509 C 3.35 14.36 3.35 14.36 3.35121 14.36166 C 3.35 14.36 3.35 14.36 3.34779 14.35838 C 3.35 14.36 3.35 14.36 3.3441 14.35526 C 3.34 14.35 3.34 14.35 3.34017 14.35233 C 3.34 14.35 3.34 14.35 3.33602 14.34961 C 3.33 14.35 3.33 14.35 3.33169 14.3471 C 3.33 14.35 3.33 14.35 3.32719 14.34483 C 3.33 14.34 3.32 14.34 3.32256 14.34282 C 3.32 14.34 3.32 14.34 3.31784 14.34106 C 3.32 14.34 3.31 14.34 3.31306 14.33959 C 3.31 14.34 3.31 14.34 3.30825 14.3384 C 3.31 14.34 3.31 14.34 3.30345 14.33751 C 3.3 14.34 3.3 14.34 3.2984 14.33689 C 3.3 14.34 3.3 14.34 3.29343 14.33662 C 3.29 14.34 3.29 14.34 3.28857 14.3367 C 3.29 14.34 3.29 14.34 3.28387 14.33714 C 3.28 14.34 3.28 14.34 3.27939 14.33793 C 3.28 14.34 3.28 14.34 3.27515 14.33907 C 3.27 14.34 3.27 14.34 3.27121 14.34055 C 3.27 14.34 3.27 14.34 3.26758 14.34237 C 3.27 14.34 3.27 14.34 3.2643 14.34451 C 3.26 14.35 3.26 14.35 3.2614 14.34696 C 3.26 14.35 3.26 14.35 3.25891 14.3497 C 3.26 14.35 3.26 14.35 3.25683 14.35271 C 3.25 14.36 3.25 14.36 3.25305 14.36711 C 3.25 14.37 3.25 14.38 3.25647 14.38289 L 3.31926 14.53329" />
    <path d="M 2.88243 14.06341 C 2.88 14.06 2.88 14.06 2.88342 14.06372 C 2.88 14.06 2.88 14.06 2.88451 14.06484 C 2.88 14.07 2.89 14.07 2.88567 14.06676 C 2.89 14.07 2.89 14.07 2.88691 14.06942 C 2.89 14.07 2.89 14.07 2.88789 14.07195 C 2.89 14.07 2.89 14.07 2.8889 14.07487 C 2.89 14.08 2.89 14.08 2.88991 14.07816 C 2.89 14.08 2.89 14.08 2.89092 14.08179 C 2.89 14.08 2.89 14.08 2.89191 14.08572 C 2.89 14.09 2.89 14.09 2.89287 14.08991 C 2.89 14.09 2.89 14.09 2.89379 14.09432 C 2.89 14.1 2.89 14.1 2.89466 14.09891 C 2.9 14.1 2.9 14.11 2.89618 14.10844 C 2.9 14.11 2.9 14.11 2.89681 14.1133 C 2.9 14.11 2.9 14.12 2.89734 14.11817 C 2.9 14.12 2.9 14.12 2.89776 14.12298 C 2.9 14.12 2.9 14.13 2.89807 14.12771 C 2.9 14.13 2.9 14.13 2.89825 14.13231 C 2.9 14.13 2.9 14.14 2.89832 14.13672 C 2.9 14.14 2.9 14.14 2.8982 14.14231 C 2.9 14.14 2.9 14.15 2.89787 14.14738 C 2.9 14.15 2.9 14.15 2.89732 14.15185 C 2.9 14.15 2.9 14.15 2.89657 14.15564 C 2.9 14.16 2.9 14.16 2.89565 14.15869 C 2.9 14.16 2.89 14.16 2.89459 14.16095 C 2.89 14.16 2.89 14.16 2.8934 14.16237 C 2.89 14.16 2.89 14.16 2.89212 14.16294 L 2.62231 14.1892" />
    <path d="M 2.89212 14.16294 C 2.89 14.16 2.89 14.16 2.89083 14.16265 C 2.89 14.16 2.89 14.16 2.88951 14.16155 C 2.89 14.16 2.89 14.16 2.8882 14.15965 C 2.89 14.16 2.89 14.16 2.88691 14.15699" />
    <path d="M 4.75434 13.97519 A 0.05 0.00865 84.4397 0 0 4.75918 13.98117 A 0.05 0.00865 84.4397 0 0 4.74949 13.88165" />
    <path d="M 4.85315 14.21186 A 0.05 0.00865 84.4397 0 0 4.858 14.21784" />
    <path d="M 2.87103 12.39901 A 0.805 0.69103 337.33769 0 0 2.63673 13.19869 L 2.87103 13.75985" />
    <path d="M 4.75434 14.04087 A 0.125 0.02163 264.4397 0 1 4.73945 13.9831" />
    <path d="M 4.72976 13.88357 A 0.125 0.02163 264.4397 0 1 4.74222 13.807 A 0.125 0.02163 264.4397 0 1 4.76645 14.05582 A 0.125 0.02163 264.4397 0 1 4.75434 14.04087" />
    <path d="M 4.85315 14.27754 A 0.125 0.02163 264.4397 0 1 4.83826 14.21977" />
    <path d="M 4.82858 14.12024 A 0.125 0.02163 264.4397 0 1 4.84104 14.04367 A 0.125 0.02163 264.4397 0 1 4.86527 14.29249 A 0.125 0.02163 264.4397 0 1 4.85315 14.27754" />
    <path d="M 4.01532 14.53396 A 0.125 0.1073 337.33769 0 0 4.00878 14.50889 A 0.125 0.1073 337.33769 0 0 3.77808 14.60522 A 0.125 0.1073 337.33769 0 0 3.79131 14.62749" />
    <path d="M 3.52518 14.58167 A 0.125 0.1073 337.33769 0 0 3.51864 14.55661 A 0.125 0.1073 337.33769 0 0 3.28795 14.65293 A 0.125 0.1073 337.33769 0 0 3.30117 14.67521" />
    <path d="M 2.59773 14.25082 A 0.125 0.02163 84.4397 0 0 2.60984 14.26577 A 0.125 0.02163 84.4397 0 0 2.58562 14.01695" />
    <path d="M 2.49891 14.01415 A 0.125 0.02163 84.4397 0 0 2.5046 14.02483" />
    <path d="M 2.5165 14.02368 A 0.125 0.02163 84.4397 0 0 2.4868 13.78028" />
    <path d="M 4.85236 14.03133 A 0.125 0.02163 84.4397 0 0 4.85805 14.04201" />
    <path d="M 4.86995 14.04085 A 0.125 0.02163 84.4397 0 0 4.84025 13.79745 L 4.74222 13.807" />
    <path d="M 4.95118 14.268 A 0.125 0.02163 84.4397 0 0 4.96329 14.28295 L 4.86527 14.29249" />
    <path d="M 4.96329 14.28295 A 0.125 0.02163 84.4397 1 0 4.93907 14.03412 L 4.84104 14.04367" />
    <path d="M 3.9132 14.71385 A 0.125 0.1073 157.33769 0 1 3.79785 14.65255 L 3.77808 14.60522" />
    <path d="M 3.79785 14.65255 A 0.125 0.1073 157.33769 0 1 4.02855 14.55623 L 4.00878 14.50889" />
    <path d="M 4.02855 14.55623 A 0.125 0.1073 157.33769 0 1 3.9132 14.71385" />
    <path d="M 3.42306 14.76157 A 0.125 0.1073 157.33769 0 1 3.30771 14.70027 L 3.28795 14.65293" />
    <path d="M 3.30771 14.70027 A 0.125 0.1073 157.33769 0 1 3.53841 14.60394 L 3.51864 14.55661" />
    <path d="M 3.53841 14.60394 A 0.125 0.1073 157.33769 0 1 3.42306 14.76157" />
    <path d="M 2.4997 14.26036 A 0.125 0.02163 264.4397 0 1 2.48759 14.02649 L 2.58562 14.01695" />
    <path d="M 2.48759 14.02649 A 0.125 0.02163 264.4397 0 1 2.51181 14.27531 L 2.60984 14.26577" />
    <path d="M 2.51181 14.27531 A 0.125 0.02163 264.4397 0 1 2.4997 14.26036" />
    <path d="M -2.45069 -1.64855 A 0.655 0.56227 337.33769 0 0 -3.05512 -0.82259 L 2.62037 12.7702" />
    <path d="M -1.84626 -1.32734 A 0.655 0.56227 337.33769 0 0 -2.45069 -1.64855" />
    <path d="M 2.40088 14.02369 A 0.125 0.02163 264.4397 0 1 2.38877 13.78982 L 2.4868 13.78028" />
    <path d="M 2.38877 13.78982 A 0.125 0.02163 264.4397 0 1 2.413 14.03864 L 2.48211 14.03192" />
    <path d="M 2.413 14.03864 A 0.125 0.02163 264.4397 0 1 2.40088 14.02369" />
    <path d="M 2.87103 -9.23077 L 2.87103 -8.43318" />
    <path d="M 2.87103 -7.72741 L 2.87103 -6.98032" />
    <path d="M 4.48103 -9.23077 L 4.48103 -7.73833" />
    <path d="M 4.48103 -7.63786 L 4.48103 -6.98032" />
    <path d="M 4.48103 -7.88414 L 4.75918 -7.91122" />
    <path d="M 4.48103 -7.98462 L 4.74949 -8.01075" />
    <path d="M 4.37832 -7.62786 L 4.858 -7.67455" />
    <path d="M 4.40676 -7.7311 L 4.84831 -7.77408" />
    <path d="M 3.881 -7.49489 L 3.90168 -7.44536" />
    <path d="M 3.36356 -7.51256 L 3.41154 -7.39764" />
    <path d="M 2.88243 -7.82899 L 2.61262 -7.80272" />
    <path d="M 2.89212 -7.72946 L 2.62231 -7.7032" />
    <path d="M 2.87103 -8.07417 L 2.5138 -8.03939" />
    <path d="M 2.87103 -7.9737 L 2.52349 -7.93986" />
    <path d="M 3.02103 -6.75435 L 3.02103 -2.93022" />
    <path d="M 4.33103 -6.75435 L 4.33103 -2.93022" />
    <path d="M 4.83556 -7.8433 L 4.76645 -7.83658" />
    <path d="M 4.96329 -7.60945 L 4.86527 -7.59991" />
    <path d="M 4.02855 -7.33617 L 4.00878 -7.3835" />
    <path d="M 3.79785 -7.23984 L 3.77808 -7.28718" />
    <path d="M 3.53841 -7.28845 L 3.51864 -7.33579" />
    <path d="M 3.30771 -7.19213 L 3.28795 -7.23946" />
    <path d="M 2.51181 -7.61708 L 2.60984 -7.62663" />
    <path d="M 2.48759 -7.86591 L 2.58562 -7.87545" />
    <path d="M 2.54761 -9.29645 L 2.62037 -9.1222" />
    <path d="M 2.413 -7.85375 L 2.48211 -7.86048" />
    <path d="M 2.38877 -8.10258 L 2.4868 -8.11212" />
    <path d="M 6.17603 -10.81149 L 6.17603 -10.37364" />
    <path d="M 2.87103 -2.93022 L 2.87103 -1.1507" />
    <path d="M 2.87103 -1.05023 L 2.87103 -0.30314" />
    <path d="M 4.48103 -2.93022 L 4.48103 -1.77799" />
    <path d="M 2.89212 -1.05228 L 2.62231 -1.02601" />
    <path d="M 2.87103 -1.39699 L 2.5138 -1.36221" />
    <path d="M 2.87103 -1.29652 L 2.52349 -1.26268" />
    <path d="M 4.71014 -1.22927 L 4.75918 -1.23404" />
    <path d="M 4.66983 -1.32582 L 4.74949 -1.33357" />
    <path d="M 4.76159 -0.98799 L 4.858 -0.99737" />
    <path d="M 4.75281 -1.0876 L 4.84831 -1.0969" />
    <path d="M 3.02103 -0.07717 L 3.02103 11.51876" />
    <path d="M 4.33103 1.65202 L 4.33103 11.51876" />
    <path d="M 4.83556 -1.16612 L 4.76645 -1.15939" />
    <path d="M 2.87103 14.16499 L 2.87103 14.91208" />
    <path d="M 4.48103 14.25454 L 4.48103 14.91208" />
    <path d="M 4.48103 14.00825 L 4.75918 13.98117" />
    <path d="M 4.48103 13.90778 L 4.74949 13.88165" />
    <path d="M 4.40676 14.1613 L 4.84831 14.11831" />
    <path d="M 3.881 14.39751 L 3.90168 14.44704" />
    <path d="M 3.36356 14.37984 L 3.41154 14.49476" />
    <path d="M 2.88243 14.06341 L 2.61262 14.08967" />
    <path d="M 2.87103 13.81823 L 2.5138 13.853" />
    <path d="M 2.87103 13.9187 L 2.52349 13.95253" />
    <path d="M 4.83556 14.04909 L 4.76645 14.05582" />
    <path d="M -1.84626 -1.32734 L 3.02103 10.32983" />
    <path d="M 3.6494 11.83477 L 3.67508 11.89629" />
</svg>