<svg version="1.1" xmlns="http://www.w3.org/2000/svg" viewBox="-13.055807911038508 -23.422582334368908 24.500643813521478 38.51072455272826" fill="none" stroke="black" stroke-width="0.6%" vector-effect="non-scaling-stroke">
    <path d="M 3.02103 -1.22413 A 0.655 0.28828 180 0 0 4.33103 -1.22413" />
    <path d="M 4.46515 -1.29415 A 0.805 0.35429 360 0 1 4.48103 -1.22413 A 0.805 0.35429 360 0 1 2.87103 -1.22413 A 0.805 0.35429 360 0 1 3.02103 -1.43009" />
    <path d="M 4.33103 -1.43009 A 0.805 0.35429 360 0 1 4.46515 -1.29415" />
    <path d="M 2.88691 -5.30708 A 0.805 0.35429 180 0 0 4.48103 -5.37711" />
    <path d="M 2.87304 -5.35208 A 0.805 0.35429 180 0 0 2.88691 -5.30708" />
    <path d="M 4.48103 -0.77516 A 0.805 0.35429 360 0 1 2.87103 -0.77516" />
    <path d="M 2.89339 -0.25674 L 4.85394 -0.4307 L 4.47902 -1.24915" />
    <path d="M 2.87103 -1.1527 L 2.49812 -1.11961 L 2.89339 -0.25674" />
    <path d="M 2.49812 -6.17053 L 2.89339 -5.30766 L 2.89339 -7.10354 L 4.85394 -7.27751 L 4.59899 -7.83407" />
    <path d="M 2.89339 -5.30766 L 4.85394 -5.48162 L 4.85394 -7.27751" />
    <path d="M 2.89339 1.53914 L 2.89339 -0.25674" />
    <path d="M 4.85394 1.1214 L 4.85394 -0.4307" />
    <path d="M 2.89339 1.53914 L 3.57663 1.47852" />
    <path d="M 3.08455 0.62424 A 0.805 0.70859 335.38789 0 0 3.1418 0.88948" />
    <path d="M 4.60553 0.21896 A 0.805 0.70859 335.38789 0 0 3.08455 0.62424" />
    <path d="M 2.49812 0.67628 L 2.49812 -1.11961" />
    <path d="M 2.49812 0.67628 L 2.89339 1.53914" />
    <path d="M 2.69576 -0.12696 A 0.125 0.02218 84.92926 0 0 2.70681 -0.11469 A 0.125 0.02218 84.92926 0 0 2.68471 -0.36371" />
    <path d="M 2.69576 0.77098 A 0.125 0.02218 84.92926 0 0 2.70681 0.78325 A 0.125 0.02218 84.92926 0 0 2.68471 0.53423" />
    <path d="M 2.49812 -6.17053 L 2.49812 -7.88613" />
    <path d="M 2.53923 -7.87668 L 2.89339 -7.10354" />
    <path d="M 2.69576 -6.97376 A 0.125 0.02218 84.92926 0 0 2.70681 -6.96149 A 0.125 0.02218 84.92926 0 0 2.68471 -7.21052" />
    <path d="M 2.69576 -6.07582 A 0.125 0.02218 84.92926 0 0 2.70681 -6.06355 A 0.125 0.02218 84.92926 0 0 2.68471 -6.31258" />
    <path d="M 3.98731 -6.79361 A 0.125 0.11003 335.38789 0 0 3.76003 -6.6895" />
    <path d="M 3.98731 -5.89567 A 0.125 0.11003 335.38789 0 0 3.76003 -5.79155" />
    <path d="M 3.18337 0.83996 A 0.805 0.70859 155.38789 0 1 4.70435 0.43468 L 4.60553 0.21896" />
    <path d="M 4.70435 0.43468 A 0.805 0.70859 155.38789 0 1 4.73953 0.87165" />
    <path d="M 3.54855 1.41723 A 0.805 0.70859 155.38789 0 1 3.24062 1.1052 L 3.1418 0.88948" />
    <path d="M 3.24062 1.1052 A 0.805 0.70859 155.38789 0 1 3.18337 0.83996" />
    <path d="M 2.59773 -0.11826 A 0.125 0.02218 264.92926 0 1 2.58668 -0.35501 L 2.68471 -0.36371" />
    <path d="M 2.58668 -0.35501 A 0.125 0.02218 264.92926 0 1 2.60878 -0.10599 L 2.70681 -0.11469" />
    <path d="M 2.60878 -0.10599 A 0.125 0.02218 264.92926 0 1 2.59773 -0.11826" />
    <path d="M 2.59773 0.77968 A 0.125 0.02218 264.92926 0 1 2.58668 0.54293 L 2.68471 0.53423" />
    <path d="M 2.58668 0.54293 A 0.125 0.02218 264.92926 0 1 2.60878 0.79195 L 2.70681 0.78325" />
    <path d="M 2.60878 0.79195 A 0.125 0.02218 264.92926 0 1 2.59773 0.77968" />
    <path d="M 2.88691 -7.55194 A 0.805 0.35429 360 0 1 2.87103 -7.62196" />
    <path d="M 4.48103 -7.62196 A 0.805 0.35429 360 0 1 2.88691 -7.55194" />
    <path d="M 2.59773 -6.96506 A 0.125 0.02218 264.92926 0 1 2.58668 -7.20182 L 2.68471 -7.21052" />
    <path d="M 2.58668 -7.20182 A 0.125 0.02218 264.92926 0 1 2.60878 -6.9528 L 2.70681 -6.96149" />
    <path d="M 2.60878 -6.9528 A 0.125 0.02218 264.92926 0 1 2.59773 -6.96506" />
    <path d="M 2.59773 -6.06712 A 0.125 0.02218 264.92926 0 1 2.58668 -6.30388 L 2.68471 -6.31258" />
    <path d="M 2.58668 -6.30388 A 0.125 0.02218 264.92926 0 1 2.60878 -6.05486 L 2.70681 -6.06355" />
    <path d="M 2.60878 -6.05486 A 0.125 0.02218 264.92926 0 1 2.59773 -6.06712" />
    <path d="M 3.89343 -6.58617 A 0.125 0.11003 155.38789 0 1 3.77979 -6.64635 L 3.76003 -6.6895" />
    <path d="M 3.77979 -6.64635 A 0.125 0.11003 155.38789 1 1 4.00708 -6.75047 L 3.98731 -6.79361" />
    <path d="M 4.00708 -6.75047 A 0.125 0.11003 155.38789 0 1 3.89343 -6.58617" />
    <path d="M 3.89343 -5.68823 A 0.125 0.11003 155.38789 0 1 3.77979 -5.74841 L 3.76003 -5.79155" />
    <path d="M 3.77979 -5.74841 A 0.125 0.11003 155.38789 0 1 4.00708 -5.85253 L 3.98731 -5.89567" />
    <path d="M 4.00708 -5.85253 A 0.125 0.11003 155.38789 0 1 3.89343 -5.68823" />
    <path d="M 2.87304 1.49472 A 0.805 0.35429 180 0 0 3.73446 1.82306" />
    <path d="M 3.97249 0.18179 A 0.655 0.57655 335.38789 0 0 3.377 1.04273" />
    <path d="M 4.56798 0.49715 A 0.655 0.57655 335.38789 0 0 3.97249 0.18179" />
    <path d="M 4.11252 -7.77324 A 0.805 0.35429 360 0 1 3.23954 -7.77324" />
    <path d="M 9.80275 12.90908 A 0.655 0.57655 155.38789 0 1 10.39825 13.22445 L 4.56798 0.49715" />
    <path d="M 10.39825 13.22445 A 0.655 0.57655 155.38789 0 1 9.20726 13.77003 L 3.377 1.04273" />
    <path d="M 9.20726 13.77003 A 0.655 0.57655 155.38789 0 1 9.80275 12.90908" />
    <path d="M 3.80548 13.8745 A 0.655 0.28828 180 0 0 4.33103 13.59191" />
    <path d="M 3.02103 13.59191 A 0.655 0.28828 180 0 0 3.80548 13.8745" />
    <path d="M -12.05581 -20.92982 L -6.12672 -7.9868 L -6.12672 -8.43577 L 1.22534 -9.08814" />
    <path d="M -6.12672 -7.9868 L 1.22534 -8.63917 L 1.22534 -9.08814" />
    <path d="M 1.22534 -8.63917 A 2.5 1.10029 180 0 0 6.17603 -8.85663" />
    <path d="M 5.34013 -10.12672 L 4.33103 -12.32954" />
    <path d="M 3.3405 -14.49186 L -0.2925 -22.42258 L -12.05581 -21.37879 L -6.12672 -8.43577" />
    <path d="M -12.05581 -20.92982 L -12.05581 -21.37879" />
    <path d="M 5.34013 -10.12672 A 2.5 1.10029 360 0 1 6.17603 -9.3056 L 6.17603 -8.85663" />
    <path d="M 6.17603 -9.3056 A 2.5 1.10029 360 0 1 1.22534 -9.08814" />
    <path d="M 4.33103 -9.3056 A 0.655 0.28828 360 0 1 3.02103 -9.3056" />
    <path d="M 3.54658 -14.52687 A 0.655 0.28828 360 0 1 4.33103 -14.24428 L 4.33103 -9.3056" />
    <path d="M 4.33103 -14.24428 A 0.655 0.28828 360 0 1 3.02103 -14.24428 L 3.02103 -9.3056" />
    <path d="M 3.02103 -14.24428 A 0.655 0.28828 360 0 1 3.54658 -14.52687" />
    <path d="M 3.02103 -5.17114 L 3.02103 -1.22413" />
    <path d="M 4.33103 -5.17114 L 4.33103 -1.22413" />
    <path d="M 2.87103 -1.22413 L 2.87103 -0.77516" />
    <path d="M 4.48103 -1.22413 L 4.48103 -0.77516" />
    <path d="M 4.48103 -5.44854 L 4.48103 -5.37711" />
    <path d="M 2.87103 -7.81494 L 2.87103 -7.62196" />
    <path d="M 4.48103 -7.81494 L 4.48103 -7.62196" />
    <path d="M 2.41371 -7.9069 L 2.49812 -7.72263" />
    <path d="M 3.02103 1.67566 L 3.02103 13.59191" />
    <path d="M 4.33103 3.12536 L 4.33103 13.59191" />
</svg>