<svg version="1.1" xmlns="http://www.w3.org/2000/svg" viewBox="-13.237608790662916 -25.902038424361113 24.762006325711823 63.77807390879178" fill="none" stroke="black" stroke-width="0.6%" vector-effect="non-scaling-stroke">
    <path d="M 3.97786 4.81882 L 4.05253 4.81332 L 4.12645 4.81266 L 4.19887 4.81684 L 4.26906 4.82581 L 4.33632 4.8395 L 4.39997 4.85776 L 4.45937 4.88041 L 4.51391 4.90722 L 4.56306 4.93792 L 4.60632 4.9722 L 4.64324 5.00971 L 4.67346 5.05008 L 4.69668 5.0929 L 4.71266 5.13774" />
    <path d="M 9.79016 26.42071 A 0.75 0.4646 164.9404 0 1 10.51441 26.70042 A 0.75 0.4646 164.9404 0 1 9.06592 27.09016 A 0.75 0.4646 164.9404 0 1 9.79016 26.42071 Z" />
    <path d="M 3.24307 5.44905 L 3.23356 5.39156 L 3.23549 5.33256 L 3.24881 5.27296 L 3.27333 5.21367 L 3.30866 5.15561 L 3.35428 5.09966 L 3.40946 5.04669 L 3.47338 4.99751 L 3.54504 4.95287 L 3.62335 4.91346 L 3.7071 4.87988 L 3.79501 4.85265 L 3.88573 4.83219 L 3.97786 4.81882" />
    <path d="M 2.97724 5.39911 A 0.905 0.5674 170.0075 0 1 4.76521 5.14734 A 0.905 0.5674 170.0075 0 1 4.75806 5.3065" />
    <path d="M 3.34345 5.82211 A 0.905 0.5674 170.0075 0 1 2.98266 5.46141 A 0.905 0.5674 170.0075 0 1 2.97724 5.39911" />
    <path d="M 2.90965 5.01549 A 0.905 0.5674 170.0075 0 1 4.69762 4.76373" />
    <path d="M 2.91508 5.0778 A 0.905 0.5674 170.0075 0 1 2.90965 5.01549" />
    <path d="M 2.81553 5.65821 L 2.81553 4.39266 L 4.79717 4.18331 L 4.52681 2.64885 L 4.42117 2.66002" />
    <path d="M 2.81553 5.65821 L 3.06126 5.63225" />
    <path d="M 4.79639 5.44894 L 4.79717 5.44886 L 4.79717 4.18331" />
    <path d="M 2.54517 4.12375 L 2.54517 2.8582 L 2.81553 4.39266" />
    <path d="M 2.54517 4.12375 L 2.60388 4.45698" />
    <path d="M 2.64736 4.70377 L 2.81553 5.65821" />
    <path d="M 2.69348 4.06613 A 0.125 0.01069 83.9694 0 0 2.66721 3.81751" />
    <path d="M 2.69348 4.6989 A 0.125 0.01069 83.9694 0 0 2.66721 4.45029" />
    <path d="M 2.9152 2.81911 L 2.54517 2.8582" />
    <path d="M 4.57617 3.52076 A 0.905 0.70077 360 0 1 2.76617 3.52076" />
    <path d="M 2.58126 4.03138 A 0.125 0.01069 263.9694 0 1 2.56813 3.82798 A 0.125 0.01069 263.9694 0 1 2.5944 4.0766 A 0.125 0.01069 263.9694 0 1 2.58126 4.03138 Z" />
    <path d="M 2.58126 4.66416 A 0.125 0.01069 263.9694 0 1 2.56813 4.46075 A 0.125 0.01069 263.9694 1 1 2.5944 4.70937 A 0.125 0.01069 263.9694 0 1 2.58126 4.66416 Z" />
    <path d="M 4.56786 3.10964 A 0.905 0.70077 360 0 1 4.57617 3.20437 A 0.905 0.70077 360 0 1 2.76617 3.20437 A 0.905 0.70077 360 0 1 2.92117 2.81218" />
    <path d="M 4.42117 2.81218 A 0.905 0.70077 360 0 1 4.56786 3.10964" />
    <path d="M 4.7742 3.84631 A 0.125 0.01069 83.9694 0 0 4.74794 3.5977 L 4.69497 3.60329" />
    <path d="M 4.42117 3.20437 A 0.75 0.58075 360 0 1 2.92117 3.20437" />
    <path d="M 3.81405 7.57113 A 0.75 0.58075 360 0 1 2.92117 7.00101" />
    <path d="M 3.51819 -24.88983 A 0.75 0.58075 360 0 1 4.42117 -24.32128 A 0.75 0.58075 360 0 1 2.92117 -24.32128 A 0.75 0.58075 360 0 1 3.51819 -24.88983 Z" />
    <path d="M 5.32317 5.54805 L 4.42117 2.19567" />
    <path d="M 2.92117 -3.37921 L -0.48987 -16.05662 L -12.23761 -14.16135 L -6.11861 8.5804 L 1.22372 7.39586" />
    <path d="M 5.32317 5.54805 A 2.5 1.93584 0 0 1 6.17117 7.00101 L 6.17117 7.3174" />
    <path d="M 6.17117 7.00101 A 2.5 1.93584 0 0 1 5.55615 8.27264" />
    <path d="M 4.171 8.89777 A 2.5 1.93584 0 0 1 1.22372 7.39586" />
    <path d="M 1.22372 7.71225 L 1.22372 7.39586" />
    <path d="M 1.22372 7.71225 A 2.5 1.93584 180 0 0 4.25237 9.2002" />
    <path d="M 5.62427 8.52581 A 2.5 1.93584 180 0 0 6.17117 7.3174" />
    <path d="M -12.23761 -13.84497 L -12.23761 -14.16135" />
    <path d="M -6.11861 8.89679 L -6.11861 8.5804" />
    <path d="M -6.11861 8.89679 L 1.22372 7.71225" />
    <path d="M -12.23761 -13.84497 L -6.11861 8.89679" />
    <path d="M 2.59338 9.06411 L 2.60388 9.12368" />
    <path d="M 2.64736 9.37048 L 2.81553 10.32492 L 4.50691 10.14623" />
    <path d="M 2.81553 10.32492 L 2.81553 9.13633" />
    <path d="M 2.69348 9.36561 A 0.125 0.01069 83.9694 0 0 2.66721 9.11699" />
    <path d="M 3.92945 9.24939 A 0.125 0.07837 350.0075 0 0 3.92788 9.24301" />
    <path d="M 3.69175 9.25318 A 0.125 0.07837 350.0075 0 0 3.68324 9.29277" />
    <path d="M 3.92945 9.88216 A 0.125 0.07837 350.0075 0 0 3.68324 9.92554" />
    <path d="M 2.58126 9.33086 A 0.125 0.01069 263.9694 0 1 2.56813 9.12746 L 2.66721 9.11699" />
    <path d="M 2.56813 9.12746 A 0.125 0.01069 263.9694 1 1 2.5944 9.37608 L 2.69348 9.36561" />
    <path d="M 2.5944 9.37608 A 0.125 0.01069 263.9694 0 1 2.58126 9.33086" />
    <path d="M 3.81986 9.4269 A 0.125 0.07837 170.0075 0 1 3.69676 9.36949 L 3.68324 9.29277" />
    <path d="M 3.69676 9.36949 A 0.125 0.07837 170.0075 0 1 3.94297 9.32611 L 3.92945 9.24939" />
    <path d="M 3.94297 9.32611 A 0.125 0.07837 170.0075 0 1 3.81986 9.4269" />
    <path d="M 3.81986 10.05967 A 0.125 0.07837 170.0075 0 1 3.69676 10.00227 L 3.68324 9.92554" />
    <path d="M 3.69676 10.00227 A 0.125 0.07837 170.0075 0 1 3.94297 9.95889 L 3.92945 9.88216" />
    <path d="M 3.94297 9.95889 A 0.125 0.07837 170.0075 0 1 3.81986 10.05967" />
    <path d="M 3.07611 10.29739 A 0.905 0.70077 180 0 0 4.42713 10.15466" />
    <path d="M 4.42117 12.69598 A 0.75 0.58075 360 0 1 2.92117 12.69598" />
    <path d="M 4.56786 12.60125 A 0.905 0.70077 360 0 1 4.57617 12.69598 L 4.57617 13.01236 A 0.905 0.70077 360 0 1 2.76617 13.01236" />
    <path d="M 4.57617 12.69598 A 0.905 0.70077 360 0 1 2.76617 12.69598 L 2.76617 13.01236" />
    <path d="M 2.76617 12.69598 A 0.905 0.70077 360 0 1 2.92117 12.30379" />
    <path d="M 4.42117 12.30379 A 0.905 0.70077 360 0 1 4.56786 12.60125" />
    <path d="M 2.81553 13.88427 L 4.79717 13.67492 L 4.52681 12.14046 L 4.42117 12.15162" />
    <path d="M 2.54517 12.34981 L 2.81553 13.88427" />
    <path d="M 2.9152 12.31072 L 2.54517 12.34981" />
    <path d="M 2.81553 15.14982 L 2.81553 13.88427" />
    <path d="M 2.81553 15.14982 L 3.06126 15.12386" />
    <path d="M 4.79639 14.94055 L 4.79717 14.94047 L 4.79717 13.67492" />
    <path d="M 2.90965 14.5071 A 0.905 0.5674 170.0075 0 1 4.69762 14.25533" />
    <path d="M 2.91508 14.5694 A 0.905 0.5674 170.0075 0 1 2.90965 14.5071" />
    <path d="M 2.54517 13.61536 L 2.54517 12.34981" />
    <path d="M 2.54517 13.61536 L 2.60388 13.94858" />
    <path d="M 2.64736 14.19538 L 2.81553 15.14982" />
    <path d="M 2.69348 13.55773 A 0.125 0.01069 83.9694 0 0 2.66721 13.30912" />
    <path d="M 2.69348 14.19051 A 0.125 0.01069 83.9694 0 0 2.66721 13.94189" />
    <path d="M 2.97724 14.89071 A 0.905 0.5674 170.0075 0 1 4.76521 14.63895 L 4.69762 14.25533" />
    <path d="M 4.76521 14.63895 A 0.905 0.5674 170.0075 0 1 4.75806 14.79811" />
    <path d="M 3.34345 15.31372 A 0.905 0.5674 170.0075 0 1 2.98266 14.95302 L 2.91508 14.5694" />
    <path d="M 2.98266 14.95302 A 0.905 0.5674 170.0075 0 1 2.97724 14.89071" />
    <path d="M 2.58126 13.52299 A 0.125 0.01069 263.9694 0 1 2.56813 13.31959 L 2.66721 13.30912" />
    <path d="M 2.56813 13.31959 A 0.125 0.01069 263.9694 0 1 2.5944 13.5682 L 2.69348 13.55773" />
    <path d="M 2.5944 13.5682 A 0.125 0.01069 263.9694 0 1 2.58126 13.52299" />
    <path d="M 2.58126 14.15576 A 0.125 0.01069 263.9694 0 1 2.56813 13.95236 L 2.66721 13.94189" />
    <path d="M 2.56813 13.95236 A 0.125 0.01069 263.9694 1 1 2.5944 14.20098 L 2.69348 14.19051" />
    <path d="M 2.5944 14.20098 A 0.125 0.01069 263.9694 0 1 2.58126 14.15576" />
    <path d="M 4.7742 13.33792 A 0.125 0.01069 83.9694 0 0 4.74794 13.0893 L 4.69497 13.0949" />
    <path d="M 3.97786 14.31042 L 4.05253 14.30492 L 4.12645 14.30426 L 4.19887 14.30844 L 4.26906 14.31742 L 4.33632 14.33111 L 4.39997 14.34937 L 4.45937 14.37202 L 4.51391 14.39883 L 4.56306 14.42953 L 4.60632 14.4638 L 4.64324 14.50132 L 4.67346 14.54169 L 4.69668 14.58451 L 4.71266 14.62935" />
    <path d="M 3.24307 14.94065 L 3.23356 14.88316 L 3.23549 14.82416 L 3.24881 14.76456 L 3.27333 14.70528 L 3.30866 14.64721 L 3.35428 14.59127 L 3.40946 14.5383 L 3.47338 14.48911 L 3.54504 14.44447 L 3.62335 14.40506 L 3.7071 14.37149 L 3.79501 14.34426 L 3.88573 14.3238 L 3.97786 14.31042" />
    <path d="M 9.79016 35.91231 A 0.75 0.4646 164.9404 0 1 10.51441 36.19203 L 4.71266 14.62935" />
    <path d="M 10.51441 36.19203 A 0.75 0.4646 164.9404 0 1 9.06592 36.58176 L 3.24307 14.94065" />
    <path d="M 9.06592 36.58176 A 0.75 0.4646 164.9404 0 1 9.79016 35.91231" />
    <path d="M 2.92117 23.13674 A 0.75 0.58075 180 0 0 4.42117 23.13674" />
    <path d="M 10.51441 26.70042 L 4.71266 5.13774" />
    <path d="M 9.06592 27.09016 L 3.24307 5.44905" />
    <path d="M 4.76521 5.14734 L 4.69762 4.76373" />
    <path d="M 2.98266 5.46141 L 2.91508 5.0778" />
    <path d="M 2.5944 4.0766 L 2.69348 4.06613" />
    <path d="M 2.56813 3.82798 L 2.66721 3.81751" />
    <path d="M 2.5944 4.70937 L 2.69348 4.6989" />
    <path d="M 2.56813 4.46075 L 2.66721 4.45029" />
    <path d="M 2.76617 3.20437 L 2.76617 3.52076" />
    <path d="M 4.57617 3.20437 L 4.57617 3.52076" />
    <path d="M 4.7742 3.84631 L 4.73846 3.85009" />
    <path d="M 2.92117 5.64705 L 2.92117 7.00101" />
    <path d="M 2.92117 -24.32128 L 2.92117 3.20437" />
    <path d="M 4.42117 -24.32128 L 4.42117 3.20437" />
    <path d="M 2.92117 10.31376 L 2.92117 12.69598" />
    <path d="M 4.42117 10.16159 L 4.42117 12.69598" />
    <path d="M 4.7742 13.33792 L 4.73846 13.34169" />
    <path d="M 2.92117 15.13866 L 2.92117 23.13674" />
    <path d="M 4.42117 19.31915 L 4.42117 23.13674" />
</svg>