<svg version="1.1" xmlns="http://www.w3.org/2000/svg" viewBox="-13.056027940840396 -26.20256854190249 24.50109437689456 42.503318016795326" fill="none" stroke="black" stroke-width="0.6%" vector-effect="non-scaling-stroke">
    <path d="M 2.87103 -8.43319 L 2.87111 -8.41783 L 2.87135 -8.40245 L 2.87176 -8.38705 L 2.87233 -8.37162 L 2.87306 -8.35618 L 2.87395 -8.34073 L 2.87501 -8.32527 L 2.87622 -8.3098 L 2.8776 -8.29433 L 2.87914 -8.27886 L 2.88084 -8.26339 L 2.8827 -8.24793 L 2.88473 -8.23248 L 2.88691 -8.21704 L 2.88473 -8.21244 L 2.8827 -8.20787 L 2.88084 -8.2033 L 2.87914 -8.19876 L 2.8776 -8.19424 L 2.87622 -8.18973 L 2.87501 -8.18525 L 2.87395 -8.18079 L 2.87306 -8.17635 L 2.87233 -8.17194 L 2.87176 -8.16755 L 2.87135 -8.16319 L 2.87111 -8.15885 L 2.87103 -8.15454 L 2.87103 -6.98032 A 0.805 0.38871 180 1 0 4.48103 -6.98032" />
    <path d="M 2.68223 -9.26595 A 0.805 0.69103 337.33696 0 0 2.63672 -8.6937 L 2.87103 -8.13255" />
    <path d="M 3.13325 -7.60712 C 3.13 -7.61 3.14 -7.61 3.13651 -7.60728 C 3.14 -7.61 3.14 -7.61 3.13992 -7.60713 C 3.14 -7.61 3.14 -7.61 3.14347 -7.60669 C 3.14 -7.61 3.15 -7.61 3.14714 -7.60594 C 3.15 -7.61 3.15 -7.61 3.15091 -7.6049 C 3.15 -7.6 3.15 -7.6 3.15475 -7.60357 C 3.16 -7.6 3.16 -7.6 3.15864 -7.60197 C 3.16 -7.6 3.16 -7.6 3.16256 -7.60009 C 3.16 -7.6 3.17 -7.6 3.16696 -7.59768 C 3.17 -7.6 3.17 -7.6 3.17135 -7.59494 C 3.17 -7.59 3.17 -7.59 3.17567 -7.59192 C 3.18 -7.59 3.18 -7.59 3.17989 -7.58862 C 3.18 -7.59 3.18 -7.59 3.18395 -7.58509 C 3.19 -7.58 3.19 -7.58 3.18781 -7.58135 C 3.19 -7.58 3.19 -7.58 3.19145 -7.57744 C 3.19 -7.58 3.19 -7.57 3.19481 -7.57338 C 3.2 -7.57 3.2 -7.57 3.19787 -7.56921 C 3.2 -7.57 3.2 -7.57 3.20059 -7.56495 C 3.2 -7.56 3.2 -7.56 3.20295 -7.56066 C 3.2 -7.56 3.2 -7.56 3.20491 -7.55634 C 3.21 -7.55 3.21 -7.55 3.20647 -7.55205 C 3.21 -7.55 3.21 -7.55 3.2076 -7.5478 C 3.21 -7.55 3.21 -7.55 3.20828 -7.54363 C 3.21 -7.54 3.21 -7.54 3.20851 -7.53958 C 3.21 -7.54 3.21 -7.54 3.20802 -7.53396 C 3.21 -7.53 3.21 -7.53 3.20657 -7.52879 C 3.21 -7.53 3.21 -7.53 3.2042 -7.52414 C 3.2 -7.52 3.2 -7.52 3.20095 -7.5201 C 3.2 -7.52 3.2 -7.52 3.19218 -7.51413 C 3.19 -7.51 3.19 -7.51 3.18108 -7.5113 C 3.18 -7.51 3.18 -7.51 3.17884 -7.51115 C 3.18 -7.51 3.18 -7.51 3.17338 -7.51123 C 3.17 -7.51 3.17 -7.51 3.16776 -7.51197 C 3.17 -7.51 3.16 -7.51 3.16208 -7.51335 C 3.16 -7.51 3.16 -7.51 3.1564 -7.51535" />
    <path d="M 3.03964 -7.50399 A 0.05 0.00865 264.43945 0 1 3.0348 -7.59754 A 0.05 0.00865 264.43945 1 1 3.04449 -7.49801 A 0.05 0.00865 264.43945 0 1 3.03964 -7.50399 Z" />
    <path d="M 4.33103 -2.93024 A 0.655 0.31628 0 0 1 3.02103 -2.93024" />
    <path d="M 2.88691 -2.85341 A 0.805 0.38871 0 0 1 2.87103 -2.93024 A 0.805 0.38871 0 0 1 3.02103 -3.1562" />
    <path d="M 4.33103 -3.1562 A 0.805 0.38871 0 0 1 4.48103 -2.93024 A 0.805 0.38871 0 0 1 2.88691 -2.85341" />
    <path d="M 1.22534 -10.13505 A 2.5 1.20716 180 0 0 6.17603 -10.37364" />
    <path d="M -6.12671 -9.41929 L 1.22534 -10.13505 L 1.22534 -10.5729" />
    <path d="M -12.05603 -23.6195 L -6.12671 -9.41929 L -6.12671 -9.85713 L 1.22534 -10.5729" />
    <path d="M 2.88691 -0.22633 A 0.805 0.38871 180 0 0 3.677 0.08555" />
    <path d="M 2.87103 -0.30315 A 0.805 0.38871 180 0 0 2.88691 -0.22633" />
    <path d="M 2.98687 -1.17795 L 2.97685 -1.20257 L 2.96725 -1.22745 L 2.95809 -1.25256 L 2.94935 -1.27789 L 2.94106 -1.30342 L 2.93321 -1.32915 L 2.92581 -1.35504 L 2.91886 -1.3811 L 2.91237 -1.4073 L 2.90634 -1.43362 L 2.90078 -1.46006 L 2.89568 -1.48659 L 2.89106 -1.5132 L 2.88691 -1.53987 L 2.93419 -1.60569 L 3.01099 -1.67194 L 3.11426 -1.736 L 3.23988 -1.79531 L 3.38285 -1.84751 L 3.5375 -1.89053 L 3.69765 -1.92265 L 3.85695 -1.94259 L 4.00905 -1.94957 L 4.14789 -1.9433 L 4.26796 -1.92403 L 4.36447 -1.89254 L 4.43358 -1.85006 L 4.47255 -1.7983" />
    <path d="M 5.34011 -11.71237 L 4.33103 -14.12903" />
    <path d="M 3.57474 -15.94028 L -0.29274 -25.20257 L -12.05603 -24.05734 L -6.12671 -9.85713" />
    <path d="M 5.34011 -11.71237 A 2.5 1.20716 0 0 1 6.17603 -10.81149 A 2.5 1.20716 0 0 1 1.22534 -10.5729" />
    <path d="M -12.05603 -23.6195 L -12.05603 -24.05734" />
    <path d="M 3.18337 -0.82986 A 0.805 0.69103 157.33696 0 1 4.71534 -1.21686 L 4.47255 -1.7983" />
    <path d="M 4.71534 -1.21686 A 0.805 0.69103 157.33696 0 1 4.7317 -0.78836" />
    <path d="M 3.52285 -0.2836 A 0.805 0.69103 157.33696 0 1 3.22965 -0.59651 L 2.98687 -1.17795" />
    <path d="M 3.22965 -0.59651 A 0.805 0.69103 157.33696 0 1 3.18337 -0.82986" />
    <path d="M 3.03964 -0.82681 A 0.05 0.00865 264.43945 0 1 3.0348 -0.92036 L 3.09209 -0.92594" />
    <path d="M 3.0348 -0.92036 A 0.05 0.00865 264.43945 1 1 3.04449 -0.82083 L 3.13241 -0.82939" />
    <path d="M 3.04449 -0.82083 A 0.05 0.00865 264.43945 0 1 3.03964 -0.82681" />
    <path d="M 4.33103 -10.81149 A 0.655 0.31628 0 0 1 3.02103 -10.81149" />
    <path d="M 3.02103 11.51873 A 0.655 0.31628 180 0 0 4.33103 11.51873" />
    <path d="M 3.97249 -1.48026 A 0.655 0.56227 337.33696 0 0 3.36807 -0.6543" />
    <path d="M 4.57692 -1.15906 A 0.655 0.56227 337.33696 0 0 3.97249 -1.48026" />
    <path d="M 3.54657 -15.93785 A 0.655 0.31628 0 0 1 4.33103 -15.62781 L 4.33103 -10.81149" />
    <path d="M 4.33103 -15.62781 A 0.655 0.31628 0 0 1 3.02103 -15.62781 L 3.02103 -10.81149" />
    <path d="M 3.02103 -15.62781 A 0.655 0.31628 0 0 1 3.54657 -15.93785" />
    <path d="M 9.80299 12.48328 A 0.655 0.56227 157.33696 0 1 10.40741 12.80448 L 4.57692 -1.15906" />
    <path d="M 10.40741 12.80448 A 0.655 0.56227 157.33696 0 1 9.19856 13.30924 L 3.36807 -0.6543" />
    <path d="M 9.19856 13.30924 A 0.655 0.56227 157.33696 0 1 9.80299 12.48328" />
    <path d="M 2.87103 13.45917 L 2.87111 13.47453 L 2.87135 13.48991 L 2.87176 13.50532 L 2.87233 13.52074 L 2.87306 13.53618 L 2.87395 13.55163 L 2.87501 13.56709 L 2.87622 13.58256 L 2.8776 13.59803 L 2.87914 13.6135 L 2.88084 13.62897 L 2.8827 13.64443 L 2.88473 13.65989 L 2.88691 13.67533 L 2.88473 13.67992 L 2.8827 13.6845 L 2.88084 13.68906 L 2.87914 13.6936 L 2.8776 13.69813 L 2.87622 13.70263 L 2.87501 13.70711 L 2.87395 13.71157 L 2.87306 13.71601 L 2.87233 13.72042 L 2.87176 13.72481 L 2.87135 13.72918 L 2.87111 13.73352 L 2.87103 13.73783 L 2.87103 14.91204 A 0.805 0.38871 180 1 0 4.48103 14.91204" />
    <path d="M 2.87103 12.39896 A 0.805 0.69103 337.33696 0 0 2.63672 13.19866 L 2.87103 13.75982" />
    <path d="M 4.46515 12.20813 A 0.805 0.38871 0 0 1 4.48103 12.28496 L 4.48103 14.91204" />
    <path d="M 4.48103 12.28496 A 0.805 0.38871 0 0 1 2.87103 12.28496 L 2.87103 13.45917" />
    <path d="M 2.87103 12.28496 A 0.805 0.38871 0 0 1 4.46515 12.20813" />
    <path d="M 3.13325 14.28524 C 3.13 14.29 3.14 14.29 3.13651 14.28509 C 3.14 14.29 3.14 14.29 3.13992 14.28523 C 3.14 14.29 3.14 14.29 3.14347 14.28568 C 3.14 14.29 3.15 14.29 3.14714 14.28642 C 3.15 14.29 3.15 14.29 3.15091 14.28746 C 3.15 14.29 3.15 14.29 3.15475 14.28879 C 3.16 14.29 3.16 14.29 3.15864 14.2904 C 3.16 14.29 3.16 14.29 3.16256 14.29227 C 3.16 14.29 3.17 14.29 3.16696 14.29469 C 3.17 14.3 3.17 14.3 3.17135 14.29742 C 3.17 14.3 3.17 14.3 3.17567 14.30045 C 3.18 14.3 3.18 14.3 3.17989 14.30374 C 3.18 14.3 3.18 14.31 3.18395 14.30727 C 3.19 14.31 3.19 14.31 3.18781 14.31101 C 3.19 14.31 3.19 14.31 3.19145 14.31493 C 3.19 14.32 3.19 14.32 3.19481 14.31899 C 3.2 14.32 3.2 14.32 3.19787 14.32316 C 3.2 14.32 3.2 14.33 3.20059 14.32741 C 3.2 14.33 3.2 14.33 3.20295 14.33171 C 3.2 14.33 3.2 14.33 3.20491 14.33602 C 3.21 14.34 3.21 14.34 3.20647 14.34032 C 3.21 14.34 3.21 14.34 3.2076 14.34457 C 3.21 14.35 3.21 14.35 3.20828 14.34873 C 3.21 14.35 3.21 14.35 3.20851 14.35278 C 3.21 14.35 3.21 14.36 3.20802 14.3584 C 3.21 14.36 3.21 14.36 3.20657 14.36358 C 3.21 14.37 3.21 14.37 3.2042 14.36822 C 3.2 14.37 3.2 14.37 3.20095 14.37226 C 3.2 14.37 3.2 14.38 3.19218 14.37824 C 3.19 14.38 3.19 14.38 3.18108 14.38106 C 3.18 14.38 3.18 14.38 3.17884 14.38122 C 3.18 14.38 3.18 14.38 3.17338 14.38113 C 3.17 14.38 3.17 14.38 3.16776 14.38039 C 3.17 14.38 3.16 14.38 3.16208 14.37901 C 3.16 14.38 3.16 14.38 3.1564 14.37701" />
    <path d="M 3.03964 14.38838 A 0.05 0.00865 264.43945 0 1 3.0348 14.29483 L 3.13325 14.28524" />
    <path d="M 3.0348 14.29483 A 0.05 0.00865 264.43945 1 1 3.04449 14.39436 L 3.18108 14.38106" />
    <path d="M 3.04449 14.39436 A 0.05 0.00865 264.43945 0 1 3.03964 14.38838" />
    <path d="M -2.45093 -1.64863 A 0.655 0.56227 337.33696 0 0 -3.05536 -0.82267 L 2.62035 12.77017" />
    <path d="M -1.84651 -1.32743 A 0.655 0.56227 337.33696 0 0 -2.45093 -1.64863" />
    <path d="M 2.87103 -9.23077 L 2.87103 -8.43319" />
    <path d="M 4.48103 -9.23077 L 4.48103 -6.98032" />
    <path d="M 3.04449 -7.49801 L 3.18108 -7.5113" />
    <path d="M 3.0348 -7.59754 L 3.13325 -7.60712" />
    <path d="M 2.54759 -9.29645 L 2.62035 -9.1222" />
    <path d="M 3.02103 -6.75435 L 3.02103 -2.93024" />
    <path d="M 4.33103 -6.75435 L 4.33103 -2.93024" />
    <path d="M 2.87103 -2.93024 L 2.87103 -0.30315" />
    <path d="M 4.48103 -2.93024 L 4.48103 -1.77801" />
    <path d="M 6.17603 -10.81149 L 6.17603 -10.37364" />
    <path d="M 3.02103 -0.07718 L 3.02103 11.51873" />
    <path d="M 4.33103 1.6519 L 4.33103 11.51873" />
    <path d="M -1.84651 -1.32743 L 3.02103 10.3299" />
    <path d="M 3.64937 11.83474 L 3.67506 11.89625" />
</svg>