<svg version="1.1" xmlns="http://www.w3.org/2000/svg" viewBox="-12.667032601684888 -19.78999615108691 24.603229987166124 40.67939553385775" fill="none" stroke="black" stroke-width="0.6%" vector-effect="non-scaling-stroke">
    <path d="M 7.86185 -1.2528 L 7.86185 -2.73598 L 9.72853 -3.21764 L 9.3412 -3.89321" />
    <path d="M 7.86185 -1.2528 L 8.28037 -1.36079" />
    <path d="M 9.66901 -1.71911 L 9.72853 -1.73447 L 9.72853 -1.81391" />
    <path d="M 9.72853 -2.42683 L 9.72853 -3.21764" />
    <path d="M 7.95052 -2.01727 A 0.905 0.6264 150.17229 0 1 9.5803 -2.68536" />
    <path d="M 8.01008 -1.78508 A 0.905 0.6264 150.17229 0 1 7.95052 -2.01727" />
    <path d="M 7.14386 -2.50508 L 7.14386 -3.98825 L 7.86185 -2.73598" />
    <path d="M 7.14386 -2.50508 L 7.86185 -1.2528" />
    <path d="M 7.53409 -2.87029 A 0.125 0.03328 75.53133 1 0 7.47163 -3.11236" />
    <path d="M 7.53409 -2.1287 A 0.125 0.03328 75.53133 1 0 7.47163 -2.37077" />
    <path d="M 9.03352 -4.42984 L 9.01054 -4.46992 L 8.97605 -4.46102" />
    <path d="M 7.54875 -4.09273 L 7.14386 -3.98825" />
    <path d="M 9.3412 -3.60295 A 0.905 0.60713 360 0 1 7.5312 -3.60295" />
    <path d="M 8.13002 -1.7042 A 0.905 0.6264 150.17229 0 1 9.7598 -2.3723 A 0.905 0.6264 150.17229 0 1 8.18958 -1.47201 A 0.905 0.6264 150.17229 0 1 8.13002 -1.7042 Z" />
    <path d="M 7.40952 -2.87454 A 0.125 0.03328 255.53133 0 1 7.37829 -3.08827 A 0.125 0.03328 255.53133 0 1 7.44075 -2.8462 A 0.125 0.03328 255.53133 0 1 7.40952 -2.87454 Z" />
    <path d="M 7.40952 -2.13295 A 0.125 0.03328 255.53133 0 1 7.37829 -2.34669 A 0.125 0.03328 255.53133 0 1 7.44075 -2.10461 A 0.125 0.03328 255.53133 0 1 7.40952 -2.13295 Z" />
    <path d="M 7.5312 -1.74898 A 0.905 0.60713 180 0 0 7.83887 -1.29288" />
    <path d="M 7.89634 -1.2617 A 0.905 0.60713 180 0 0 8.93104 -1.24065" />
    <path d="M 9.28087 -4.1917 A 0.905 0.60713 360 0 1 9.3412 -3.97374 A 0.905 0.60713 360 0 1 7.5312 -3.97374 A 0.905 0.60713 360 0 1 9.28087 -4.1917 Z" />
    <path d="M 9.1862 0.47578 A 0.75 0.50314 360 0 1 7.6862 0.47578" />
    <path d="M 9.76438 -0.94509 L 9.45134 -1.49108" />
    <path d="M 7.78585 -4.39594 L -0.46695 -18.79 L -11.66703 -15.89999 L -0.8972 2.88412 L 6.10285 1.07787" />
    <path d="M 9.76438 -0.94509 A 2.5 1.67714 360 0 1 10.9362 0.47578 A 2.5 1.67714 360 0 1 6.10285 1.07787" />
    <path d="M 6.10285 1.44866 L 6.10285 1.07787" />
    <path d="M 6.10285 1.44866 A 2.5 1.67714 180 0 0 10.9362 0.84658" />
    <path d="M -11.66703 -15.5292 L -11.66703 -15.89999" />
    <path d="M -0.8972 3.25491 L -0.8972 2.88412" />
    <path d="M -0.8972 3.25491 L 6.10285 1.44866" />
    <path d="M -11.66703 -15.5292 L -0.8972 3.25491" />
    <path d="M 7.69897 2.44914 L 7.86185 2.73323 L 8.71408 2.51332" />
    <path d="M 7.14386 2.96413 L 7.14386 2.28225" />
    <path d="M 9.72853 3.73474 L 9.72853 2.28225" />
    <path d="M 7.14386 2.96413 L 7.86185 4.2164 L 9.72853 3.73474" />
    <path d="M 7.86185 4.2164 L 7.86185 2.73323" />
    <path d="M 7.53409 2.59892 A 0.125 0.03328 75.53133 0 0 7.51295 2.40516" />
    <path d="M 7.53409 3.34051 A 0.125 0.03328 75.53133 0 0 7.47163 3.09844" />
    <path d="M 8.90363 2.80101 A 0.125 0.08652 330.17229 0 0 8.68675 2.92536" />
    <path d="M 8.90363 3.5426 A 0.125 0.08652 330.17229 0 0 8.68675 3.66695" />
    <path d="M 7.40952 2.59467 A 0.125 0.03328 255.53133 0 1 7.37829 2.38093 L 7.40437 2.3742" />
    <path d="M 7.37829 2.38093 A 0.125 0.03328 255.53133 0 1 7.44075 2.623 L 7.53409 2.59892" />
    <path d="M 7.44075 2.623 A 0.125 0.03328 255.53133 0 1 7.40952 2.59467" />
    <path d="M 7.40952 3.33625 A 0.125 0.03328 255.53133 0 1 7.37829 3.12252 L 7.47163 3.09844" />
    <path d="M 7.37829 3.12252 A 0.125 0.03328 255.53133 0 1 7.44075 3.36459 L 7.53409 3.34051" />
    <path d="M 7.44075 3.36459 A 0.125 0.03328 255.53133 0 1 7.40952 3.33625" />
    <path d="M 8.83109 3.0185 A 0.125 0.08652 150.17229 0 1 8.72265 2.98798 L 8.68675 2.92536" />
    <path d="M 8.72265 2.98798 A 0.125 0.08652 150.17229 0 1 8.93953 2.86363 L 8.90363 2.80101" />
    <path d="M 8.93953 2.86363 A 0.125 0.08652 150.17229 0 1 8.83109 3.0185" />
    <path d="M 8.83109 3.76009 A 0.125 0.08652 150.17229 0 1 8.72265 3.72956 L 8.68675 3.66695" />
    <path d="M 8.72265 3.72956 A 0.125 0.08652 150.17229 0 1 8.93953 3.60522 L 8.90363 3.5426" />
    <path d="M 8.93953 3.60522 A 0.125 0.08652 150.17229 0 1 8.83109 3.76009" />
    <path d="M 7.59152 3.93818 A 0.905 0.60713 180 0 0 7.83887 4.17632" />
    <path d="M 7.89634 4.2075 A 0.905 0.60713 180 0 0 9.32365 3.83921" />
    <path d="M 7.5312 3.72023 A 0.905 0.60713 180 0 0 7.59152 3.93818" />
    <path d="M 9.1862 7.15007 A 0.75 0.50314 360 0 1 7.6862 7.15007" />
    <path d="M 9.28087 6.93211 A 0.905 0.60713 360 0 1 9.3412 7.15007 L 9.3412 7.52086 A 0.905 0.60713 360 0 1 7.5312 7.52086" />
    <path d="M 9.3412 7.15007 A 0.905 0.60713 360 0 1 7.5312 7.15007 L 7.5312 7.52086" />
    <path d="M 7.5312 7.15007 A 0.905 0.60713 360 0 1 7.6862 6.81029" />
    <path d="M 9.1862 6.81029 A 0.905 0.60713 360 0 1 9.28087 6.93211" />
    <path d="M 7.86185 8.38783 L 9.72853 7.90616 L 9.3412 7.2306" />
    <path d="M 7.14386 7.13556 L 7.86185 8.38783" />
    <path d="M 7.54875 7.03108 L 7.14386 7.13556" />
    <path d="M 7.86185 9.87101 L 7.86185 8.38783" />
    <path d="M 7.86185 9.87101 L 8.28037 9.76301" />
    <path d="M 9.66901 9.4047 L 9.72853 9.38934 L 9.72853 9.30989" />
    <path d="M 9.72853 8.69698 L 9.72853 7.90616" />
    <path d="M 7.95052 9.10654 A 0.905 0.6264 150.17229 0 1 9.5803 8.43844" />
    <path d="M 8.01008 9.33873 A 0.905 0.6264 150.17229 0 1 7.95052 9.10654" />
    <path d="M 7.14386 8.61873 L 7.14386 7.13556" />
    <path d="M 7.14386 8.61873 L 7.86185 9.87101" />
    <path d="M 7.53409 8.25352 A 0.125 0.03328 75.53133 1 0 7.47163 8.01145" />
    <path d="M 7.53409 8.99511 A 0.125 0.03328 75.53133 1 0 7.47163 8.75304" />
    <path d="M 8.13002 9.41961 A 0.905 0.6264 150.17229 0 1 9.7598 8.75151 L 9.5803 8.43844" />
    <path d="M 9.7598 8.75151 A 0.905 0.6264 150.17229 0 1 8.18958 9.65179 L 8.01008 9.33873" />
    <path d="M 8.18958 9.65179 A 0.905 0.6264 150.17229 0 1 8.13002 9.41961" />
    <path d="M 7.40952 8.24927 A 0.125 0.03328 255.53133 0 1 7.37829 8.03554 L 7.47163 8.01145" />
    <path d="M 7.37829 8.03554 A 0.125 0.03328 255.53133 0 1 7.44075 8.27761 L 7.53409 8.25352" />
    <path d="M 7.44075 8.27761 A 0.125 0.03328 255.53133 0 1 7.40952 8.24927" />
    <path d="M 7.40952 8.99086 A 0.125 0.03328 255.53133 0 1 7.37829 8.77712 L 7.47163 8.75304" />
    <path d="M 7.37829 8.77712 A 0.125 0.03328 255.53133 0 1 7.44075 9.01919 L 7.53409 8.99511" />
    <path d="M 7.44075 9.01919 A 0.125 0.03328 255.53133 0 1 7.40952 8.99086" />
    <path d="M 7.5312 9.37483 A 0.905 0.60713 180 0 0 7.83887 9.83093" />
    <path d="M 7.89634 9.86211 A 0.905 0.60713 180 0 0 8.93104 9.88315" />
    <path d="M 7.6862 19.38626 A 0.75 0.50314 180 0 0 9.1862 19.38626" />
    <path d="M 9.7598 -2.3723 L 9.5803 -2.68536" />
    <path d="M 8.18958 -1.47201 L 8.01008 -1.78508" />
    <path d="M 7.44075 -2.8462 L 7.53409 -2.87029" />
    <path d="M 7.37829 -3.08827 L 7.47163 -3.11236" />
    <path d="M 7.44075 -2.10461 L 7.53409 -2.1287" />
    <path d="M 7.37829 -2.34669 L 7.47163 -2.37077" />
    <path d="M 7.5312 -1.82951 L 7.5312 -1.74898" />
    <path d="M 7.5312 -3.97374 L 7.5312 -3.60295" />
    <path d="M 9.3412 -3.97374 L 9.3412 -3.60295" />
    <path d="M 7.6862 -1.4092 L 7.6862 0.47578" />
    <path d="M 9.1862 -1.32698 L 9.1862 0.47578" />
    <path d="M 10.9362 0.47578 L 10.9362 0.84658" />
    <path d="M 7.5312 3.63969 L 7.5312 3.72023" />
    <path d="M 7.6862 4.06 L 7.6862 7.15007" />
    <path d="M 9.1862 4.06 L 9.1862 7.15007" />
    <path d="M 7.5312 9.2943 L 7.5312 9.37483" />
    <path d="M 7.6862 9.71461 L 7.6862 19.38626" />
    <path d="M 9.1862 9.79683 L 9.1862 19.38626" />
</svg>