<svg version="1.1" xmlns="http://www.w3.org/2000/svg" viewBox="-2.972221604796851 -24.08743747944935 5.624264417345116 26.965802638281907" fill="none" stroke="black" stroke-width="0.6%" vector-effect="non-scaling-stroke">
    <path d="M -0.99821 -23.08663 A 0.655 0.45268 360 0 1 -0.30407 -22.63476 A 0.655 0.45268 360 0 1 -1.61407 -22.63476 A 0.655 0.45268 360 0 1 -0.99821 -23.08663 Z" />
    <path d="M -1.61407 0.49317 A 0.655 0.45268 180 1 0 -0.30407 0.49317" />
    <path d="M -1.55795 -22.09006 A 0.655 0.45268 180 0 0 -0.33281 -22.14075 A 0.805 0.55635 360 0 1 -0.10924 -21.75598 L -0.10924 -21.3946 A 0.805 0.55635 0 0 1 -1.71924 -21.3946" />
    <path d="M -1.5322 -19.23119 A 0.805 0.55635 180 0 0 -1.44135 -19.16724" />
    <path d="M -1.97222 -20.59768 L -1.85269 -19.21793 L -1.4472 -19.23471" />
    <path d="M -0.13699 -19.28892 L 0.14373 -19.30053 L 0.14373 -20.74603 L 0.0242 -22.12578 L -0.29629 -22.11252" />
    <path d="M -1.97222 -22.04318 L -1.85269 -20.66342 L 0.14373 -20.74603" />
    <path d="M -1.61407 -22.058 L -1.97222 -22.04318" />
    <path d="M -0.10924 -21.75598 A 0.805 0.55635 360 0 1 -1.71924 -21.75598 L -1.71924 -21.3946" />
    <path d="M -1.71924 -21.75598 A 0.805 0.55635 360 0 1 -1.55795 -22.09006" />
    <path d="M -1.97222 -20.59768 L -1.97222 -22.04318" />
    <path d="M -1.85269 -19.21793 L -1.85269 -20.66342" />
    <path d="M -1.65804 -19.94873 A 0.805 0.58077 175.04881 0 1 -0.05248 -20.05146" />
    <path d="M -1.65648 -19.9125 A 0.805 0.58077 175.04881 0 1 -1.65804 -19.94873" />
    <path d="M -1.62816 -19.60379 A 0.805 0.58077 175.04881 0 1 -0.0226 -19.70652 L -0.05248 -20.05146" />
    <path d="M -0.0226 -19.70652 A 0.805 0.58077 175.04881 0 1 -0.1429 -19.35721" />
    <path d="M -1.44801 -19.24415 A 0.805 0.58077 175.04881 0 1 -1.62659 -19.56756 L -1.65648 -19.9125" />
    <path d="M -1.62659 -19.56756 A 0.805 0.58077 175.04881 0 1 -1.62816 -19.60379" />
    <path d="M -0.8246 -20.11044 A 0.655 0.47255 175.04881 0 1 -0.17204 -19.69357" />
    <path d="M -1.47715 -19.58051 A 0.655 0.47255 175.04881 0 1 -0.8246 -20.11044" />
    <path d="M 0.99821 0.93079 A 0.655 0.47255 175.04881 0 1 1.65077 1.34766 L -0.17204 -19.69357" />
    <path d="M 1.65077 1.34766 A 0.655 0.47255 175.04881 1 1 0.34566 1.46072 L -1.47715 -19.58051" />
    <path d="M 0.34566 1.46072 A 0.655 0.47255 175.04881 0 1 0.99821 0.93079" />
    <path d="M -1.61407 -22.63476 L -1.61407 -22.03093" />
    <path d="M -1.61407 -19.2278 L -1.61407 0.49317" />
    <path d="M -0.30407 -22.63476 L -0.30407 -22.11887" />
    <path d="M -0.30407 -6.03923 L -0.30407 0.49317" />
</svg>