<svg version="1.1" xmlns="http://www.w3.org/2000/svg" viewBox="-13.237608790662915 -23.633295325906047 24.76200632571182 39.04691671677034" fill="none" stroke="black" stroke-width="0.6%" vector-effect="non-scaling-stroke">
    <path d="M 3.97786 -13.01775 L 4.04127 -13.01929 L 4.10421 -13.01597 L 4.16623 -13.00782 L 4.22689 -12.99491 L 4.28574 -12.97732 L 4.34236 -12.95518 L 4.39633 -12.92865 L 4.44727 -12.89794 L 4.4948 -12.86325 L 4.53857 -12.82484 L 4.57828 -12.78298 L 4.61363 -12.738 L 4.64437 -12.6902 L 4.67027 -12.63993" />
    <path d="M 9.79016 -0.26516 A 0.75 0.65303 155.49774 0 1 10.47262 0.09084 A 0.75 0.65303 155.49774 0 1 9.1077 0.71294 A 0.75 0.65303 155.49774 0 1 9.79016 -0.26516 Z" />
    <path d="M 3.28546 -12.06147 L 3.25404 -12.14791 L 3.23661 -12.23827 L 3.23352 -12.3308 L 3.24483 -12.42372 L 3.27031 -12.51523 L 3.30948 -12.60355 L 3.36158 -12.68699 L 3.4256 -12.76392 L 3.50029 -12.83286 L 3.58423 -12.89247 L 3.67578 -12.9416 L 3.77317 -12.97931 L 3.87452 -13.00486 L 3.97786 -13.01775" />
    <path d="M 2.97724 -12.2883 A 0.905 0.79752 163.38198 0 1 4.74114 -12.60304 A 0.905 0.79752 163.38198 0 1 4.77035 -12.42035" />
    <path d="M 3.50078 -11.58905 A 0.905 0.79752 163.38198 0 1 3.00674 -12.0854 A 0.905 0.79752 163.38198 0 1 2.97724 -12.2883" />
    <path d="M 2.90965 -12.51476 A 0.905 0.79752 163.38198 0 1 4.67355 -12.82951" />
    <path d="M 2.93915 -12.31187 A 0.905 0.79752 163.38198 0 1 2.90965 -12.51476" />
    <path d="M 2.81553 -11.61949 L 2.81553 -13.39829 L 4.79717 -13.52188 L 4.57617 -14.26236" />
    <path d="M 2.81553 -11.61949 L 3.35863 -11.65336" />
    <path d="M 4.79717 -12.3615 L 4.79717 -13.52188" />
    <path d="M 2.54517 -12.52535 L 2.54517 -14.30416 L 2.81553 -13.39829" />
    <path d="M 2.54517 -12.52535 L 2.57643 -12.42058" />
    <path d="M 2.58609 -12.38822 L 2.81553 -11.61949" />
    <path d="M 2.68035 -13.29535 A 0.125 0.01503 86.43127 0 0 2.68813 -13.28177 A 0.125 0.01503 86.43127 0 0 2.67257 -13.53128" />
    <path d="M 2.68035 -12.40595 A 0.125 0.01503 86.43127 0 0 2.68813 -12.39236 A 0.125 0.01503 86.43127 0 0 2.67257 -12.64188" />
    <path d="M 2.76617 -14.31794 L 2.54517 -14.30416" />
    <path d="M 4.57617 -13.91302 A 0.905 0.4137 0 0 1 2.76617 -13.91302" />
    <path d="M 2.58126 -13.28917 A 0.125 0.01503 266.43127 0 1 2.57348 -13.5251 A 0.125 0.01503 266.43127 1 1 2.58904 -13.27559 A 0.125 0.01503 266.43127 0 1 2.58126 -13.28917 Z" />
    <path d="M 2.58126 -12.39977 A 0.125 0.01503 266.43127 0 1 2.57348 -12.6357 A 0.125 0.01503 266.43127 0 1 2.58904 -12.38619 A 0.125 0.01503 266.43127 0 1 2.58126 -12.39977 Z" />
    <path d="M 2.76617 -11.68951 A 0.905 0.4137 180 0 0 3.64346 -11.27601" />
    <path d="M 4.56786 -14.41364 A 0.905 0.4137 0 0 1 4.57617 -14.35772 A 0.905 0.4137 0 0 1 2.76617 -14.35772 A 0.905 0.4137 0 0 1 4.56786 -14.41364 Z" />
    <path d="M 4.7659 -13.62665 A 0.125 0.01503 86.43127 0 0 4.75624 -13.65901" />
    <path d="M 4.42117 -9.02131 A 0.75 0.34285 0 0 1 2.92117 -9.02131" />
    <path d="M 3.13068 -14.68954 L -0.48987 -22.63329 L -12.23761 -21.51443 L -6.11861 -8.08892 L 1.22372 -8.78821" />
    <path d="M 5.09869 -8.08312 A 2.5 1.14282 0 0 1 1.22372 -8.78821" />
    <path d="M 1.22372 -8.34351 L 1.22372 -8.78821" />
    <path d="M 1.22372 -8.34351 A 2.5 1.14282 180 0 0 5.27357 -7.69942" />
    <path d="M -12.23761 -21.06973 L -12.23761 -21.51443" />
    <path d="M -6.11861 -7.64422 L -6.11861 -8.08892" />
    <path d="M -6.11861 -7.64422 L 1.22372 -8.34351" />
    <path d="M -12.23761 -21.06973 L -6.11861 -7.64422" />
    <path d="M 4.18664 -7.45835 A 0.905 0.4137 0 0 1 3.15569 -7.45835" />
    <path d="M 2.77447 -7.29776 A 0.905 0.4137 0 0 1 2.76617 -7.35368" />
    <path d="M 4.57617 -7.35368 A 0.905 0.4137 0 0 1 2.77447 -7.29776" />
    <path d="M 4.79717 -6.96255 L 4.63041 -7.52127" />
    <path d="M 2.60545 -7.54283 L 2.81553 -6.83896 L 4.79717 -6.96255" />
    <path d="M 2.54517 -5.96602 L 2.54517 -7.55627" />
    <path d="M 4.79717 -5.18374 L 4.79717 -6.96255" />
    <path d="M 2.54517 -5.96602 L 2.57643 -5.86125" />
    <path d="M 2.58609 -5.82889 L 2.81553 -5.06015 L 4.79717 -5.18374" />
    <path d="M 2.81553 -5.06015 L 2.81553 -6.83896" />
    <path d="M 2.68035 -6.73601 A 0.125 0.01503 86.43127 0 0 2.68813 -6.72243 A 0.125 0.01503 86.43127 0 0 2.67257 -6.97194" />
    <path d="M 2.68035 -5.84661 A 0.125 0.01503 86.43127 0 0 2.68813 -5.83303 A 0.125 0.01503 86.43127 0 0 2.67257 -6.08254" />
    <path d="M 3.92613 -6.4918 A 0.125 0.11015 343.38198 0 0 3.68657 -6.4203" />
    <path d="M 3.92613 -5.6024 A 0.125 0.11015 343.38198 0 0 3.68657 -5.5309" />
    <path d="M 4.7659 -7.06731 A 0.125 0.01503 86.43127 0 0 4.75624 -7.09967" />
    <path d="M 2.58126 -6.72983 A 0.125 0.01503 266.43127 0 1 2.57348 -6.96577 L 2.67257 -6.97194" />
    <path d="M 2.57348 -6.96577 A 0.125 0.01503 266.43127 0 1 2.58904 -6.71625 L 2.68813 -6.72243" />
    <path d="M 2.58904 -6.71625 A 0.125 0.01503 266.43127 0 1 2.58126 -6.72983" />
    <path d="M 2.58126 -5.84043 A 0.125 0.01503 266.43127 0 1 2.57348 -6.07636 L 2.67257 -6.08254" />
    <path d="M 2.57348 -6.07636 A 0.125 0.01503 266.43127 0 1 2.58904 -5.82685 L 2.68813 -5.83303" />
    <path d="M 2.58904 -5.82685 A 0.125 0.01503 266.43127 0 1 2.58126 -5.84043" />
    <path d="M 3.81986 -6.29958 A 0.125 0.11015 163.38198 0 1 3.70009 -6.37501 L 3.68657 -6.4203" />
    <path d="M 3.70009 -6.37501 A 0.125 0.11015 163.38198 0 1 3.93964 -6.44651 L 3.92613 -6.4918" />
    <path d="M 3.93964 -6.44651 A 0.125 0.11015 163.38198 0 1 3.81986 -6.29958" />
    <path d="M 3.81986 -5.41018 A 0.125 0.11015 163.38198 0 1 3.70009 -5.48561 L 3.68657 -5.5309" />
    <path d="M 3.70009 -5.48561 A 0.125 0.11015 163.38198 0 1 3.93964 -5.5571 L 3.92613 -5.6024" />
    <path d="M 3.93964 -5.5571 A 0.125 0.11015 163.38198 0 1 3.81986 -5.41018" />
    <path d="M 2.77447 -5.07425 A 0.905 0.4137 180 0 0 4.57617 -5.13018" />
    <path d="M 2.76617 -5.13018 A 0.905 0.4137 180 0 0 2.77447 -5.07425" />
    <path d="M 4.42117 -1.0167 A 0.75 0.34285 0 0 1 2.92117 -1.0167" />
    <path d="M 4.56786 -1.07262 A 0.905 0.4137 0 0 1 4.57617 -1.0167 L 4.57617 -0.57199 A 0.905 0.4137 0 0 1 2.76617 -0.57199" />
    <path d="M 4.57617 -1.0167 A 0.905 0.4137 0 0 1 2.76617 -1.0167 L 2.76617 -0.57199" />
    <path d="M 2.76617 -1.0167 A 0.905 0.4137 0 0 1 2.92117 -1.24822" />
    <path d="M 4.42117 -1.24822 A 0.905 0.4137 0 0 1 4.56786 -1.07262" />
    <path d="M 2.81553 -0.05727 L 4.79717 -0.18086 L 4.57617 -0.92134" />
    <path d="M 2.54517 -0.96313 L 2.81553 -0.05727" />
    <path d="M 2.76617 -0.97691 L 2.54517 -0.96313" />
    <path d="M 2.81553 1.72153 L 2.81553 -0.05727" />
    <path d="M 2.81553 1.72153 L 3.35863 1.68766" />
    <path d="M 4.79717 0.97952 L 4.79717 -0.18086" />
    <path d="M 2.90965 0.82626 A 0.905 0.79752 163.38198 0 1 4.67355 0.51152" />
    <path d="M 2.93915 1.02916 A 0.905 0.79752 163.38198 0 1 2.90965 0.82626" />
    <path d="M 2.54517 0.81567 L 2.54517 -0.96313" />
    <path d="M 2.54517 0.81567 L 2.57643 0.92044" />
    <path d="M 2.58609 0.9528 L 2.81553 1.72153" />
    <path d="M 2.68035 0.04568 A 0.125 0.01503 86.43127 0 0 2.68813 0.05926 A 0.125 0.01503 86.43127 0 0 2.67257 -0.19026" />
    <path d="M 2.68035 0.93508 A 0.125 0.01503 86.43127 0 0 2.68813 0.94866 A 0.125 0.01503 86.43127 0 0 2.67257 0.69914" />
    <path d="M 2.97724 1.05273 A 0.905 0.79752 163.38198 0 1 4.74114 0.73798 L 4.67355 0.51152" />
    <path d="M 4.74114 0.73798 A 0.905 0.79752 163.38198 0 1 4.77035 0.92067" />
    <path d="M 3.50078 1.75198 A 0.905 0.79752 163.38198 0 1 3.00674 1.25562 L 2.93915 1.02916" />
    <path d="M 3.00674 1.25562 A 0.905 0.79752 163.38198 0 1 2.97724 1.05273" />
    <path d="M 2.58126 0.05185 A 0.125 0.01503 266.43127 0 1 2.57348 -0.18408 L 2.67257 -0.19026" />
    <path d="M 2.57348 -0.18408 A 0.125 0.01503 266.43127 1 1 2.58904 0.06544 L 2.68813 0.05926" />
    <path d="M 2.58904 0.06544 A 0.125 0.01503 266.43127 0 1 2.58126 0.05185" />
    <path d="M 2.58126 0.94126 A 0.125 0.01503 266.43127 0 1 2.57348 0.70532 L 2.67257 0.69914" />
    <path d="M 2.57348 0.70532 A 0.125 0.01503 266.43127 0 1 2.58904 0.95484 L 2.68813 0.94866" />
    <path d="M 2.58904 0.95484 A 0.125 0.01503 266.43127 0 1 2.58126 0.94126" />
    <path d="M 4.7659 -0.28563 A 0.125 0.01503 86.43127 0 0 4.75624 -0.31799" />
    <path d="M 2.76617 1.65151 A 0.905 0.4137 180 0 0 3.64346 2.06501" />
    <path d="M 3.97786 0.32327 L 4.04127 0.32174 L 4.10421 0.32505 L 4.16623 0.3332 L 4.22689 0.34612 L 4.28574 0.36371 L 4.34236 0.38584 L 4.39633 0.41237 L 4.44727 0.44309 L 4.4948 0.47778 L 4.53857 0.51619 L 4.57828 0.55804 L 4.61363 0.60303 L 4.64437 0.65083 L 4.67027 0.70109" />
    <path d="M 3.28546 1.27955 L 3.25404 1.19312 L 3.23661 1.10276 L 3.23352 1.01022 L 3.24483 0.9173 L 3.27031 0.8258 L 3.30948 0.73747 L 3.36158 0.65404 L 3.4256 0.57711 L 3.50029 0.50817 L 3.58423 0.44856 L 3.67578 0.39942 L 3.77317 0.36171 L 3.87452 0.33617 L 3.97786 0.32327" />
    <path d="M 9.79016 13.07586 A 0.75 0.65303 155.49774 0 1 10.47262 13.43187 L 4.67027 0.70109" />
    <path d="M 10.47262 13.43187 A 0.75 0.65303 155.49774 0 1 9.1077 14.05396 L 3.28546 1.27955" />
    <path d="M 9.1077 14.05396 A 0.75 0.65303 155.49774 0 1 9.79016 13.07586" />
    <path d="M 2.92117 13.65843 A 0.75 0.34285 180 0 0 4.42117 13.65843" />
    <path d="M 10.47262 0.09084 L 4.67027 -12.63993" />
    <path d="M 9.1077 0.71294 L 3.28546 -12.06147" />
    <path d="M 4.74114 -12.60304 L 4.67355 -12.82951" />
    <path d="M 3.00674 -12.0854 L 2.93915 -12.31187" />
    <path d="M 2.58904 -13.27559 L 2.68813 -13.28177" />
    <path d="M 2.57348 -13.5251 L 2.67257 -13.53128" />
    <path d="M 2.58904 -12.38619 L 2.68813 -12.39236" />
    <path d="M 2.57348 -12.6357 L 2.67257 -12.64188" />
    <path d="M 2.76617 -11.78487 L 2.76617 -11.68951" />
    <path d="M 2.76617 -14.35772 L 2.76617 -13.91302" />
    <path d="M 4.57617 -14.35772 L 4.57617 -13.91302" />
    <path d="M 2.92117 -11.45799 L 2.92117 -9.02131" />
    <path d="M 4.42117 -9.56966 L 4.42117 -9.02131" />
    <path d="M 2.76617 -7.5113 L 2.76617 -7.35368" />
    <path d="M 4.57617 -7.5113 L 4.57617 -7.35368" />
    <path d="M 2.76617 -5.22553 L 2.76617 -5.13018" />
    <path d="M 4.57617 -5.16996 L 4.57617 -5.13018" />
    <path d="M 2.32281 -7.61426 L 2.54517 -7.1264" />
    <path d="M 2.92117 -4.89865 L 2.92117 -1.0167" />
    <path d="M 4.42117 -4.89865 L 4.42117 -1.0167" />
    <path d="M 2.76617 1.55615 L 2.76617 1.65151" />
    <path d="M 2.92117 1.88304 L 2.92117 13.65843" />
    <path d="M 4.42117 3.77137 L 4.42117 13.65843" />
</svg>