<svg version="1.1" xmlns="http://www.w3.org/2000/svg" viewBox="-13.055807911038505 -25.718258222235885 24.500643813521478 41.40489240951321" fill="none" stroke="black" stroke-width="0.6%" vector-effect="non-scaling-stroke">
    <path d="M 4.33103 -8.47715 A 0.805 0.69423 157.02004 0 1 4.41715 -8.33368 A 0.805 0.69423 157.02004 0 1 4.46515 -8.09504 A 0.805 0.69423 157.02004 0 1 4.33103 -7.68721" />
    <path d="M 3.03395 -8.36956 C 3.03 -8.37 3.03 -8.37 3.0309 -8.37751 C 3.03 -8.38 3.03 -8.38 3.02826 -8.38599 C 3.03 -8.39 3.03 -8.39 3.02603 -8.39497 C 3.03 -8.4 3.02 -8.4 3.02422 -8.40443 C 3.02 -8.41 3.02 -8.41 3.02282 -8.41434 C 3.02 -8.42 3.02 -8.42 3.02182 -8.42469 C 3.02 -8.43 3.02 -8.43 3.02123 -8.43545 C 3.02 -8.44 3.02 -8.44 3.02103 -8.44656" />
    <path d="M 3.03395 -7.54615 A 0.805 0.69423 157.02004 0 1 2.93492 -7.70512 A 0.805 0.69423 157.02004 0 1 3.03395 -8.36956 L 3.03395 -7.54615 Z" />
    <path d="M 2.70068 -9.01442 A 0.805 0.69423 337.02004 0 0 2.63846 -8.4042 L 2.93492 -7.70512" />
    <path d="M 3.02103 11.88499 A 0.655 0.31141 180 1 0 4.33103 11.88499" />
    <path d="M 4.33103 -1.73845 C 4.33 -1.74 4.33 -1.73 4.33057 -1.73289 C 4.33 -1.73 4.33 -1.73 4.32922 -1.72826 C 4.33 -1.73 4.33 -1.73 4.32742 -1.725 C 4.33 -1.72 4.33 -1.72 4.32501 -1.72228 C 4.32 -1.72 4.32 -1.72 4.32203 -1.72005 C 4.32 -1.72 4.32 -1.72 4.31849 -1.71825 C 4.32 -1.72 4.31 -1.72 4.31265 -1.71639 C 4.31 -1.72 4.31 -1.72 4.30578 -1.71518 C 4.3 -1.71 4.3 -1.71 4.2979 -1.71451 C 4.3 -1.71 4.29 -1.71 4.28904 -1.7143 C 4.29 -1.71 4.28 -1.71 4.27923 -1.71446 C 4.28 -1.71 4.27 -1.71 4.26847 -1.71493 C 4.26 -1.72 4.26 -1.72 4.25677 -1.71563 C 4.25 -1.72 4.25 -1.72 4.24415 -1.71651 C 4.24 -1.72 4.23 -1.72 4.22754 -1.71775 C 4.22 -1.72 4.22 -1.72 4.20958 -1.71909 C 4.2 -1.72 4.2 -1.72 4.1903 -1.72046 C 4.18 -1.72 4.18 -1.72 4.16972 -1.72178 C 4.16 -1.72 4.16 -1.72 4.14786 -1.723 C 4.14 -1.72 4.13 -1.72 4.12474 -1.72406 C 4.12 -1.72 4.11 -1.72 4.10039 -1.72491 C 4.09 -1.73 4.08 -1.73 4.07484 -1.7255 C 4.07 -1.73 4.06 -1.73 4.04514 -1.7258 C 4.04 -1.73 4.02 -1.73 4.01408 -1.72568 C 4 -1.73 3.99 -1.73 3.98175 -1.72509 C 3.97 -1.72 3.96 -1.72 3.94828 -1.724 C 3.94 -1.72 3.93 -1.72 3.91379 -1.72238 C 3.9 -1.72 3.89 -1.72 3.8784 -1.72022 C 3.85 -1.72 3.83 -1.72 3.80548 -1.71422 C 3.45 -1.7 3.11 -1.52 3.03395 -1.66145 A 0.805 0.69423 337.02004 0 0 2.88691 -1.23565 A 0.805 0.69423 337.02004 0 0 2.93492 -0.99701" />
    <path d="M 1.22534 -9.87391 A 2.5 1.18858 180 0 0 6.17603 -10.10881" />
    <path d="M -6.12672 -9.16919 L 1.22534 -9.87391 L 1.22534 -10.31378" />
    <path d="M -12.05581 -23.15083 L -6.12672 -9.16919 L -6.12672 -9.60906 L 1.22534 -10.31378" />
    <path d="M 4.41715 -1.62557 A 0.805 0.69423 337.02004 0 0 4.33103 -1.76904" />
    <path d="M 3.18337 -0.53657 A 0.805 0.69423 157.02004 0 1 4.7136 -0.92649 A 0.805 0.69423 157.02004 0 1 4.73307 -0.49637" />
    <path d="M 3.52703 0.01506 A 0.805 0.69423 157.02004 0 1 3.23137 -0.29793 L 2.93492 -0.99701" />
    <path d="M 3.23137 -0.29793 A 0.805 0.69423 157.02004 0 1 3.18337 -0.53657" />
    <path d="M 5.34013 -11.4357 L 4.33103 -13.81529" />
    <path d="M 3.53542 -15.69147 L -0.2925 -24.71826 L -12.05581 -23.59071 L -6.12672 -9.60906" />
    <path d="M 5.34013 -11.4357 A 2.5 1.18858 360 0 1 6.17603 -10.54869 L 6.17603 -10.10881" />
    <path d="M 6.17603 -10.54869 A 2.5 1.18858 360 0 1 1.22534 -10.31378" />
    <path d="M -12.05581 -23.15083 L -12.05581 -23.59071" />
    <path d="M 3.97249 -1.18845 A 0.655 0.56487 337.02004 0 0 3.36947 -0.35649" />
    <path d="M 4.57551 -0.86793 A 0.655 0.56487 337.02004 0 0 3.97249 -1.18845" />
    <path d="M 4.33103 -10.54869 A 0.655 0.31141 360 0 1 3.02103 -10.54869" />
    <path d="M 9.80275 12.56017 A 0.655 0.56487 157.02004 0 1 10.40577 12.88069 L 4.57551 -0.86793" />
    <path d="M 10.40577 12.88069 A 0.655 0.56487 157.02004 0 1 9.19973 13.39213 L 3.36947 -0.35649" />
    <path d="M 9.19973 13.39213 A 0.655 0.56487 157.02004 0 1 9.80275 12.56017" />
    <path d="M 3.54658 -15.69259 A 0.655 0.31141 360 0 1 4.33103 -15.38733 L 4.33103 -10.54869" />
    <path d="M 4.33103 -15.38733 A 0.655 0.31141 360 0 1 3.02103 -15.38733 L 3.02103 -10.54869" />
    <path d="M 3.02103 -15.38733 A 0.655 0.31141 360 0 1 3.54658 -15.69259" />
    <path d="M 4.1207 12.96104 A 0.805 0.69423 337.02004 0 0 2.63846 13.5896 L 2.93492 14.28868 A 0.805 0.69423 157.02004 0 1 4.41715 13.66013 A 0.805 0.69423 157.02004 0 1 4.46515 13.89876 A 0.805 0.69423 157.02004 0 1 2.93492 14.28868" />
    <path d="M -2.45069 -1.04953 A 0.655 0.56487 337.02004 0 0 -3.05371 -0.21758 L 2.619 13.15949" />
    <path d="M -1.84767 -0.72901 A 0.655 0.56487 337.02004 0 0 -2.45069 -1.04953" />
    <path d="M 4.33103 -8.53675 L 4.41715 -8.33368" />
    <path d="M 3.02103 -8.96175 L 3.02103 -8.44656" />
    <path d="M 3.02103 -7.56165 L 3.02103 -1.64348" />
    <path d="M 3.02103 -0.79394 L 3.02103 11.88499" />
    <path d="M 4.33103 -8.96175 L 4.33103 -1.73845" />
    <path d="M 4.33103 1.91102 L 4.33103 11.88499" />
    <path d="M 4.7136 -0.92649 L 4.41715 -1.62557" />
    <path d="M 2.52608 -9.05344 L 2.619 -8.83432" />
    <path d="M 4.1207 12.96104 L 4.41715 13.66013" />
    <path d="M -1.84767 -0.72901 L 3.02103 10.75209" />
    <path d="M 3.63323 12.19574 L 3.82504 12.64805" />
</svg>