<svg version="1.1" xmlns="http://www.w3.org/2000/svg" viewBox="-2.996106249805055 -23.004636103433473 5.647884360159119 35.93570789960003" fill="none" stroke="black" stroke-width="0.6%" vector-effect="non-scaling-stroke">
    <path d="M -1.59067 0.7371 A 0.655 0.45529 180 0 0 -0.58895 1.12337" />
    <path d="M -1.54758 -8.60471 A 0.805 0.55955 180 0 0 -1.45807 -8.54256" />
    <path d="M -1.87135 -8.59065 L -1.46399 -8.60834" />
    <path d="M -0.15382 -8.66526 L 0.12476 -8.67736 L 0.12476 -10.1152 L 0 -11.50268 L -0.28067 -11.49049" />
    <path d="M -1.99611 -9.97813 L -1.87135 -8.59065 L -1.87135 -10.02848 L 0.12476 -10.1152" />
    <path d="M -0.8733 -9.82381 A 0.655 0.46997 354.86202 0 0 -1.52566 -9.29427" />
    <path d="M -0.22093 -9.41158 A 0.655 0.46997 354.86202 0 0 -0.8733 -9.82381" />
    <path d="M -1.99611 -9.97813 L -1.99611 -11.41597 L -1.87135 -10.02848" />
    <path d="M -1.60795 -11.43283 L -1.99611 -11.41597" />
    <path d="M -1.73911 -10.73068 A 0.805 0.55955 0 0 1 -1.74067 -10.76558" />
    <path d="M -0.13067 -10.76558 A 0.805 0.55955 0 0 1 -1.73911 -10.73068" />
    <path d="M 0.99805 10.98843 A 0.655 0.46997 174.86202 0 1 1.65042 11.40067 L -0.22093 -9.41158" />
    <path d="M 1.65042 11.40067 A 0.655 0.46997 174.86202 0 1 0.34568 11.51798 L -1.52566 -9.29427" />
    <path d="M 0.34568 11.51798 A 0.655 0.46997 174.86202 0 1 0.99805 10.98843" />
    <path d="M -1.73911 -11.09014 A 0.805 0.55955 0 0 1 -1.74067 -11.12504 L -1.74067 -10.76558" />
    <path d="M -1.74067 -11.12504 A 0.805 0.55955 0 0 1 -1.59067 -11.45033" />
    <path d="M -0.28067 -11.45033 A 0.805 0.55955 0 0 1 -0.13067 -11.12504 L -0.13067 -10.76558" />
    <path d="M -0.13067 -11.12504 A 0.805 0.55955 0 0 1 -1.73911 -11.09014" />
    <path d="M -0.28067 -11.12504 A 0.655 0.45529 360 0 1 -1.59067 -11.12504" />
    <path d="M -0.97653 -22.00375 A 0.655 0.45529 360 0 1 -0.28067 -21.54935 L -0.28067 -11.12504" />
    <path d="M -0.28067 -21.54935 A 0.655 0.45529 360 0 1 -1.59067 -21.54935 L -1.59067 -11.12504" />
    <path d="M -1.59067 -21.54935 A 0.655 0.45529 360 0 1 -0.97653 -22.00375" />
    <path d="M -1.59067 -8.60284 L -1.59067 0.7371" />
</svg>