<svg version="1.1" xmlns="http://www.w3.org/2000/svg" viewBox="-2.277329422795815 -27.270644395929708 4.58618349588429 38.4671638064563" fill="none" stroke="black" stroke-width="0.6%" vector-effect="non-scaling-stroke">
    <path d="M -0.65442 -26.27017 A 0.65 0.54381 360 0 1 0.02267 -25.72684 A 0.65 0.54381 360 0 1 -1.27733 -25.72684 A 0.65 0.54381 360 0 1 -0.65442 -26.27017 Z" />
    <path d="M -1.27733 0.56624 A 0.65 0.54381 180 0 0 -0.43775 1.0864" />
    <path d="M 0.65442 9.47821 A 0.655 0.35848 177.14526 0 1 1.30861 9.80438 A 0.655 0.35848 177.14526 0 1 0.00024 9.86962 L -1.25025 -15.20739" />
    <path d="M 0.00024 9.86962 A 0.655 0.35848 177.14526 0 1 0.65442 9.47821" />
    <path d="M -0.59607 -15.5988 A 0.655 0.35848 357.14526 0 0 -1.25025 -15.20739" />
    <path d="M 0.05812 -15.27263 A 0.655 0.35848 357.14526 0 0 -0.59607 -15.5988" />
    <path d="M -1.27733 -25.72684 L -1.27733 0.56624" />
    <path d="M 0.02267 -25.72684 L 0.02267 -15.37848" />
    <path d="M 1.30861 9.80438 L 0.05812 -15.27263" />
</svg>