<svg version="1.1" xmlns="http://www.w3.org/2000/svg" viewBox="-13.05598236431987 -23.422643622738683 24.501001048113388 38.510829737619986" fill="none" stroke="black" stroke-width="0.6%" vector-effect="non-scaling-stroke">
    <path d="M 2.49811 -6.17053 L 2.49811 -7.88612" />
    <path d="M 4.85394 -5.48163 L 4.85394 -7.27751 L 4.59899 -7.83406" />
    <path d="M 2.53922 -7.87667 L 2.8934 -7.10354 L 4.85394 -7.27751" />
    <path d="M 2.88691 -7.55194 A 0.805 0.35429 360 0 1 2.87103 -7.62196" />
    <path d="M 4.48103 -7.62196 A 0.805 0.35429 360 0 1 2.88691 -7.55194" />
    <path d="M 2.49811 -6.17053 L 2.8934 -5.30766 L 4.85394 -5.48163" />
    <path d="M 2.8934 -5.30766 L 2.8934 -7.10354" />
    <path d="M 2.69575 -6.97376 A 0.125 0.02218 84.92907 0 0 2.7068 -6.96149 A 0.125 0.02218 84.92907 0 0 2.68471 -7.21052" />
    <path d="M 2.69575 -6.07582 A 0.125 0.02218 84.92907 0 0 2.7068 -6.06355 A 0.125 0.02218 84.92907 0 0 2.68471 -6.31258" />
    <path d="M 3.98731 -6.79362 A 0.125 0.11003 335.38731 0 0 3.76003 -6.6895" />
    <path d="M 3.98731 -5.89568 A 0.125 0.11003 335.38731 0 0 3.76003 -5.79155" />
    <path d="M 4.11249 -7.77323 A 0.805 0.35429 360 0 1 3.23956 -7.77323" />
    <path d="M 2.59773 -6.96506 A 0.125 0.02218 264.92907 0 1 2.58668 -7.20182 A 0.125 0.02218 264.92907 1 1 2.60878 -6.9528 A 0.125 0.02218 264.92907 0 1 2.59773 -6.96506 Z" />
    <path d="M 2.59773 -6.06712 A 0.125 0.02218 264.92907 0 1 2.58668 -6.30388 A 0.125 0.02218 264.92907 1 1 2.60878 -6.05486 A 0.125 0.02218 264.92907 0 1 2.59773 -6.06712 Z" />
    <path d="M 2.88691 -5.30709 A 0.805 0.35429 180 0 0 4.48103 -5.37711" />
    <path d="M 2.87304 -5.3521 A 0.805 0.35429 180 0 0 2.88691 -5.30709" />
    <path d="M 3.89343 -6.58617 A 0.125 0.11003 155.38731 0 1 3.77979 -6.64635 A 0.125 0.11003 155.38731 0 1 4.00708 -6.75047 A 0.125 0.11003 155.38731 0 1 3.89343 -6.58617 Z" />
    <path d="M 3.89343 -5.68823 A 0.125 0.11003 155.38731 0 1 3.77979 -5.74841 A 0.125 0.11003 155.38731 0 1 4.00708 -5.85253 A 0.125 0.11003 155.38731 0 1 3.89343 -5.68823 Z" />
    <path d="M 4.33103 -1.22414 A 0.655 0.28828 0 1 1 3.02103 -1.22414" />
    <path d="M 1.22534 -8.63916 A 2.5 1.10029 180 0 0 6.17603 -8.85663" />
    <path d="M -6.12671 -7.98677 L 1.22534 -8.63916 L 1.22534 -9.08813" />
    <path d="M -12.05598 -20.92984 L -6.12671 -7.98677 L -6.12671 -8.43574 L 1.22534 -9.08813" />
    <path d="M 4.46515 -1.29416 A 0.805 0.35429 360 0 1 4.48103 -1.22414 L 4.48103 -0.77517 A 0.805 0.35429 360 0 1 2.87103 -0.77517" />
    <path d="M 4.48103 -1.22414 A 0.805 0.35429 360 0 1 2.87103 -1.22414 L 2.87103 -0.77517" />
    <path d="M 2.87103 -1.22414 A 0.805 0.35429 360 0 1 3.02103 -1.4301" />
    <path d="M 4.33103 -1.4301 A 0.805 0.35429 360 0 1 4.46515 -1.29416" />
    <path d="M 5.34011 -10.12672 L 4.33103 -12.32947" />
    <path d="M 3.34044 -14.49184 L -0.29269 -22.42264 L -12.05598 -21.37881 L -6.12671 -8.43574" />
    <path d="M 5.34011 -10.12672 A 2.5 1.10029 0 0 1 6.17603 -9.3056 L 6.17603 -8.85663" />
    <path d="M 6.17603 -9.3056 A 2.5 1.10029 0 0 1 1.22534 -9.08813" />
    <path d="M -12.05598 -20.92984 L -12.05598 -21.37881" />
    <path d="M 4.33103 -9.3056 A 0.655 0.28828 0 1 1 3.02103 -9.3056" />
    <path d="M 2.8934 -0.25675 L 4.85394 -0.43072 L 4.47902 -1.24914" />
    <path d="M 2.87103 -1.15271 L 2.49811 -1.11962 L 2.8934 -0.25675" />
    <path d="M 3.54657 -14.52686 A 0.655 0.28828 0 0 1 4.33103 -14.24427 L 4.33103 -9.3056" />
    <path d="M 4.33103 -14.24427 A 0.655 0.28828 0 1 1 3.02103 -14.24427 L 3.02103 -9.3056" />
    <path d="M 3.02103 -14.24427 A 0.655 0.28828 0 0 1 3.54657 -14.52686" />
    <path d="M 2.8934 1.53914 L 2.8934 -0.25675" />
    <path d="M 4.85394 1.12137 L 4.85394 -0.43072" />
    <path d="M 2.8934 1.53914 L 3.57664 1.47851" />
    <path d="M 3.08455 0.62423 A 0.805 0.70858 335.38731 0 0 3.14181 0.88948" />
    <path d="M 4.60553 0.21894 A 0.805 0.70858 335.38731 0 0 3.08455 0.62423" />
    <path d="M 2.49811 0.67626 L 2.49811 -1.11962" />
    <path d="M 2.49811 0.67626 L 2.8934 1.53914" />
    <path d="M 2.69575 -0.12697 A 0.125 0.02218 84.92907 0 0 2.7068 -0.1147 A 0.125 0.02218 84.92907 0 0 2.68471 -0.36372" />
    <path d="M 2.69575 0.77097 A 0.125 0.02218 84.92907 0 0 2.7068 0.78324 A 0.125 0.02218 84.92907 0 0 2.68471 0.53422" />
    <path d="M 3.18337 0.83995 A 0.805 0.70858 155.38731 0 1 4.70435 0.43466 L 4.60553 0.21894" />
    <path d="M 4.70435 0.43466 A 0.805 0.70858 155.38731 0 1 4.73954 0.87163" />
    <path d="M 3.54856 1.41722 A 0.805 0.70858 155.38731 0 1 3.24063 1.1052 L 3.14181 0.88948" />
    <path d="M 3.24063 1.1052 A 0.805 0.70858 155.38731 0 1 3.18337 0.83995" />
    <path d="M 2.59773 -0.11827 A 0.125 0.02218 264.92907 0 1 2.58668 -0.35502 L 2.68471 -0.36372" />
    <path d="M 2.58668 -0.35502 A 0.125 0.02218 264.92907 1 1 2.60878 -0.106 L 2.7068 -0.1147" />
    <path d="M 2.60878 -0.106 A 0.125 0.02218 264.92907 0 1 2.59773 -0.11827" />
    <path d="M 2.59773 0.77967 A 0.125 0.02218 264.92907 0 1 2.58668 0.54292 L 2.68471 0.53422" />
    <path d="M 2.58668 0.54292 A 0.125 0.02218 264.92907 1 1 2.60878 0.79194 L 2.7068 0.78324" />
    <path d="M 2.60878 0.79194 A 0.125 0.02218 264.92907 0 1 2.59773 0.77967" />
    <path d="M 2.87304 1.49469 A 0.805 0.35429 180 0 0 3.73447 1.82304" />
    <path d="M 3.97249 0.18178 A 0.655 0.57655 335.38731 0 0 3.377 1.04272" />
    <path d="M 4.56798 0.49713 A 0.655 0.57655 335.38731 0 0 3.97249 0.18178" />
    <path d="M 9.80294 12.90913 A 0.655 0.57655 155.38731 0 1 10.39843 13.22449 L 4.56798 0.49713" />
    <path d="M 10.39843 13.22449 A 0.655 0.57655 155.38731 0 1 9.20745 13.77008 L 3.377 1.04272" />
    <path d="M 9.20745 13.77008 A 0.655 0.57655 155.38731 0 1 9.80294 12.90913" />
    <path d="M 3.02103 13.59188 A 0.655 0.28828 180 0 0 4.33103 13.59188" />
    <path d="M 2.41369 -7.9069 L 2.49811 -7.72261" />
    <path d="M 2.87103 -7.81494 L 2.87103 -7.62196" />
    <path d="M 4.48103 -7.81494 L 4.48103 -7.62196" />
    <path d="M 2.60878 -6.9528 L 2.7068 -6.96149" />
    <path d="M 2.58668 -7.20182 L 2.68471 -7.21052" />
    <path d="M 2.60878 -6.05486 L 2.7068 -6.06355" />
    <path d="M 2.58668 -6.30388 L 2.68471 -6.31258" />
    <path d="M 4.48103 -5.44854 L 4.48103 -5.37711" />
    <path d="M 4.00708 -6.75047 L 3.98731 -6.79362" />
    <path d="M 3.77979 -6.64635 L 3.76003 -6.6895" />
    <path d="M 4.00708 -5.85253 L 3.98731 -5.89568" />
    <path d="M 3.77979 -5.74841 L 3.76003 -5.79155" />
    <path d="M 3.02103 -5.17115 L 3.02103 -1.22414" />
    <path d="M 4.33103 -5.17115 L 4.33103 -1.22414" />
    <path d="M 3.02103 1.67565 L 3.02103 13.59188" />
    <path d="M 4.33103 3.12528 L 4.33103 13.59188" />
</svg>