<svg version="1.1" xmlns="http://www.w3.org/2000/svg" viewBox="-13.055807911038508 -23.422582334368908 24.593769980419722 38.59642828527987" fill="none" stroke="black" stroke-width="0.6%" vector-effect="non-scaling-stroke">
    <path d="M 5.34013 -10.12672 L 4.42603 -12.12216" />
    <path d="M 3.32074 -14.53498 L -0.2925 -22.42258 L -12.05581 -21.37879 L -6.12672 -8.43577 L 1.22534 -9.08814" />
    <path d="M 1.22534 -8.63917 L 1.22534 -9.08814" />
    <path d="M 5.34013 -10.12672 A 2.5 1.10029 360 0 1 6.17603 -9.3056 A 2.5 1.10029 360 0 1 1.22534 -9.08814" />
    <path d="M 1.22534 -8.63917 A 2.5 1.10029 180 0 0 6.17603 -8.85663" />
    <path d="M -12.05581 -20.92982 L -12.05581 -21.37879" />
    <path d="M -6.12672 -7.9868 L 1.22534 -8.63917" />
    <path d="M -12.05581 -20.92982 L -6.12672 -7.9868 L -6.12672 -8.43577" />
    <path d="M 4.42603 -9.3056 A 0.75 0.33009 360 0 1 2.92603 -9.3056" />
    <path d="M 3.40766 -7.7627 A 0.75 0.33009 180 0 0 3.9444 -7.7627" />
    <path d="M 3.52781 -14.56785 A 0.75 0.33009 360 0 1 4.42603 -14.24428 A 0.75 0.33009 360 0 1 2.92603 -14.24428 A 0.75 0.33009 360 0 1 3.52781 -14.56785 Z" />
    <path d="M 4.3272 -7.79432 A 0.905 0.3983 360 0 1 3.02486 -7.79432" />
    <path d="M 2.78888 -7.54324 A 0.905 0.3983 360 0 1 2.77103 -7.62196" />
    <path d="M 4.58103 -7.62196 A 0.905 0.3983 360 0 1 2.78888 -7.54324" />
    <path d="M 4.85394 -7.27751 L 4.59899 -7.83407" />
    <path d="M 2.53923 -7.87668 L 2.89339 -7.10354 L 4.85394 -7.27751" />
    <path d="M 2.49812 -6.17053 L 2.49812 -7.88613" />
    <path d="M 4.85394 -5.48162 L 4.85394 -7.27751" />
    <path d="M 2.49812 -6.17053 L 2.89339 -5.30766 L 4.85394 -5.48162" />
    <path d="M 2.89339 -5.30766 L 2.89339 -7.10354" />
    <path d="M 2.69576 -6.97376 A 0.125 0.02218 84.92926 0 0 2.70681 -6.96149 A 0.125 0.02218 84.92926 0 0 2.68471 -7.21052" />
    <path d="M 2.69576 -6.07582 A 0.125 0.02218 84.92926 0 0 2.70681 -6.06355 A 0.125 0.02218 84.92926 0 0 2.68471 -6.31258" />
    <path d="M 3.98731 -6.79361 A 0.125 0.11003 335.38789 0 0 3.76003 -6.6895" />
    <path d="M 3.98731 -5.89567 A 0.125 0.11003 335.38789 0 0 3.76003 -5.79155" />
    <path d="M 2.49812 -7.38486 A 0.905 0.79661 335.38789 0 0 2.49812 -7.20105" />
    <path d="M 2.59773 -6.96506 A 0.125 0.02218 264.92926 0 1 2.58668 -7.20182 L 2.68471 -7.21052" />
    <path d="M 2.58668 -7.20182 A 0.125 0.02218 264.92926 0 1 2.60878 -6.9528 L 2.70681 -6.96149" />
    <path d="M 2.60878 -6.9528 A 0.125 0.02218 264.92926 0 1 2.59773 -6.96506" />
    <path d="M 2.59773 -6.06712 A 0.125 0.02218 264.92926 0 1 2.58668 -6.30388 L 2.68471 -6.31258" />
    <path d="M 2.58668 -6.30388 A 0.125 0.02218 264.92926 0 1 2.60878 -6.05486 L 2.70681 -6.06355" />
    <path d="M 2.60878 -6.05486 A 0.125 0.02218 264.92926 0 1 2.59773 -6.06712" />
    <path d="M 3.89343 -6.58617 A 0.125 0.11003 155.38789 0 1 3.77979 -6.64635 L 3.76003 -6.6895" />
    <path d="M 3.77979 -6.64635 A 0.125 0.11003 155.38789 1 1 4.00708 -6.75047 L 3.98731 -6.79361" />
    <path d="M 4.00708 -6.75047 A 0.125 0.11003 155.38789 0 1 3.89343 -6.58617" />
    <path d="M 3.89343 -5.68823 A 0.125 0.11003 155.38789 0 1 3.77979 -5.74841 L 3.76003 -5.79155" />
    <path d="M 3.77979 -5.74841 A 0.125 0.11003 155.38789 0 1 4.00708 -5.85253 L 3.98731 -5.89567" />
    <path d="M 4.00708 -5.85253 A 0.125 0.11003 155.38789 0 1 3.89343 -5.68823" />
    <path d="M 2.78888 -5.29839 A 0.905 0.3983 180 0 0 4.58103 -5.37711" />
    <path d="M 2.77103 -5.37711 A 0.905 0.3983 180 0 0 2.78888 -5.29839" />
    <path d="M 4.42603 -1.22413 A 0.75 0.33009 360 0 1 2.92603 -1.22413" />
    <path d="M 4.56318 -1.30285 A 0.905 0.3983 360 0 1 4.58103 -1.22413 L 4.58103 -0.77516 A 0.905 0.3983 360 0 1 2.77103 -0.77516" />
    <path d="M 4.58103 -1.22413 A 0.905 0.3983 360 0 1 2.77103 -1.22413 L 2.77103 -0.77516" />
    <path d="M 2.77103 -1.22413 A 0.905 0.3983 360 0 1 2.92603 -1.44704" />
    <path d="M 4.42603 -1.44704 A 0.905 0.3983 360 0 1 4.56318 -1.30285" />
    <path d="M 2.89339 -0.25674 L 4.85394 -0.4307 L 4.58103 -1.02646" />
    <path d="M 2.49812 -1.11961 L 2.89339 -0.25674" />
    <path d="M 2.77103 -1.14382 L 2.49812 -1.11961" />
    <path d="M 2.89339 1.53914 L 2.89339 -0.25674" />
    <path d="M 2.89339 1.53914 L 3.47599 1.48745" />
    <path d="M 4.85394 0.89329 L 4.85394 0.78363" />
    <path d="M 4.85394 0.59982 L 4.85394 -0.4307" />
    <path d="M 2.98652 0.63294 A 0.905 0.79661 155.38789 0 1 4.69645 0.17731" />
    <path d="M 3.05089 0.93113 A 0.905 0.79661 155.38789 0 1 2.98652 0.63294" />
    <path d="M 2.49812 0.67628 L 2.49812 -1.11961" />
    <path d="M 2.49812 0.67628 L 2.89339 1.53914" />
    <path d="M 2.69576 -0.12696 A 0.125 0.02218 84.92926 0 0 2.70681 -0.11469 A 0.125 0.02218 84.92926 0 0 2.68471 -0.36371" />
    <path d="M 2.69576 0.77098 A 0.125 0.02218 84.92926 0 0 2.70681 0.78325 A 0.125 0.02218 84.92926 0 0 2.68471 0.53423" />
    <path d="M 3.08534 0.84866 A 0.905 0.79661 155.38789 0 1 4.79527 0.39303 L 4.69645 0.17731" />
    <path d="M 4.79527 0.39303 A 0.905 0.79661 155.38789 0 1 4.84002 0.8629" />
    <path d="M 3.4763 1.48761 A 0.905 0.79661 155.38789 0 1 3.14971 1.14684 L 3.05089 0.93113" />
    <path d="M 3.14971 1.14684 A 0.905 0.79661 155.38789 0 1 3.08534 0.84866" />
    <path d="M 2.59773 -0.11826 A 0.125 0.02218 264.92926 0 1 2.58668 -0.35501 L 2.68471 -0.36371" />
    <path d="M 2.58668 -0.35501 A 0.125 0.02218 264.92926 0 1 2.60878 -0.10599 L 2.70681 -0.11469" />
    <path d="M 2.60878 -0.10599 A 0.125 0.02218 264.92926 0 1 2.59773 -0.11826" />
    <path d="M 2.59773 0.77968 A 0.125 0.02218 264.92926 0 1 2.58668 0.54293 L 2.68471 0.53423" />
    <path d="M 2.58668 0.54293 A 0.125 0.02218 264.92926 0 1 2.60878 0.79195 L 2.70681 0.78325" />
    <path d="M 2.60878 0.79195 A 0.125 0.02218 264.92926 0 1 2.59773 0.77968" />
    <path d="M 2.77103 1.4697 A 0.905 0.3983 180 0 0 3.65048 1.86784" />
    <path d="M 3.97249 0.09648 A 0.75 0.66017 155.38789 0 1 4.65435 0.45758" />
    <path d="M 3.29063 1.08229 A 0.75 0.66017 155.38789 0 1 3.97249 0.09648" />
    <path d="M 9.80275 12.82378 A 0.75 0.66017 155.38789 0 1 10.48462 13.18488 L 4.65435 0.45758" />
    <path d="M 10.48462 13.18488 A 0.75 0.66017 155.38789 0 1 9.12089 13.80959 L 3.29063 1.08229" />
    <path d="M 9.12089 13.80959 A 0.75 0.66017 155.38789 0 1 9.80275 12.82378" />
    <path d="M 2.92603 13.59191 A 0.75 0.33009 180 0 0 4.42603 13.59191" />
    <path d="M 6.17603 -9.3056 L 6.17603 -8.85663" />
    <path d="M 2.92603 -14.24428 L 2.92603 -9.3056" />
    <path d="M 4.42603 -14.24428 L 4.42603 -9.3056" />
    <path d="M 2.77103 -7.83096 L 2.77103 -7.62196" />
    <path d="M 4.58103 -7.83096 L 4.58103 -7.62196" />
    <path d="M 2.77103 -5.57477 L 2.77103 -5.37711" />
    <path d="M 4.58103 -5.45741 L 4.58103 -5.37711" />
    <path d="M 2.29419 -7.9397 L 2.49812 -7.49453" />
    <path d="M 2.92603 -5.15419 L 2.92603 -1.22413" />
    <path d="M 4.42603 -5.15419 L 4.42603 -1.22413" />
    <path d="M 2.77103 1.27203 L 2.77103 1.4697" />
    <path d="M 2.92603 1.69261 L 2.92603 13.59191" />
    <path d="M 4.42603 3.56085 L 4.42603 13.59191" />
</svg>