<svg version="1.1" xmlns="http://www.w3.org/2000/svg" viewBox="-9.567811603107833 -37.263681298834896 21.285606877094665 96.7611194459835" fill="none" stroke="black" stroke-width="0.6%" vector-effect="non-scaling-stroke">
    <path d="M 9.97007 43.72994 A 0.75 0.66919 170.06648 0 1 10.70883 44.27179 A 0.75 0.66919 170.06648 1 1 9.23132 44.53054 A 0.75 0.66919 170.06648 0 1 9.97007 43.72994 Z" />
    <path d="M 3.85545 8.81531 A 0.75 0.66919 350.06648 0 0 3.11669 9.61592" />
    <path d="M 4.5942 9.35716 A 0.75 0.66919 350.06648 0 0 3.85545 8.81531" />
    <path d="M 2.9532 9.51799 A 0.905 0.80749 170.06648 0 1 4.74688 9.33042 A 0.905 0.80749 170.06648 0 1 4.67216 9.80229" />
    <path d="M 3.19465 10.06105 A 0.905 0.80749 170.06648 0 1 2.96401 9.64265 A 0.905 0.80749 170.06648 0 1 2.9532 9.51799" />
    <path d="M 2.91425 9.2956 A 0.905 0.80749 170.06648 0 1 4.70793 9.10803" />
    <path d="M 2.92507 9.42027 A 0.905 0.80749 170.06648 0 1 2.91425 9.2956" />
    <path d="M 2.81954 10.19387 L 2.81954 8.40393 L 4.81346 8.33443 L 4.65767 7.44489 L 4.64086 7.44547" />
    <path d="M 2.81954 10.19387 L 3.21549 10.18007" />
    <path d="M 4.72908 10.12731 L 4.81346 10.12437 L 4.81346 8.33443" />
    <path d="M 2.66375 9.17925 L 2.66375 8.53444" />
    <path d="M 2.66375 8.28428 L 2.66375 7.51439 L 2.81954 8.40393" />
    <path d="M 2.68552 9.42865 L 2.81954 10.19387" />
    <path d="M 2.74164 8.51852 A 0.125 0.00871 88.00369 0 0 2.746 8.53157 A 0.125 0.00871 88.00369 0 0 2.73729 8.28172" />
    <path d="M 2.74164 9.41348 A 0.125 0.00871 88.00369 0 0 2.746 9.42654 A 0.125 0.00871 88.00369 0 0 2.73729 9.17669" />
    <path d="M 2.83361 7.50847 L 2.66375 7.51439" />
    <path d="M 4.64086 7.89296 A 0.905 0.40375 360 0 1 4.64361 7.92441 A 0.905 0.40375 360 0 1 2.83361 7.92441" />
    <path d="M 2.64195 8.52199 A 0.125 0.00871 268.00369 0 1 2.63759 8.2852 A 0.125 0.00871 268.00369 0 1 2.6463 8.53504 A 0.125 0.00871 268.00369 0 1 2.64195 8.52199 Z" />
    <path d="M 2.64195 9.41696 A 0.125 0.00871 268.00369 0 1 2.63759 9.18016 A 0.125 0.00871 268.00369 0 1 2.6463 9.43001 A 0.125 0.00871 268.00369 0 1 2.64195 9.41696 Z" />
    <path d="M 2.83636 10.19328 A 0.905 0.40375 180 0 0 3.27293 10.50803" />
    <path d="M 4.64086 7.44548 A 0.905 0.40375 360 0 1 4.64361 7.47692 A 0.905 0.40375 360 0 1 2.83361 7.47692 A 0.905 0.40375 360 0 1 2.98861 7.25097" />
    <path d="M 4.48861 7.25097 A 0.905 0.40375 360 0 1 4.64086 7.44548" />
    <path d="M 4.83526 8.44554 A 0.125 0.00871 88.00369 0 0 4.83962 8.45859 A 0.125 0.00871 88.00369 0 0 4.83091 8.20874 L 4.79169 8.21011" />
    <path d="M 4.83526 9.34051 A 0.125 0.00871 88.00369 0 0 4.83962 9.35356 A 0.125 0.00871 88.00369 0 0 4.83091 9.10371 L 4.81346 9.10432" />
    <path d="M 4.48861 7.47692 A 0.75 0.3346 360 0 1 2.98861 7.47692" />
    <path d="M 3.7411 13.18133 A 0.75 0.3346 360 0 1 2.98861 12.84674" />
    <path d="M 3.68019 -36.26266 A 0.75 0.3346 360 0 1 4.48861 -35.92908 A 0.75 0.3346 360 0 1 2.98861 -35.92908 A 0.75 0.3346 360 0 1 3.68019 -36.26266 Z" />
    <path d="M 5.61569 12.11008 L 4.48861 5.67441" />
    <path d="M 5.61569 12.11008 A 2.5 1.11532 0 0 1 6.23861 12.84674 A 2.5 1.11532 0 0 1 5.35438 13.69781" />
    <path d="M 3.87753 13.96034 A 2.5 1.11532 0 0 1 1.2462 12.93362" />
    <path d="M 2.98861 -0.55174 L -8.56781 -0.14893 L -6.23101 13.19424 L 1.2462 12.93362" />
    <path d="M 1.2462 13.3811 L 1.2462 12.93362" />
    <path d="M 1.2462 13.3811 A 2.5 1.11532 180 0 0 3.95547 14.40534" />
    <path d="M 5.42771 14.11647 A 2.5 1.11532 180 0 0 6.23861 13.29423" />
    <path d="M -8.56781 0.29856 L -8.56781 -0.14893" />
    <path d="M -6.23101 13.64173 L -6.23101 13.19424" />
    <path d="M -6.23101 13.64173 L 1.2462 13.3811" />
    <path d="M -8.56781 0.29856 L -6.23101 13.64173" />
    <path d="M 3.63219 14.40853 A 0.75 0.3346 180 0 0 3.84503 14.40853" />
    <path d="M 3.96645 14.46806 A 0.905 0.40375 360 0 1 3.1295 14.37593" />
    <path d="M 2.83636 14.55626 A 0.905 0.40375 360 0 1 2.83361 14.52481" />
    <path d="M 4.04298 14.90503 A 0.905 0.40375 360 0 1 2.83636 14.55626" />
    <path d="M 2.69763 14.30826 L 2.81954 15.00433 L 4.05284 14.96134" />
    <path d="M 2.66375 15.77965 L 2.66375 15.13483" />
    <path d="M 2.66375 14.88468 L 2.66375 14.3012" />
    <path d="M 2.68552 16.02904 L 2.81954 16.79427 L 4.36441 16.74042" />
    <path d="M 2.81954 16.79427 L 2.81954 15.00433" />
    <path d="M 2.74164 15.11891 A 0.125 0.00871 88.00369 0 0 2.746 15.13197 A 0.125 0.00871 88.00369 0 0 2.73729 14.88212" />
    <path d="M 2.74164 16.01388 A 0.125 0.00871 88.00369 0 0 2.746 16.02694 A 0.125 0.00871 88.00369 0 0 2.73729 15.77709" />
    <path d="M 3.94097 15.41819 A 0.125 0.11153 350.06648 0 0 3.93963 15.3955 A 0.125 0.11153 350.06648 0 0 3.69337 15.43863 A 0.125 0.11153 350.06648 0 0 3.69982 15.46042" />
    <path d="M 3.94097 16.31316 A 0.125 0.11153 350.06648 0 0 3.93963 16.29047 A 0.125 0.11153 350.06648 0 0 3.69337 16.3336 A 0.125 0.11153 350.06648 0 0 3.69982 16.35539" />
    <path d="M 2.64195 15.12239 A 0.125 0.00871 268.00369 0 1 2.63759 14.88559 L 2.73729 14.88212" />
    <path d="M 2.63759 14.88559 A 0.125 0.00871 268.00369 0 1 2.6463 15.13544 L 2.746 15.13197" />
    <path d="M 2.6463 15.13544 A 0.125 0.00871 268.00369 0 1 2.64195 15.12239" />
    <path d="M 2.64195 16.01736 A 0.125 0.00871 268.00369 0 1 2.63759 15.78056 L 2.73729 15.77709" />
    <path d="M 2.63759 15.78056 A 0.125 0.00871 268.00369 0 1 2.6463 16.03041 L 2.746 16.02694" />
    <path d="M 2.6463 16.03041 A 0.125 0.00871 268.00369 0 1 2.64195 16.01736" />
    <path d="M 3.82429 15.57341 A 0.125 0.11153 170.06648 0 1 3.70116 15.48311 L 3.69337 15.43863" />
    <path d="M 3.70116 15.48311 A 0.125 0.11153 170.06648 0 1 3.94742 15.43998 L 3.93963 15.3955" />
    <path d="M 3.94742 15.43998 A 0.125 0.11153 170.06648 0 1 3.82429 15.57341" />
    <path d="M 3.82429 16.46838 A 0.125 0.11153 170.06648 0 1 3.70116 16.37807 L 3.69337 16.3336" />
    <path d="M 3.70116 16.37807 A 0.125 0.11153 170.06648 0 1 3.94742 16.33495 L 3.93963 16.29047" />
    <path d="M 3.94742 16.33495 A 0.125 0.11153 170.06648 0 1 3.82429 16.46838" />
    <path d="M 2.83636 16.79368 A 0.905 0.40375 180 0 0 4.41519 17.03038" />
    <path d="M -2.49286 -20.83324 A 0.75 0.66919 350.06648 0 0 -3.23162 -20.03263 L 0.19713 -0.45444" />
    <path d="M -1.7541 -20.29139 A 0.75 0.66919 350.06648 0 0 -2.49286 -20.83324" />
    <path d="M 4.48861 20.90146 A 0.75 0.3346 360 0 1 2.98861 20.90146" />
    <path d="M 4.64086 20.87001 A 0.905 0.40375 360 0 1 4.64361 20.90146 L 4.64361 21.34895 A 0.905 0.40375 360 0 1 2.83361 21.34895" />
    <path d="M 4.64361 20.90146 A 0.905 0.40375 360 0 1 2.83361 20.90146 L 2.83361 21.34895" />
    <path d="M 2.83361 20.90146 A 0.905 0.40375 360 0 1 2.98861 20.67551" />
    <path d="M 4.48861 20.67551 A 0.905 0.40375 360 0 1 4.64086 20.87001" />
    <path d="M 4.64086 21.3175 A 0.905 0.40375 360 0 1 4.64361 21.34895" />
    <path d="M 2.81954 21.82847 L 4.81346 21.75897 L 4.65767 20.86943 L 4.64086 20.87001" />
    <path d="M 2.66375 20.93893 L 2.81954 21.82847" />
    <path d="M 2.83361 20.93301 L 2.66375 20.93893" />
    <path d="M 2.81954 23.61841 L 2.81954 21.82847" />
    <path d="M 2.81954 23.61841 L 3.21549 23.60461" />
    <path d="M 4.72908 23.55185 L 4.81346 23.54891 L 4.81346 21.75897" />
    <path d="M 2.91425 22.72014 A 0.905 0.80749 170.06648 0 1 4.70793 22.53257" />
    <path d="M 2.92507 22.84481 A 0.905 0.80749 170.06648 0 1 2.91425 22.72014" />
    <path d="M 2.66375 22.60379 L 2.66375 21.95897" />
    <path d="M 2.66375 21.70882 L 2.66375 20.93893" />
    <path d="M 2.68552 22.85318 L 2.81954 23.61841" />
    <path d="M 2.74164 21.94305 A 0.125 0.00871 88.00369 0 0 2.746 21.95611 A 0.125 0.00871 88.00369 0 0 2.73729 21.70626" />
    <path d="M 2.74164 22.83802 A 0.125 0.00871 88.00369 0 0 2.746 22.85108 A 0.125 0.00871 88.00369 0 0 2.73729 22.60123" />
    <path d="M 2.9532 22.94253 A 0.905 0.80749 170.06648 0 1 4.74688 22.75496 L 4.70793 22.53257" />
    <path d="M 4.74688 22.75496 A 0.905 0.80749 170.06648 0 1 4.67216 23.22683" />
    <path d="M 3.19465 23.48559 A 0.905 0.80749 170.06648 0 1 2.96401 23.06719 L 2.92507 22.84481" />
    <path d="M 2.96401 23.06719 A 0.905 0.80749 170.06648 0 1 2.9532 22.94253" />
    <path d="M 2.64195 21.94653 A 0.125 0.00871 268.00369 0 1 2.63759 21.70973 L 2.73729 21.70626" />
    <path d="M 2.63759 21.70973 A 0.125 0.00871 268.00369 0 1 2.6463 21.95958 L 2.746 21.95611" />
    <path d="M 2.6463 21.95958 A 0.125 0.00871 268.00369 0 1 2.64195 21.94653" />
    <path d="M 2.64195 22.8415 A 0.125 0.00871 268.00369 0 1 2.63759 22.6047 L 2.73729 22.60123" />
    <path d="M 2.63759 22.6047 A 0.125 0.00871 268.00369 0 1 2.6463 22.85455 L 2.746 22.85108" />
    <path d="M 2.6463 22.85455 A 0.125 0.00871 268.00369 0 1 2.64195 22.8415" />
    <path d="M 4.83526 21.87008 A 0.125 0.00871 88.00369 0 0 4.83962 21.88313 L 4.81346 21.88404" />
    <path d="M 4.83962 21.88313 A 0.125 0.00871 88.00369 0 0 4.83091 21.63328 L 4.79169 21.63465" />
    <path d="M 4.83526 22.76505 A 0.125 0.00871 88.00369 0 0 4.83962 22.7781 L 4.81346 22.77901" />
    <path d="M 4.83962 22.7781 A 0.125 0.00871 88.00369 0 0 4.83091 22.52825 L 4.81346 22.52886" />
    <path d="M 2.83636 23.61782 A 0.905 0.40375 180 0 0 3.27293 23.93256" />
    <path d="M 3.85545 22.23985 A 0.75 0.66919 170.06648 0 1 4.5942 22.7817" />
    <path d="M 3.11669 23.04046 A 0.75 0.66919 170.06648 0 1 3.85545 22.23985" />
    <path d="M 9.97007 57.15448 A 0.75 0.66919 170.06648 0 1 10.70883 57.69633 L 4.5942 22.7817" />
    <path d="M 10.70883 57.69633 A 0.75 0.66919 170.06648 1 1 9.23132 57.95508 L 3.11669 23.04046" />
    <path d="M 9.23132 57.95508 A 0.75 0.66919 170.06648 0 1 9.97007 57.15448" />
    <path d="M 2.98861 35.66846 A 0.75 0.3346 180 1 0 4.48861 35.66846" />
    <path d="M 10.70883 44.27179 L 4.5942 9.35716" />
    <path d="M 9.23132 44.53054 L 3.11669 9.61592" />
    <path d="M 4.74688 9.33042 L 4.70793 9.10803" />
    <path d="M 2.96401 9.64265 L 2.92507 9.42027" />
    <path d="M 2.6463 8.53504 L 2.746 8.53157" />
    <path d="M 2.63759 8.2852 L 2.73729 8.28172" />
    <path d="M 2.6463 9.43001 L 2.746 9.42654" />
    <path d="M 2.63759 9.18016 L 2.73729 9.17669" />
    <path d="M 2.83361 7.47692 L 2.83361 7.92441" />
    <path d="M 4.64361 7.47692 L 4.64361 7.92441" />
    <path d="M 4.83962 8.45859 L 4.81346 8.4595" />
    <path d="M 4.83962 9.35356 L 4.81346 9.35447" />
    <path d="M 2.98861 10.38779 L 2.98861 12.84674" />
    <path d="M 2.98861 -35.92908 L 2.98861 7.47692" />
    <path d="M 4.48861 -35.92908 L 4.48861 7.47692" />
    <path d="M 6.23861 12.84674 L 6.23861 13.29423" />
    <path d="M 2.83361 14.3339 L 2.83361 14.52481" />
    <path d="M -1.7541 -20.29139 L 1.71072 -0.5072" />
    <path d="M 2.98861 16.98819 L 2.98861 20.90146" />
    <path d="M 4.48861 17.44958 L 4.48861 20.90146" />
    <path d="M 2.98861 23.81233 L 2.98861 35.66846" />
    <path d="M 4.48861 30.87412 L 4.48861 35.66846" />
</svg>