<svg version="1.1" xmlns="http://www.w3.org/2000/svg" viewBox="-2.970801768320495 -27.26220889078668 5.6227349450409845 38.43759296753477" fill="none" stroke="black" stroke-width="0.6%" vector-effect="non-scaling-stroke">
    <path d="M -0.99826 -26.26111 A 0.65 0.54362 360 0 1 -0.30693 -25.71859 A 0.65 0.54362 360 0 1 -1.60693 -25.71859 A 0.65 0.54362 360 0 1 -0.99826 -26.26111 Z" />
    <path d="M -1.60693 0.5958 A 0.65 0.54362 180 0 0 -0.34667 0.78297" />
    <path d="M -1.60693 -18.04356 A 0.65 0.54362 180 1 0 -0.30693 -18.04356" />
    <path d="M 0.03661 -14.43708 L 0.15232 -14.44324 L 0.15232 -16.63611 L 0.02515 -18.3054 L -0.30693 -18.2877" />
    <path d="M -1.9708 -18.19904 L -1.84363 -16.52976 L 0.15232 -16.63611" />
    <path d="M -1.60693 -18.21843 L -1.9708 -18.19904" />
    <path d="M -1.9708 -16.00618 L -1.9708 -18.19904" />
    <path d="M -1.84363 -14.33689 L -1.56154 -14.35192" />
    <path d="M -1.9708 -16.00618 L -1.84363 -14.33689 L -1.84363 -16.52976" />
    <path d="M 0.99826 9.45553 A 0.655 0.35836 175.64362 0 1 1.65137 9.76486 L -0.12517 -13.55537" />
    <path d="M 1.65137 9.76486 A 0.655 0.35836 175.64362 1 1 0.34515 9.86437 L -1.44184 -13.59305" />
    <path d="M 0.34515 9.86437 A 0.655 0.35836 175.64362 0 1 0.99826 9.45553" />
    <path d="M -1.64404 -15.44396 A 0.8 0.43769 355.64362 0 0 -1.64335 -15.42573" />
    <path d="M -0.04797 -15.54727 A 0.8 0.43769 355.64362 0 0 -1.64404 -15.44396" />
    <path d="M -1.51687 -13.77467 A 0.8 0.43769 175.64362 0 1 0.0792 -13.87798 L -0.04797 -15.54727" />
    <path d="M 0.0792 -13.87798 A 0.8 0.43769 175.64362 1 1 -1.51618 -13.75644 L -1.64335 -15.42573" />
    <path d="M -1.51618 -13.75644 A 0.8 0.43769 175.64362 0 1 -1.51687 -13.77467" />
    <path d="M -1.60693 -25.71859 L -1.60693 -18.04356" />
    <path d="M -1.60693 -14.3495 L -1.60693 0.5958" />
    <path d="M -0.30693 -25.71859 L -0.30693 -18.04356" />
</svg>