<svg version="1.1" xmlns="http://www.w3.org/2000/svg" viewBox="-13.0559498577788 -26.20254896144636 24.50093448323165 42.503311316823385" fill="none" stroke="black" stroke-width="0.6%" vector-effect="non-scaling-stroke">
    <path d="M 2.49811 -7.79607 L 2.49811 -9.30887" />
    <path d="M 4.85394 -7.04026 L 4.85394 -8.79165 L 4.65701 -9.2633" />
    <path d="M 2.60897 -9.28196 L 2.8934 -8.60078 L 4.85394 -8.79165" />
    <path d="M 4.48103 -9.16956 A 0.805 0.38871 360 0 1 2.87103 -9.16956" />
    <path d="M 2.8934 -6.84939 L 2.8934 -8.60078" />
    <path d="M 2.49811 -7.79607 L 2.8934 -6.84939 L 4.85394 -7.04026" />
    <path d="M 2.91642 -6.85164 A 0.805 0.38871 180 0 0 4.48103 -6.98032" />
    <path d="M 4.33103 -2.93023 A 0.655 0.31628 0 0 1 3.02103 -2.93023" />
    <path d="M 1.22534 -10.13505 A 2.5 1.20716 180 0 0 6.17603 -10.37364" />
    <path d="M -6.12672 -9.4193 L 1.22534 -10.13505 L 1.22534 -10.5729" />
    <path d="M -12.05595 -23.61949 L -6.12672 -9.4193 L -6.12672 -9.85715 L 1.22534 -10.5729" />
    <path d="M 2.88691 -2.85341 A 0.805 0.38871 0 0 1 2.87103 -2.93023 A 0.805 0.38871 0 0 1 3.02103 -3.1562" />
    <path d="M 4.33103 -3.1562 A 0.805 0.38871 0 0 1 4.48103 -2.93023 A 0.805 0.38871 0 0 1 2.88691 -2.85341" />
    <path d="M 5.34012 -11.71236 L 4.33103 -14.12907" />
    <path d="M 3.57477 -15.94028 L -0.29266 -25.20255 L -12.05595 -24.05734 L -6.12672 -9.85715" />
    <path d="M 5.34012 -11.71236 A 2.5 1.20716 360 0 1 6.17603 -10.81149 A 2.5 1.20716 360 0 1 1.22534 -10.5729" />
    <path d="M -12.05595 -23.61949 L -12.05595 -24.05734" />
    <path d="M 2.88691 -2.41556 A 0.805 0.38871 360 0 1 2.87103 -2.49238" />
    <path d="M 4.48103 -2.49238 A 0.805 0.38871 360 0 1 2.88691 -2.41556" />
    <path d="M 4.33103 -10.81149 A 0.655 0.31628 0 0 1 3.02103 -10.81149" />
    <path d="M 2.8934 -1.92361 L 4.85394 -2.11448 L 4.45866 -3.06116 L 4.43564 -3.05892" />
    <path d="M 2.87103 -2.90659 L 2.49811 -2.87029 L 2.8934 -1.92361" />
    <path d="M 3.54657 -15.93785 A 0.655 0.31628 0 0 1 4.33103 -15.62781 L 4.33103 -10.81149" />
    <path d="M 4.33103 -15.62781 A 0.655 0.31628 0 0 1 3.02103 -15.62781 L 3.02103 -10.81149" />
    <path d="M 3.02103 -15.62781 A 0.655 0.31628 0 0 1 3.54657 -15.93785" />
    <path d="M 2.8934 -0.17222 L 2.8934 -1.92361" />
    <path d="M 4.85394 -0.49559 L 4.85394 -2.11448" />
    <path d="M 2.8934 -0.17222 L 3.54295 -0.23546" />
    <path d="M 3.08455 -1.06652 A 0.805 0.69103 157.33722 0 1 4.61652 -1.45352" />
    <path d="M 3.13083 -0.83318 A 0.805 0.69103 157.33722 0 1 3.08455 -1.06652" />
    <path d="M 2.49811 -1.1189 L 2.49811 -2.87029" />
    <path d="M 2.49811 -1.1189 L 2.8934 -0.17222" />
    <path d="M 3.18337 -0.82985 A 0.805 0.69103 157.33722 0 1 4.71534 -1.21685 L 4.61652 -1.45352" />
    <path d="M 4.71534 -1.21685 A 0.805 0.69103 157.33722 0 1 4.7317 -0.78835" />
    <path d="M 3.52285 -0.2836 A 0.805 0.69103 157.33722 0 1 3.22965 -0.59651 L 3.13083 -0.83318" />
    <path d="M 3.22965 -0.59651 A 0.805 0.69103 157.33722 0 1 3.18337 -0.82985" />
    <path d="M 2.91642 -0.17446 A 0.805 0.38871 180 0 0 3.67699 0.08556" />
    <path d="M 3.97249 -1.48026 A 0.655 0.56227 157.33722 0 1 4.57692 -1.15905" />
    <path d="M 3.36806 -0.6543 A 0.655 0.56227 157.33722 0 1 3.97249 -1.48026" />
    <path d="M 9.8029 12.48326 A 0.655 0.56227 157.33722 0 1 10.40733 12.80447 L 4.57692 -1.15905" />
    <path d="M 10.40733 12.80447 A 0.655 0.56227 157.33722 1 1 9.19848 13.30922 L 3.36806 -0.6543" />
    <path d="M 9.19848 13.30922 A 0.655 0.56227 157.33722 0 1 9.8029 12.48326" />
    <path d="M 3.02103 11.51874 A 0.655 0.31628 180 0 0 4.33103 11.51874" />
    <path d="M 4.45866 12.15404 L 4.43564 12.15629" />
    <path d="M 2.87103 12.30861 L 2.49811 12.34491 L 2.8934 13.29159 L 4.85394 13.10072 L 4.45866 12.15404" />
    <path d="M 2.49811 14.0963 L 2.49811 12.34491" />
    <path d="M 4.85394 14.85211 L 4.85394 13.10072" />
    <path d="M 4.48103 12.72282 A 0.805 0.38871 360 0 1 2.87103 12.72282" />
    <path d="M 2.8934 15.04298 L 2.8934 13.29159" />
    <path d="M 2.49811 14.0963 L 2.8934 15.04298 L 4.85394 14.85211" />
    <path d="M 4.46515 12.20815 A 0.805 0.38871 0 0 1 4.48103 12.28497 L 4.48103 12.72282" />
    <path d="M 4.48103 12.28497 A 0.805 0.38871 0 0 1 2.87103 12.28497 L 2.87103 12.72282" />
    <path d="M 2.87103 12.28497 A 0.805 0.38871 0 0 1 4.46515 12.20815" />
    <path d="M 2.91642 15.04074 A 0.805 0.38871 180 0 0 4.48103 14.91206" />
    <path d="M -2.45085 -1.6486 A 0.655 0.56227 337.33722 0 0 -3.05527 -0.82264 L 2.49811 12.47741" />
    <path d="M -1.84642 -1.3274 A 0.655 0.56227 337.33722 0 0 -2.45085 -1.6486" />
    <path d="M 2.87103 -9.23077 L 2.87103 -9.16956" />
    <path d="M 4.48103 -9.23077 L 4.48103 -9.16956" />
    <path d="M 4.48103 -7.00396 L 4.48103 -6.98032" />
    <path d="M 3.02103 -6.75435 L 3.02103 -2.93023" />
    <path d="M 4.33103 -6.75435 L 4.33103 -2.93023" />
    <path d="M 6.17603 -10.81149 L 6.17603 -10.37364" />
    <path d="M 2.87103 -2.93023 L 2.87103 -2.49238" />
    <path d="M 4.48103 -2.93023 L 4.48103 -2.49238" />
    <path d="M 3.02103 -0.07718 L 3.02103 11.51874" />
    <path d="M 4.33103 1.65195 L 4.33103 11.51874" />
    <path d="M 4.48103 14.88842 L 4.48103 14.91206" />
    <path d="M -1.84642 -1.3274 L 3.02103 10.32988" />
    <path d="M 3.64938 11.83475 L 3.67507 11.89626" />
</svg>