<svg version="1.1" xmlns="http://www.w3.org/2000/svg" viewBox="-13.056004035275608 -23.422651236037186 24.594171460748285 38.59654644258323" fill="none" stroke="black" stroke-width="0.6%" vector-effect="non-scaling-stroke">
    <path d="M 5.34011 -10.12673 L 4.42603 -12.12208" />
    <path d="M 3.32068 -14.53496 L -0.29271 -22.42265 L -12.056 -21.37882 L -6.12671 -8.43574 L 1.22534 -9.08813" />
    <path d="M 1.22534 -8.63916 L 1.22534 -9.08813" />
    <path d="M 5.34011 -10.12673 A 2.5 1.10029 360 0 1 6.17603 -9.3056 A 2.5 1.10029 360 0 1 1.22534 -9.08813" />
    <path d="M 1.22534 -8.63916 A 2.5 1.10029 180 0 0 6.17603 -8.85663" />
    <path d="M -12.056 -20.92985 L -12.056 -21.37882" />
    <path d="M -6.12671 -7.98677 L 1.22534 -8.63916" />
    <path d="M -12.056 -20.92985 L -6.12671 -7.98677 L -6.12671 -8.43574" />
    <path d="M 4.42603 -9.3056 A 0.75 0.33009 360 0 1 2.92603 -9.3056" />
    <path d="M 3.40771 -7.76269 A 0.75 0.33009 180 0 0 3.94435 -7.76269" />
    <path d="M 3.5278 -14.56785 A 0.75 0.33009 360 0 1 4.42603 -14.24427 A 0.75 0.33009 360 0 1 2.92603 -14.24427 A 0.75 0.33009 360 0 1 3.5278 -14.56785 Z" />
    <path d="M 4.32718 -7.79431 A 0.905 0.39831 360 0 1 3.02488 -7.79431" />
    <path d="M 2.78888 -7.54324 A 0.905 0.39831 360 0 1 2.77103 -7.62196" />
    <path d="M 4.58103 -7.62196 A 0.905 0.39831 360 0 1 2.78888 -7.54324" />
    <path d="M 4.85394 -7.27751 L 4.59899 -7.83406" />
    <path d="M 2.53922 -7.87667 L 2.8934 -7.10354 L 4.85394 -7.27751" />
    <path d="M 2.49811 -6.17053 L 2.49811 -7.88612" />
    <path d="M 4.85394 -5.48163 L 4.85394 -7.27751" />
    <path d="M 2.49811 -6.17053 L 2.8934 -5.30766 L 4.85394 -5.48163" />
    <path d="M 2.8934 -5.30766 L 2.8934 -7.10354" />
    <path d="M 2.69575 -6.97376 A 0.125 0.02218 84.92905 0 0 2.7068 -6.96149 A 0.125 0.02218 84.92905 0 0 2.68471 -7.21052" />
    <path d="M 2.69575 -6.07582 A 0.125 0.02218 84.92905 0 0 2.7068 -6.06355 A 0.125 0.02218 84.92905 0 0 2.68471 -6.31258" />
    <path d="M 3.98731 -6.79362 A 0.125 0.11003 335.38724 1 0 3.76003 -6.6895" />
    <path d="M 3.98731 -5.89568 A 0.125 0.11003 335.38724 1 0 3.76003 -5.79155" />
    <path d="M 2.49811 -7.38489 A 0.905 0.79661 335.38724 0 0 2.49811 -7.20102" />
    <path d="M 2.59773 -6.96506 A 0.125 0.02218 264.92905 0 1 2.58668 -7.20182 L 2.68471 -7.21052" />
    <path d="M 2.58668 -7.20182 A 0.125 0.02218 264.92905 0 1 2.60877 -6.9528 L 2.7068 -6.96149" />
    <path d="M 2.60877 -6.9528 A 0.125 0.02218 264.92905 0 1 2.59773 -6.96506" />
    <path d="M 2.59773 -6.06712 A 0.125 0.02218 264.92905 0 1 2.58668 -6.30388 L 2.68471 -6.31258" />
    <path d="M 2.58668 -6.30388 A 0.125 0.02218 264.92905 0 1 2.60877 -6.05486 L 2.7068 -6.06355" />
    <path d="M 2.60877 -6.05486 A 0.125 0.02218 264.92905 0 1 2.59773 -6.06712" />
    <path d="M 3.89344 -6.58617 A 0.125 0.11003 155.38724 0 1 3.77979 -6.64635 L 3.76003 -6.6895" />
    <path d="M 3.77979 -6.64635 A 0.125 0.11003 155.38724 1 1 4.00708 -6.75047 L 3.98731 -6.79362" />
    <path d="M 4.00708 -6.75047 A 0.125 0.11003 155.38724 0 1 3.89344 -6.58617" />
    <path d="M 3.89344 -5.68823 A 0.125 0.11003 155.38724 0 1 3.77979 -5.74841 L 3.76003 -5.79155" />
    <path d="M 3.77979 -5.74841 A 0.125 0.11003 155.38724 1 1 4.00708 -5.85253 L 3.98731 -5.89568" />
    <path d="M 4.00708 -5.85253 A 0.125 0.11003 155.38724 0 1 3.89344 -5.68823" />
    <path d="M 2.78888 -5.29839 A 0.905 0.39831 180 0 0 4.58103 -5.37711" />
    <path d="M 2.77103 -5.37711 A 0.905 0.39831 180 0 0 2.78888 -5.29839" />
    <path d="M 4.42603 -1.22414 A 0.75 0.33009 360 0 1 2.92603 -1.22414" />
    <path d="M 4.56318 -1.30286 A 0.905 0.39831 360 0 1 4.58103 -1.22414 L 4.58103 -0.77517 A 0.905 0.39831 360 0 1 2.77103 -0.77517" />
    <path d="M 4.58103 -1.22414 A 0.905 0.39831 360 0 1 2.77103 -1.22414 L 2.77103 -0.77517" />
    <path d="M 2.77103 -1.22414 A 0.905 0.39831 360 0 1 2.92603 -1.44705" />
    <path d="M 4.42603 -1.44705 A 0.905 0.39831 360 0 1 4.56318 -1.30286" />
    <path d="M 2.8934 -0.25675 L 4.85394 -0.43072 L 4.58103 -1.02647" />
    <path d="M 2.49811 -1.11962 L 2.8934 -0.25675" />
    <path d="M 2.77103 -1.14384 L 2.49811 -1.11962" />
    <path d="M 2.8934 1.53913 L 2.8934 -0.25675" />
    <path d="M 2.8934 1.53913 L 3.476 1.48744" />
    <path d="M 4.85394 0.89326 L 4.85394 0.78364" />
    <path d="M 4.85394 0.59977 L 4.85394 -0.43072" />
    <path d="M 2.98652 0.63293 A 0.905 0.79661 155.38724 0 1 4.69645 0.17729" />
    <path d="M 3.0509 0.93113 A 0.905 0.79661 155.38724 0 1 2.98652 0.63293" />
    <path d="M 2.49811 0.67626 L 2.49811 -1.11962" />
    <path d="M 2.49811 0.67626 L 2.8934 1.53913" />
    <path d="M 2.69575 -0.12697 A 0.125 0.02218 84.92905 0 0 2.7068 -0.1147 A 0.125 0.02218 84.92905 0 0 2.68471 -0.36372" />
    <path d="M 2.69575 0.77097 A 0.125 0.02218 84.92905 0 0 2.7068 0.78324 A 0.125 0.02218 84.92905 0 0 2.68471 0.53422" />
    <path d="M 3.08534 0.84865 A 0.905 0.79661 155.38724 0 1 4.79527 0.39301 L 4.69645 0.17729" />
    <path d="M 4.79527 0.39301 A 0.905 0.79661 155.38724 0 1 4.84003 0.86288" />
    <path d="M 3.47631 1.4876 A 0.905 0.79661 155.38724 0 1 3.14972 1.14684 L 3.0509 0.93113" />
    <path d="M 3.14972 1.14684 A 0.905 0.79661 155.38724 0 1 3.08534 0.84865" />
    <path d="M 2.59773 -0.11827 A 0.125 0.02218 264.92905 0 1 2.58668 -0.35502 L 2.68471 -0.36372" />
    <path d="M 2.58668 -0.35502 A 0.125 0.02218 264.92905 0 1 2.60877 -0.106 L 2.7068 -0.1147" />
    <path d="M 2.60877 -0.106 A 0.125 0.02218 264.92905 0 1 2.59773 -0.11827" />
    <path d="M 2.59773 0.77967 A 0.125 0.02218 264.92905 0 1 2.58668 0.54292 L 2.68471 0.53422" />
    <path d="M 2.58668 0.54292 A 0.125 0.02218 264.92905 0 1 2.60877 0.79194 L 2.7068 0.78324" />
    <path d="M 2.60877 0.79194 A 0.125 0.02218 264.92905 0 1 2.59773 0.77967" />
    <path d="M 2.77103 1.46968 A 0.905 0.39831 180 0 0 3.6505 1.86783" />
    <path d="M 3.97249 0.09647 A 0.75 0.66017 155.38724 0 1 4.65435 0.45756" />
    <path d="M 3.29063 1.08229 A 0.75 0.66017 155.38724 0 1 3.97249 0.09647" />
    <path d="M 9.80296 12.82383 A 0.75 0.66017 155.38724 0 1 10.48482 13.18492 L 4.65435 0.45756" />
    <path d="M 10.48482 13.18492 A 0.75 0.66017 155.38724 0 1 9.1211 13.80965 L 3.29063 1.08229" />
    <path d="M 9.1211 13.80965 A 0.75 0.66017 155.38724 0 1 9.80296 12.82383" />
    <path d="M 2.92603 13.59187 A 0.75 0.33009 180 1 0 4.42603 13.59187" />
    <path d="M 6.17603 -9.3056 L 6.17603 -8.85663" />
    <path d="M 2.92603 -14.24427 L 2.92603 -9.3056" />
    <path d="M 4.42603 -14.24427 L 4.42603 -9.3056" />
    <path d="M 2.77103 -7.83096 L 2.77103 -7.62196" />
    <path d="M 4.58103 -7.83096 L 4.58103 -7.62196" />
    <path d="M 2.77103 -5.57478 L 2.77103 -5.37711" />
    <path d="M 4.58103 -5.45741 L 4.58103 -5.37711" />
    <path d="M 2.29417 -7.9397 L 2.49811 -7.49451" />
    <path d="M 2.92603 -5.1542 L 2.92603 -1.22414" />
    <path d="M 4.42603 -5.1542 L 4.42603 -1.22414" />
    <path d="M 2.77103 1.27201 L 2.77103 1.46968" />
    <path d="M 2.92603 1.69259 L 2.92603 13.59187" />
    <path d="M 4.42603 3.56074 L 4.42603 13.59187" />
</svg>