<svg version="1.1" xmlns="http://www.w3.org/2000/svg" viewBox="-3.1283622780536033 -22.965086963049476 5.879443851972296 35.90779728103192" fill="none" stroke="black" stroke-width="0.6%" vector-effect="non-scaling-stroke">
    <path d="M -1.67739 0.81363 A 0.655 0.45446 180 0 0 -0.58025 1.14893" />
    <path d="M -1.63245 -8.54382 A 0.805 0.55853 180 0 0 -1.53109 -8.47535" />
    <path d="M -1.95166 -8.52864 L -1.5383 -8.5483" />
    <path d="M -0.22808 -8.61061 L 0.04366 -8.62354 L 0.04366 -10.06381 L -0.09312 -11.44823 L -0.36739 -11.43518" />
    <path d="M -2.08843 -9.91305 L -2.06776 -9.70379" />
    <path d="M -2.04315 -9.45467 L -1.95166 -8.52864 L -1.95166 -9.96891 L 0.04366 -10.06381" />
    <path d="M -1.75712 -9.25803 A 0.805 0.57835 174.35773 0 1 -0.1529 -9.37537" />
    <path d="M -1.7551 -9.21708 A 0.805 0.57835 174.35773 0 1 -1.75712 -9.25803" />
    <path d="M -1.69842 -11.37188 L -2.08843 -11.35333 L -1.95166 -9.96891" />
    <path d="M -2.08843 -9.91305 L -2.08843 -10.17266" />
    <path d="M -2.08843 -10.42294 L -2.08843 -11.35333" />
    <path d="M -2.01411 -10.17619 A 0.125 0.00616 87.27703 0 0 -2.02599 -10.42591" />
    <path d="M -2.01411 -9.45605 A 0.125 0.00616 87.27703 0 0 -2.02599 -9.70577" />
    <path d="M -1.8255 -10.67037 A 0.805 0.55853 0 0 1 -1.82739 -10.70857" />
    <path d="M -0.21739 -10.70857 A 0.805 0.55853 0 0 1 -1.8255 -10.67037" />
    <path d="M -1.72292 -8.91192 A 0.805 0.57835 174.35773 0 1 -0.11871 -9.02927 L -0.1529 -9.37537" />
    <path d="M -0.11871 -9.02927 A 0.805 0.57835 174.35773 0 1 -0.23492 -8.67993" />
    <path d="M -1.53858 -8.55113 A 0.805 0.57835 174.35773 0 1 -1.72091 -8.87098 L -1.7551 -9.21708" />
    <path d="M -1.72091 -8.87098 A 0.805 0.57835 174.35773 0 1 -1.72292 -8.91192" />
    <path d="M 0.08097 -10.27584 A 0.125 0.00616 87.27703 1 0 0.0691 -10.52555 L -0.00163 -10.52219" />
    <path d="M 0.08097 -9.5557 A 0.125 0.00616 87.27703 1 0 0.0691 -9.80542 L 0.04366 -9.80421" />
    <path d="M -2.11981 -10.20629 A 0.125 0.00616 267.27703 0 1 -2.12575 -10.42116 L -2.02599 -10.42591" />
    <path d="M -2.12575 -10.42116 A 0.125 0.00616 267.27703 0 1 -2.11387 -10.17145 L -2.01411 -10.17619" />
    <path d="M -2.11387 -10.17145 A 0.125 0.00616 267.27703 0 1 -2.11981 -10.20629" />
    <path d="M -2.11981 -9.48615 A 0.125 0.00616 267.27703 0 1 -2.12575 -9.70103 L -2.02599 -9.70577" />
    <path d="M -2.12575 -9.70103 A 0.125 0.00616 267.27703 0 1 -2.11387 -9.45131 L -2.01411 -9.45605" />
    <path d="M -2.11387 -9.45131 A 0.125 0.00616 267.27703 0 1 -2.11981 -9.48615" />
    <path d="M -1.8255 -11.03044 A 0.805 0.55853 360 0 1 -1.82739 -11.06864 L -1.82739 -10.70857" />
    <path d="M -1.82739 -11.06864 A 0.805 0.55853 360 0 1 -1.67739 -11.39333" />
    <path d="M -0.36739 -11.39333 A 0.805 0.55853 360 0 1 -0.21739 -11.06864 L -0.21739 -10.70857" />
    <path d="M -0.21739 -11.06864 A 0.805 0.55853 360 0 1 -1.8255 -11.03044" />
    <path d="M -0.91981 -9.42181 A 0.655 0.47059 174.35773 0 1 -0.26798 -9.01452" />
    <path d="M -1.57163 -8.88572 A 0.655 0.47059 174.35773 0 1 -0.91981 -9.42181" />
    <path d="M -0.36739 -11.06864 A 0.655 0.45446 360 0 1 -1.67739 -11.06864" />
    <path d="M 1.09761 10.99831 A 0.655 0.47059 174.35773 0 1 1.74944 11.4056 L -0.26798 -9.01452" />
    <path d="M 1.74944 11.4056 A 0.655 0.47059 174.35773 0 1 0.44579 11.53439 L -1.57163 -8.88572" />
    <path d="M 0.44579 11.53439 A 0.655 0.47059 174.35773 0 1 1.09761 10.99831" />
    <path d="M -1.06718 -21.96402 A 0.655 0.45446 360 0 1 -0.36739 -21.51063 L -0.36739 -11.06864" />
    <path d="M -0.36739 -21.51063 A 0.655 0.45446 360 0 1 -1.67739 -21.51063 L -1.67739 -11.06864" />
    <path d="M -1.67739 -21.51063 A 0.655 0.45446 360 0 1 -1.06718 -21.96402" />
    <path d="M -1.67739 -8.54168 L -1.67739 0.81363" />
    <path d="M 0.08097 -10.27584 L 0.02298 -10.27308" />
    <path d="M 0.08097 -9.5557 L 0.04366 -9.55392" />
</svg>