<svg version="1.1" xmlns="http://www.w3.org/2000/svg" viewBox="-2.9722216502503604 -24.087437477572514 5.624264509443661 26.965802634155306" fill="none" stroke="black" stroke-width="0.6%" vector-effect="non-scaling-stroke">
    <path d="M -0.99821 -23.08663 A 0.655 0.45268 360 0 1 -0.30407 -22.63476 A 0.655 0.45268 360 0 1 -1.61407 -22.63476 A 0.655 0.45268 360 0 1 -0.99821 -23.08663 Z" />
    <path d="M -1.61407 0.49317 A 0.655 0.45268 180 0 0 -0.30407 0.49317" />
    <path d="M -1.55795 -21.36731 A 0.655 0.45268 180 0 0 -1.12186 -21.11216" />
    <path d="M -0.71409 -21.13081 A 0.655 0.45268 180 0 0 -0.33281 -21.418 A 0.805 0.55635 360 0 1 -0.10924 -21.03323 A 0.805 0.55635 360 0 1 -0.45096 -20.57825 L -0.49189 -21.05071 A 0.655 0.47255 355.04881 0 0 -0.91424 -21.14526 A 0.655 0.47255 355.04881 0 0 -1.3366 -21.01575" />
    <path d="M -1.5322 -18.50844 A 0.805 0.55635 180 0 0 -1.37567 -18.40911" />
    <path d="M -1.97222 -19.87493 L -1.85269 -18.49518 L -1.43714 -18.51237" />
    <path d="M -0.0746 -18.56875 L 0.14373 -18.57779 L 0.14373 -20.02328 L 0.0242 -21.40304 L -0.29629 -21.38977" />
    <path d="M -0.10924 -20.67186 A 0.805 0.55635 360 0 1 -0.23128 -20.37736" />
    <path d="M -0.19937 -20.00909 L 0.14373 -20.02328" />
    <path d="M -0.23361 -20.40431 C -0.23 -20.41 -0.23 -20.41 -0.23495 -20.41654 C -0.24 -20.42 -0.24 -20.42 -0.23678 -20.42815 C -0.24 -20.43 -0.24 -20.44 -0.23909 -20.43914 C -0.24 -20.44 -0.24 -20.45 -0.24188 -20.44952 C -0.24 -20.46 -0.25 -20.46 -0.24813 -20.46689 C -0.25 -20.47 -0.25 -20.48 -0.25583 -20.48243 C -0.26 -20.49 -0.26 -20.49 -0.26087 -20.49055 C -0.26 -20.49 -0.26 -20.5 -0.26635 -20.49814 C -0.27 -20.5 -0.27 -20.5 -0.27226 -20.50525 C -0.27 -20.51 -0.28 -20.51 -0.27859 -20.5119 C -0.28 -20.51 -0.28 -20.52 -0.28533 -20.51813 C -0.29 -20.52 -0.29 -20.52 -0.29248 -20.52395 C -0.29 -20.53 -0.3 -20.53 -0.30003 -20.5294 C -0.3 -20.53 -0.31 -20.53 -0.30797 -20.5345 C -0.31 -20.54 -0.31 -20.54 -0.3163 -20.53927 C -0.32 -20.54 -0.32 -20.54 -0.325 -20.54373 C -0.33 -20.55 -0.33 -20.55 -0.33408 -20.54791 C -0.34 -20.55 -0.34 -20.55 -0.34352 -20.55183 C -0.35 -20.55 -0.35 -20.55 -0.35334 -20.55549 C -0.36 -20.56 -0.36 -20.56 -0.36353 -20.55892 C -0.37 -20.56 -0.37 -20.56 -0.37409 -20.56212 C -0.38 -20.56 -0.38 -20.56 -0.38502 -20.56512 C -0.39 -20.57 -0.4 -20.57 -0.40051 -20.5689 C -0.41 -20.57 -0.41 -20.57 -0.41667 -20.57233 C -0.42 -20.57 -0.43 -20.57 -0.43349 -20.57544 C -0.44 -20.58 -0.45 -20.58 -0.45096 -20.57825" />
    <path d="M -1.29567 -20.5433 L -1.3366 -21.01575" />
    <path d="M -1.29567 -20.5433 A 0.805 0.55635 360 0 1 -1.71924 -21.03323 L -1.71924 -20.67186" />
    <path d="M -1.71924 -21.03323 A 0.805 0.55635 360 0 1 -1.55795 -21.36731" />
    <path d="M -1.29567 -20.5433 C -1.3 -20.54 -1.31 -20.54 -1.31429 -20.53904 C -1.32 -20.54 -1.33 -20.54 -1.3323 -20.53454 C -1.34 -20.53 -1.34 -20.53 -1.3497 -20.52978 C -1.36 -20.53 -1.36 -20.53 -1.36647 -20.52474 C -1.37 -20.52 -1.37 -20.52 -1.37855 -20.52079 C -1.38 -20.52 -1.39 -20.52 -1.39026 -20.51666 C -1.39 -20.52 -1.4 -20.51 -1.4016 -20.51234 C -1.41 -20.51 -1.41 -20.51 -1.41257 -20.50782 C -1.42 -20.51 -1.42 -20.5 -1.42316 -20.50307 C -1.43 -20.5 -1.43 -20.5 -1.43337 -20.49809 C -1.44 -20.5 -1.44 -20.49 -1.4432 -20.49285 C -1.45 -20.49 -1.45 -20.49 -1.45264 -20.48734 C -1.46 -20.49 -1.46 -20.48 -1.46167 -20.48153 C -1.46 -20.48 -1.47 -20.48 -1.47029 -20.4754 C -1.47 -20.47 -1.48 -20.47 -1.47848 -20.46893 C -1.48 -20.47 -1.48 -20.46 -1.48624 -20.4621 C -1.49 -20.46 -1.49 -20.46 -1.49355 -20.45487 C -1.5 -20.45 -1.5 -20.45 -1.5004 -20.44721 C -1.5 -20.44 -1.5 -20.44 -1.50676 -20.4391 C -1.51 -20.44 -1.51 -20.43 -1.51264 -20.43051 C -1.52 -20.43 -1.52 -20.42 -1.52158 -20.41439 C -1.52 -20.41 -1.53 -20.4 -1.52888 -20.39658 C -1.53 -20.39 -1.53 -20.39 -1.53147 -20.38844 C -1.53 -20.39 -1.53 -20.38 -1.53373 -20.37996 C -1.53 -20.38 -1.54 -20.37 -1.53566 -20.37113 C -1.54 -20.37 -1.54 -20.37 -1.53725 -20.36197 C -1.54 -20.36 -1.54 -20.36 -1.5385 -20.35246 C -1.54 -20.35 -1.54 -20.35 -1.53939 -20.34262 C -1.54 -20.34 -1.54 -20.34 -1.53993 -20.33245 C -1.54 -20.33 -1.54 -20.33 -1.5401 -20.32196 A 0.805 0.55635 360 0 1 -1.71924 -20.67186" />
    <path d="M -1.61407 -21.33525 L -1.97222 -21.32043 L -1.85269 -19.94067 L -1.50831 -19.95492 L -1.5401 -20.32196" />
    <path d="M -1.97222 -19.87493 L -1.97222 -21.32043" />
    <path d="M -1.85269 -18.49518 L -1.85269 -19.94067" />
    <path d="M -1.50704 -19.92545 A 0.655 0.47255 175.04881 0 1 -1.50831 -19.95492" />
    <path d="M -0.16252 -19.58366 A 0.805 0.58077 175.04881 0 1 -0.05248 -19.32871" />
    <path d="M -1.65648 -19.18975 A 0.805 0.58077 175.04881 0 1 -1.47881 -19.59968" />
    <path d="M 0.99821 0.93079 A 0.655 0.47255 175.04881 0 1 1.65077 1.34766 L -0.23361 -20.40431" />
    <path d="M 1.65077 1.34766 A 0.655 0.47255 175.04881 0 1 0.34566 1.46072 L -1.50704 -19.92545" />
    <path d="M 0.34566 1.46072 A 0.655 0.47255 175.04881 0 1 0.99821 0.93079" />
    <path d="M -0.13264 -19.23872 A 0.805 0.58077 175.04881 0 1 -0.0226 -18.98377 L -0.05248 -19.32871" />
    <path d="M -0.0226 -18.98377 A 0.805 0.58077 175.04881 0 1 -0.08715 -18.71369" />
    <path d="M -1.38108 -18.47155 A 0.805 0.58077 175.04881 0 1 -1.62659 -18.84482 L -1.65648 -19.18975" />
    <path d="M -1.62659 -18.84482 A 0.805 0.58077 175.04881 0 1 -1.44893 -19.25474" />
    <path d="M -1.61407 -22.63476 L -1.61407 -21.30818" />
    <path d="M -1.61407 -18.50505 L -1.61407 0.49317" />
    <path d="M -0.30407 -22.63476 L -0.30407 -21.39612" />
    <path d="M -0.30407 -6.03923 L -0.30407 0.49317" />
    <path d="M -0.10924 -21.03323 L -0.10924 -20.67186" />
</svg>