<svg version="1.1" xmlns="http://www.w3.org/2000/svg" viewBox="-2.9965498396572663 -23.87514512339712 5.6486950206809325 26.77060164184639" fill="none" stroke="black" stroke-width="0.6%" vector-effect="non-scaling-stroke">
    <path d="M -1.48087 -19.70343 L -1.48087 -19.63879" />
    <path d="M -1.57987 0.89465 A 0.655 0.4485 180 0 0 -0.26987 0.89465" />
    <path d="M -1.8791 -19.68739 L -1.47358 -19.70373" />
    <path d="M -0.16329 -19.75651 L 0.11744 -19.76781 L 0.11744 -21.22539 L 0 -22.5925 L -0.30938 -22.58004" />
    <path d="M -1.99655 -21.05451 L -1.8791 -19.68739 L -1.8791 -21.14498 L 0.11744 -21.22539" />
    <path d="M -1.56534 -19.70003 A 0.805 0.55121 180 0 0 -1.48087 -19.63879" />
    <path d="M -1.68444 -20.42403 A 0.805 0.58566 175.08996 0 1 -0.07878 -20.5253" />
    <path d="M -1.68288 -20.38749 A 0.805 0.58566 175.08996 0 1 -1.68444 -20.42403" />
    <path d="M -1.99655 -21.05451 L -1.99655 -22.51209 L -1.8791 -21.14498" />
    <path d="M -1.62039 -22.52724 L -1.99655 -22.51209" />
    <path d="M -1.48087 -21.46076 A 0.805 0.55121 0 0 1 -1.74455 -21.86874" />
    <path d="M -0.13455 -21.86874 A 0.805 0.55121 0 0 1 -0.33211 -21.50703 A 0.655 0.4485 0 0 1 -1.48087 -21.46076" />
    <path d="M -1.65508 -20.08225 A 0.805 0.58566 175.08996 0 1 -0.04942 -20.18352 L -0.07878 -20.5253" />
    <path d="M -0.04942 -20.18352 A 0.805 0.58566 175.08996 0 1 -0.16973 -19.83146" />
    <path d="M -1.47492 -19.71934 A 0.805 0.58566 175.08996 0 1 -1.65352 -20.04572 L -1.68288 -20.38749" />
    <path d="M -1.65352 -20.04572 A 0.805 0.58566 175.08996 0 1 -1.65508 -20.08225" />
    <path d="M -1.48087 -21.82516 L -1.48087 -21.46076" />
    <path d="M -0.33211 -21.87143 L -0.33211 -21.50703" />
    <path d="M -1.48087 -21.82516 A 0.805 0.55121 360 0 1 -1.74455 -22.23314 L -1.74455 -21.86874" />
    <path d="M -1.74455 -22.23314 A 0.805 0.55121 360 0 1 -1.51859 -22.61606" />
    <path d="M -0.30569 -22.57292 A 0.805 0.55121 360 0 1 -0.13455 -22.23314 L -0.13455 -21.86874" />
    <path d="M -0.13455 -22.23314 A 0.805 0.55121 360 0 1 -0.33211 -21.87143" />
    <path d="M -0.26987 -22.06225 A 0.655 0.4485 0 0 1 -0.33211 -21.87143" />
    <path d="M -0.96333 -22.87437 A 0.655 0.4485 360 0 1 -0.26987 -22.42664 L -0.26987 -22.06225" />
    <path d="M -0.26987 -22.42664 A 0.655 0.4485 360 0 1 -1.57987 -22.42664 L -1.57987 -22.06225" />
    <path d="M -1.57987 -22.42664 A 0.655 0.4485 360 0 1 -0.96333 -22.87437" />
    <path d="M -1.48087 -21.82516 A 0.655 0.4485 0 0 1 -1.57987 -22.06225" />
    <path d="M -0.85147 -20.59197 A 0.655 0.47653 175.08996 0 1 -0.19887 -20.17068" />
    <path d="M -1.50407 -20.05855 A 0.655 0.47653 175.08996 0 1 -0.85147 -20.59197" />
    <path d="M 0.99827 0.94001 A 0.655 0.47653 175.08996 0 1 1.65087 1.36131 L -0.19887 -20.17068" />
    <path d="M 1.65087 1.36131 A 0.655 0.47653 175.08996 1 1 0.34568 1.47343 L -1.50407 -20.05855" />
    <path d="M 0.34568 1.47343 A 0.655 0.47653 175.08996 0 1 0.99827 0.94001" />
    <path d="M -1.57987 -19.69945 L -1.57987 0.89465" />
    <path d="M -0.26987 -5.69189 L -0.26987 0.89465" />
</svg>