<svg version="1.1" xmlns="http://www.w3.org/2000/svg" viewBox="-13.055807945900456 -25.718258231564114 24.500643884909607 41.84938161772031" fill="none" stroke="black" stroke-width="0.6%" vector-effect="non-scaling-stroke">
    <path d="M 3.02103 11.88499 A 0.655 0.31141 180 1 0 4.33103 11.88499" />
    <path d="M 3.03395 -7.56197 C 3.03 -7.56 3.03 -7.56 3.03494 -7.55948 C 3.04 -7.56 3.04 -7.56 3.03595 -7.55659 C 3.04 -7.56 3.04 -7.55 3.03698 -7.55333 C 3.04 -7.55 3.04 -7.55 3.03801 -7.54974 C 3.04 -7.55 3.04 -7.55 3.03902 -7.54583 C 3.04 -7.54 3.04 -7.54 3.04002 -7.54167 C 3.04 -7.54 3.04 -7.54 3.04097 -7.53728 C 3.04 -7.54 3.04 -7.53 3.04187 -7.53271 C 3.04 -7.53 3.04 -7.53 3.04346 -7.52319 C 3.04 -7.52 3.04 -7.52 3.04412 -7.51833 C 3.04 -7.52 3.04 -7.52 3.04468 -7.51346 C 3.04 -7.51 3.04 -7.51 3.04512 -7.50864 C 3.05 -7.51 3.05 -7.51 3.04545 -7.5039 C 3.05 -7.5 3.05 -7.5 3.04564 -7.49929 C 3.05 -7.5 3.05 -7.5 3.04571 -7.49486 C 3.05 -7.49 3.05 -7.49 3.04559 -7.4892 C 3.05 -7.49 3.05 -7.49 3.04523 -7.48405 C 3.05 -7.48 3.04 -7.48 3.04464 -7.47952 C 3.04 -7.48 3.04 -7.48 3.04385 -7.47567 C 3.04 -7.47 3.04 -7.47 3.04287 -7.47257 C 3.04 -7.47 3.04 -7.47 3.04174 -7.47027 C 3.04 -7.47 3.04 -7.47 3.04049 -7.46882 C 3.04 -7.47 3.04 -7.47 3.03916 -7.46825 C 3.04 -7.47 3.04 -7.47 3.03785 -7.46852 C 3.04 -7.47 3.04 -7.47 3.03653 -7.46958 C 3.04 -7.47 3.04 -7.47 3.03522 -7.47142 C 3.03 -7.47 3.03 -7.47 3.03395 -7.47399" />
    <path d="M 3.03395 -8.36956 L 3.03395 -7.56197 L 3.02172 -7.56079 A 0.805 0.69423 157.02004 0 1 2.93492 -7.70512 A 0.805 0.69423 157.02004 0 1 3.03395 -8.36956 C 3.03 -8.37 3.03 -8.37 3.0309 -8.37751 C 3.03 -8.38 3.03 -8.38 3.02826 -8.38599 C 3.03 -8.39 3.03 -8.39 3.02603 -8.39497 C 3.03 -8.4 3.02 -8.4 3.02422 -8.40443 C 3.02 -8.41 3.02 -8.41 3.02282 -8.41434 C 3.02 -8.42 3.02 -8.42 3.02182 -8.42469 C 3.02 -8.43 3.02 -8.43 3.02123 -8.43545 C 3.02 -8.44 3.02 -8.44 3.02103 -8.44656" />
    <path d="M 4.21129 -7.43856 C 4.21 -7.44 4.21 -7.44 4.20795 -7.43805 C 4.21 -7.44 4.21 -7.44 4.20441 -7.43713 C 4.2 -7.44 4.2 -7.44 4.20067 -7.43581 C 4.2 -7.44 4.2 -7.43 4.19676 -7.4341 C 4.2 -7.43 4.19 -7.43 4.1927 -7.43201 C 4.19 -7.43 4.19 -7.43 4.18851 -7.42957 C 4.19 -7.43 4.19 -7.43 4.18423 -7.42678 C 4.18 -7.43 4.18 -7.42 4.17989 -7.42368 C 4.18 -7.42 4.18 -7.42 4.17566 -7.4204 C 4.17 -7.42 4.17 -7.42 4.1714 -7.41683 C 4.17 -7.42 4.17 -7.41 4.16715 -7.41301 C 4.17 -7.41 4.16 -7.41 4.16296 -7.40898 C 4.16 -7.41 4.16 -7.41 4.15889 -7.40477 C 4.16 -7.4 4.16 -7.4 4.15498 -7.40042 C 4.15 -7.4 4.15 -7.4 4.15128 -7.39596 C 4.15 -7.39 4.15 -7.39 4.14782 -7.39143 C 4.15 -7.39 4.15 -7.39 4.14466 -7.38687 C 4.14 -7.39 4.14 -7.38 4.14182 -7.38231 C 4.14 -7.38 4.14 -7.38 4.13935 -7.37777 C 4.14 -7.38 4.14 -7.37 4.13727 -7.3733 C 4.14 -7.37 4.14 -7.37 4.13561 -7.36892 C 4.14 -7.37 4.13 -7.37 4.13441 -7.36466 C 4.13 -7.36 4.13 -7.36 4.13367 -7.36055 C 4.13 -7.36 4.13 -7.36 4.13342 -7.35662 C 4.13 -7.36 4.13 -7.35 4.13357 -7.35372 C 4.13 -7.35 4.13 -7.35 4.13402 -7.35099 C 4.13 -7.35 4.13 -7.35 4.13475 -7.34843 C 4.14 -7.35 4.14 -7.35 4.13576 -7.34605 C 4.14 -7.34 4.14 -7.34 4.14238 -7.33846 C 4.15 -7.33 4.16 -7.33 4.16469 -7.33363 C 4.17 -7.33 4.17 -7.33 4.16843 -7.33414 C 4.17 -7.33 4.17 -7.33 4.17221 -7.33494 C 4.17 -7.34 4.17 -7.34 4.17599 -7.33602 C 4.18 -7.34 4.18 -7.34 4.17973 -7.33736 C 4.18 -7.34 4.18 -7.34 4.18472 -7.33958 C 4.19 -7.34 4.19 -7.34 4.18962 -7.34227" />
    <path d="M 3.85118 -7.29456 C 3.85 -7.3 3.85 -7.3 3.84979 -7.29748 C 3.85 -7.3 3.85 -7.3 3.84814 -7.30027 C 3.85 -7.3 3.85 -7.3 3.84624 -7.3029 C 3.85 -7.3 3.84 -7.3 3.8441 -7.30536 C 3.84 -7.31 3.84 -7.31 3.84174 -7.30764 C 3.84 -7.31 3.84 -7.31 3.83917 -7.30973 C 3.84 -7.31 3.84 -7.31 3.8364 -7.31162 C 3.84 -7.31 3.83 -7.31 3.83345 -7.31329 C 3.83 -7.31 3.83 -7.31 3.83033 -7.31475 C 3.83 -7.32 3.83 -7.32 3.82706 -7.31597 C 3.83 -7.32 3.82 -7.32 3.82367 -7.31696 C 3.82 -7.32 3.82 -7.32 3.82017 -7.31771 C 3.82 -7.32 3.82 -7.32 3.81657 -7.31821 C 3.82 -7.32 3.81 -7.32 3.81291 -7.31847 C 3.81 -7.32 3.81 -7.32 3.80921 -7.31848 C 3.81 -7.32 3.81 -7.32 3.80548 -7.31825 C 3.8 -7.32 3.8 -7.32 3.80069 -7.31758 C 3.8 -7.32 3.8 -7.32 3.79592 -7.31652 C 3.79 -7.32 3.79 -7.32 3.79124 -7.31507 C 3.79 -7.31 3.79 -7.31 3.78668 -7.31323 C 3.79 -7.31 3.78 -7.31 3.7823 -7.31104 C 3.78 -7.31 3.78 -7.31 3.77814 -7.3085 C 3.78 -7.31 3.78 -7.31 3.77425 -7.30564 C 3.77 -7.3 3.77 -7.3 3.77065 -7.30249 C 3.77 -7.3 3.77 -7.3 3.76738 -7.29908 C 3.77 -7.3 3.77 -7.3 3.76448 -7.29542 C 3.76 -7.29 3.76 -7.29 3.76198 -7.29156 C 3.76 -7.29 3.76 -7.29 3.75989 -7.28753 C 3.76 -7.28 3.76 -7.28 3.75609 -7.27045 C 3.76 -7.27 3.76 -7.26 3.75912 -7.25552 L 3.80883 -7.1383" />
    <path d="M 3.32542 -7.3316 C 3.32 -7.33 3.32 -7.33 3.32342 -7.33581 C 3.32 -7.34 3.32 -7.34 3.32099 -7.34002 C 3.32 -7.34 3.32 -7.34 3.31816 -7.34417 C 3.32 -7.35 3.32 -7.35 3.31496 -7.34826 C 3.31 -7.35 3.31 -7.35 3.31139 -7.35224 C 3.31 -7.35 3.31 -7.35 3.30749 -7.3561 C 3.31 -7.36 3.3 -7.36 3.30329 -7.3598 C 3.3 -7.36 3.3 -7.36 3.29881 -7.36334 C 3.3 -7.36 3.3 -7.37 3.2941 -7.36668 C 3.29 -7.37 3.29 -7.37 3.28918 -7.36981 C 3.29 -7.37 3.29 -7.37 3.28409 -7.37271 C 3.28 -7.37 3.28 -7.37 3.27887 -7.37535 C 3.28 -7.38 3.28 -7.38 3.27357 -7.37773 C 3.27 -7.38 3.27 -7.38 3.26821 -7.37982 C 3.27 -7.38 3.26 -7.38 3.26285 -7.38162 C 3.26 -7.38 3.26 -7.38 3.25752 -7.3831 C 3.26 -7.38 3.25 -7.38 3.25248 -7.38423 C 3.25 -7.38 3.25 -7.38 3.2475 -7.38506 C 3.25 -7.39 3.24 -7.39 3.24264 -7.38557 C 3.24 -7.39 3.24 -7.39 3.23794 -7.38576 C 3.24 -7.39 3.23 -7.39 3.23346 -7.38562 C 3.23 -7.39 3.23 -7.39 3.22923 -7.38513 C 3.23 -7.38 3.23 -7.38 3.22529 -7.38431 C 3.22 -7.38 3.22 -7.38 3.22168 -7.38314 C 3.22 -7.38 3.22 -7.38 3.21841 -7.38164 C 3.22 -7.38 3.22 -7.38 3.21553 -7.37979 C 3.21 -7.38 3.21 -7.38 3.21304 -7.37762 C 3.21 -7.38 3.21 -7.38 3.21097 -7.37512 C 3.21 -7.37 3.21 -7.37 3.20718 -7.36207 C 3.21 -7.36 3.21 -7.35 3.21108 -7.34507 L 3.31869 -7.09132" />
    <path d="M 4.33103 -1.73845 C 4.33 -1.74 4.33 -1.73 4.33057 -1.73289 C 4.33 -1.73 4.33 -1.73 4.32922 -1.72826 C 4.33 -1.73 4.33 -1.73 4.32742 -1.725 C 4.33 -1.72 4.33 -1.72 4.32501 -1.72228 C 4.32 -1.72 4.32 -1.72 4.32203 -1.72005 C 4.32 -1.72 4.32 -1.72 4.31849 -1.71825 C 4.32 -1.72 4.31 -1.72 4.31265 -1.71639 C 4.31 -1.72 4.31 -1.72 4.30578 -1.71518 C 4.3 -1.71 4.3 -1.71 4.2979 -1.71451 C 4.3 -1.71 4.29 -1.71 4.28904 -1.7143 C 4.29 -1.71 4.28 -1.71 4.27923 -1.71446 C 4.28 -1.71 4.27 -1.71 4.26847 -1.71493 C 4.26 -1.72 4.26 -1.72 4.25677 -1.71563 C 4.25 -1.72 4.25 -1.72 4.24415 -1.71651 C 4.24 -1.72 4.23 -1.72 4.22754 -1.71775 C 4.22 -1.72 4.22 -1.72 4.20958 -1.71909 C 4.2 -1.72 4.2 -1.72 4.1903 -1.72046 C 4.18 -1.72 4.18 -1.72 4.16972 -1.72178 C 4.16 -1.72 4.16 -1.72 4.14786 -1.723 C 4.14 -1.72 4.13 -1.72 4.12474 -1.72406 C 4.12 -1.72 4.11 -1.72 4.10039 -1.72491 C 4.09 -1.73 4.08 -1.73 4.07484 -1.7255 C 4.07 -1.73 4.06 -1.73 4.04505 -1.7258 C 4.03 -1.73 4.02 -1.73 4.01389 -1.72567 C 4 -1.73 3.99 -1.73 3.98145 -1.72508 C 3.97 -1.72 3.96 -1.72 3.94787 -1.72398 C 3.94 -1.72 3.92 -1.72 3.91326 -1.72235 C 3.9 -1.72 3.89 -1.72 3.87775 -1.72017 C 3.85 -1.72 3.83 -1.72 3.80459 -1.71414 C 3.45 -1.7 3.11 -1.52 3.03395 -1.66145 A 0.805 0.69423 337.02004 0 0 2.88691 -1.23565" />
    <path d="M 4.33103 -7.68721 A 0.805 0.69423 337.02004 0 0 4.46515 -8.09504" />
    <path d="M 2.70068 -9.01442 A 0.805 0.69423 337.02004 0 0 2.63846 -8.4042 L 2.93492 -7.70512" />
    <path d="M 4.33103 -8.47715 A 0.805 0.69423 157.02004 0 1 4.41715 -8.33368 A 0.805 0.69423 157.02004 0 1 4.46515 -8.09504" />
    <path d="M 1.22534 -9.87391 A 2.5 1.18858 180 0 0 6.17603 -10.10881" />
    <path d="M -6.12672 -9.16919 L 1.22534 -9.87391 L 1.22534 -10.31378" />
    <path d="M -12.05581 -23.15083 L -6.12672 -9.16919 L -6.12672 -9.60906 L 1.22534 -10.31378" />
    <path d="M 4.75434 -7.6389 A 0.05 0.00869 84.52474 0 0 4.75911 -7.63311 A 0.05 0.00869 84.52474 0 0 4.74957 -7.73266" />
    <path d="M 4.85315 -7.40587 A 0.05 0.00869 84.52474 0 0 4.85792 -7.40008 A 0.05 0.00869 84.52474 0 0 4.84838 -7.49963" />
    <path d="M 2.93492 -0.99701 A 0.805 0.69423 157.02004 0 1 2.88691 -1.23565" />
    <path d="M 3.18337 -0.53657 A 0.805 0.69423 157.02004 0 1 4.7136 -0.92649 A 0.805 0.69423 157.02004 0 1 4.73307 -0.49637" />
    <path d="M 3.52703 0.01506 A 0.805 0.69423 157.02004 0 1 3.23137 -0.29793 A 0.805 0.69423 157.02004 0 1 3.18337 -0.53657" />
    <path d="M 4.41715 -1.62557 A 0.805 0.69423 337.02004 0 0 4.33103 -1.76904" />
    <path d="M 4.75434 -0.93079 A 0.05 0.00869 84.52474 0 0 4.75911 -0.925 A 0.05 0.00869 84.52474 0 0 4.74957 -1.02454" />
    <path d="M 2.59773 -7.3662 A 0.125 0.02173 84.52474 0 0 2.60966 -7.35174 A 0.125 0.02173 84.52474 0 0 2.5858 -7.6006" />
    <path d="M 5.34013 -11.4357 L 4.33103 -13.81529" />
    <path d="M 3.53542 -15.69147 L -0.2925 -24.71826 L -12.05581 -23.59071 L -6.12672 -9.60906" />
    <path d="M 5.34013 -11.4357 A 2.5 1.18858 360 0 1 6.17603 -10.54869 A 2.5 1.18858 360 0 1 1.22534 -10.31378" />
    <path d="M -12.05581 -23.15083 L -12.05581 -23.59071" />
    <path d="M 4.75434 -7.57291 A 0.125 0.02173 264.52474 0 1 4.73928 -7.63121" />
    <path d="M 4.72974 -7.73075 A 0.125 0.02173 264.52474 0 1 4.74241 -7.80731 A 0.125 0.02173 264.52474 0 1 4.76626 -7.55845 A 0.125 0.02173 264.52474 0 1 4.75434 -7.57291" />
    <path d="M 4.85315 -7.33989 A 0.125 0.02173 264.52474 0 1 4.8381 -7.39818" />
    <path d="M 4.82855 -7.49773 A 0.125 0.02173 264.52474 0 1 4.84123 -7.57429 A 0.125 0.02173 264.52474 0 1 4.86508 -7.32543 A 0.125 0.02173 264.52474 0 1 4.85315 -7.33989" />
    <path d="M 4.01518 -7.091 A 0.125 0.1078 337.02004 0 0 4.00851 -7.11567 A 0.125 0.1078 337.02004 1 0 3.77835 -7.01806 A 0.125 0.1078 337.02004 0 0 3.79145 -6.99612" />
    <path d="M 3.52504 -7.04402 A 0.125 0.1078 337.02004 0 0 3.51838 -7.06868 A 0.125 0.1078 337.02004 1 0 3.28821 -6.97108 A 0.125 0.1078 337.02004 0 0 3.30131 -6.94914" />
    <path d="M 3.97249 -1.18845 A 0.655 0.56487 337.02004 0 0 3.36947 -0.35649" />
    <path d="M 4.57551 -0.86793 A 0.655 0.56487 337.02004 0 0 3.97249 -1.18845" />
    <path d="M 4.85315 -0.69776 A 0.05 0.00869 84.52474 0 0 4.85792 -0.69197 A 0.05 0.00869 84.52474 0 0 4.84838 -0.79152" />
    <path d="M 4.75434 -0.8648 A 0.125 0.02173 264.52474 0 1 4.73928 -0.9231" />
    <path d="M 4.72974 -1.02264 A 0.125 0.02173 264.52474 0 1 4.74241 -1.0992 A 0.125 0.02173 264.52474 0 1 4.76626 -0.85034 A 0.125 0.02173 264.52474 0 1 4.75434 -0.8648" />
    <path d="M 2.59773 -0.65809 A 0.125 0.02173 84.52474 0 0 2.60966 -0.64363 A 0.125 0.02173 84.52474 0 0 2.5858 -0.89248" />
    <path d="M 2.49891 -0.89111 A 0.125 0.02173 84.52474 0 0 2.50213 -0.88446" />
    <path d="M 2.51791 -0.88598 A 0.125 0.02173 84.52474 0 0 2.48698 -1.12551" />
    <path d="M 2.49891 -7.59922 A 0.125 0.02173 84.52474 0 0 2.50213 -7.59257" />
    <path d="M 2.51791 -7.59409 A 0.125 0.02173 84.52474 0 0 2.48698 -7.83362" />
    <path d="M 2.4997 -7.3568 A 0.125 0.02173 264.52474 0 1 2.48778 -7.5912 L 2.5858 -7.6006" />
    <path d="M 2.48778 -7.5912 A 0.125 0.02173 264.52474 0 1 2.51163 -7.34234 L 2.60966 -7.35174" />
    <path d="M 2.51163 -7.34234 A 0.125 0.02173 264.52474 0 1 2.4997 -7.3568" />
    <path d="M 4.33103 -10.54869 A 0.655 0.31141 360 1 1 3.02103 -10.54869" />
    <path d="M 4.85236 -7.58231 A 0.125 0.02173 84.52474 0 0 4.85558 -7.57566" />
    <path d="M 4.87136 -7.57717 A 0.125 0.02173 84.52474 0 0 4.84044 -7.81671 L 4.74241 -7.80731" />
    <path d="M 4.95118 -7.34928 A 0.125 0.02173 84.52474 0 0 4.96311 -7.33482 L 4.86508 -7.32543" />
    <path d="M 4.96311 -7.33482 A 0.125 0.02173 84.52474 0 0 4.93925 -7.58368 L 4.84123 -7.57429" />
    <path d="M 3.9132 -6.91029 A 0.125 0.1078 157.02004 0 1 3.79812 -6.97146 L 3.77835 -7.01806" />
    <path d="M 3.79812 -6.97146 A 0.125 0.1078 157.02004 0 1 4.02828 -7.06906 L 4.00851 -7.11567" />
    <path d="M 4.02828 -7.06906 A 0.125 0.1078 157.02004 0 1 3.9132 -6.91029" />
    <path d="M 3.42306 -6.86331 A 0.125 0.1078 157.02004 0 1 3.30798 -6.92448 L 3.28821 -6.97108" />
    <path d="M 3.30798 -6.92448 A 0.125 0.1078 157.02004 0 1 3.53814 -7.02208 L 3.51838 -7.06868" />
    <path d="M 3.53814 -7.02208 A 0.125 0.1078 157.02004 0 1 3.42306 -6.86331" />
    <path d="M 9.80275 12.56017 A 0.655 0.56487 157.02004 0 1 10.40577 12.88069 L 4.57551 -0.86793" />
    <path d="M 10.40577 12.88069 A 0.655 0.56487 157.02004 0 1 9.19973 13.39213 L 3.36947 -0.35649" />
    <path d="M 9.19973 13.39213 A 0.655 0.56487 157.02004 0 1 9.80275 12.56017" />
    <path d="M 4.85315 -0.63178 A 0.125 0.02173 264.52474 0 1 4.8381 -0.69007" />
    <path d="M 4.82855 -0.78962 A 0.125 0.02173 264.52474 0 1 4.84123 -0.86618 A 0.125 0.02173 264.52474 0 1 4.86508 -0.61732 A 0.125 0.02173 264.52474 0 1 4.85315 -0.63178" />
    <path d="M 4.85236 -0.8742 A 0.125 0.02173 84.52474 0 0 4.85558 -0.86755" />
    <path d="M 4.87136 -0.86906 A 0.125 0.02173 84.52474 0 0 4.84044 -1.1086 L 4.74241 -1.0992" />
    <path d="M 2.4997 -0.64869 A 0.125 0.02173 264.52474 0 1 2.48778 -0.88309 L 2.5858 -0.89248" />
    <path d="M 2.48778 -0.88309 A 0.125 0.02173 264.52474 0 1 2.51163 -0.63423 L 2.60966 -0.64363" />
    <path d="M 2.51163 -0.63423 A 0.125 0.02173 264.52474 0 1 2.4997 -0.64869" />
    <path d="M 2.40088 -0.88172 A 0.125 0.02173 264.52474 0 1 2.38896 -1.11612 L 2.48698 -1.12551" />
    <path d="M 2.38896 -1.11612 A 0.125 0.02173 264.52474 0 1 2.41281 -0.86726 L 2.48071 -0.87376" />
    <path d="M 2.41281 -0.86726 A 0.125 0.02173 264.52474 0 1 2.40088 -0.88172" />
    <path d="M 2.40088 -7.58983 A 0.125 0.02173 264.52474 0 1 2.38896 -7.82423 L 2.48698 -7.83362" />
    <path d="M 2.38896 -7.82423 A 0.125 0.02173 264.52474 0 1 2.41281 -7.57537 L 2.48071 -7.58187" />
    <path d="M 2.41281 -7.57537 A 0.125 0.02173 264.52474 0 1 2.40088 -7.58983" />
    <path d="M 3.54658 -15.69259 A 0.655 0.31141 360 0 1 4.33103 -15.38733 L 4.33103 -10.54869" />
    <path d="M 4.33103 -15.38733 A 0.655 0.31141 360 1 1 3.02103 -15.38733 L 3.02103 -10.54869" />
    <path d="M 3.02103 -15.38733 A 0.655 0.31141 360 0 1 3.54658 -15.69259" />
    <path d="M 4.95118 -0.64117 A 0.125 0.02173 84.52474 0 0 4.96311 -0.62671 L 4.86508 -0.61732" />
    <path d="M 4.96311 -0.62671 A 0.125 0.02173 84.52474 0 0 4.93925 -0.87557 L 4.84123 -0.86618" />
    <path d="M 3.1064 14.51911 A 0.805 0.69423 337.02004 0 0 3.2206 14.59641" />
    <path d="M 3.31555 14.63895 A 0.805 0.69423 337.02004 0 0 3.73245 14.67539" />
    <path d="M 3.83188 14.65372 A 0.805 0.69423 337.02004 0 0 4.24567 14.40991" />
    <path d="M 4.33034 14.30758 A 0.805 0.69423 337.02004 0 0 4.46515 13.89876" />
    <path d="M 4.1207 12.96104 A 0.805 0.69423 337.02004 0 0 2.63846 13.5896 L 2.93492 14.28868 A 0.805 0.69423 157.02004 1 1 4.41715 13.66013 A 0.805 0.69423 157.02004 0 1 4.46515 13.89876" />
    <path d="M 3.02172 14.43301 A 0.805 0.69423 157.02004 0 1 2.93492 14.28868" />
    <path d="M 3.33294 14.40318 L 3.02172 14.43301" />
    <path d="M 3.33294 14.49116 A 0.05 0.00869 84.52474 0 0 3.33771 14.49694 L 2.62233 14.56551" />
    <path d="M 3.33771 14.49694 A 0.05 0.00869 84.52474 0 0 3.33294 14.40318" />
    <path d="M 3.09981 14.5135 L 3.33294 14.49116" />
    <path d="M 4.01913 14.33741 L 4.33034 14.30758" />
    <path d="M 4.01913 14.42538 L 4.01913 14.33741 A 0.05 0.00869 264.52474 0 1 4.0239 14.43117 L 4.75911 14.36069 A 0.05 0.00869 84.52474 0 0 4.74957 14.26115" />
    <path d="M 4.25225 14.40304 L 4.02749 14.42458" />
    <path d="M 4.75434 14.35491 A 0.05 0.00869 84.52474 0 0 4.75911 14.36069" />
    <path d="M 4.0239 14.43117 A 0.05 0.00869 264.52474 0 1 4.01913 14.42538" />
    <path d="M 2.59773 14.62761 A 0.125 0.02173 84.52474 0 0 2.60966 14.64207 A 0.125 0.02173 84.52474 0 0 2.5858 14.39321" />
    <path d="M 4.75434 14.42089 A 0.125 0.02173 264.52474 0 1 4.73928 14.36259" />
    <path d="M 4.72974 14.26305 A 0.125 0.02173 264.52474 0 1 4.74241 14.18649 A 0.125 0.02173 264.52474 0 1 4.76626 14.43535 A 0.125 0.02173 264.52474 0 1 4.75434 14.42089" />
    <path d="M -2.45069 -1.04953 A 0.655 0.56487 337.02004 0 0 -3.05371 -0.21758 L 2.619 13.15949" />
    <path d="M -1.84767 -0.72901 A 0.655 0.56487 337.02004 0 0 -2.45069 -1.04953" />
    <path d="M 2.49891 14.39458 A 0.125 0.02173 84.52474 0 0 2.50213 14.40123" />
    <path d="M 2.51791 14.39972 A 0.125 0.02173 84.52474 0 0 2.48698 14.16018" />
    <path d="M 2.4997 14.63701 A 0.125 0.02173 264.52474 0 1 2.48778 14.40261 L 2.5858 14.39321" />
    <path d="M 2.48778 14.40261 A 0.125 0.02173 264.52474 0 1 2.51163 14.65147 L 2.60966 14.64207" />
    <path d="M 2.51163 14.65147 A 0.125 0.02173 264.52474 0 1 2.4997 14.63701" />
    <path d="M 4.85236 14.41149 A 0.125 0.02173 84.52474 0 0 4.85558 14.41814" />
    <path d="M 4.87136 14.41663 A 0.125 0.02173 84.52474 0 0 4.84044 14.1771 L 4.74241 14.18649" />
    <path d="M 2.40088 14.40398 A 0.125 0.02173 264.52474 0 1 2.38896 14.16958 L 2.48698 14.16018" />
    <path d="M 2.38896 14.16958 A 0.125 0.02173 264.52474 0 1 2.41281 14.41844 L 2.48071 14.41193" />
    <path d="M 2.41281 14.41844 A 0.125 0.02173 264.52474 0 1 2.40088 14.40398" />
    <path d="M 4.01518 14.90281 A 0.125 0.1078 337.02004 0 0 4.00851 14.87814 A 0.125 0.1078 337.02004 1 0 3.77835 14.97574 A 0.125 0.1078 337.02004 0 0 3.79145 14.99768" />
    <path d="M 3.9132 15.08352 A 0.125 0.1078 157.02004 0 1 3.79812 15.02235 L 3.77835 14.97574" />
    <path d="M 3.79812 15.02235 A 0.125 0.1078 157.02004 0 1 4.02828 14.92475 L 4.00851 14.87814" />
    <path d="M 4.02828 14.92475 A 0.125 0.1078 157.02004 0 1 3.9132 15.08352" />
    <path d="M 3.79124 14.55788 A 0.05 0.04312 337.02004 1 0 3.69917 14.59692 L 3.80883 14.8555" />
    <path d="M 3.52504 14.94979 A 0.125 0.1078 337.02004 0 0 3.51838 14.92512 A 0.125 0.1078 337.02004 1 0 3.28821 15.02272 A 0.125 0.1078 337.02004 0 0 3.30131 15.04466" />
    <path d="M 3.42306 15.1305 A 0.125 0.1078 157.02004 0 1 3.30798 15.06933 L 3.28821 15.02272" />
    <path d="M 3.30798 15.06933 A 0.125 0.1078 157.02004 0 1 3.53814 14.97173 L 3.51838 14.92512" />
    <path d="M 3.53814 14.97173 A 0.125 0.1078 157.02004 0 1 3.42306 15.1305" />
    <path d="M 3.3011 14.60486 A 0.05 0.04312 337.02004 1 0 3.20904 14.6439 L 3.31869 14.90248" />
    <path d="M 4.85315 14.65392 A 0.125 0.02173 264.52474 0 1 4.8381 14.59562" />
    <path d="M 4.82855 14.49608 A 0.125 0.02173 264.52474 0 1 4.84123 14.41952 A 0.125 0.02173 264.52474 0 1 4.86508 14.66838 A 0.125 0.02173 264.52474 0 1 4.85315 14.65392" />
    <path d="M 4.95118 14.64452 A 0.125 0.02173 84.52474 0 0 4.96311 14.65898 L 4.86508 14.66838" />
    <path d="M 4.96311 14.65898 A 0.125 0.02173 84.52474 0 0 4.93925 14.41012 L 4.84123 14.41952" />
    <path d="M 4.85315 14.58794 A 0.05 0.00869 84.52474 0 0 4.85792 14.59372 A 0.05 0.00869 84.52474 0 0 4.84838 14.49418" />
    <path d="M 4.11795 14.65841 A 0.05 0.00869 264.52474 0 1 4.11318 14.56465 L 4.84838 14.49418" />
    <path d="M 4.11318 14.56465 A 0.05 0.00869 264.52474 0 1 4.12272 14.66419 L 4.85792 14.59372" />
    <path d="M 4.12272 14.66419 A 0.05 0.00869 264.52474 0 1 4.11795 14.65841" />
    <path d="M 3.02103 -8.96175 L 3.02103 -8.44656" />
    <path d="M 3.02103 -7.46651 L 3.02103 -1.64348" />
    <path d="M 3.02103 -0.7584 L 3.02103 11.88499" />
    <path d="M 4.33103 -8.96175 L 4.33103 -7.45004" />
    <path d="M 4.33103 -7.34958 L 4.33103 -1.73845" />
    <path d="M 4.33103 1.91102 L 4.33103 11.88499" />
    <path d="M 4.33103 -8.53675 L 4.41715 -8.33368" />
    <path d="M 3.01709 -7.56659 L 2.61279 -7.52784" />
    <path d="M 3.03916 -7.46825 L 2.62233 -7.42829" />
    <path d="M 4.33103 -7.59208 L 4.75911 -7.63311" />
    <path d="M 4.33498 -7.69292 L 4.74957 -7.73266" />
    <path d="M 4.16469 -7.33363 L 4.85792 -7.40008" />
    <path d="M 4.21129 -7.43856 L 4.84838 -7.49963" />
    <path d="M 3.85118 -7.29456 L 3.90089 -7.17734" />
    <path d="M 3.32542 -7.3316 L 3.41075 -7.13036" />
    <path d="M 4.7136 -0.92649 L 4.41715 -1.62557" />
    <path d="M 3.23137 -0.29793 L 2.93492 -0.99701" />
    <path d="M 4.71595 -0.92086 L 4.75911 -0.925" />
    <path d="M 4.67505 -1.0174 L 4.74957 -1.02454" />
    <path d="M 2.99458 -0.85632 L 2.61279 -0.81973" />
    <path d="M 3.03551 -0.75979 L 2.62233 -0.72018" />
    <path d="M 2.90413 -1.09015 L 2.51397 -1.05275" />
    <path d="M 2.9367 -0.99282 L 2.52351 -0.95321" />
    <path d="M 2.89576 -7.79746 L 2.51397 -7.76087" />
    <path d="M 2.93671 -7.70093 L 2.52351 -7.66132" />
    <path d="M 6.17603 -10.54869 L 6.17603 -10.10881" />
    <path d="M 4.76159 -0.68274 L 4.85792 -0.69197" />
    <path d="M 4.75442 -0.78251 L 4.84838 -0.79152" />
    <path d="M 2.52608 -9.05344 L 2.619 -8.83432" />
    <path d="M 4.83416 -7.56496 L 4.76626 -7.55845" />
    <path d="M 4.83416 -0.85685 L 4.76626 -0.85034" />
    <path d="M 4.1207 12.96104 L 4.41715 13.66013" />
    <path d="M 3.01709 14.42721 L 2.61279 14.46597" />
    <path d="M 4.33498 14.30089 L 4.74957 14.26115" />
    <path d="M 2.89576 14.19634 L 2.51397 14.23294" />
    <path d="M 2.93671 14.29288 L 2.52351 14.33248" />
    <path d="M -1.84767 -0.72901 L 3.02103 10.75209" />
    <path d="M 3.63323 12.19574 L 3.82504 12.64805" />
    <path d="M 4.83416 14.42884 L 4.76626 14.43535" />
    <path d="M 3.79124 14.55788 L 3.90089 14.81646" />
    <path d="M 3.3011 14.60486 L 3.41075 14.86344" />
</svg>