<svg version="1.1" xmlns="http://www.w3.org/2000/svg" viewBox="-13.237608790662915 -23.633295325906047 24.76200632571182 39.04691671677034" fill="none" stroke="black" stroke-width="0.6%" vector-effect="non-scaling-stroke">
    <path d="M 3.97716 -13.01929 L 4.03988 -13.02232 L 4.10215 -13.02049 L 4.1635 -13.01381 L 4.22351 -13.00233 L 4.28173 -12.98613 L 4.33773 -12.96533 L 4.39112 -12.94009 L 4.44151 -12.91057 L 4.48853 -12.877 L 4.53183 -12.83963 L 4.57111 -12.79872 L 4.60608 -12.75456 L 4.63648 -12.70749 L 4.6621 -12.65784" />
    <path d="M 9.79016 -0.26516 A 0.75 0.65303 155.49774 0 1 10.47262 0.09084 A 0.75 0.65303 155.49774 0 1 9.1077 0.71294 A 0.75 0.65303 155.49774 0 1 9.79016 -0.26516 Z" />
    <path d="M 3.29222 -12.04664 L 3.26114 -12.13233 L 3.2439 -12.22228 L 3.24084 -12.31474 L 3.25203 -12.40793 L 3.27724 -12.50004 L 3.31599 -12.58929 L 3.36752 -12.67395 L 3.43085 -12.7524 L 3.50474 -12.8231 L 3.58777 -12.8847 L 3.67833 -12.936 L 3.77467 -12.97601 L 3.87493 -13.00395 L 3.97716 -13.01929" />
    <path d="M 3.06238 -12.2727 A 0.905 0.79073 157.40895 0 1 4.787 -12.69766 A 0.905 0.79073 157.40895 0 1 4.82828 -12.29324" />
    <path d="M 3.48469 -11.62436 A 0.905 0.79073 157.40895 0 1 3.11588 -12.00235 A 0.905 0.79073 157.40895 0 1 3.06238 -12.2727" />
    <path d="M 2.96896 -12.49724 A 0.905 0.79073 157.40895 0 1 4.69358 -12.9222" />
    <path d="M 3.02246 -12.22688 A 0.905 0.79073 157.40895 0 1 2.96896 -12.49724" />
    <path d="M 2.87563 -11.59973 L 2.87563 -13.37853 L 4.84041 -13.54936 L 4.57617 -14.18443" />
    <path d="M 2.87563 -11.59973 L 3.43742 -11.64857" />
    <path d="M 4.84041 -12.26664 L 4.84041 -12.41534" />
    <path d="M 4.84041 -12.43925 L 4.84041 -13.54936" />
    <path d="M 2.50193 -12.49788 L 2.50193 -14.27668 L 2.87563 -13.37853" />
    <path d="M 2.50193 -12.49788 L 2.87563 -11.59973" />
    <path d="M 2.68878 -13.27173 A 0.125 0.02077 85.0309 0 0 2.69961 -13.25837 A 0.125 0.02077 85.0309 0 0 2.67795 -13.50743" />
    <path d="M 2.68878 -12.38233 A 0.125 0.02077 85.0309 0 0 2.69961 -12.36897 A 0.125 0.02077 85.0309 0 0 2.67795 -12.61803" />
    <path d="M 2.76617 -14.29966 L 2.50193 -14.27668" />
    <path d="M 4.57617 -13.91302 A 0.905 0.4137 0 0 1 2.76617 -13.91302" />
    <path d="M 2.59054 -13.26319 A 0.125 0.02077 265.0309 0 1 2.57971 -13.49889 A 0.125 0.02077 265.0309 1 1 2.60137 -13.24983 A 0.125 0.02077 265.0309 0 1 2.59054 -13.26319 Z" />
    <path d="M 2.59054 -12.37379 A 0.125 0.02077 265.0309 0 1 2.57971 -12.60949 A 0.125 0.02077 265.0309 1 1 2.60137 -12.36043 A 0.125 0.02077 265.0309 0 1 2.59054 -12.37379 Z" />
    <path d="M 2.76617 -11.68951 A 0.905 0.4137 180 0 0 3.64346 -11.27601" />
    <path d="M 4.56023 -14.43502 A 0.905 0.4137 0 0 1 4.57617 -14.35772 A 0.905 0.4137 0 0 1 2.76617 -14.35772 A 0.905 0.4137 0 0 1 4.56023 -14.43502 Z" />
    <path d="M 4.42117 -9.02131 A 0.75 0.34285 0 0 1 2.92117 -9.02131" />
    <path d="M 3.13068 -14.68954 L -0.48987 -22.63329 L -12.23761 -21.51443 L -6.11861 -8.08892 L 1.22372 -8.78821" />
    <path d="M 5.09869 -8.08312 A 2.5 1.14282 0 0 1 1.22372 -8.78821" />
    <path d="M 1.22372 -8.34351 L 1.22372 -8.78821" />
    <path d="M 1.22372 -8.34351 A 2.5 1.14282 180 0 0 5.27357 -7.69942" />
    <path d="M -12.23761 -21.06973 L -12.23761 -21.51443" />
    <path d="M -6.11861 -7.64422 L -6.11861 -8.08892" />
    <path d="M -6.11861 -7.64422 L 1.22372 -8.34351" />
    <path d="M -12.23761 -21.06973 L -6.11861 -7.64422" />
    <path d="M 4.18664 -7.45835 A 0.905 0.4137 0 0 1 3.15569 -7.45835" />
    <path d="M 2.78211 -7.27638 A 0.905 0.4137 0 0 1 2.76617 -7.35368" />
    <path d="M 4.57617 -7.35368 A 0.905 0.4137 0 0 1 2.78211 -7.27638" />
    <path d="M 4.84041 -6.99002 L 4.62017 -7.51933" />
    <path d="M 2.57143 -7.5503 L 2.87563 -6.81919 L 4.84041 -6.99002" />
    <path d="M 2.50193 -5.93854 L 2.50193 -7.56649" />
    <path d="M 4.84041 -5.21122 L 4.84041 -6.99002" />
    <path d="M 2.50193 -5.93854 L 2.87563 -5.04039 L 4.84041 -5.21122" />
    <path d="M 2.87563 -5.04039 L 2.87563 -6.81919" />
    <path d="M 2.68878 -6.71239 A 0.125 0.02077 85.0309 0 0 2.69961 -6.69904 A 0.125 0.02077 85.0309 0 0 2.67795 -6.9481" />
    <path d="M 2.68878 -5.82299 A 0.125 0.02077 85.0309 0 0 2.69961 -5.80964 A 0.125 0.02077 85.0309 0 0 2.67795 -6.0587" />
    <path d="M 3.97343 -6.50792 A 0.125 0.10922 337.40895 0 0 3.74261 -6.41189" />
    <path d="M 3.97343 -5.61852 A 0.125 0.10922 337.40895 0 0 3.74261 -5.52248" />
    <path d="M 2.50193 -7.07256 A 0.905 0.79073 337.40895 0 0 2.50193 -7.04865" />
    <path d="M 2.59054 -6.70385 A 0.125 0.02077 265.0309 0 1 2.57971 -6.93956 L 2.67795 -6.9481" />
    <path d="M 2.57971 -6.93956 A 0.125 0.02077 265.0309 1 1 2.60137 -6.6905 L 2.69961 -6.69904" />
    <path d="M 2.60137 -6.6905 A 0.125 0.02077 265.0309 0 1 2.59054 -6.70385" />
    <path d="M 2.59054 -5.81445 A 0.125 0.02077 265.0309 0 1 2.57971 -6.05015 L 2.67795 -6.0587" />
    <path d="M 2.57971 -6.05015 A 0.125 0.02077 265.0309 1 1 2.60137 -5.80109 L 2.69961 -5.80964" />
    <path d="M 2.60137 -5.80109 A 0.125 0.02077 265.0309 0 1 2.59054 -5.81445" />
    <path d="M 3.8767 -6.30382 A 0.125 0.10922 157.40895 0 1 3.76129 -6.36698 L 3.74261 -6.41189" />
    <path d="M 3.76129 -6.36698 A 0.125 0.10922 157.40895 0 1 3.99211 -6.46302 L 3.97343 -6.50792" />
    <path d="M 3.99211 -6.46302 A 0.125 0.10922 157.40895 0 1 3.8767 -6.30382" />
    <path d="M 3.8767 -5.41442 A 0.125 0.10922 157.40895 0 1 3.76129 -5.47758 L 3.74261 -5.52248" />
    <path d="M 3.76129 -5.47758 A 0.125 0.10922 157.40895 0 1 3.99211 -5.57362 L 3.97343 -5.61852" />
    <path d="M 3.99211 -5.57362 A 0.125 0.10922 157.40895 0 1 3.8767 -5.41442" />
    <path d="M 2.78211 -5.05288 A 0.905 0.4137 180 0 0 4.57617 -5.13018" />
    <path d="M 2.76617 -5.13018 A 0.905 0.4137 180 0 0 2.78211 -5.05288" />
    <path d="M 4.42117 -1.0167 A 0.75 0.34285 0 0 1 2.92117 -1.0167" />
    <path d="M 4.56023 -1.094 A 0.905 0.4137 0 0 1 4.57617 -1.0167 L 4.57617 -0.57199 A 0.905 0.4137 0 0 1 2.76617 -0.57199" />
    <path d="M 4.57617 -1.0167 A 0.905 0.4137 0 0 1 2.76617 -1.0167 L 2.76617 -0.57199" />
    <path d="M 2.76617 -1.0167 A 0.905 0.4137 0 0 1 2.92117 -1.24822" />
    <path d="M 4.42117 -1.24822 A 0.905 0.4137 0 0 1 4.56023 -1.094" />
    <path d="M 2.87563 -0.0375 L 4.84041 -0.20833 L 4.57617 -0.8434" />
    <path d="M 2.50193 -0.93566 L 2.87563 -0.0375" />
    <path d="M 2.76617 -0.95863 L 2.50193 -0.93566" />
    <path d="M 2.87563 1.7413 L 2.87563 -0.0375" />
    <path d="M 2.87563 1.7413 L 3.43742 1.69245" />
    <path d="M 4.84041 1.07439 L 4.84041 0.92568" />
    <path d="M 4.84041 0.90177 L 4.84041 -0.20833" />
    <path d="M 2.96896 0.84378 A 0.905 0.79073 157.40895 0 1 4.69358 0.41883" />
    <path d="M 3.02246 1.11414 A 0.905 0.79073 157.40895 0 1 2.96896 0.84378" />
    <path d="M 2.50193 0.84315 L 2.50193 -0.93566" />
    <path d="M 2.50193 0.84315 L 2.87563 1.7413" />
    <path d="M 2.68878 0.0693 A 0.125 0.02077 85.0309 0 0 2.69961 0.08265 A 0.125 0.02077 85.0309 0 0 2.67795 -0.16641" />
    <path d="M 2.68878 0.9587 A 0.125 0.02077 85.0309 0 0 2.69961 0.97205 A 0.125 0.02077 85.0309 0 0 2.67795 0.72299" />
    <path d="M 3.06238 1.06832 A 0.905 0.79073 157.40895 0 1 4.787 0.64336 L 4.69358 0.41883" />
    <path d="M 4.787 0.64336 A 0.905 0.79073 157.40895 0 1 4.82828 1.04779" />
    <path d="M 3.48469 1.71666 A 0.905 0.79073 157.40895 0 1 3.11588 1.33868 L 3.02246 1.11414" />
    <path d="M 3.11588 1.33868 A 0.905 0.79073 157.40895 0 1 3.06238 1.06832" />
    <path d="M 2.59054 0.07784 A 0.125 0.02077 265.0309 0 1 2.57971 -0.15787 L 2.67795 -0.16641" />
    <path d="M 2.57971 -0.15787 A 0.125 0.02077 265.0309 1 1 2.60137 0.09119 L 2.69961 0.08265" />
    <path d="M 2.60137 0.09119 A 0.125 0.02077 265.0309 0 1 2.59054 0.07784" />
    <path d="M 2.59054 0.96724 A 0.125 0.02077 265.0309 0 1 2.57971 0.73153 L 2.67795 0.72299" />
    <path d="M 2.57971 0.73153 A 0.125 0.02077 265.0309 1 1 2.60137 0.98059 L 2.69961 0.97205" />
    <path d="M 2.60137 0.98059 A 0.125 0.02077 265.0309 0 1 2.59054 0.96724" />
    <path d="M 2.76617 1.65151 A 0.905 0.4137 180 0 0 3.64346 2.06501" />
    <path d="M 3.97716 0.32173 L 4.03988 0.3187 L 4.10215 0.32053 L 4.1635 0.32721 L 4.22351 0.33869 L 4.28173 0.35489 L 4.33773 0.37569 L 4.39112 0.40094 L 4.44151 0.43045 L 4.48853 0.46402 L 4.53183 0.5014 L 4.57111 0.54231 L 4.60608 0.58646 L 4.63648 0.63353 L 4.6621 0.68318" />
    <path d="M 3.29222 1.29439 L 3.26114 1.20869 L 3.2439 1.11874 L 3.24084 1.02628 L 3.25203 0.9331 L 3.27724 0.84099 L 3.31599 0.75174 L 3.36752 0.66707 L 3.43085 0.58863 L 3.50474 0.51792 L 3.58777 0.45632 L 3.67833 0.40503 L 3.77467 0.36502 L 3.87493 0.33707 L 3.97716 0.32173" />
    <path d="M 9.79016 13.07586 A 0.75 0.65303 155.49774 0 1 10.47262 13.43187 L 4.6621 0.68318" />
    <path d="M 10.47262 13.43187 A 0.75 0.65303 155.49774 0 1 9.1077 14.05396 L 3.29222 1.29439" />
    <path d="M 9.1077 14.05396 A 0.75 0.65303 155.49774 0 1 9.79016 13.07586" />
    <path d="M 2.92117 13.65843 A 0.75 0.34285 180 0 0 4.42117 13.65843" />
    <path d="M 10.47262 0.09084 L 4.6621 -12.65784" />
    <path d="M 9.1077 0.71294 L 3.29222 -12.04664" />
    <path d="M 4.787 -12.69766 L 4.69358 -12.9222" />
    <path d="M 3.11588 -12.00235 L 3.02246 -12.22688" />
    <path d="M 2.60137 -13.24983 L 2.69961 -13.25837" />
    <path d="M 2.57971 -13.49889 L 2.67795 -13.50743" />
    <path d="M 2.60137 -12.36043 L 2.69961 -12.36897" />
    <path d="M 2.57971 -12.60949 L 2.67795 -12.61803" />
    <path d="M 2.76617 -11.86281 L 2.76617 -11.68951" />
    <path d="M 2.76617 -14.35772 L 2.76617 -13.91302" />
    <path d="M 4.57617 -14.35772 L 4.57617 -13.91302" />
    <path d="M 2.92117 -11.45799 L 2.92117 -9.02131" />
    <path d="M 4.42117 -9.56966 L 4.42117 -9.02131" />
    <path d="M 2.76617 -7.5113 L 2.76617 -7.35368" />
    <path d="M 4.57617 -7.5113 L 4.57617 -7.35368" />
    <path d="M 2.76617 -5.30347 L 2.76617 -5.13018" />
    <path d="M 4.57617 -5.18824 L 4.57617 -5.13018" />
    <path d="M 2.32281 -7.61426 L 2.50193 -7.22126" />
    <path d="M 2.92117 -4.89865 L 2.92117 -1.0167" />
    <path d="M 4.42117 -4.89865 L 4.42117 -1.0167" />
    <path d="M 2.76617 1.47822 L 2.76617 1.65151" />
    <path d="M 2.92117 1.88304 L 2.92117 13.65843" />
    <path d="M 4.42117 3.77137 L 4.42117 13.65843" />
</svg>